M48
; DRILL file {KiCad 8.0.8} date 2025-03-01T14:31:12-0500
; FORMAT={-:-/ absolute / metric / decimal}
; #@! TF.CreationDate,2025-03-01T14:31:12-05:00
; #@! TF.GenerationSoftware,Kicad,Pcbnew,8.0.8
; #@! TF.FileFunction,Plated,1,2,PTH
FMAT,2
METRIC
; #@! TA.AperFunction,Plated,PTH,ViaDrill
T1C0.300
; #@! TA.AperFunction,Plated,PTH,ComponentDrill
T2C0.762
; #@! TA.AperFunction,Plated,PTH,ComponentDrill
T3C0.864
; #@! TA.AperFunction,Plated,PTH,ComponentDrill
T4C1.000
; #@! TA.AperFunction,Plated,PTH,ComponentDrill
T5C1.016
; #@! TA.AperFunction,Plated,PTH,ComponentDrill
T6C1.100
; #@! TA.AperFunction,Plated,PTH,ComponentDrill
T7C1.200
; #@! TA.AperFunction,Plated,PTH,ComponentDrill
T8C1.850
; #@! TA.AperFunction,Plated,PTH,ComponentDrill
T9C6.100
%
G90
G05
T1
X76.0Y-74.0
X81.026Y-77.978
X112.776Y-69.596
X175.0Y-46.25
T2
X82.305Y-86.361
X84.845Y-86.361
X92.465Y-86.361
X97.545Y-86.361
T3
X165.69Y-35.44
X165.69Y-37.98
X165.69Y-40.52
X165.69Y-43.06
X173.31Y-35.44
X173.31Y-37.98
X173.31Y-40.52
X173.31Y-43.06
T4
X137.232Y-100.31
X137.232Y-102.85
X139.772Y-100.31
X139.772Y-102.85
X142.312Y-100.31
X142.312Y-102.85
X144.852Y-100.31
X144.852Y-102.85
T5
X74.676Y-100.076
X74.676Y-105.156
X74.676Y-107.696
X74.676Y-110.236
X74.676Y-115.316
X74.676Y-117.856
X74.676Y-120.396
X74.676Y-122.936
X74.676Y-125.476
X74.676Y-130.556
X74.676Y-133.096
X74.676Y-135.636
X74.676Y-138.176
X74.676Y-140.716
X74.676Y-145.796
X77.216Y-100.076
X77.216Y-145.796
X79.756Y-100.076
X79.756Y-145.796
X84.836Y-100.076
X84.836Y-102.616
X84.836Y-143.256
X84.836Y-145.796
X87.376Y-100.076
X87.376Y-102.616
X87.376Y-143.256
X87.376Y-145.796
X89.916Y-100.076
X89.916Y-102.616
X89.916Y-143.256
X89.916Y-145.796
X92.456Y-100.076
X92.456Y-102.616
X92.456Y-143.256
X92.456Y-145.796
X94.996Y-100.076
X94.996Y-102.616
X94.996Y-143.256
X94.996Y-145.796
X97.536Y-100.076
X97.536Y-102.616
X97.536Y-143.256
X97.536Y-145.796
X100.076Y-100.076
X100.076Y-102.616
X100.076Y-143.256
X100.076Y-145.796
X102.616Y-100.076
X102.616Y-102.616
X102.616Y-143.256
X102.616Y-145.796
X105.156Y-100.076
X105.156Y-102.616
X105.156Y-143.256
X105.156Y-145.796
X107.696Y-100.076
X107.696Y-102.616
X107.696Y-143.256
X107.696Y-145.796
X148.336Y-100.076
X148.336Y-102.616
X148.336Y-143.256
X148.336Y-145.796
X150.876Y-100.076
X150.876Y-102.616
X150.876Y-143.256
X150.876Y-145.796
X153.416Y-100.076
X153.416Y-102.616
X153.416Y-143.256
X153.416Y-145.796
X155.956Y-100.076
X155.956Y-102.616
X155.956Y-143.256
X155.956Y-145.796
X158.496Y-100.076
X158.496Y-102.616
X158.496Y-143.256
X158.496Y-145.796
X161.036Y-100.076
X161.036Y-102.616
X161.036Y-143.256
X161.036Y-145.796
X163.576Y-100.076
X163.576Y-102.616
X163.576Y-143.256
X163.576Y-145.796
X166.116Y-100.076
X166.116Y-102.616
X166.116Y-143.256
X166.116Y-145.796
X168.656Y-100.076
X168.656Y-102.616
X168.656Y-143.256
X168.656Y-145.796
X171.196Y-100.076
X171.196Y-102.616
X171.196Y-143.256
X171.196Y-145.796
T6
X84.89Y-143.21
X84.89Y-145.75
X87.43Y-143.21
X87.43Y-145.75
X89.97Y-143.21
X89.97Y-145.75
X92.51Y-143.21
X92.51Y-145.75
X95.05Y-143.21
X95.05Y-145.75
X97.59Y-143.21
X97.59Y-145.75
X100.13Y-143.21
X100.13Y-145.75
X102.67Y-143.21
X102.67Y-145.75
X105.21Y-143.21
X105.21Y-145.75
X107.75Y-143.21
X107.75Y-145.75
X113.607Y-67.426
X116.147Y-67.426
X118.687Y-67.426
X150.93Y-143.25
X150.93Y-145.79
X153.47Y-143.25
X153.47Y-145.79
X156.01Y-143.25
X156.01Y-145.79
X158.55Y-143.25
X158.55Y-145.79
X161.09Y-143.25
X161.09Y-145.79
X163.63Y-143.25
X163.63Y-145.79
X166.17Y-143.25
X166.17Y-145.79
X168.71Y-143.25
X168.71Y-145.79
X171.25Y-143.25
X171.25Y-145.79
X173.79Y-143.25
X173.79Y-145.79
T7
X116.013Y-83.936
X123.513Y-83.936
T8
X126.54Y-45.75
X155.395Y-73.75
X155.75Y-45.75
X184.605Y-73.75
T9
X79.502Y-51.816
X79.756Y-33.136
X115.549Y-33.136
X184.25Y-48.25
X196.665Y-34.256
M30
