%TF.GenerationSoftware,KiCad,Pcbnew,8.0.8*%
%TF.CreationDate,2025-03-01T14:31:09-05:00*%
%TF.ProjectId,MyFirstBuck,4d794669-7273-4744-9275-636b2e6b6963,rev?*%
%TF.SameCoordinates,Original*%
%TF.FileFunction,Soldermask,Bot*%
%TF.FilePolarity,Negative*%
%FSLAX46Y46*%
G04 Gerber Fmt 4.6, Leading zero omitted, Abs format (unit mm)*
G04 Created by KiCad (PCBNEW 8.0.8) date 2025-03-01 14:31:09*
%MOMM*%
%LPD*%
G01*
G04 APERTURE LIST*
G04 Aperture macros list*
%AMRoundRect*
0 Rectangle with rounded corners*
0 $1 Rounding radius*
0 $2 $3 $4 $5 $6 $7 $8 $9 X,Y pos of 4 corners*
0 Add a 4 corners polygon primitive as box body*
4,1,4,$2,$3,$4,$5,$6,$7,$8,$9,$2,$3,0*
0 Add four circle primitives for the rounded corners*
1,1,$1+$1,$2,$3*
1,1,$1+$1,$4,$5*
1,1,$1+$1,$6,$7*
1,1,$1+$1,$8,$9*
0 Add four rect primitives between the rounded corners*
20,1,$1+$1,$2,$3,$4,$5,0*
20,1,$1+$1,$4,$5,$6,$7,0*
20,1,$1+$1,$6,$7,$8,$9,0*
20,1,$1+$1,$8,$9,$2,$3,0*%
G04 Aperture macros list end*
%ADD10C,2.200000*%
%ADD11C,1.854000*%
%ADD12R,1.371600X1.371600*%
%ADD13C,1.371600*%
%ADD14R,1.270000X1.270000*%
%ADD15C,1.270000*%
%ADD16C,3.004000*%
%ADD17C,10.160000*%
%ADD18R,1.905000X2.000000*%
%ADD19O,1.905000X2.000000*%
%ADD20C,3.175000*%
%ADD21RoundRect,0.102000X0.939800X0.939800X-0.939800X0.939800X-0.939800X-0.939800X0.939800X-0.939800X0*%
%ADD22C,2.083600*%
%ADD23RoundRect,0.102000X0.762000X0.762000X-0.762000X0.762000X-0.762000X-0.762000X0.762000X-0.762000X0*%
%ADD24C,1.728000*%
%ADD25RoundRect,0.102000X0.750000X0.750000X-0.750000X0.750000X-0.750000X-0.750000X0.750000X-0.750000X0*%
%ADD26C,1.704000*%
%ADD27R,2.400000X2.400000*%
%ADD28C,2.400000*%
G04 APERTURE END LIST*
D10*
%TO.C,REF\u002A\u002A*%
X70750000Y-154000000D03*
%TD*%
%TO.C,REF\u002A\u002A*%
X205250000Y-154000000D03*
%TD*%
%TO.C,REF\u002A\u002A*%
X205250000Y-24000000D03*
%TD*%
%TO.C,REF\u002A\u002A*%
X70750000Y-24000000D03*
%TD*%
D11*
%TO.C,REF\u002A\u002A*%
X84890000Y-145750000D03*
X84890000Y-143210000D03*
X87430000Y-145750000D03*
X87430000Y-143210000D03*
X89970000Y-145750000D03*
X89970000Y-143210000D03*
X92510000Y-145750000D03*
X92510000Y-143210000D03*
X95050000Y-145750000D03*
X95050000Y-143210000D03*
X97590000Y-145750000D03*
X97590000Y-143210000D03*
X100130000Y-145750000D03*
X100130000Y-143210000D03*
X102670000Y-145750000D03*
X102670000Y-143210000D03*
X105210000Y-145750000D03*
X105210000Y-143210000D03*
X107750000Y-145750000D03*
X107750000Y-143210000D03*
%TD*%
%TO.C,REF\u002A\u002A*%
X150930000Y-145790000D03*
X150930000Y-143250000D03*
X153470000Y-145790000D03*
X153470000Y-143250000D03*
X156010000Y-145790000D03*
X156010000Y-143250000D03*
X158550000Y-145790000D03*
X158550000Y-143250000D03*
X161090000Y-145790000D03*
X161090000Y-143250000D03*
X163630000Y-145790000D03*
X163630000Y-143250000D03*
X166170000Y-145790000D03*
X166170000Y-143250000D03*
X168710000Y-145790000D03*
X168710000Y-143250000D03*
X171250000Y-145790000D03*
X171250000Y-143250000D03*
X173790000Y-145790000D03*
X173790000Y-143250000D03*
%TD*%
D12*
%TO.C,U5*%
X173310000Y-43060000D03*
D13*
X173310000Y-40520000D03*
X173310000Y-37980000D03*
X173310000Y-35440000D03*
X165690000Y-35440000D03*
X165690000Y-37980000D03*
X165690000Y-40520000D03*
X165690000Y-43060000D03*
%TD*%
D14*
%TO.C,U4*%
X82305000Y-86361000D03*
D15*
X84845000Y-86361000D03*
X92465000Y-86361000D03*
X97545000Y-86361000D03*
%TD*%
D16*
%TO.C,L2*%
X155395000Y-73750000D03*
X184605000Y-73750000D03*
%TD*%
%TO.C,L1*%
X155750000Y-45750000D03*
X126540000Y-45750000D03*
%TD*%
D17*
%TO.C,J1*%
X79756000Y-33136000D03*
%TD*%
%TO.C,J2*%
X184250000Y-48250000D03*
%TD*%
%TO.C,J3*%
X196665000Y-34256000D03*
%TD*%
%TO.C,J5*%
X115549000Y-33136000D03*
%TD*%
%TO.C,J4*%
X79502000Y-51816000D03*
%TD*%
D18*
%TO.C,Q1*%
X113607000Y-67426000D03*
D19*
X116147000Y-67426000D03*
X118687000Y-67426000D03*
%TD*%
D20*
%TO.C,U2*%
X200406000Y-149606000D03*
X200406000Y-96266000D03*
X75946000Y-149606000D03*
X75946000Y-96266000D03*
D21*
X171196000Y-100076000D03*
D22*
X168656000Y-100076000D03*
X166116000Y-100076000D03*
X163576000Y-100076000D03*
X161036000Y-100076000D03*
X158496000Y-100076000D03*
X155956000Y-100076000D03*
X153416000Y-100076000D03*
X150876000Y-100076000D03*
X148336000Y-100076000D03*
D21*
X148336000Y-145796000D03*
D22*
X150876000Y-145796000D03*
X153416000Y-145796000D03*
X155956000Y-145796000D03*
X158496000Y-145796000D03*
X161036000Y-145796000D03*
X163576000Y-145796000D03*
X166116000Y-145796000D03*
X168656000Y-145796000D03*
X171196000Y-145796000D03*
D21*
X171196000Y-102616000D03*
D22*
X168656000Y-102616000D03*
X166116000Y-102616000D03*
X163576000Y-102616000D03*
X161036000Y-102616000D03*
X158496000Y-102616000D03*
X155956000Y-102616000D03*
X153416000Y-102616000D03*
X150876000Y-102616000D03*
X148336000Y-102616000D03*
D21*
X148336000Y-143256000D03*
D22*
X150876000Y-143256000D03*
X153416000Y-143256000D03*
X155956000Y-143256000D03*
X158496000Y-143256000D03*
X161036000Y-143256000D03*
X163576000Y-143256000D03*
X166116000Y-143256000D03*
X168656000Y-143256000D03*
X171196000Y-143256000D03*
D21*
X107696000Y-100076000D03*
D22*
X105156000Y-100076000D03*
X102616000Y-100076000D03*
X100076000Y-100076000D03*
X97536000Y-100076000D03*
X94996000Y-100076000D03*
X92456000Y-100076000D03*
X89916000Y-100076000D03*
X87376000Y-100076000D03*
X84836000Y-100076000D03*
D21*
X84836000Y-145796000D03*
D22*
X87376000Y-145796000D03*
X89916000Y-145796000D03*
X92456000Y-145796000D03*
X94996000Y-145796000D03*
X97536000Y-145796000D03*
X100076000Y-145796000D03*
X102616000Y-145796000D03*
X105156000Y-145796000D03*
X107696000Y-145796000D03*
D21*
X107696000Y-102616000D03*
D22*
X105156000Y-102616000D03*
X102616000Y-102616000D03*
X100076000Y-102616000D03*
X97536000Y-102616000D03*
X94996000Y-102616000D03*
X92456000Y-102616000D03*
X89916000Y-102616000D03*
X87376000Y-102616000D03*
X84836000Y-102616000D03*
D21*
X84836000Y-143256000D03*
D22*
X87376000Y-143256000D03*
X89916000Y-143256000D03*
X92456000Y-143256000D03*
X94996000Y-143256000D03*
X97536000Y-143256000D03*
X100076000Y-143256000D03*
X102616000Y-143256000D03*
X105156000Y-143256000D03*
X107696000Y-143256000D03*
D23*
X74676000Y-145796000D03*
D24*
X77216000Y-145796000D03*
X79756000Y-145796000D03*
D23*
X74676000Y-110236000D03*
D24*
X74676000Y-107696000D03*
X74676000Y-105156000D03*
D23*
X74676000Y-140716000D03*
D24*
X74676000Y-138176000D03*
X74676000Y-135636000D03*
X74676000Y-133096000D03*
X74676000Y-130556000D03*
D23*
X74676000Y-125476000D03*
D24*
X74676000Y-122936000D03*
X74676000Y-120396000D03*
X74676000Y-117856000D03*
X74676000Y-115316000D03*
D23*
X74676000Y-100076000D03*
D24*
X77216000Y-100076000D03*
X79756000Y-100076000D03*
D25*
X144852000Y-102850000D03*
D26*
X144852000Y-100310000D03*
X142312000Y-102850000D03*
X142312000Y-100310000D03*
X139772000Y-102850000D03*
X139772000Y-100310000D03*
X137232000Y-102850000D03*
X137232000Y-100310000D03*
%TD*%
D27*
%TO.C,C3*%
X116013000Y-83936000D03*
D28*
X123513000Y-83936000D03*
%TD*%
M02*
