%TF.GenerationSoftware,KiCad,Pcbnew,8.0.8*%
%TF.CreationDate,2025-03-01T14:31:09-05:00*%
%TF.ProjectId,MyFirstBuck,4d794669-7273-4744-9275-636b2e6b6963,rev?*%
%TF.SameCoordinates,Original*%
%TF.FileFunction,Paste,Top*%
%TF.FilePolarity,Positive*%
%FSLAX46Y46*%
G04 Gerber Fmt 4.6, Leading zero omitted, Abs format (unit mm)*
G04 Created by KiCad (PCBNEW 8.0.8) date 2025-03-01 14:31:09*
%MOMM*%
%LPD*%
G01*
G04 APERTURE LIST*
G04 Aperture macros list*
%AMRoundRect*
0 Rectangle with rounded corners*
0 $1 Rounding radius*
0 $2 $3 $4 $5 $6 $7 $8 $9 X,Y pos of 4 corners*
0 Add a 4 corners polygon primitive as box body*
4,1,4,$2,$3,$4,$5,$6,$7,$8,$9,$2,$3,0*
0 Add four circle primitives for the rounded corners*
1,1,$1+$1,$2,$3*
1,1,$1+$1,$4,$5*
1,1,$1+$1,$6,$7*
1,1,$1+$1,$8,$9*
0 Add four rect primitives between the rounded corners*
20,1,$1+$1,$2,$3,$4,$5,0*
20,1,$1+$1,$4,$5,$6,$7,0*
20,1,$1+$1,$6,$7,$8,$9,0*
20,1,$1+$1,$8,$9,$2,$3,0*%
G04 Aperture macros list end*
%ADD10R,1.701800X0.558800*%
%ADD11RoundRect,0.250000X-0.250000X-0.475000X0.250000X-0.475000X0.250000X0.475000X-0.250000X0.475000X0*%
%ADD12RoundRect,0.250000X-0.262500X-0.450000X0.262500X-0.450000X0.262500X0.450000X-0.262500X0.450000X0*%
%ADD13RoundRect,0.250000X0.350000X0.450000X-0.350000X0.450000X-0.350000X-0.450000X0.350000X-0.450000X0*%
%ADD14RoundRect,0.250000X-0.375000X-0.625000X0.375000X-0.625000X0.375000X0.625000X-0.375000X0.625000X0*%
%ADD15RoundRect,0.250000X0.412500X0.650000X-0.412500X0.650000X-0.412500X-0.650000X0.412500X-0.650000X0*%
%ADD16RoundRect,0.250000X-0.350000X-0.450000X0.350000X-0.450000X0.350000X0.450000X-0.350000X0.450000X0*%
%ADD17RoundRect,0.250000X0.450000X-0.350000X0.450000X0.350000X-0.450000X0.350000X-0.450000X-0.350000X0*%
%ADD18RoundRect,0.250000X-1.000000X-0.650000X1.000000X-0.650000X1.000000X0.650000X-1.000000X0.650000X0*%
%ADD19RoundRect,0.250000X0.375000X0.625000X-0.375000X0.625000X-0.375000X-0.625000X0.375000X-0.625000X0*%
%ADD20RoundRect,0.250000X0.625000X-0.400000X0.625000X0.400000X-0.625000X0.400000X-0.625000X-0.400000X0*%
%ADD21RoundRect,0.250000X-0.650000X1.000000X-0.650000X-1.000000X0.650000X-1.000000X0.650000X1.000000X0*%
%ADD22RoundRect,0.250000X0.250000X0.475000X-0.250000X0.475000X-0.250000X-0.475000X0.250000X-0.475000X0*%
%ADD23RoundRect,0.250000X-0.337500X-0.475000X0.337500X-0.475000X0.337500X0.475000X-0.337500X0.475000X0*%
%ADD24RoundRect,0.250000X0.262500X0.450000X-0.262500X0.450000X-0.262500X-0.450000X0.262500X-0.450000X0*%
%ADD25RoundRect,0.250000X-0.475000X0.337500X-0.475000X-0.337500X0.475000X-0.337500X0.475000X0.337500X0*%
G04 APERTURE END LIST*
D10*
%TO.C,U3*%
X84664200Y-71021000D03*
X84664200Y-72291000D03*
X84664200Y-73561000D03*
X84664200Y-74831000D03*
X95433800Y-74831000D03*
X95433800Y-73561000D03*
X95433800Y-72291000D03*
X95433800Y-71021000D03*
%TD*%
D11*
%TO.C,C1*%
X179037500Y-34189000D03*
X177137500Y-34189000D03*
%TD*%
D12*
%TO.C,R4*%
X171973500Y-31858000D03*
X173798500Y-31858000D03*
%TD*%
D13*
%TO.C,R7*%
X199729000Y-89436000D03*
X201729000Y-89436000D03*
%TD*%
D14*
%TO.C,D3(Red)1*%
X107431000Y-91948000D03*
X110231000Y-91948000D03*
%TD*%
D15*
%TO.C,C5*%
X197062500Y-48750000D03*
X193937500Y-48750000D03*
%TD*%
D12*
%TO.C,R2*%
X179000000Y-39000000D03*
X177175000Y-39000000D03*
%TD*%
D11*
%TO.C,C2*%
X165800000Y-48500000D03*
X167700000Y-48500000D03*
%TD*%
D14*
%TO.C,D5(Blue)1*%
X76393000Y-79110000D03*
X79193000Y-79110000D03*
%TD*%
D16*
%TO.C,R8*%
X76285000Y-76824000D03*
X78285000Y-76824000D03*
%TD*%
D17*
%TO.C,R11*%
X99891000Y-72726000D03*
X99891000Y-70726000D03*
%TD*%
D18*
%TO.C,D6*%
X101549000Y-67436000D03*
X105549000Y-67436000D03*
%TD*%
D11*
%TO.C,C10*%
X97621000Y-78174000D03*
X99521000Y-78174000D03*
%TD*%
%TO.C,C6*%
X81989000Y-83174000D03*
X83889000Y-83174000D03*
%TD*%
D14*
%TO.C,D7*%
X105427000Y-63818000D03*
X108227000Y-63818000D03*
%TD*%
D16*
%TO.C,R6*%
X107712000Y-89154000D03*
X109712000Y-89154000D03*
%TD*%
D19*
%TO.C,D4(green)1*%
X199149000Y-91936000D03*
X201949000Y-91936000D03*
%TD*%
D11*
%TO.C,C12*%
X97671000Y-83174000D03*
X99571000Y-83174000D03*
%TD*%
D20*
%TO.C,R12*%
X105479000Y-73776000D03*
X105479000Y-70676000D03*
%TD*%
D19*
%TO.C,D2*%
X93925000Y-82920000D03*
X91125000Y-82920000D03*
%TD*%
D11*
%TO.C,C11*%
X97621000Y-80664000D03*
X99521000Y-80664000D03*
%TD*%
D16*
%TO.C,R9*%
X73949000Y-71926000D03*
X75949000Y-71926000D03*
%TD*%
D17*
%TO.C,R10*%
X102685000Y-72744000D03*
X102685000Y-70744000D03*
%TD*%
D13*
%TO.C,R5*%
X93271000Y-80634000D03*
X91271000Y-80634000D03*
%TD*%
D21*
%TO.C,D1*%
X124529000Y-67490000D03*
X124529000Y-71490000D03*
%TD*%
D22*
%TO.C,C7*%
X93200000Y-78250000D03*
X91300000Y-78250000D03*
%TD*%
D23*
%TO.C,C4*%
X116104000Y-71236000D03*
X118179000Y-71236000D03*
%TD*%
D13*
%TO.C,R13*%
X103327000Y-63818000D03*
X101327000Y-63818000D03*
%TD*%
D24*
%TO.C,R1*%
X177175000Y-36500000D03*
X179000000Y-36500000D03*
%TD*%
%TO.C,R3*%
X177146500Y-31858000D03*
X178971500Y-31858000D03*
%TD*%
D25*
%TO.C,C9*%
X78449000Y-71888500D03*
X78449000Y-73963500D03*
%TD*%
%TO.C,C8*%
X81449000Y-71888500D03*
X81449000Y-73963500D03*
%TD*%
M02*
