%TF.GenerationSoftware,KiCad,Pcbnew,8.0.8*%
%TF.CreationDate,2025-03-01T14:31:09-05:00*%
%TF.ProjectId,MyFirstBuck,4d794669-7273-4744-9275-636b2e6b6963,rev?*%
%TF.SameCoordinates,Original*%
%TF.FileFunction,Legend,Top*%
%TF.FilePolarity,Positive*%
%FSLAX46Y46*%
G04 Gerber Fmt 4.6, Leading zero omitted, Abs format (unit mm)*
G04 Created by KiCad (PCBNEW 8.0.8) date 2025-03-01 14:31:09*
%MOMM*%
%LPD*%
G01*
G04 APERTURE LIST*
%ADD10C,0.100000*%
%ADD11C,0.150000*%
%ADD12C,0.200000*%
%ADD13C,0.010000*%
%ADD14C,0.152400*%
%ADD15C,0.127000*%
%ADD16C,0.120000*%
G04 APERTURE END LIST*
D10*
X102919884Y-90423466D02*
X103681789Y-90423466D01*
X103300836Y-90804419D02*
X103300836Y-90042514D01*
X104634169Y-89804419D02*
X104157979Y-89804419D01*
X104157979Y-89804419D02*
X104110360Y-90280609D01*
X104110360Y-90280609D02*
X104157979Y-90232990D01*
X104157979Y-90232990D02*
X104253217Y-90185371D01*
X104253217Y-90185371D02*
X104491312Y-90185371D01*
X104491312Y-90185371D02*
X104586550Y-90232990D01*
X104586550Y-90232990D02*
X104634169Y-90280609D01*
X104634169Y-90280609D02*
X104681788Y-90375847D01*
X104681788Y-90375847D02*
X104681788Y-90613942D01*
X104681788Y-90613942D02*
X104634169Y-90709180D01*
X104634169Y-90709180D02*
X104586550Y-90756800D01*
X104586550Y-90756800D02*
X104491312Y-90804419D01*
X104491312Y-90804419D02*
X104253217Y-90804419D01*
X104253217Y-90804419D02*
X104157979Y-90756800D01*
X104157979Y-90756800D02*
X104110360Y-90709180D01*
X104967503Y-89804419D02*
X105300836Y-90804419D01*
X105300836Y-90804419D02*
X105634169Y-89804419D01*
X199693884Y-86359466D02*
X200455789Y-86359466D01*
X200074836Y-86740419D02*
X200074836Y-85978514D01*
X200836741Y-85740419D02*
X201455788Y-85740419D01*
X201455788Y-85740419D02*
X201122455Y-86121371D01*
X201122455Y-86121371D02*
X201265312Y-86121371D01*
X201265312Y-86121371D02*
X201360550Y-86168990D01*
X201360550Y-86168990D02*
X201408169Y-86216609D01*
X201408169Y-86216609D02*
X201455788Y-86311847D01*
X201455788Y-86311847D02*
X201455788Y-86549942D01*
X201455788Y-86549942D02*
X201408169Y-86645180D01*
X201408169Y-86645180D02*
X201360550Y-86692800D01*
X201360550Y-86692800D02*
X201265312Y-86740419D01*
X201265312Y-86740419D02*
X200979598Y-86740419D01*
X200979598Y-86740419D02*
X200884360Y-86692800D01*
X200884360Y-86692800D02*
X200836741Y-86645180D01*
X201741503Y-85740419D02*
X202074836Y-86740419D01*
X202074836Y-86740419D02*
X202408169Y-85740419D01*
X83107884Y-81914419D02*
X83107884Y-80914419D01*
X83536455Y-81866800D02*
X83679312Y-81914419D01*
X83679312Y-81914419D02*
X83917407Y-81914419D01*
X83917407Y-81914419D02*
X84012645Y-81866800D01*
X84012645Y-81866800D02*
X84060264Y-81819180D01*
X84060264Y-81819180D02*
X84107883Y-81723942D01*
X84107883Y-81723942D02*
X84107883Y-81628704D01*
X84107883Y-81628704D02*
X84060264Y-81533466D01*
X84060264Y-81533466D02*
X84012645Y-81485847D01*
X84012645Y-81485847D02*
X83917407Y-81438228D01*
X83917407Y-81438228D02*
X83726931Y-81390609D01*
X83726931Y-81390609D02*
X83631693Y-81342990D01*
X83631693Y-81342990D02*
X83584074Y-81295371D01*
X83584074Y-81295371D02*
X83536455Y-81200133D01*
X83536455Y-81200133D02*
X83536455Y-81104895D01*
X83536455Y-81104895D02*
X83584074Y-81009657D01*
X83584074Y-81009657D02*
X83631693Y-80962038D01*
X83631693Y-80962038D02*
X83726931Y-80914419D01*
X83726931Y-80914419D02*
X83965026Y-80914419D01*
X83965026Y-80914419D02*
X84107883Y-80962038D01*
X84726931Y-80914419D02*
X84917407Y-80914419D01*
X84917407Y-80914419D02*
X85012645Y-80962038D01*
X85012645Y-80962038D02*
X85107883Y-81057276D01*
X85107883Y-81057276D02*
X85155502Y-81247752D01*
X85155502Y-81247752D02*
X85155502Y-81581085D01*
X85155502Y-81581085D02*
X85107883Y-81771561D01*
X85107883Y-81771561D02*
X85012645Y-81866800D01*
X85012645Y-81866800D02*
X84917407Y-81914419D01*
X84917407Y-81914419D02*
X84726931Y-81914419D01*
X84726931Y-81914419D02*
X84631693Y-81866800D01*
X84631693Y-81866800D02*
X84536455Y-81771561D01*
X84536455Y-81771561D02*
X84488836Y-81581085D01*
X84488836Y-81581085D02*
X84488836Y-81247752D01*
X84488836Y-81247752D02*
X84536455Y-81057276D01*
X84536455Y-81057276D02*
X84631693Y-80962038D01*
X84631693Y-80962038D02*
X84726931Y-80914419D01*
X86869788Y-81914419D02*
X86298360Y-81914419D01*
X86584074Y-81914419D02*
X86584074Y-80914419D01*
X86584074Y-80914419D02*
X86488836Y-81057276D01*
X86488836Y-81057276D02*
X86393598Y-81152514D01*
X86393598Y-81152514D02*
X86298360Y-81200133D01*
X87250741Y-81009657D02*
X87298360Y-80962038D01*
X87298360Y-80962038D02*
X87393598Y-80914419D01*
X87393598Y-80914419D02*
X87631693Y-80914419D01*
X87631693Y-80914419D02*
X87726931Y-80962038D01*
X87726931Y-80962038D02*
X87774550Y-81009657D01*
X87774550Y-81009657D02*
X87822169Y-81104895D01*
X87822169Y-81104895D02*
X87822169Y-81200133D01*
X87822169Y-81200133D02*
X87774550Y-81342990D01*
X87774550Y-81342990D02*
X87203122Y-81914419D01*
X87203122Y-81914419D02*
X87822169Y-81914419D01*
X99887693Y-60896038D02*
X99792455Y-60848419D01*
X99792455Y-60848419D02*
X99649598Y-60848419D01*
X99649598Y-60848419D02*
X99506741Y-60896038D01*
X99506741Y-60896038D02*
X99411503Y-60991276D01*
X99411503Y-60991276D02*
X99363884Y-61086514D01*
X99363884Y-61086514D02*
X99316265Y-61276990D01*
X99316265Y-61276990D02*
X99316265Y-61419847D01*
X99316265Y-61419847D02*
X99363884Y-61610323D01*
X99363884Y-61610323D02*
X99411503Y-61705561D01*
X99411503Y-61705561D02*
X99506741Y-61800800D01*
X99506741Y-61800800D02*
X99649598Y-61848419D01*
X99649598Y-61848419D02*
X99744836Y-61848419D01*
X99744836Y-61848419D02*
X99887693Y-61800800D01*
X99887693Y-61800800D02*
X99935312Y-61753180D01*
X99935312Y-61753180D02*
X99935312Y-61419847D01*
X99935312Y-61419847D02*
X99744836Y-61419847D01*
X100363884Y-61848419D02*
X100363884Y-60848419D01*
X100363884Y-60848419D02*
X100601979Y-60848419D01*
X100601979Y-60848419D02*
X100744836Y-60896038D01*
X100744836Y-60896038D02*
X100840074Y-60991276D01*
X100840074Y-60991276D02*
X100887693Y-61086514D01*
X100887693Y-61086514D02*
X100935312Y-61276990D01*
X100935312Y-61276990D02*
X100935312Y-61419847D01*
X100935312Y-61419847D02*
X100887693Y-61610323D01*
X100887693Y-61610323D02*
X100840074Y-61705561D01*
X100840074Y-61705561D02*
X100744836Y-61800800D01*
X100744836Y-61800800D02*
X100601979Y-61848419D01*
X100601979Y-61848419D02*
X100363884Y-61848419D01*
X102125789Y-61848419D02*
X102125789Y-60848419D01*
X102125789Y-60848419D02*
X102506741Y-60848419D01*
X102506741Y-60848419D02*
X102601979Y-60896038D01*
X102601979Y-60896038D02*
X102649598Y-60943657D01*
X102649598Y-60943657D02*
X102697217Y-61038895D01*
X102697217Y-61038895D02*
X102697217Y-61181752D01*
X102697217Y-61181752D02*
X102649598Y-61276990D01*
X102649598Y-61276990D02*
X102601979Y-61324609D01*
X102601979Y-61324609D02*
X102506741Y-61372228D01*
X102506741Y-61372228D02*
X102125789Y-61372228D01*
X103030551Y-60848419D02*
X103268646Y-61848419D01*
X103268646Y-61848419D02*
X103459122Y-61134133D01*
X103459122Y-61134133D02*
X103649598Y-61848419D01*
X103649598Y-61848419D02*
X103887694Y-60848419D01*
X104268646Y-61848419D02*
X104268646Y-60848419D01*
X104268646Y-60848419D02*
X104601979Y-61562704D01*
X104601979Y-61562704D02*
X104935312Y-60848419D01*
X104935312Y-60848419D02*
X104935312Y-61848419D01*
X81583884Y-77342419D02*
X81583884Y-76342419D01*
X81583884Y-76342419D02*
X81964836Y-76342419D01*
X81964836Y-76342419D02*
X82060074Y-76390038D01*
X82060074Y-76390038D02*
X82107693Y-76437657D01*
X82107693Y-76437657D02*
X82155312Y-76532895D01*
X82155312Y-76532895D02*
X82155312Y-76675752D01*
X82155312Y-76675752D02*
X82107693Y-76770990D01*
X82107693Y-76770990D02*
X82060074Y-76818609D01*
X82060074Y-76818609D02*
X81964836Y-76866228D01*
X81964836Y-76866228D02*
X81583884Y-76866228D01*
X82488646Y-76342419D02*
X82726741Y-77342419D01*
X82726741Y-77342419D02*
X82917217Y-76628133D01*
X82917217Y-76628133D02*
X83107693Y-77342419D01*
X83107693Y-77342419D02*
X83345789Y-76342419D01*
X83726741Y-77342419D02*
X83726741Y-76342419D01*
X83726741Y-76342419D02*
X84060074Y-77056704D01*
X84060074Y-77056704D02*
X84393407Y-76342419D01*
X84393407Y-76342419D02*
X84393407Y-77342419D01*
D11*
X69416666Y-21254819D02*
X69083333Y-20778628D01*
X68845238Y-21254819D02*
X68845238Y-20254819D01*
X68845238Y-20254819D02*
X69226190Y-20254819D01*
X69226190Y-20254819D02*
X69321428Y-20302438D01*
X69321428Y-20302438D02*
X69369047Y-20350057D01*
X69369047Y-20350057D02*
X69416666Y-20445295D01*
X69416666Y-20445295D02*
X69416666Y-20588152D01*
X69416666Y-20588152D02*
X69369047Y-20683390D01*
X69369047Y-20683390D02*
X69321428Y-20731009D01*
X69321428Y-20731009D02*
X69226190Y-20778628D01*
X69226190Y-20778628D02*
X68845238Y-20778628D01*
X69845238Y-20731009D02*
X70178571Y-20731009D01*
X70321428Y-21254819D02*
X69845238Y-21254819D01*
X69845238Y-21254819D02*
X69845238Y-20254819D01*
X69845238Y-20254819D02*
X70321428Y-20254819D01*
X71083333Y-20731009D02*
X70750000Y-20731009D01*
X70750000Y-21254819D02*
X70750000Y-20254819D01*
X70750000Y-20254819D02*
X71226190Y-20254819D01*
X71750000Y-20254819D02*
X71750000Y-20492914D01*
X71511905Y-20397676D02*
X71750000Y-20492914D01*
X71750000Y-20492914D02*
X71988095Y-20397676D01*
X71607143Y-20683390D02*
X71750000Y-20492914D01*
X71750000Y-20492914D02*
X71892857Y-20683390D01*
X72511905Y-20254819D02*
X72511905Y-20492914D01*
X72273810Y-20397676D02*
X72511905Y-20492914D01*
X72511905Y-20492914D02*
X72750000Y-20397676D01*
X72369048Y-20683390D02*
X72511905Y-20492914D01*
X72511905Y-20492914D02*
X72654762Y-20683390D01*
X170261904Y-39795180D02*
X170261904Y-38985657D01*
X170261904Y-38985657D02*
X170214285Y-38890419D01*
X170214285Y-38890419D02*
X170166666Y-38842800D01*
X170166666Y-38842800D02*
X170071428Y-38795180D01*
X170071428Y-38795180D02*
X169880952Y-38795180D01*
X169880952Y-38795180D02*
X169785714Y-38842800D01*
X169785714Y-38842800D02*
X169738095Y-38890419D01*
X169738095Y-38890419D02*
X169690476Y-38985657D01*
X169690476Y-38985657D02*
X169690476Y-39795180D01*
X168738095Y-39795180D02*
X169214285Y-39795180D01*
X169214285Y-39795180D02*
X169261904Y-39318990D01*
X169261904Y-39318990D02*
X169214285Y-39366609D01*
X169214285Y-39366609D02*
X169119047Y-39414228D01*
X169119047Y-39414228D02*
X168880952Y-39414228D01*
X168880952Y-39414228D02*
X168785714Y-39366609D01*
X168785714Y-39366609D02*
X168738095Y-39318990D01*
X168738095Y-39318990D02*
X168690476Y-39223752D01*
X168690476Y-39223752D02*
X168690476Y-38985657D01*
X168690476Y-38985657D02*
X168738095Y-38890419D01*
X168738095Y-38890419D02*
X168785714Y-38842800D01*
X168785714Y-38842800D02*
X168880952Y-38795180D01*
X168880952Y-38795180D02*
X169119047Y-38795180D01*
X169119047Y-38795180D02*
X169214285Y-38842800D01*
X169214285Y-38842800D02*
X169261904Y-38890419D01*
X173310000Y-43962619D02*
X173310000Y-44200714D01*
X173071905Y-44105476D02*
X173310000Y-44200714D01*
X173310000Y-44200714D02*
X173548095Y-44105476D01*
X173167143Y-44391190D02*
X173310000Y-44200714D01*
X173310000Y-44200714D02*
X173452857Y-44391190D01*
X173309999Y-45052980D02*
X173309999Y-44814885D01*
X173548094Y-44910123D02*
X173309999Y-44814885D01*
X173309999Y-44814885D02*
X173071904Y-44910123D01*
X173452856Y-44624409D02*
X173309999Y-44814885D01*
X173309999Y-44814885D02*
X173167142Y-44624409D01*
X89193095Y-87890819D02*
X89193095Y-88700342D01*
X89193095Y-88700342D02*
X89240714Y-88795580D01*
X89240714Y-88795580D02*
X89288333Y-88843200D01*
X89288333Y-88843200D02*
X89383571Y-88890819D01*
X89383571Y-88890819D02*
X89574047Y-88890819D01*
X89574047Y-88890819D02*
X89669285Y-88843200D01*
X89669285Y-88843200D02*
X89716904Y-88795580D01*
X89716904Y-88795580D02*
X89764523Y-88700342D01*
X89764523Y-88700342D02*
X89764523Y-87890819D01*
X90669285Y-88224152D02*
X90669285Y-88890819D01*
X90431190Y-87843200D02*
X90193095Y-88557485D01*
X90193095Y-88557485D02*
X90812142Y-88557485D01*
X79185400Y-85815819D02*
X79185400Y-86053914D01*
X78947305Y-85958676D02*
X79185400Y-86053914D01*
X79185400Y-86053914D02*
X79423495Y-85958676D01*
X79042543Y-86244390D02*
X79185400Y-86053914D01*
X79185400Y-86053914D02*
X79328257Y-86244390D01*
X79185400Y-85815819D02*
X79185400Y-86053914D01*
X78947305Y-85958676D02*
X79185400Y-86053914D01*
X79185400Y-86053914D02*
X79423495Y-85958676D01*
X79042543Y-86244390D02*
X79185400Y-86053914D01*
X79185400Y-86053914D02*
X79328257Y-86244390D01*
X89287095Y-72380819D02*
X89287095Y-73190342D01*
X89287095Y-73190342D02*
X89334714Y-73285580D01*
X89334714Y-73285580D02*
X89382333Y-73333200D01*
X89382333Y-73333200D02*
X89477571Y-73380819D01*
X89477571Y-73380819D02*
X89668047Y-73380819D01*
X89668047Y-73380819D02*
X89763285Y-73333200D01*
X89763285Y-73333200D02*
X89810904Y-73285580D01*
X89810904Y-73285580D02*
X89858523Y-73190342D01*
X89858523Y-73190342D02*
X89858523Y-72380819D01*
X90239476Y-72380819D02*
X90858523Y-72380819D01*
X90858523Y-72380819D02*
X90525190Y-72761771D01*
X90525190Y-72761771D02*
X90668047Y-72761771D01*
X90668047Y-72761771D02*
X90763285Y-72809390D01*
X90763285Y-72809390D02*
X90810904Y-72857009D01*
X90810904Y-72857009D02*
X90858523Y-72952247D01*
X90858523Y-72952247D02*
X90858523Y-73190342D01*
X90858523Y-73190342D02*
X90810904Y-73285580D01*
X90810904Y-73285580D02*
X90763285Y-73333200D01*
X90763285Y-73333200D02*
X90668047Y-73380819D01*
X90668047Y-73380819D02*
X90382333Y-73380819D01*
X90382333Y-73380819D02*
X90287095Y-73333200D01*
X90287095Y-73333200D02*
X90239476Y-73285580D01*
X84410200Y-68774019D02*
X84410200Y-69012114D01*
X84172105Y-68916876D02*
X84410200Y-69012114D01*
X84410200Y-69012114D02*
X84648295Y-68916876D01*
X84267343Y-69202590D02*
X84410200Y-69012114D01*
X84410200Y-69012114D02*
X84553057Y-69202590D01*
X84410200Y-68774019D02*
X84410200Y-69012114D01*
X84172105Y-68916876D02*
X84410200Y-69012114D01*
X84410200Y-69012114D02*
X84648295Y-68916876D01*
X84267343Y-69202590D02*
X84410200Y-69012114D01*
X84410200Y-69012114D02*
X84553057Y-69202590D01*
X161332842Y-55456182D02*
X160855249Y-55456182D01*
X160855249Y-55456182D02*
X160855249Y-54453237D01*
X161619398Y-54548755D02*
X161667157Y-54500996D01*
X161667157Y-54500996D02*
X161762676Y-54453237D01*
X161762676Y-54453237D02*
X162001472Y-54453237D01*
X162001472Y-54453237D02*
X162096991Y-54500996D01*
X162096991Y-54500996D02*
X162144750Y-54548755D01*
X162144750Y-54548755D02*
X162192509Y-54644274D01*
X162192509Y-54644274D02*
X162192509Y-54739793D01*
X162192509Y-54739793D02*
X162144750Y-54883070D01*
X162144750Y-54883070D02*
X161571638Y-55456182D01*
X161571638Y-55456182D02*
X162192509Y-55456182D01*
X129477842Y-28706182D02*
X129000249Y-28706182D01*
X129000249Y-28706182D02*
X129000249Y-27703237D01*
X130337509Y-28706182D02*
X129764398Y-28706182D01*
X130050953Y-28706182D02*
X130050953Y-27703237D01*
X130050953Y-27703237D02*
X129955435Y-27846515D01*
X129955435Y-27846515D02*
X129859916Y-27942033D01*
X129859916Y-27942033D02*
X129764398Y-27989793D01*
X79422666Y-26090819D02*
X79422666Y-26805104D01*
X79422666Y-26805104D02*
X79375047Y-26947961D01*
X79375047Y-26947961D02*
X79279809Y-27043200D01*
X79279809Y-27043200D02*
X79136952Y-27090819D01*
X79136952Y-27090819D02*
X79041714Y-27090819D01*
X80422666Y-27090819D02*
X79851238Y-27090819D01*
X80136952Y-27090819D02*
X80136952Y-26090819D01*
X80136952Y-26090819D02*
X80041714Y-26233676D01*
X80041714Y-26233676D02*
X79946476Y-26328914D01*
X79946476Y-26328914D02*
X79851238Y-26376533D01*
X183916666Y-41204819D02*
X183916666Y-41919104D01*
X183916666Y-41919104D02*
X183869047Y-42061961D01*
X183869047Y-42061961D02*
X183773809Y-42157200D01*
X183773809Y-42157200D02*
X183630952Y-42204819D01*
X183630952Y-42204819D02*
X183535714Y-42204819D01*
X184345238Y-41300057D02*
X184392857Y-41252438D01*
X184392857Y-41252438D02*
X184488095Y-41204819D01*
X184488095Y-41204819D02*
X184726190Y-41204819D01*
X184726190Y-41204819D02*
X184821428Y-41252438D01*
X184821428Y-41252438D02*
X184869047Y-41300057D01*
X184869047Y-41300057D02*
X184916666Y-41395295D01*
X184916666Y-41395295D02*
X184916666Y-41490533D01*
X184916666Y-41490533D02*
X184869047Y-41633390D01*
X184869047Y-41633390D02*
X184297619Y-42204819D01*
X184297619Y-42204819D02*
X184916666Y-42204819D01*
X196331666Y-27210819D02*
X196331666Y-27925104D01*
X196331666Y-27925104D02*
X196284047Y-28067961D01*
X196284047Y-28067961D02*
X196188809Y-28163200D01*
X196188809Y-28163200D02*
X196045952Y-28210819D01*
X196045952Y-28210819D02*
X195950714Y-28210819D01*
X196712619Y-27210819D02*
X197331666Y-27210819D01*
X197331666Y-27210819D02*
X196998333Y-27591771D01*
X196998333Y-27591771D02*
X197141190Y-27591771D01*
X197141190Y-27591771D02*
X197236428Y-27639390D01*
X197236428Y-27639390D02*
X197284047Y-27687009D01*
X197284047Y-27687009D02*
X197331666Y-27782247D01*
X197331666Y-27782247D02*
X197331666Y-28020342D01*
X197331666Y-28020342D02*
X197284047Y-28115580D01*
X197284047Y-28115580D02*
X197236428Y-28163200D01*
X197236428Y-28163200D02*
X197141190Y-28210819D01*
X197141190Y-28210819D02*
X196855476Y-28210819D01*
X196855476Y-28210819D02*
X196760238Y-28163200D01*
X196760238Y-28163200D02*
X196712619Y-28115580D01*
X115215666Y-26090819D02*
X115215666Y-26805104D01*
X115215666Y-26805104D02*
X115168047Y-26947961D01*
X115168047Y-26947961D02*
X115072809Y-27043200D01*
X115072809Y-27043200D02*
X114929952Y-27090819D01*
X114929952Y-27090819D02*
X114834714Y-27090819D01*
X116168047Y-26090819D02*
X115691857Y-26090819D01*
X115691857Y-26090819D02*
X115644238Y-26567009D01*
X115644238Y-26567009D02*
X115691857Y-26519390D01*
X115691857Y-26519390D02*
X115787095Y-26471771D01*
X115787095Y-26471771D02*
X116025190Y-26471771D01*
X116025190Y-26471771D02*
X116120428Y-26519390D01*
X116120428Y-26519390D02*
X116168047Y-26567009D01*
X116168047Y-26567009D02*
X116215666Y-26662247D01*
X116215666Y-26662247D02*
X116215666Y-26900342D01*
X116215666Y-26900342D02*
X116168047Y-26995580D01*
X116168047Y-26995580D02*
X116120428Y-27043200D01*
X116120428Y-27043200D02*
X116025190Y-27090819D01*
X116025190Y-27090819D02*
X115787095Y-27090819D01*
X115787095Y-27090819D02*
X115691857Y-27043200D01*
X115691857Y-27043200D02*
X115644238Y-26995580D01*
X180920833Y-34548580D02*
X180873214Y-34596200D01*
X180873214Y-34596200D02*
X180730357Y-34643819D01*
X180730357Y-34643819D02*
X180635119Y-34643819D01*
X180635119Y-34643819D02*
X180492262Y-34596200D01*
X180492262Y-34596200D02*
X180397024Y-34500961D01*
X180397024Y-34500961D02*
X180349405Y-34405723D01*
X180349405Y-34405723D02*
X180301786Y-34215247D01*
X180301786Y-34215247D02*
X180301786Y-34072390D01*
X180301786Y-34072390D02*
X180349405Y-33881914D01*
X180349405Y-33881914D02*
X180397024Y-33786676D01*
X180397024Y-33786676D02*
X180492262Y-33691438D01*
X180492262Y-33691438D02*
X180635119Y-33643819D01*
X180635119Y-33643819D02*
X180730357Y-33643819D01*
X180730357Y-33643819D02*
X180873214Y-33691438D01*
X180873214Y-33691438D02*
X180920833Y-33739057D01*
X181873214Y-34643819D02*
X181301786Y-34643819D01*
X181587500Y-34643819D02*
X181587500Y-33643819D01*
X181587500Y-33643819D02*
X181492262Y-33786676D01*
X181492262Y-33786676D02*
X181397024Y-33881914D01*
X181397024Y-33881914D02*
X181301786Y-33929533D01*
X172719333Y-30662819D02*
X172386000Y-30186628D01*
X172147905Y-30662819D02*
X172147905Y-29662819D01*
X172147905Y-29662819D02*
X172528857Y-29662819D01*
X172528857Y-29662819D02*
X172624095Y-29710438D01*
X172624095Y-29710438D02*
X172671714Y-29758057D01*
X172671714Y-29758057D02*
X172719333Y-29853295D01*
X172719333Y-29853295D02*
X172719333Y-29996152D01*
X172719333Y-29996152D02*
X172671714Y-30091390D01*
X172671714Y-30091390D02*
X172624095Y-30139009D01*
X172624095Y-30139009D02*
X172528857Y-30186628D01*
X172528857Y-30186628D02*
X172147905Y-30186628D01*
X173576476Y-29996152D02*
X173576476Y-30662819D01*
X173338381Y-29615200D02*
X173100286Y-30329485D01*
X173100286Y-30329485D02*
X173719333Y-30329485D01*
X200562333Y-88454819D02*
X200229000Y-87978628D01*
X199990905Y-88454819D02*
X199990905Y-87454819D01*
X199990905Y-87454819D02*
X200371857Y-87454819D01*
X200371857Y-87454819D02*
X200467095Y-87502438D01*
X200467095Y-87502438D02*
X200514714Y-87550057D01*
X200514714Y-87550057D02*
X200562333Y-87645295D01*
X200562333Y-87645295D02*
X200562333Y-87788152D01*
X200562333Y-87788152D02*
X200514714Y-87883390D01*
X200514714Y-87883390D02*
X200467095Y-87931009D01*
X200467095Y-87931009D02*
X200371857Y-87978628D01*
X200371857Y-87978628D02*
X199990905Y-87978628D01*
X200895667Y-87454819D02*
X201562333Y-87454819D01*
X201562333Y-87454819D02*
X201133762Y-88454819D01*
X100488095Y-92454819D02*
X100488095Y-91454819D01*
X100488095Y-91454819D02*
X100726190Y-91454819D01*
X100726190Y-91454819D02*
X100869047Y-91502438D01*
X100869047Y-91502438D02*
X100964285Y-91597676D01*
X100964285Y-91597676D02*
X101011904Y-91692914D01*
X101011904Y-91692914D02*
X101059523Y-91883390D01*
X101059523Y-91883390D02*
X101059523Y-92026247D01*
X101059523Y-92026247D02*
X101011904Y-92216723D01*
X101011904Y-92216723D02*
X100964285Y-92311961D01*
X100964285Y-92311961D02*
X100869047Y-92407200D01*
X100869047Y-92407200D02*
X100726190Y-92454819D01*
X100726190Y-92454819D02*
X100488095Y-92454819D01*
X101392857Y-91454819D02*
X102011904Y-91454819D01*
X102011904Y-91454819D02*
X101678571Y-91835771D01*
X101678571Y-91835771D02*
X101821428Y-91835771D01*
X101821428Y-91835771D02*
X101916666Y-91883390D01*
X101916666Y-91883390D02*
X101964285Y-91931009D01*
X101964285Y-91931009D02*
X102011904Y-92026247D01*
X102011904Y-92026247D02*
X102011904Y-92264342D01*
X102011904Y-92264342D02*
X101964285Y-92359580D01*
X101964285Y-92359580D02*
X101916666Y-92407200D01*
X101916666Y-92407200D02*
X101821428Y-92454819D01*
X101821428Y-92454819D02*
X101535714Y-92454819D01*
X101535714Y-92454819D02*
X101440476Y-92407200D01*
X101440476Y-92407200D02*
X101392857Y-92359580D01*
X102726190Y-92835771D02*
X102678571Y-92788152D01*
X102678571Y-92788152D02*
X102583333Y-92645295D01*
X102583333Y-92645295D02*
X102535714Y-92550057D01*
X102535714Y-92550057D02*
X102488095Y-92407200D01*
X102488095Y-92407200D02*
X102440476Y-92169104D01*
X102440476Y-92169104D02*
X102440476Y-91978628D01*
X102440476Y-91978628D02*
X102488095Y-91740533D01*
X102488095Y-91740533D02*
X102535714Y-91597676D01*
X102535714Y-91597676D02*
X102583333Y-91502438D01*
X102583333Y-91502438D02*
X102678571Y-91359580D01*
X102678571Y-91359580D02*
X102726190Y-91311961D01*
X103678571Y-92454819D02*
X103345238Y-91978628D01*
X103107143Y-92454819D02*
X103107143Y-91454819D01*
X103107143Y-91454819D02*
X103488095Y-91454819D01*
X103488095Y-91454819D02*
X103583333Y-91502438D01*
X103583333Y-91502438D02*
X103630952Y-91550057D01*
X103630952Y-91550057D02*
X103678571Y-91645295D01*
X103678571Y-91645295D02*
X103678571Y-91788152D01*
X103678571Y-91788152D02*
X103630952Y-91883390D01*
X103630952Y-91883390D02*
X103583333Y-91931009D01*
X103583333Y-91931009D02*
X103488095Y-91978628D01*
X103488095Y-91978628D02*
X103107143Y-91978628D01*
X104488095Y-92407200D02*
X104392857Y-92454819D01*
X104392857Y-92454819D02*
X104202381Y-92454819D01*
X104202381Y-92454819D02*
X104107143Y-92407200D01*
X104107143Y-92407200D02*
X104059524Y-92311961D01*
X104059524Y-92311961D02*
X104059524Y-91931009D01*
X104059524Y-91931009D02*
X104107143Y-91835771D01*
X104107143Y-91835771D02*
X104202381Y-91788152D01*
X104202381Y-91788152D02*
X104392857Y-91788152D01*
X104392857Y-91788152D02*
X104488095Y-91835771D01*
X104488095Y-91835771D02*
X104535714Y-91931009D01*
X104535714Y-91931009D02*
X104535714Y-92026247D01*
X104535714Y-92026247D02*
X104059524Y-92121485D01*
X105392857Y-92454819D02*
X105392857Y-91454819D01*
X105392857Y-92407200D02*
X105297619Y-92454819D01*
X105297619Y-92454819D02*
X105107143Y-92454819D01*
X105107143Y-92454819D02*
X105011905Y-92407200D01*
X105011905Y-92407200D02*
X104964286Y-92359580D01*
X104964286Y-92359580D02*
X104916667Y-92264342D01*
X104916667Y-92264342D02*
X104916667Y-91978628D01*
X104916667Y-91978628D02*
X104964286Y-91883390D01*
X104964286Y-91883390D02*
X105011905Y-91835771D01*
X105011905Y-91835771D02*
X105107143Y-91788152D01*
X105107143Y-91788152D02*
X105297619Y-91788152D01*
X105297619Y-91788152D02*
X105392857Y-91835771D01*
X105773810Y-92835771D02*
X105821429Y-92788152D01*
X105821429Y-92788152D02*
X105916667Y-92645295D01*
X105916667Y-92645295D02*
X105964286Y-92550057D01*
X105964286Y-92550057D02*
X106011905Y-92407200D01*
X106011905Y-92407200D02*
X106059524Y-92169104D01*
X106059524Y-92169104D02*
X106059524Y-91978628D01*
X106059524Y-91978628D02*
X106011905Y-91740533D01*
X106011905Y-91740533D02*
X105964286Y-91597676D01*
X105964286Y-91597676D02*
X105916667Y-91502438D01*
X105916667Y-91502438D02*
X105821429Y-91359580D01*
X105821429Y-91359580D02*
X105773810Y-91311961D01*
X107059524Y-92454819D02*
X106488096Y-92454819D01*
X106773810Y-92454819D02*
X106773810Y-91454819D01*
X106773810Y-91454819D02*
X106678572Y-91597676D01*
X106678572Y-91597676D02*
X106583334Y-91692914D01*
X106583334Y-91692914D02*
X106488096Y-91740533D01*
X195333333Y-50959580D02*
X195285714Y-51007200D01*
X195285714Y-51007200D02*
X195142857Y-51054819D01*
X195142857Y-51054819D02*
X195047619Y-51054819D01*
X195047619Y-51054819D02*
X194904762Y-51007200D01*
X194904762Y-51007200D02*
X194809524Y-50911961D01*
X194809524Y-50911961D02*
X194761905Y-50816723D01*
X194761905Y-50816723D02*
X194714286Y-50626247D01*
X194714286Y-50626247D02*
X194714286Y-50483390D01*
X194714286Y-50483390D02*
X194761905Y-50292914D01*
X194761905Y-50292914D02*
X194809524Y-50197676D01*
X194809524Y-50197676D02*
X194904762Y-50102438D01*
X194904762Y-50102438D02*
X195047619Y-50054819D01*
X195047619Y-50054819D02*
X195142857Y-50054819D01*
X195142857Y-50054819D02*
X195285714Y-50102438D01*
X195285714Y-50102438D02*
X195333333Y-50150057D01*
X196238095Y-50054819D02*
X195761905Y-50054819D01*
X195761905Y-50054819D02*
X195714286Y-50531009D01*
X195714286Y-50531009D02*
X195761905Y-50483390D01*
X195761905Y-50483390D02*
X195857143Y-50435771D01*
X195857143Y-50435771D02*
X196095238Y-50435771D01*
X196095238Y-50435771D02*
X196190476Y-50483390D01*
X196190476Y-50483390D02*
X196238095Y-50531009D01*
X196238095Y-50531009D02*
X196285714Y-50626247D01*
X196285714Y-50626247D02*
X196285714Y-50864342D01*
X196285714Y-50864342D02*
X196238095Y-50959580D01*
X196238095Y-50959580D02*
X196190476Y-51007200D01*
X196190476Y-51007200D02*
X196095238Y-51054819D01*
X196095238Y-51054819D02*
X195857143Y-51054819D01*
X195857143Y-51054819D02*
X195761905Y-51007200D01*
X195761905Y-51007200D02*
X195714286Y-50959580D01*
X180593333Y-39424819D02*
X180260000Y-38948628D01*
X180021905Y-39424819D02*
X180021905Y-38424819D01*
X180021905Y-38424819D02*
X180402857Y-38424819D01*
X180402857Y-38424819D02*
X180498095Y-38472438D01*
X180498095Y-38472438D02*
X180545714Y-38520057D01*
X180545714Y-38520057D02*
X180593333Y-38615295D01*
X180593333Y-38615295D02*
X180593333Y-38758152D01*
X180593333Y-38758152D02*
X180545714Y-38853390D01*
X180545714Y-38853390D02*
X180498095Y-38901009D01*
X180498095Y-38901009D02*
X180402857Y-38948628D01*
X180402857Y-38948628D02*
X180021905Y-38948628D01*
X180974286Y-38520057D02*
X181021905Y-38472438D01*
X181021905Y-38472438D02*
X181117143Y-38424819D01*
X181117143Y-38424819D02*
X181355238Y-38424819D01*
X181355238Y-38424819D02*
X181450476Y-38472438D01*
X181450476Y-38472438D02*
X181498095Y-38520057D01*
X181498095Y-38520057D02*
X181545714Y-38615295D01*
X181545714Y-38615295D02*
X181545714Y-38710533D01*
X181545714Y-38710533D02*
X181498095Y-38853390D01*
X181498095Y-38853390D02*
X180926667Y-39424819D01*
X180926667Y-39424819D02*
X181545714Y-39424819D01*
X166583333Y-50859580D02*
X166535714Y-50907200D01*
X166535714Y-50907200D02*
X166392857Y-50954819D01*
X166392857Y-50954819D02*
X166297619Y-50954819D01*
X166297619Y-50954819D02*
X166154762Y-50907200D01*
X166154762Y-50907200D02*
X166059524Y-50811961D01*
X166059524Y-50811961D02*
X166011905Y-50716723D01*
X166011905Y-50716723D02*
X165964286Y-50526247D01*
X165964286Y-50526247D02*
X165964286Y-50383390D01*
X165964286Y-50383390D02*
X166011905Y-50192914D01*
X166011905Y-50192914D02*
X166059524Y-50097676D01*
X166059524Y-50097676D02*
X166154762Y-50002438D01*
X166154762Y-50002438D02*
X166297619Y-49954819D01*
X166297619Y-49954819D02*
X166392857Y-49954819D01*
X166392857Y-49954819D02*
X166535714Y-50002438D01*
X166535714Y-50002438D02*
X166583333Y-50050057D01*
X166964286Y-50050057D02*
X167011905Y-50002438D01*
X167011905Y-50002438D02*
X167107143Y-49954819D01*
X167107143Y-49954819D02*
X167345238Y-49954819D01*
X167345238Y-49954819D02*
X167440476Y-50002438D01*
X167440476Y-50002438D02*
X167488095Y-50050057D01*
X167488095Y-50050057D02*
X167535714Y-50145295D01*
X167535714Y-50145295D02*
X167535714Y-50240533D01*
X167535714Y-50240533D02*
X167488095Y-50383390D01*
X167488095Y-50383390D02*
X166916667Y-50954819D01*
X166916667Y-50954819D02*
X167535714Y-50954819D01*
X74476190Y-81704819D02*
X74476190Y-80704819D01*
X74476190Y-80704819D02*
X74714285Y-80704819D01*
X74714285Y-80704819D02*
X74857142Y-80752438D01*
X74857142Y-80752438D02*
X74952380Y-80847676D01*
X74952380Y-80847676D02*
X74999999Y-80942914D01*
X74999999Y-80942914D02*
X75047618Y-81133390D01*
X75047618Y-81133390D02*
X75047618Y-81276247D01*
X75047618Y-81276247D02*
X74999999Y-81466723D01*
X74999999Y-81466723D02*
X74952380Y-81561961D01*
X74952380Y-81561961D02*
X74857142Y-81657200D01*
X74857142Y-81657200D02*
X74714285Y-81704819D01*
X74714285Y-81704819D02*
X74476190Y-81704819D01*
X75952380Y-80704819D02*
X75476190Y-80704819D01*
X75476190Y-80704819D02*
X75428571Y-81181009D01*
X75428571Y-81181009D02*
X75476190Y-81133390D01*
X75476190Y-81133390D02*
X75571428Y-81085771D01*
X75571428Y-81085771D02*
X75809523Y-81085771D01*
X75809523Y-81085771D02*
X75904761Y-81133390D01*
X75904761Y-81133390D02*
X75952380Y-81181009D01*
X75952380Y-81181009D02*
X75999999Y-81276247D01*
X75999999Y-81276247D02*
X75999999Y-81514342D01*
X75999999Y-81514342D02*
X75952380Y-81609580D01*
X75952380Y-81609580D02*
X75904761Y-81657200D01*
X75904761Y-81657200D02*
X75809523Y-81704819D01*
X75809523Y-81704819D02*
X75571428Y-81704819D01*
X75571428Y-81704819D02*
X75476190Y-81657200D01*
X75476190Y-81657200D02*
X75428571Y-81609580D01*
X76714285Y-82085771D02*
X76666666Y-82038152D01*
X76666666Y-82038152D02*
X76571428Y-81895295D01*
X76571428Y-81895295D02*
X76523809Y-81800057D01*
X76523809Y-81800057D02*
X76476190Y-81657200D01*
X76476190Y-81657200D02*
X76428571Y-81419104D01*
X76428571Y-81419104D02*
X76428571Y-81228628D01*
X76428571Y-81228628D02*
X76476190Y-80990533D01*
X76476190Y-80990533D02*
X76523809Y-80847676D01*
X76523809Y-80847676D02*
X76571428Y-80752438D01*
X76571428Y-80752438D02*
X76666666Y-80609580D01*
X76666666Y-80609580D02*
X76714285Y-80561961D01*
X77428571Y-81181009D02*
X77571428Y-81228628D01*
X77571428Y-81228628D02*
X77619047Y-81276247D01*
X77619047Y-81276247D02*
X77666666Y-81371485D01*
X77666666Y-81371485D02*
X77666666Y-81514342D01*
X77666666Y-81514342D02*
X77619047Y-81609580D01*
X77619047Y-81609580D02*
X77571428Y-81657200D01*
X77571428Y-81657200D02*
X77476190Y-81704819D01*
X77476190Y-81704819D02*
X77095238Y-81704819D01*
X77095238Y-81704819D02*
X77095238Y-80704819D01*
X77095238Y-80704819D02*
X77428571Y-80704819D01*
X77428571Y-80704819D02*
X77523809Y-80752438D01*
X77523809Y-80752438D02*
X77571428Y-80800057D01*
X77571428Y-80800057D02*
X77619047Y-80895295D01*
X77619047Y-80895295D02*
X77619047Y-80990533D01*
X77619047Y-80990533D02*
X77571428Y-81085771D01*
X77571428Y-81085771D02*
X77523809Y-81133390D01*
X77523809Y-81133390D02*
X77428571Y-81181009D01*
X77428571Y-81181009D02*
X77095238Y-81181009D01*
X78238095Y-81704819D02*
X78142857Y-81657200D01*
X78142857Y-81657200D02*
X78095238Y-81561961D01*
X78095238Y-81561961D02*
X78095238Y-80704819D01*
X79047619Y-81038152D02*
X79047619Y-81704819D01*
X78619048Y-81038152D02*
X78619048Y-81561961D01*
X78619048Y-81561961D02*
X78666667Y-81657200D01*
X78666667Y-81657200D02*
X78761905Y-81704819D01*
X78761905Y-81704819D02*
X78904762Y-81704819D01*
X78904762Y-81704819D02*
X79000000Y-81657200D01*
X79000000Y-81657200D02*
X79047619Y-81609580D01*
X79904762Y-81657200D02*
X79809524Y-81704819D01*
X79809524Y-81704819D02*
X79619048Y-81704819D01*
X79619048Y-81704819D02*
X79523810Y-81657200D01*
X79523810Y-81657200D02*
X79476191Y-81561961D01*
X79476191Y-81561961D02*
X79476191Y-81181009D01*
X79476191Y-81181009D02*
X79523810Y-81085771D01*
X79523810Y-81085771D02*
X79619048Y-81038152D01*
X79619048Y-81038152D02*
X79809524Y-81038152D01*
X79809524Y-81038152D02*
X79904762Y-81085771D01*
X79904762Y-81085771D02*
X79952381Y-81181009D01*
X79952381Y-81181009D02*
X79952381Y-81276247D01*
X79952381Y-81276247D02*
X79476191Y-81371485D01*
X80285715Y-82085771D02*
X80333334Y-82038152D01*
X80333334Y-82038152D02*
X80428572Y-81895295D01*
X80428572Y-81895295D02*
X80476191Y-81800057D01*
X80476191Y-81800057D02*
X80523810Y-81657200D01*
X80523810Y-81657200D02*
X80571429Y-81419104D01*
X80571429Y-81419104D02*
X80571429Y-81228628D01*
X80571429Y-81228628D02*
X80523810Y-80990533D01*
X80523810Y-80990533D02*
X80476191Y-80847676D01*
X80476191Y-80847676D02*
X80428572Y-80752438D01*
X80428572Y-80752438D02*
X80333334Y-80609580D01*
X80333334Y-80609580D02*
X80285715Y-80561961D01*
X81571429Y-81704819D02*
X81000001Y-81704819D01*
X81285715Y-81704819D02*
X81285715Y-80704819D01*
X81285715Y-80704819D02*
X81190477Y-80847676D01*
X81190477Y-80847676D02*
X81095239Y-80942914D01*
X81095239Y-80942914D02*
X81000001Y-80990533D01*
X80097333Y-77162819D02*
X79764000Y-76686628D01*
X79525905Y-77162819D02*
X79525905Y-76162819D01*
X79525905Y-76162819D02*
X79906857Y-76162819D01*
X79906857Y-76162819D02*
X80002095Y-76210438D01*
X80002095Y-76210438D02*
X80049714Y-76258057D01*
X80049714Y-76258057D02*
X80097333Y-76353295D01*
X80097333Y-76353295D02*
X80097333Y-76496152D01*
X80097333Y-76496152D02*
X80049714Y-76591390D01*
X80049714Y-76591390D02*
X80002095Y-76639009D01*
X80002095Y-76639009D02*
X79906857Y-76686628D01*
X79906857Y-76686628D02*
X79525905Y-76686628D01*
X80668762Y-76591390D02*
X80573524Y-76543771D01*
X80573524Y-76543771D02*
X80525905Y-76496152D01*
X80525905Y-76496152D02*
X80478286Y-76400914D01*
X80478286Y-76400914D02*
X80478286Y-76353295D01*
X80478286Y-76353295D02*
X80525905Y-76258057D01*
X80525905Y-76258057D02*
X80573524Y-76210438D01*
X80573524Y-76210438D02*
X80668762Y-76162819D01*
X80668762Y-76162819D02*
X80859238Y-76162819D01*
X80859238Y-76162819D02*
X80954476Y-76210438D01*
X80954476Y-76210438D02*
X81002095Y-76258057D01*
X81002095Y-76258057D02*
X81049714Y-76353295D01*
X81049714Y-76353295D02*
X81049714Y-76400914D01*
X81049714Y-76400914D02*
X81002095Y-76496152D01*
X81002095Y-76496152D02*
X80954476Y-76543771D01*
X80954476Y-76543771D02*
X80859238Y-76591390D01*
X80859238Y-76591390D02*
X80668762Y-76591390D01*
X80668762Y-76591390D02*
X80573524Y-76639009D01*
X80573524Y-76639009D02*
X80525905Y-76686628D01*
X80525905Y-76686628D02*
X80478286Y-76781866D01*
X80478286Y-76781866D02*
X80478286Y-76972342D01*
X80478286Y-76972342D02*
X80525905Y-77067580D01*
X80525905Y-77067580D02*
X80573524Y-77115200D01*
X80573524Y-77115200D02*
X80668762Y-77162819D01*
X80668762Y-77162819D02*
X80859238Y-77162819D01*
X80859238Y-77162819D02*
X80954476Y-77115200D01*
X80954476Y-77115200D02*
X81002095Y-77067580D01*
X81002095Y-77067580D02*
X81049714Y-76972342D01*
X81049714Y-76972342D02*
X81049714Y-76781866D01*
X81049714Y-76781866D02*
X81002095Y-76686628D01*
X81002095Y-76686628D02*
X80954476Y-76639009D01*
X80954476Y-76639009D02*
X80859238Y-76591390D01*
X79168666Y-44770819D02*
X79168666Y-45485104D01*
X79168666Y-45485104D02*
X79121047Y-45627961D01*
X79121047Y-45627961D02*
X79025809Y-45723200D01*
X79025809Y-45723200D02*
X78882952Y-45770819D01*
X78882952Y-45770819D02*
X78787714Y-45770819D01*
X80073428Y-45104152D02*
X80073428Y-45770819D01*
X79835333Y-44723200D02*
X79597238Y-45437485D01*
X79597238Y-45437485D02*
X80216285Y-45437485D01*
X99248142Y-74992819D02*
X98914809Y-74516628D01*
X98676714Y-74992819D02*
X98676714Y-73992819D01*
X98676714Y-73992819D02*
X99057666Y-73992819D01*
X99057666Y-73992819D02*
X99152904Y-74040438D01*
X99152904Y-74040438D02*
X99200523Y-74088057D01*
X99200523Y-74088057D02*
X99248142Y-74183295D01*
X99248142Y-74183295D02*
X99248142Y-74326152D01*
X99248142Y-74326152D02*
X99200523Y-74421390D01*
X99200523Y-74421390D02*
X99152904Y-74469009D01*
X99152904Y-74469009D02*
X99057666Y-74516628D01*
X99057666Y-74516628D02*
X98676714Y-74516628D01*
X100200523Y-74992819D02*
X99629095Y-74992819D01*
X99914809Y-74992819D02*
X99914809Y-73992819D01*
X99914809Y-73992819D02*
X99819571Y-74135676D01*
X99819571Y-74135676D02*
X99724333Y-74230914D01*
X99724333Y-74230914D02*
X99629095Y-74278533D01*
X101152904Y-74992819D02*
X100581476Y-74992819D01*
X100867190Y-74992819D02*
X100867190Y-73992819D01*
X100867190Y-73992819D02*
X100771952Y-74135676D01*
X100771952Y-74135676D02*
X100676714Y-74230914D01*
X100676714Y-74230914D02*
X100581476Y-74278533D01*
X98067905Y-68018819D02*
X98067905Y-67018819D01*
X98067905Y-67018819D02*
X98306000Y-67018819D01*
X98306000Y-67018819D02*
X98448857Y-67066438D01*
X98448857Y-67066438D02*
X98544095Y-67161676D01*
X98544095Y-67161676D02*
X98591714Y-67256914D01*
X98591714Y-67256914D02*
X98639333Y-67447390D01*
X98639333Y-67447390D02*
X98639333Y-67590247D01*
X98639333Y-67590247D02*
X98591714Y-67780723D01*
X98591714Y-67780723D02*
X98544095Y-67875961D01*
X98544095Y-67875961D02*
X98448857Y-67971200D01*
X98448857Y-67971200D02*
X98306000Y-68018819D01*
X98306000Y-68018819D02*
X98067905Y-68018819D01*
X99496476Y-67018819D02*
X99306000Y-67018819D01*
X99306000Y-67018819D02*
X99210762Y-67066438D01*
X99210762Y-67066438D02*
X99163143Y-67114057D01*
X99163143Y-67114057D02*
X99067905Y-67256914D01*
X99067905Y-67256914D02*
X99020286Y-67447390D01*
X99020286Y-67447390D02*
X99020286Y-67828342D01*
X99020286Y-67828342D02*
X99067905Y-67923580D01*
X99067905Y-67923580D02*
X99115524Y-67971200D01*
X99115524Y-67971200D02*
X99210762Y-68018819D01*
X99210762Y-68018819D02*
X99401238Y-68018819D01*
X99401238Y-68018819D02*
X99496476Y-67971200D01*
X99496476Y-67971200D02*
X99544095Y-67923580D01*
X99544095Y-67923580D02*
X99591714Y-67828342D01*
X99591714Y-67828342D02*
X99591714Y-67590247D01*
X99591714Y-67590247D02*
X99544095Y-67495009D01*
X99544095Y-67495009D02*
X99496476Y-67447390D01*
X99496476Y-67447390D02*
X99401238Y-67399771D01*
X99401238Y-67399771D02*
X99210762Y-67399771D01*
X99210762Y-67399771D02*
X99115524Y-67447390D01*
X99115524Y-67447390D02*
X99067905Y-67495009D01*
X99067905Y-67495009D02*
X99020286Y-67590247D01*
X112091761Y-63706057D02*
X111996523Y-63658438D01*
X111996523Y-63658438D02*
X111901285Y-63563200D01*
X111901285Y-63563200D02*
X111758428Y-63420342D01*
X111758428Y-63420342D02*
X111663190Y-63372723D01*
X111663190Y-63372723D02*
X111567952Y-63372723D01*
X111615571Y-63610819D02*
X111520333Y-63563200D01*
X111520333Y-63563200D02*
X111425095Y-63467961D01*
X111425095Y-63467961D02*
X111377476Y-63277485D01*
X111377476Y-63277485D02*
X111377476Y-62944152D01*
X111377476Y-62944152D02*
X111425095Y-62753676D01*
X111425095Y-62753676D02*
X111520333Y-62658438D01*
X111520333Y-62658438D02*
X111615571Y-62610819D01*
X111615571Y-62610819D02*
X111806047Y-62610819D01*
X111806047Y-62610819D02*
X111901285Y-62658438D01*
X111901285Y-62658438D02*
X111996523Y-62753676D01*
X111996523Y-62753676D02*
X112044142Y-62944152D01*
X112044142Y-62944152D02*
X112044142Y-63277485D01*
X112044142Y-63277485D02*
X111996523Y-63467961D01*
X111996523Y-63467961D02*
X111901285Y-63563200D01*
X111901285Y-63563200D02*
X111806047Y-63610819D01*
X111806047Y-63610819D02*
X111615571Y-63610819D01*
X112996523Y-63610819D02*
X112425095Y-63610819D01*
X112710809Y-63610819D02*
X112710809Y-62610819D01*
X112710809Y-62610819D02*
X112615571Y-62753676D01*
X112615571Y-62753676D02*
X112520333Y-62848914D01*
X112520333Y-62848914D02*
X112425095Y-62896533D01*
X196088095Y-150584819D02*
X196088095Y-151394342D01*
X196088095Y-151394342D02*
X196135714Y-151489580D01*
X196135714Y-151489580D02*
X196183333Y-151537200D01*
X196183333Y-151537200D02*
X196278571Y-151584819D01*
X196278571Y-151584819D02*
X196469047Y-151584819D01*
X196469047Y-151584819D02*
X196564285Y-151537200D01*
X196564285Y-151537200D02*
X196611904Y-151489580D01*
X196611904Y-151489580D02*
X196659523Y-151394342D01*
X196659523Y-151394342D02*
X196659523Y-150584819D01*
X197088095Y-150680057D02*
X197135714Y-150632438D01*
X197135714Y-150632438D02*
X197230952Y-150584819D01*
X197230952Y-150584819D02*
X197469047Y-150584819D01*
X197469047Y-150584819D02*
X197564285Y-150632438D01*
X197564285Y-150632438D02*
X197611904Y-150680057D01*
X197611904Y-150680057D02*
X197659523Y-150775295D01*
X197659523Y-150775295D02*
X197659523Y-150870533D01*
X197659523Y-150870533D02*
X197611904Y-151013390D01*
X197611904Y-151013390D02*
X197040476Y-151584819D01*
X197040476Y-151584819D02*
X197659523Y-151584819D01*
X109267666Y-144615819D02*
X109267666Y-145330104D01*
X109267666Y-145330104D02*
X109220047Y-145472961D01*
X109220047Y-145472961D02*
X109124809Y-145568200D01*
X109124809Y-145568200D02*
X108981952Y-145615819D01*
X108981952Y-145615819D02*
X108886714Y-145615819D01*
X110172428Y-144615819D02*
X109981952Y-144615819D01*
X109981952Y-144615819D02*
X109886714Y-144663438D01*
X109886714Y-144663438D02*
X109839095Y-144711057D01*
X109839095Y-144711057D02*
X109743857Y-144853914D01*
X109743857Y-144853914D02*
X109696238Y-145044390D01*
X109696238Y-145044390D02*
X109696238Y-145425342D01*
X109696238Y-145425342D02*
X109743857Y-145520580D01*
X109743857Y-145520580D02*
X109791476Y-145568200D01*
X109791476Y-145568200D02*
X109886714Y-145615819D01*
X109886714Y-145615819D02*
X110077190Y-145615819D01*
X110077190Y-145615819D02*
X110172428Y-145568200D01*
X110172428Y-145568200D02*
X110220047Y-145520580D01*
X110220047Y-145520580D02*
X110267666Y-145425342D01*
X110267666Y-145425342D02*
X110267666Y-145187247D01*
X110267666Y-145187247D02*
X110220047Y-145092009D01*
X110220047Y-145092009D02*
X110172428Y-145044390D01*
X110172428Y-145044390D02*
X110077190Y-144996771D01*
X110077190Y-144996771D02*
X109886714Y-144996771D01*
X109886714Y-144996771D02*
X109791476Y-145044390D01*
X109791476Y-145044390D02*
X109743857Y-145092009D01*
X109743857Y-145092009D02*
X109696238Y-145187247D01*
X110916666Y-98954819D02*
X110916666Y-99669104D01*
X110916666Y-99669104D02*
X110869047Y-99811961D01*
X110869047Y-99811961D02*
X110773809Y-99907200D01*
X110773809Y-99907200D02*
X110630952Y-99954819D01*
X110630952Y-99954819D02*
X110535714Y-99954819D01*
X111869047Y-98954819D02*
X111392857Y-98954819D01*
X111392857Y-98954819D02*
X111345238Y-99431009D01*
X111345238Y-99431009D02*
X111392857Y-99383390D01*
X111392857Y-99383390D02*
X111488095Y-99335771D01*
X111488095Y-99335771D02*
X111726190Y-99335771D01*
X111726190Y-99335771D02*
X111821428Y-99383390D01*
X111821428Y-99383390D02*
X111869047Y-99431009D01*
X111869047Y-99431009D02*
X111916666Y-99526247D01*
X111916666Y-99526247D02*
X111916666Y-99764342D01*
X111916666Y-99764342D02*
X111869047Y-99859580D01*
X111869047Y-99859580D02*
X111821428Y-99907200D01*
X111821428Y-99907200D02*
X111726190Y-99954819D01*
X111726190Y-99954819D02*
X111488095Y-99954819D01*
X111488095Y-99954819D02*
X111392857Y-99907200D01*
X111392857Y-99907200D02*
X111345238Y-99859580D01*
X173402666Y-98895819D02*
X173402666Y-99610104D01*
X173402666Y-99610104D02*
X173355047Y-99752961D01*
X173355047Y-99752961D02*
X173259809Y-99848200D01*
X173259809Y-99848200D02*
X173116952Y-99895819D01*
X173116952Y-99895819D02*
X173021714Y-99895819D01*
X174402666Y-99895819D02*
X173831238Y-99895819D01*
X174116952Y-99895819D02*
X174116952Y-98895819D01*
X174116952Y-98895819D02*
X174021714Y-99038676D01*
X174021714Y-99038676D02*
X173926476Y-99133914D01*
X173926476Y-99133914D02*
X173831238Y-99181533D01*
X83841476Y-94566819D02*
X83841476Y-95281104D01*
X83841476Y-95281104D02*
X83793857Y-95423961D01*
X83793857Y-95423961D02*
X83698619Y-95519200D01*
X83698619Y-95519200D02*
X83555762Y-95566819D01*
X83555762Y-95566819D02*
X83460524Y-95566819D01*
X84841476Y-95566819D02*
X84270048Y-95566819D01*
X84555762Y-95566819D02*
X84555762Y-94566819D01*
X84555762Y-94566819D02*
X84460524Y-94709676D01*
X84460524Y-94709676D02*
X84365286Y-94804914D01*
X84365286Y-94804914D02*
X84270048Y-94852533D01*
X85698619Y-94566819D02*
X85508143Y-94566819D01*
X85508143Y-94566819D02*
X85412905Y-94614438D01*
X85412905Y-94614438D02*
X85365286Y-94662057D01*
X85365286Y-94662057D02*
X85270048Y-94804914D01*
X85270048Y-94804914D02*
X85222429Y-94995390D01*
X85222429Y-94995390D02*
X85222429Y-95376342D01*
X85222429Y-95376342D02*
X85270048Y-95471580D01*
X85270048Y-95471580D02*
X85317667Y-95519200D01*
X85317667Y-95519200D02*
X85412905Y-95566819D01*
X85412905Y-95566819D02*
X85603381Y-95566819D01*
X85603381Y-95566819D02*
X85698619Y-95519200D01*
X85698619Y-95519200D02*
X85746238Y-95471580D01*
X85746238Y-95471580D02*
X85793857Y-95376342D01*
X85793857Y-95376342D02*
X85793857Y-95138247D01*
X85793857Y-95138247D02*
X85746238Y-95043009D01*
X85746238Y-95043009D02*
X85698619Y-94995390D01*
X85698619Y-94995390D02*
X85603381Y-94947771D01*
X85603381Y-94947771D02*
X85412905Y-94947771D01*
X85412905Y-94947771D02*
X85317667Y-94995390D01*
X85317667Y-94995390D02*
X85270048Y-95043009D01*
X85270048Y-95043009D02*
X85222429Y-95138247D01*
X173402666Y-144615819D02*
X173402666Y-145330104D01*
X173402666Y-145330104D02*
X173355047Y-145472961D01*
X173355047Y-145472961D02*
X173259809Y-145568200D01*
X173259809Y-145568200D02*
X173116952Y-145615819D01*
X173116952Y-145615819D02*
X173021714Y-145615819D01*
X173831238Y-144711057D02*
X173878857Y-144663438D01*
X173878857Y-144663438D02*
X173974095Y-144615819D01*
X173974095Y-144615819D02*
X174212190Y-144615819D01*
X174212190Y-144615819D02*
X174307428Y-144663438D01*
X174307428Y-144663438D02*
X174355047Y-144711057D01*
X174355047Y-144711057D02*
X174402666Y-144806295D01*
X174402666Y-144806295D02*
X174402666Y-144901533D01*
X174402666Y-144901533D02*
X174355047Y-145044390D01*
X174355047Y-145044390D02*
X173783619Y-145615819D01*
X173783619Y-145615819D02*
X174402666Y-145615819D01*
X75611476Y-126295819D02*
X75611476Y-127010104D01*
X75611476Y-127010104D02*
X75563857Y-127152961D01*
X75563857Y-127152961D02*
X75468619Y-127248200D01*
X75468619Y-127248200D02*
X75325762Y-127295819D01*
X75325762Y-127295819D02*
X75230524Y-127295819D01*
X76611476Y-127295819D02*
X76040048Y-127295819D01*
X76325762Y-127295819D02*
X76325762Y-126295819D01*
X76325762Y-126295819D02*
X76230524Y-126438676D01*
X76230524Y-126438676D02*
X76135286Y-126533914D01*
X76135286Y-126533914D02*
X76040048Y-126581533D01*
X77516238Y-126295819D02*
X77040048Y-126295819D01*
X77040048Y-126295819D02*
X76992429Y-126772009D01*
X76992429Y-126772009D02*
X77040048Y-126724390D01*
X77040048Y-126724390D02*
X77135286Y-126676771D01*
X77135286Y-126676771D02*
X77373381Y-126676771D01*
X77373381Y-126676771D02*
X77468619Y-126724390D01*
X77468619Y-126724390D02*
X77516238Y-126772009D01*
X77516238Y-126772009D02*
X77563857Y-126867247D01*
X77563857Y-126867247D02*
X77563857Y-127105342D01*
X77563857Y-127105342D02*
X77516238Y-127200580D01*
X77516238Y-127200580D02*
X77468619Y-127248200D01*
X77468619Y-127248200D02*
X77373381Y-127295819D01*
X77373381Y-127295819D02*
X77135286Y-127295819D01*
X77135286Y-127295819D02*
X77040048Y-127248200D01*
X77040048Y-127248200D02*
X76992429Y-127200580D01*
X75661476Y-141695819D02*
X75661476Y-142410104D01*
X75661476Y-142410104D02*
X75613857Y-142552961D01*
X75613857Y-142552961D02*
X75518619Y-142648200D01*
X75518619Y-142648200D02*
X75375762Y-142695819D01*
X75375762Y-142695819D02*
X75280524Y-142695819D01*
X76661476Y-142695819D02*
X76090048Y-142695819D01*
X76375762Y-142695819D02*
X76375762Y-141695819D01*
X76375762Y-141695819D02*
X76280524Y-141838676D01*
X76280524Y-141838676D02*
X76185286Y-141933914D01*
X76185286Y-141933914D02*
X76090048Y-141981533D01*
X77518619Y-142029152D02*
X77518619Y-142695819D01*
X77280524Y-141648200D02*
X77042429Y-142362485D01*
X77042429Y-142362485D02*
X77661476Y-142362485D01*
X86416666Y-94454819D02*
X86416666Y-95169104D01*
X86416666Y-95169104D02*
X86369047Y-95311961D01*
X86369047Y-95311961D02*
X86273809Y-95407200D01*
X86273809Y-95407200D02*
X86130952Y-95454819D01*
X86130952Y-95454819D02*
X86035714Y-95454819D01*
X86797619Y-94454819D02*
X87464285Y-94454819D01*
X87464285Y-94454819D02*
X87035714Y-95454819D01*
X75611476Y-111055819D02*
X75611476Y-111770104D01*
X75611476Y-111770104D02*
X75563857Y-111912961D01*
X75563857Y-111912961D02*
X75468619Y-112008200D01*
X75468619Y-112008200D02*
X75325762Y-112055819D01*
X75325762Y-112055819D02*
X75230524Y-112055819D01*
X76611476Y-112055819D02*
X76040048Y-112055819D01*
X76325762Y-112055819D02*
X76325762Y-111055819D01*
X76325762Y-111055819D02*
X76230524Y-111198676D01*
X76230524Y-111198676D02*
X76135286Y-111293914D01*
X76135286Y-111293914D02*
X76040048Y-111341533D01*
X76992429Y-111151057D02*
X77040048Y-111103438D01*
X77040048Y-111103438D02*
X77135286Y-111055819D01*
X77135286Y-111055819D02*
X77373381Y-111055819D01*
X77373381Y-111055819D02*
X77468619Y-111103438D01*
X77468619Y-111103438D02*
X77516238Y-111151057D01*
X77516238Y-111151057D02*
X77563857Y-111246295D01*
X77563857Y-111246295D02*
X77563857Y-111341533D01*
X77563857Y-111341533D02*
X77516238Y-111484390D01*
X77516238Y-111484390D02*
X76944810Y-112055819D01*
X76944810Y-112055819D02*
X77563857Y-112055819D01*
X173402666Y-142075819D02*
X173402666Y-142790104D01*
X173402666Y-142790104D02*
X173355047Y-142932961D01*
X173355047Y-142932961D02*
X173259809Y-143028200D01*
X173259809Y-143028200D02*
X173116952Y-143075819D01*
X173116952Y-143075819D02*
X173021714Y-143075819D01*
X174307428Y-142409152D02*
X174307428Y-143075819D01*
X174069333Y-142028200D02*
X173831238Y-142742485D01*
X173831238Y-142742485D02*
X174450285Y-142742485D01*
X173402666Y-101435819D02*
X173402666Y-102150104D01*
X173402666Y-102150104D02*
X173355047Y-102292961D01*
X173355047Y-102292961D02*
X173259809Y-102388200D01*
X173259809Y-102388200D02*
X173116952Y-102435819D01*
X173116952Y-102435819D02*
X173021714Y-102435819D01*
X173783619Y-101435819D02*
X174402666Y-101435819D01*
X174402666Y-101435819D02*
X174069333Y-101816771D01*
X174069333Y-101816771D02*
X174212190Y-101816771D01*
X174212190Y-101816771D02*
X174307428Y-101864390D01*
X174307428Y-101864390D02*
X174355047Y-101912009D01*
X174355047Y-101912009D02*
X174402666Y-102007247D01*
X174402666Y-102007247D02*
X174402666Y-102245342D01*
X174402666Y-102245342D02*
X174355047Y-102340580D01*
X174355047Y-102340580D02*
X174307428Y-102388200D01*
X174307428Y-102388200D02*
X174212190Y-102435819D01*
X174212190Y-102435819D02*
X173926476Y-102435819D01*
X173926476Y-102435819D02*
X173831238Y-102388200D01*
X173831238Y-102388200D02*
X173783619Y-102340580D01*
X144986476Y-104610819D02*
X144986476Y-105325104D01*
X144986476Y-105325104D02*
X144938857Y-105467961D01*
X144938857Y-105467961D02*
X144843619Y-105563200D01*
X144843619Y-105563200D02*
X144700762Y-105610819D01*
X144700762Y-105610819D02*
X144605524Y-105610819D01*
X145415048Y-104706057D02*
X145462667Y-104658438D01*
X145462667Y-104658438D02*
X145557905Y-104610819D01*
X145557905Y-104610819D02*
X145796000Y-104610819D01*
X145796000Y-104610819D02*
X145891238Y-104658438D01*
X145891238Y-104658438D02*
X145938857Y-104706057D01*
X145938857Y-104706057D02*
X145986476Y-104801295D01*
X145986476Y-104801295D02*
X145986476Y-104896533D01*
X145986476Y-104896533D02*
X145938857Y-105039390D01*
X145938857Y-105039390D02*
X145367429Y-105610819D01*
X145367429Y-105610819D02*
X145986476Y-105610819D01*
X146938857Y-105610819D02*
X146367429Y-105610819D01*
X146653143Y-105610819D02*
X146653143Y-104610819D01*
X146653143Y-104610819D02*
X146557905Y-104753676D01*
X146557905Y-104753676D02*
X146462667Y-104848914D01*
X146462667Y-104848914D02*
X146367429Y-104896533D01*
X80061476Y-146695819D02*
X80061476Y-147410104D01*
X80061476Y-147410104D02*
X80013857Y-147552961D01*
X80013857Y-147552961D02*
X79918619Y-147648200D01*
X79918619Y-147648200D02*
X79775762Y-147695819D01*
X79775762Y-147695819D02*
X79680524Y-147695819D01*
X81061476Y-147695819D02*
X80490048Y-147695819D01*
X80775762Y-147695819D02*
X80775762Y-146695819D01*
X80775762Y-146695819D02*
X80680524Y-146838676D01*
X80680524Y-146838676D02*
X80585286Y-146933914D01*
X80585286Y-146933914D02*
X80490048Y-146981533D01*
X81680524Y-146695819D02*
X81775762Y-146695819D01*
X81775762Y-146695819D02*
X81871000Y-146743438D01*
X81871000Y-146743438D02*
X81918619Y-146791057D01*
X81918619Y-146791057D02*
X81966238Y-146886295D01*
X81966238Y-146886295D02*
X82013857Y-147076771D01*
X82013857Y-147076771D02*
X82013857Y-147314866D01*
X82013857Y-147314866D02*
X81966238Y-147505342D01*
X81966238Y-147505342D02*
X81918619Y-147600580D01*
X81918619Y-147600580D02*
X81871000Y-147648200D01*
X81871000Y-147648200D02*
X81775762Y-147695819D01*
X81775762Y-147695819D02*
X81680524Y-147695819D01*
X81680524Y-147695819D02*
X81585286Y-147648200D01*
X81585286Y-147648200D02*
X81537667Y-147600580D01*
X81537667Y-147600580D02*
X81490048Y-147505342D01*
X81490048Y-147505342D02*
X81442429Y-147314866D01*
X81442429Y-147314866D02*
X81442429Y-147076771D01*
X81442429Y-147076771D02*
X81490048Y-146886295D01*
X81490048Y-146886295D02*
X81537667Y-146791057D01*
X81537667Y-146791057D02*
X81585286Y-146743438D01*
X81585286Y-146743438D02*
X81680524Y-146695819D01*
X109267666Y-142075819D02*
X109267666Y-142790104D01*
X109267666Y-142790104D02*
X109220047Y-142932961D01*
X109220047Y-142932961D02*
X109124809Y-143028200D01*
X109124809Y-143028200D02*
X108981952Y-143075819D01*
X108981952Y-143075819D02*
X108886714Y-143075819D01*
X109886714Y-142504390D02*
X109791476Y-142456771D01*
X109791476Y-142456771D02*
X109743857Y-142409152D01*
X109743857Y-142409152D02*
X109696238Y-142313914D01*
X109696238Y-142313914D02*
X109696238Y-142266295D01*
X109696238Y-142266295D02*
X109743857Y-142171057D01*
X109743857Y-142171057D02*
X109791476Y-142123438D01*
X109791476Y-142123438D02*
X109886714Y-142075819D01*
X109886714Y-142075819D02*
X110077190Y-142075819D01*
X110077190Y-142075819D02*
X110172428Y-142123438D01*
X110172428Y-142123438D02*
X110220047Y-142171057D01*
X110220047Y-142171057D02*
X110267666Y-142266295D01*
X110267666Y-142266295D02*
X110267666Y-142313914D01*
X110267666Y-142313914D02*
X110220047Y-142409152D01*
X110220047Y-142409152D02*
X110172428Y-142456771D01*
X110172428Y-142456771D02*
X110077190Y-142504390D01*
X110077190Y-142504390D02*
X109886714Y-142504390D01*
X109886714Y-142504390D02*
X109791476Y-142552009D01*
X109791476Y-142552009D02*
X109743857Y-142599628D01*
X109743857Y-142599628D02*
X109696238Y-142694866D01*
X109696238Y-142694866D02*
X109696238Y-142885342D01*
X109696238Y-142885342D02*
X109743857Y-142980580D01*
X109743857Y-142980580D02*
X109791476Y-143028200D01*
X109791476Y-143028200D02*
X109886714Y-143075819D01*
X109886714Y-143075819D02*
X110077190Y-143075819D01*
X110077190Y-143075819D02*
X110172428Y-143028200D01*
X110172428Y-143028200D02*
X110220047Y-142980580D01*
X110220047Y-142980580D02*
X110267666Y-142885342D01*
X110267666Y-142885342D02*
X110267666Y-142694866D01*
X110267666Y-142694866D02*
X110220047Y-142599628D01*
X110220047Y-142599628D02*
X110172428Y-142552009D01*
X110172428Y-142552009D02*
X110077190Y-142504390D01*
X101378142Y-78523580D02*
X101330523Y-78571200D01*
X101330523Y-78571200D02*
X101187666Y-78618819D01*
X101187666Y-78618819D02*
X101092428Y-78618819D01*
X101092428Y-78618819D02*
X100949571Y-78571200D01*
X100949571Y-78571200D02*
X100854333Y-78475961D01*
X100854333Y-78475961D02*
X100806714Y-78380723D01*
X100806714Y-78380723D02*
X100759095Y-78190247D01*
X100759095Y-78190247D02*
X100759095Y-78047390D01*
X100759095Y-78047390D02*
X100806714Y-77856914D01*
X100806714Y-77856914D02*
X100854333Y-77761676D01*
X100854333Y-77761676D02*
X100949571Y-77666438D01*
X100949571Y-77666438D02*
X101092428Y-77618819D01*
X101092428Y-77618819D02*
X101187666Y-77618819D01*
X101187666Y-77618819D02*
X101330523Y-77666438D01*
X101330523Y-77666438D02*
X101378142Y-77714057D01*
X102330523Y-78618819D02*
X101759095Y-78618819D01*
X102044809Y-78618819D02*
X102044809Y-77618819D01*
X102044809Y-77618819D02*
X101949571Y-77761676D01*
X101949571Y-77761676D02*
X101854333Y-77856914D01*
X101854333Y-77856914D02*
X101759095Y-77904533D01*
X102949571Y-77618819D02*
X103044809Y-77618819D01*
X103044809Y-77618819D02*
X103140047Y-77666438D01*
X103140047Y-77666438D02*
X103187666Y-77714057D01*
X103187666Y-77714057D02*
X103235285Y-77809295D01*
X103235285Y-77809295D02*
X103282904Y-77999771D01*
X103282904Y-77999771D02*
X103282904Y-78237866D01*
X103282904Y-78237866D02*
X103235285Y-78428342D01*
X103235285Y-78428342D02*
X103187666Y-78523580D01*
X103187666Y-78523580D02*
X103140047Y-78571200D01*
X103140047Y-78571200D02*
X103044809Y-78618819D01*
X103044809Y-78618819D02*
X102949571Y-78618819D01*
X102949571Y-78618819D02*
X102854333Y-78571200D01*
X102854333Y-78571200D02*
X102806714Y-78523580D01*
X102806714Y-78523580D02*
X102759095Y-78428342D01*
X102759095Y-78428342D02*
X102711476Y-78237866D01*
X102711476Y-78237866D02*
X102711476Y-77999771D01*
X102711476Y-77999771D02*
X102759095Y-77809295D01*
X102759095Y-77809295D02*
X102806714Y-77714057D01*
X102806714Y-77714057D02*
X102854333Y-77666438D01*
X102854333Y-77666438D02*
X102949571Y-77618819D01*
X85540333Y-83517580D02*
X85492714Y-83565200D01*
X85492714Y-83565200D02*
X85349857Y-83612819D01*
X85349857Y-83612819D02*
X85254619Y-83612819D01*
X85254619Y-83612819D02*
X85111762Y-83565200D01*
X85111762Y-83565200D02*
X85016524Y-83469961D01*
X85016524Y-83469961D02*
X84968905Y-83374723D01*
X84968905Y-83374723D02*
X84921286Y-83184247D01*
X84921286Y-83184247D02*
X84921286Y-83041390D01*
X84921286Y-83041390D02*
X84968905Y-82850914D01*
X84968905Y-82850914D02*
X85016524Y-82755676D01*
X85016524Y-82755676D02*
X85111762Y-82660438D01*
X85111762Y-82660438D02*
X85254619Y-82612819D01*
X85254619Y-82612819D02*
X85349857Y-82612819D01*
X85349857Y-82612819D02*
X85492714Y-82660438D01*
X85492714Y-82660438D02*
X85540333Y-82708057D01*
X86397476Y-82612819D02*
X86207000Y-82612819D01*
X86207000Y-82612819D02*
X86111762Y-82660438D01*
X86111762Y-82660438D02*
X86064143Y-82708057D01*
X86064143Y-82708057D02*
X85968905Y-82850914D01*
X85968905Y-82850914D02*
X85921286Y-83041390D01*
X85921286Y-83041390D02*
X85921286Y-83422342D01*
X85921286Y-83422342D02*
X85968905Y-83517580D01*
X85968905Y-83517580D02*
X86016524Y-83565200D01*
X86016524Y-83565200D02*
X86111762Y-83612819D01*
X86111762Y-83612819D02*
X86302238Y-83612819D01*
X86302238Y-83612819D02*
X86397476Y-83565200D01*
X86397476Y-83565200D02*
X86445095Y-83517580D01*
X86445095Y-83517580D02*
X86492714Y-83422342D01*
X86492714Y-83422342D02*
X86492714Y-83184247D01*
X86492714Y-83184247D02*
X86445095Y-83089009D01*
X86445095Y-83089009D02*
X86397476Y-83041390D01*
X86397476Y-83041390D02*
X86302238Y-82993771D01*
X86302238Y-82993771D02*
X86111762Y-82993771D01*
X86111762Y-82993771D02*
X86016524Y-83041390D01*
X86016524Y-83041390D02*
X85968905Y-83089009D01*
X85968905Y-83089009D02*
X85921286Y-83184247D01*
X106010905Y-62412819D02*
X106010905Y-61412819D01*
X106010905Y-61412819D02*
X106249000Y-61412819D01*
X106249000Y-61412819D02*
X106391857Y-61460438D01*
X106391857Y-61460438D02*
X106487095Y-61555676D01*
X106487095Y-61555676D02*
X106534714Y-61650914D01*
X106534714Y-61650914D02*
X106582333Y-61841390D01*
X106582333Y-61841390D02*
X106582333Y-61984247D01*
X106582333Y-61984247D02*
X106534714Y-62174723D01*
X106534714Y-62174723D02*
X106487095Y-62269961D01*
X106487095Y-62269961D02*
X106391857Y-62365200D01*
X106391857Y-62365200D02*
X106249000Y-62412819D01*
X106249000Y-62412819D02*
X106010905Y-62412819D01*
X106915667Y-61412819D02*
X107582333Y-61412819D01*
X107582333Y-61412819D02*
X107153762Y-62412819D01*
X105698333Y-89492819D02*
X105365000Y-89016628D01*
X105126905Y-89492819D02*
X105126905Y-88492819D01*
X105126905Y-88492819D02*
X105507857Y-88492819D01*
X105507857Y-88492819D02*
X105603095Y-88540438D01*
X105603095Y-88540438D02*
X105650714Y-88588057D01*
X105650714Y-88588057D02*
X105698333Y-88683295D01*
X105698333Y-88683295D02*
X105698333Y-88826152D01*
X105698333Y-88826152D02*
X105650714Y-88921390D01*
X105650714Y-88921390D02*
X105603095Y-88969009D01*
X105603095Y-88969009D02*
X105507857Y-89016628D01*
X105507857Y-89016628D02*
X105126905Y-89016628D01*
X106555476Y-88492819D02*
X106365000Y-88492819D01*
X106365000Y-88492819D02*
X106269762Y-88540438D01*
X106269762Y-88540438D02*
X106222143Y-88588057D01*
X106222143Y-88588057D02*
X106126905Y-88730914D01*
X106126905Y-88730914D02*
X106079286Y-88921390D01*
X106079286Y-88921390D02*
X106079286Y-89302342D01*
X106079286Y-89302342D02*
X106126905Y-89397580D01*
X106126905Y-89397580D02*
X106174524Y-89445200D01*
X106174524Y-89445200D02*
X106269762Y-89492819D01*
X106269762Y-89492819D02*
X106460238Y-89492819D01*
X106460238Y-89492819D02*
X106555476Y-89445200D01*
X106555476Y-89445200D02*
X106603095Y-89397580D01*
X106603095Y-89397580D02*
X106650714Y-89302342D01*
X106650714Y-89302342D02*
X106650714Y-89064247D01*
X106650714Y-89064247D02*
X106603095Y-88969009D01*
X106603095Y-88969009D02*
X106555476Y-88921390D01*
X106555476Y-88921390D02*
X106460238Y-88873771D01*
X106460238Y-88873771D02*
X106269762Y-88873771D01*
X106269762Y-88873771D02*
X106174524Y-88921390D01*
X106174524Y-88921390D02*
X106126905Y-88969009D01*
X106126905Y-88969009D02*
X106079286Y-89064247D01*
X190047618Y-92454819D02*
X190047618Y-91454819D01*
X190047618Y-91454819D02*
X190285713Y-91454819D01*
X190285713Y-91454819D02*
X190428570Y-91502438D01*
X190428570Y-91502438D02*
X190523808Y-91597676D01*
X190523808Y-91597676D02*
X190571427Y-91692914D01*
X190571427Y-91692914D02*
X190619046Y-91883390D01*
X190619046Y-91883390D02*
X190619046Y-92026247D01*
X190619046Y-92026247D02*
X190571427Y-92216723D01*
X190571427Y-92216723D02*
X190523808Y-92311961D01*
X190523808Y-92311961D02*
X190428570Y-92407200D01*
X190428570Y-92407200D02*
X190285713Y-92454819D01*
X190285713Y-92454819D02*
X190047618Y-92454819D01*
X191476189Y-91788152D02*
X191476189Y-92454819D01*
X191238094Y-91407200D02*
X190999999Y-92121485D01*
X190999999Y-92121485D02*
X191619046Y-92121485D01*
X192285713Y-92835771D02*
X192238094Y-92788152D01*
X192238094Y-92788152D02*
X192142856Y-92645295D01*
X192142856Y-92645295D02*
X192095237Y-92550057D01*
X192095237Y-92550057D02*
X192047618Y-92407200D01*
X192047618Y-92407200D02*
X191999999Y-92169104D01*
X191999999Y-92169104D02*
X191999999Y-91978628D01*
X191999999Y-91978628D02*
X192047618Y-91740533D01*
X192047618Y-91740533D02*
X192095237Y-91597676D01*
X192095237Y-91597676D02*
X192142856Y-91502438D01*
X192142856Y-91502438D02*
X192238094Y-91359580D01*
X192238094Y-91359580D02*
X192285713Y-91311961D01*
X193095237Y-91788152D02*
X193095237Y-92597676D01*
X193095237Y-92597676D02*
X193047618Y-92692914D01*
X193047618Y-92692914D02*
X192999999Y-92740533D01*
X192999999Y-92740533D02*
X192904761Y-92788152D01*
X192904761Y-92788152D02*
X192761904Y-92788152D01*
X192761904Y-92788152D02*
X192666666Y-92740533D01*
X193095237Y-92407200D02*
X192999999Y-92454819D01*
X192999999Y-92454819D02*
X192809523Y-92454819D01*
X192809523Y-92454819D02*
X192714285Y-92407200D01*
X192714285Y-92407200D02*
X192666666Y-92359580D01*
X192666666Y-92359580D02*
X192619047Y-92264342D01*
X192619047Y-92264342D02*
X192619047Y-91978628D01*
X192619047Y-91978628D02*
X192666666Y-91883390D01*
X192666666Y-91883390D02*
X192714285Y-91835771D01*
X192714285Y-91835771D02*
X192809523Y-91788152D01*
X192809523Y-91788152D02*
X192999999Y-91788152D01*
X192999999Y-91788152D02*
X193095237Y-91835771D01*
X193571428Y-92454819D02*
X193571428Y-91788152D01*
X193571428Y-91978628D02*
X193619047Y-91883390D01*
X193619047Y-91883390D02*
X193666666Y-91835771D01*
X193666666Y-91835771D02*
X193761904Y-91788152D01*
X193761904Y-91788152D02*
X193857142Y-91788152D01*
X194571428Y-92407200D02*
X194476190Y-92454819D01*
X194476190Y-92454819D02*
X194285714Y-92454819D01*
X194285714Y-92454819D02*
X194190476Y-92407200D01*
X194190476Y-92407200D02*
X194142857Y-92311961D01*
X194142857Y-92311961D02*
X194142857Y-91931009D01*
X194142857Y-91931009D02*
X194190476Y-91835771D01*
X194190476Y-91835771D02*
X194285714Y-91788152D01*
X194285714Y-91788152D02*
X194476190Y-91788152D01*
X194476190Y-91788152D02*
X194571428Y-91835771D01*
X194571428Y-91835771D02*
X194619047Y-91931009D01*
X194619047Y-91931009D02*
X194619047Y-92026247D01*
X194619047Y-92026247D02*
X194142857Y-92121485D01*
X195428571Y-92407200D02*
X195333333Y-92454819D01*
X195333333Y-92454819D02*
X195142857Y-92454819D01*
X195142857Y-92454819D02*
X195047619Y-92407200D01*
X195047619Y-92407200D02*
X195000000Y-92311961D01*
X195000000Y-92311961D02*
X195000000Y-91931009D01*
X195000000Y-91931009D02*
X195047619Y-91835771D01*
X195047619Y-91835771D02*
X195142857Y-91788152D01*
X195142857Y-91788152D02*
X195333333Y-91788152D01*
X195333333Y-91788152D02*
X195428571Y-91835771D01*
X195428571Y-91835771D02*
X195476190Y-91931009D01*
X195476190Y-91931009D02*
X195476190Y-92026247D01*
X195476190Y-92026247D02*
X195000000Y-92121485D01*
X195904762Y-91788152D02*
X195904762Y-92454819D01*
X195904762Y-91883390D02*
X195952381Y-91835771D01*
X195952381Y-91835771D02*
X196047619Y-91788152D01*
X196047619Y-91788152D02*
X196190476Y-91788152D01*
X196190476Y-91788152D02*
X196285714Y-91835771D01*
X196285714Y-91835771D02*
X196333333Y-91931009D01*
X196333333Y-91931009D02*
X196333333Y-92454819D01*
X196714286Y-92835771D02*
X196761905Y-92788152D01*
X196761905Y-92788152D02*
X196857143Y-92645295D01*
X196857143Y-92645295D02*
X196904762Y-92550057D01*
X196904762Y-92550057D02*
X196952381Y-92407200D01*
X196952381Y-92407200D02*
X197000000Y-92169104D01*
X197000000Y-92169104D02*
X197000000Y-91978628D01*
X197000000Y-91978628D02*
X196952381Y-91740533D01*
X196952381Y-91740533D02*
X196904762Y-91597676D01*
X196904762Y-91597676D02*
X196857143Y-91502438D01*
X196857143Y-91502438D02*
X196761905Y-91359580D01*
X196761905Y-91359580D02*
X196714286Y-91311961D01*
X198000000Y-92454819D02*
X197428572Y-92454819D01*
X197714286Y-92454819D02*
X197714286Y-91454819D01*
X197714286Y-91454819D02*
X197619048Y-91597676D01*
X197619048Y-91597676D02*
X197523810Y-91692914D01*
X197523810Y-91692914D02*
X197428572Y-91740533D01*
X101378142Y-83523580D02*
X101330523Y-83571200D01*
X101330523Y-83571200D02*
X101187666Y-83618819D01*
X101187666Y-83618819D02*
X101092428Y-83618819D01*
X101092428Y-83618819D02*
X100949571Y-83571200D01*
X100949571Y-83571200D02*
X100854333Y-83475961D01*
X100854333Y-83475961D02*
X100806714Y-83380723D01*
X100806714Y-83380723D02*
X100759095Y-83190247D01*
X100759095Y-83190247D02*
X100759095Y-83047390D01*
X100759095Y-83047390D02*
X100806714Y-82856914D01*
X100806714Y-82856914D02*
X100854333Y-82761676D01*
X100854333Y-82761676D02*
X100949571Y-82666438D01*
X100949571Y-82666438D02*
X101092428Y-82618819D01*
X101092428Y-82618819D02*
X101187666Y-82618819D01*
X101187666Y-82618819D02*
X101330523Y-82666438D01*
X101330523Y-82666438D02*
X101378142Y-82714057D01*
X102330523Y-83618819D02*
X101759095Y-83618819D01*
X102044809Y-83618819D02*
X102044809Y-82618819D01*
X102044809Y-82618819D02*
X101949571Y-82761676D01*
X101949571Y-82761676D02*
X101854333Y-82856914D01*
X101854333Y-82856914D02*
X101759095Y-82904533D01*
X102711476Y-82714057D02*
X102759095Y-82666438D01*
X102759095Y-82666438D02*
X102854333Y-82618819D01*
X102854333Y-82618819D02*
X103092428Y-82618819D01*
X103092428Y-82618819D02*
X103187666Y-82666438D01*
X103187666Y-82666438D02*
X103235285Y-82714057D01*
X103235285Y-82714057D02*
X103282904Y-82809295D01*
X103282904Y-82809295D02*
X103282904Y-82904533D01*
X103282904Y-82904533D02*
X103235285Y-83047390D01*
X103235285Y-83047390D02*
X102663857Y-83618819D01*
X102663857Y-83618819D02*
X103282904Y-83618819D01*
X104836142Y-75754819D02*
X104502809Y-75278628D01*
X104264714Y-75754819D02*
X104264714Y-74754819D01*
X104264714Y-74754819D02*
X104645666Y-74754819D01*
X104645666Y-74754819D02*
X104740904Y-74802438D01*
X104740904Y-74802438D02*
X104788523Y-74850057D01*
X104788523Y-74850057D02*
X104836142Y-74945295D01*
X104836142Y-74945295D02*
X104836142Y-75088152D01*
X104836142Y-75088152D02*
X104788523Y-75183390D01*
X104788523Y-75183390D02*
X104740904Y-75231009D01*
X104740904Y-75231009D02*
X104645666Y-75278628D01*
X104645666Y-75278628D02*
X104264714Y-75278628D01*
X105788523Y-75754819D02*
X105217095Y-75754819D01*
X105502809Y-75754819D02*
X105502809Y-74754819D01*
X105502809Y-74754819D02*
X105407571Y-74897676D01*
X105407571Y-74897676D02*
X105312333Y-74992914D01*
X105312333Y-74992914D02*
X105217095Y-75040533D01*
X106169476Y-74850057D02*
X106217095Y-74802438D01*
X106217095Y-74802438D02*
X106312333Y-74754819D01*
X106312333Y-74754819D02*
X106550428Y-74754819D01*
X106550428Y-74754819D02*
X106645666Y-74802438D01*
X106645666Y-74802438D02*
X106693285Y-74850057D01*
X106693285Y-74850057D02*
X106740904Y-74945295D01*
X106740904Y-74945295D02*
X106740904Y-75040533D01*
X106740904Y-75040533D02*
X106693285Y-75183390D01*
X106693285Y-75183390D02*
X106121857Y-75754819D01*
X106121857Y-75754819D02*
X106740904Y-75754819D01*
X88484905Y-83374819D02*
X88484905Y-82374819D01*
X88484905Y-82374819D02*
X88723000Y-82374819D01*
X88723000Y-82374819D02*
X88865857Y-82422438D01*
X88865857Y-82422438D02*
X88961095Y-82517676D01*
X88961095Y-82517676D02*
X89008714Y-82612914D01*
X89008714Y-82612914D02*
X89056333Y-82803390D01*
X89056333Y-82803390D02*
X89056333Y-82946247D01*
X89056333Y-82946247D02*
X89008714Y-83136723D01*
X89008714Y-83136723D02*
X88961095Y-83231961D01*
X88961095Y-83231961D02*
X88865857Y-83327200D01*
X88865857Y-83327200D02*
X88723000Y-83374819D01*
X88723000Y-83374819D02*
X88484905Y-83374819D01*
X89437286Y-82470057D02*
X89484905Y-82422438D01*
X89484905Y-82422438D02*
X89580143Y-82374819D01*
X89580143Y-82374819D02*
X89818238Y-82374819D01*
X89818238Y-82374819D02*
X89913476Y-82422438D01*
X89913476Y-82422438D02*
X89961095Y-82470057D01*
X89961095Y-82470057D02*
X90008714Y-82565295D01*
X90008714Y-82565295D02*
X90008714Y-82660533D01*
X90008714Y-82660533D02*
X89961095Y-82803390D01*
X89961095Y-82803390D02*
X89389667Y-83374819D01*
X89389667Y-83374819D02*
X90008714Y-83374819D01*
X119596333Y-74045580D02*
X119548714Y-74093200D01*
X119548714Y-74093200D02*
X119405857Y-74140819D01*
X119405857Y-74140819D02*
X119310619Y-74140819D01*
X119310619Y-74140819D02*
X119167762Y-74093200D01*
X119167762Y-74093200D02*
X119072524Y-73997961D01*
X119072524Y-73997961D02*
X119024905Y-73902723D01*
X119024905Y-73902723D02*
X118977286Y-73712247D01*
X118977286Y-73712247D02*
X118977286Y-73569390D01*
X118977286Y-73569390D02*
X119024905Y-73378914D01*
X119024905Y-73378914D02*
X119072524Y-73283676D01*
X119072524Y-73283676D02*
X119167762Y-73188438D01*
X119167762Y-73188438D02*
X119310619Y-73140819D01*
X119310619Y-73140819D02*
X119405857Y-73140819D01*
X119405857Y-73140819D02*
X119548714Y-73188438D01*
X119548714Y-73188438D02*
X119596333Y-73236057D01*
X119929667Y-73140819D02*
X120548714Y-73140819D01*
X120548714Y-73140819D02*
X120215381Y-73521771D01*
X120215381Y-73521771D02*
X120358238Y-73521771D01*
X120358238Y-73521771D02*
X120453476Y-73569390D01*
X120453476Y-73569390D02*
X120501095Y-73617009D01*
X120501095Y-73617009D02*
X120548714Y-73712247D01*
X120548714Y-73712247D02*
X120548714Y-73950342D01*
X120548714Y-73950342D02*
X120501095Y-74045580D01*
X120501095Y-74045580D02*
X120453476Y-74093200D01*
X120453476Y-74093200D02*
X120358238Y-74140819D01*
X120358238Y-74140819D02*
X120072524Y-74140819D01*
X120072524Y-74140819D02*
X119977286Y-74093200D01*
X119977286Y-74093200D02*
X119929667Y-74045580D01*
X101378142Y-81023580D02*
X101330523Y-81071200D01*
X101330523Y-81071200D02*
X101187666Y-81118819D01*
X101187666Y-81118819D02*
X101092428Y-81118819D01*
X101092428Y-81118819D02*
X100949571Y-81071200D01*
X100949571Y-81071200D02*
X100854333Y-80975961D01*
X100854333Y-80975961D02*
X100806714Y-80880723D01*
X100806714Y-80880723D02*
X100759095Y-80690247D01*
X100759095Y-80690247D02*
X100759095Y-80547390D01*
X100759095Y-80547390D02*
X100806714Y-80356914D01*
X100806714Y-80356914D02*
X100854333Y-80261676D01*
X100854333Y-80261676D02*
X100949571Y-80166438D01*
X100949571Y-80166438D02*
X101092428Y-80118819D01*
X101092428Y-80118819D02*
X101187666Y-80118819D01*
X101187666Y-80118819D02*
X101330523Y-80166438D01*
X101330523Y-80166438D02*
X101378142Y-80214057D01*
X102330523Y-81118819D02*
X101759095Y-81118819D01*
X102044809Y-81118819D02*
X102044809Y-80118819D01*
X102044809Y-80118819D02*
X101949571Y-80261676D01*
X101949571Y-80261676D02*
X101854333Y-80356914D01*
X101854333Y-80356914D02*
X101759095Y-80404533D01*
X103282904Y-81118819D02*
X102711476Y-81118819D01*
X102997190Y-81118819D02*
X102997190Y-80118819D01*
X102997190Y-80118819D02*
X102901952Y-80261676D01*
X102901952Y-80261676D02*
X102806714Y-80356914D01*
X102806714Y-80356914D02*
X102711476Y-80404533D01*
X74782333Y-70730819D02*
X74449000Y-70254628D01*
X74210905Y-70730819D02*
X74210905Y-69730819D01*
X74210905Y-69730819D02*
X74591857Y-69730819D01*
X74591857Y-69730819D02*
X74687095Y-69778438D01*
X74687095Y-69778438D02*
X74734714Y-69826057D01*
X74734714Y-69826057D02*
X74782333Y-69921295D01*
X74782333Y-69921295D02*
X74782333Y-70064152D01*
X74782333Y-70064152D02*
X74734714Y-70159390D01*
X74734714Y-70159390D02*
X74687095Y-70207009D01*
X74687095Y-70207009D02*
X74591857Y-70254628D01*
X74591857Y-70254628D02*
X74210905Y-70254628D01*
X75258524Y-70730819D02*
X75449000Y-70730819D01*
X75449000Y-70730819D02*
X75544238Y-70683200D01*
X75544238Y-70683200D02*
X75591857Y-70635580D01*
X75591857Y-70635580D02*
X75687095Y-70492723D01*
X75687095Y-70492723D02*
X75734714Y-70302247D01*
X75734714Y-70302247D02*
X75734714Y-69921295D01*
X75734714Y-69921295D02*
X75687095Y-69826057D01*
X75687095Y-69826057D02*
X75639476Y-69778438D01*
X75639476Y-69778438D02*
X75544238Y-69730819D01*
X75544238Y-69730819D02*
X75353762Y-69730819D01*
X75353762Y-69730819D02*
X75258524Y-69778438D01*
X75258524Y-69778438D02*
X75210905Y-69826057D01*
X75210905Y-69826057D02*
X75163286Y-69921295D01*
X75163286Y-69921295D02*
X75163286Y-70159390D01*
X75163286Y-70159390D02*
X75210905Y-70254628D01*
X75210905Y-70254628D02*
X75258524Y-70302247D01*
X75258524Y-70302247D02*
X75353762Y-70349866D01*
X75353762Y-70349866D02*
X75544238Y-70349866D01*
X75544238Y-70349866D02*
X75639476Y-70302247D01*
X75639476Y-70302247D02*
X75687095Y-70254628D01*
X75687095Y-70254628D02*
X75734714Y-70159390D01*
X102064142Y-74756819D02*
X101730809Y-74280628D01*
X101492714Y-74756819D02*
X101492714Y-73756819D01*
X101492714Y-73756819D02*
X101873666Y-73756819D01*
X101873666Y-73756819D02*
X101968904Y-73804438D01*
X101968904Y-73804438D02*
X102016523Y-73852057D01*
X102016523Y-73852057D02*
X102064142Y-73947295D01*
X102064142Y-73947295D02*
X102064142Y-74090152D01*
X102064142Y-74090152D02*
X102016523Y-74185390D01*
X102016523Y-74185390D02*
X101968904Y-74233009D01*
X101968904Y-74233009D02*
X101873666Y-74280628D01*
X101873666Y-74280628D02*
X101492714Y-74280628D01*
X103016523Y-74756819D02*
X102445095Y-74756819D01*
X102730809Y-74756819D02*
X102730809Y-73756819D01*
X102730809Y-73756819D02*
X102635571Y-73899676D01*
X102635571Y-73899676D02*
X102540333Y-73994914D01*
X102540333Y-73994914D02*
X102445095Y-74042533D01*
X103635571Y-73756819D02*
X103730809Y-73756819D01*
X103730809Y-73756819D02*
X103826047Y-73804438D01*
X103826047Y-73804438D02*
X103873666Y-73852057D01*
X103873666Y-73852057D02*
X103921285Y-73947295D01*
X103921285Y-73947295D02*
X103968904Y-74137771D01*
X103968904Y-74137771D02*
X103968904Y-74375866D01*
X103968904Y-74375866D02*
X103921285Y-74566342D01*
X103921285Y-74566342D02*
X103873666Y-74661580D01*
X103873666Y-74661580D02*
X103826047Y-74709200D01*
X103826047Y-74709200D02*
X103730809Y-74756819D01*
X103730809Y-74756819D02*
X103635571Y-74756819D01*
X103635571Y-74756819D02*
X103540333Y-74709200D01*
X103540333Y-74709200D02*
X103492714Y-74661580D01*
X103492714Y-74661580D02*
X103445095Y-74566342D01*
X103445095Y-74566342D02*
X103397476Y-74375866D01*
X103397476Y-74375866D02*
X103397476Y-74137771D01*
X103397476Y-74137771D02*
X103445095Y-73947295D01*
X103445095Y-73947295D02*
X103492714Y-73852057D01*
X103492714Y-73852057D02*
X103540333Y-73804438D01*
X103540333Y-73804438D02*
X103635571Y-73756819D01*
X89056333Y-81342819D02*
X88723000Y-80866628D01*
X88484905Y-81342819D02*
X88484905Y-80342819D01*
X88484905Y-80342819D02*
X88865857Y-80342819D01*
X88865857Y-80342819D02*
X88961095Y-80390438D01*
X88961095Y-80390438D02*
X89008714Y-80438057D01*
X89008714Y-80438057D02*
X89056333Y-80533295D01*
X89056333Y-80533295D02*
X89056333Y-80676152D01*
X89056333Y-80676152D02*
X89008714Y-80771390D01*
X89008714Y-80771390D02*
X88961095Y-80819009D01*
X88961095Y-80819009D02*
X88865857Y-80866628D01*
X88865857Y-80866628D02*
X88484905Y-80866628D01*
X89961095Y-80342819D02*
X89484905Y-80342819D01*
X89484905Y-80342819D02*
X89437286Y-80819009D01*
X89437286Y-80819009D02*
X89484905Y-80771390D01*
X89484905Y-80771390D02*
X89580143Y-80723771D01*
X89580143Y-80723771D02*
X89818238Y-80723771D01*
X89818238Y-80723771D02*
X89913476Y-80771390D01*
X89913476Y-80771390D02*
X89961095Y-80819009D01*
X89961095Y-80819009D02*
X90008714Y-80914247D01*
X90008714Y-80914247D02*
X90008714Y-81152342D01*
X90008714Y-81152342D02*
X89961095Y-81247580D01*
X89961095Y-81247580D02*
X89913476Y-81295200D01*
X89913476Y-81295200D02*
X89818238Y-81342819D01*
X89818238Y-81342819D02*
X89580143Y-81342819D01*
X89580143Y-81342819D02*
X89484905Y-81295200D01*
X89484905Y-81295200D02*
X89437286Y-81247580D01*
X123790905Y-65444819D02*
X123790905Y-64444819D01*
X123790905Y-64444819D02*
X124029000Y-64444819D01*
X124029000Y-64444819D02*
X124171857Y-64492438D01*
X124171857Y-64492438D02*
X124267095Y-64587676D01*
X124267095Y-64587676D02*
X124314714Y-64682914D01*
X124314714Y-64682914D02*
X124362333Y-64873390D01*
X124362333Y-64873390D02*
X124362333Y-65016247D01*
X124362333Y-65016247D02*
X124314714Y-65206723D01*
X124314714Y-65206723D02*
X124267095Y-65301961D01*
X124267095Y-65301961D02*
X124171857Y-65397200D01*
X124171857Y-65397200D02*
X124029000Y-65444819D01*
X124029000Y-65444819D02*
X123790905Y-65444819D01*
X125314714Y-65444819D02*
X124743286Y-65444819D01*
X125029000Y-65444819D02*
X125029000Y-64444819D01*
X125029000Y-64444819D02*
X124933762Y-64587676D01*
X124933762Y-64587676D02*
X124838524Y-64682914D01*
X124838524Y-64682914D02*
X124743286Y-64730533D01*
X89083333Y-78609580D02*
X89035714Y-78657200D01*
X89035714Y-78657200D02*
X88892857Y-78704819D01*
X88892857Y-78704819D02*
X88797619Y-78704819D01*
X88797619Y-78704819D02*
X88654762Y-78657200D01*
X88654762Y-78657200D02*
X88559524Y-78561961D01*
X88559524Y-78561961D02*
X88511905Y-78466723D01*
X88511905Y-78466723D02*
X88464286Y-78276247D01*
X88464286Y-78276247D02*
X88464286Y-78133390D01*
X88464286Y-78133390D02*
X88511905Y-77942914D01*
X88511905Y-77942914D02*
X88559524Y-77847676D01*
X88559524Y-77847676D02*
X88654762Y-77752438D01*
X88654762Y-77752438D02*
X88797619Y-77704819D01*
X88797619Y-77704819D02*
X88892857Y-77704819D01*
X88892857Y-77704819D02*
X89035714Y-77752438D01*
X89035714Y-77752438D02*
X89083333Y-77800057D01*
X89416667Y-77704819D02*
X90083333Y-77704819D01*
X90083333Y-77704819D02*
X89654762Y-78704819D01*
X113694333Y-71595580D02*
X113646714Y-71643200D01*
X113646714Y-71643200D02*
X113503857Y-71690819D01*
X113503857Y-71690819D02*
X113408619Y-71690819D01*
X113408619Y-71690819D02*
X113265762Y-71643200D01*
X113265762Y-71643200D02*
X113170524Y-71547961D01*
X113170524Y-71547961D02*
X113122905Y-71452723D01*
X113122905Y-71452723D02*
X113075286Y-71262247D01*
X113075286Y-71262247D02*
X113075286Y-71119390D01*
X113075286Y-71119390D02*
X113122905Y-70928914D01*
X113122905Y-70928914D02*
X113170524Y-70833676D01*
X113170524Y-70833676D02*
X113265762Y-70738438D01*
X113265762Y-70738438D02*
X113408619Y-70690819D01*
X113408619Y-70690819D02*
X113503857Y-70690819D01*
X113503857Y-70690819D02*
X113646714Y-70738438D01*
X113646714Y-70738438D02*
X113694333Y-70786057D01*
X114551476Y-71024152D02*
X114551476Y-71690819D01*
X114313381Y-70643200D02*
X114075286Y-71357485D01*
X114075286Y-71357485D02*
X114694333Y-71357485D01*
X98184142Y-64272819D02*
X97850809Y-63796628D01*
X97612714Y-64272819D02*
X97612714Y-63272819D01*
X97612714Y-63272819D02*
X97993666Y-63272819D01*
X97993666Y-63272819D02*
X98088904Y-63320438D01*
X98088904Y-63320438D02*
X98136523Y-63368057D01*
X98136523Y-63368057D02*
X98184142Y-63463295D01*
X98184142Y-63463295D02*
X98184142Y-63606152D01*
X98184142Y-63606152D02*
X98136523Y-63701390D01*
X98136523Y-63701390D02*
X98088904Y-63749009D01*
X98088904Y-63749009D02*
X97993666Y-63796628D01*
X97993666Y-63796628D02*
X97612714Y-63796628D01*
X99136523Y-64272819D02*
X98565095Y-64272819D01*
X98850809Y-64272819D02*
X98850809Y-63272819D01*
X98850809Y-63272819D02*
X98755571Y-63415676D01*
X98755571Y-63415676D02*
X98660333Y-63510914D01*
X98660333Y-63510914D02*
X98565095Y-63558533D01*
X99469857Y-63272819D02*
X100088904Y-63272819D01*
X100088904Y-63272819D02*
X99755571Y-63653771D01*
X99755571Y-63653771D02*
X99898428Y-63653771D01*
X99898428Y-63653771D02*
X99993666Y-63701390D01*
X99993666Y-63701390D02*
X100041285Y-63749009D01*
X100041285Y-63749009D02*
X100088904Y-63844247D01*
X100088904Y-63844247D02*
X100088904Y-64082342D01*
X100088904Y-64082342D02*
X100041285Y-64177580D01*
X100041285Y-64177580D02*
X99993666Y-64225200D01*
X99993666Y-64225200D02*
X99898428Y-64272819D01*
X99898428Y-64272819D02*
X99612714Y-64272819D01*
X99612714Y-64272819D02*
X99517476Y-64225200D01*
X99517476Y-64225200D02*
X99469857Y-64177580D01*
X180920833Y-36954819D02*
X180587500Y-36478628D01*
X180349405Y-36954819D02*
X180349405Y-35954819D01*
X180349405Y-35954819D02*
X180730357Y-35954819D01*
X180730357Y-35954819D02*
X180825595Y-36002438D01*
X180825595Y-36002438D02*
X180873214Y-36050057D01*
X180873214Y-36050057D02*
X180920833Y-36145295D01*
X180920833Y-36145295D02*
X180920833Y-36288152D01*
X180920833Y-36288152D02*
X180873214Y-36383390D01*
X180873214Y-36383390D02*
X180825595Y-36431009D01*
X180825595Y-36431009D02*
X180730357Y-36478628D01*
X180730357Y-36478628D02*
X180349405Y-36478628D01*
X181873214Y-36954819D02*
X181301786Y-36954819D01*
X181587500Y-36954819D02*
X181587500Y-35954819D01*
X181587500Y-35954819D02*
X181492262Y-36097676D01*
X181492262Y-36097676D02*
X181397024Y-36192914D01*
X181397024Y-36192914D02*
X181301786Y-36240533D01*
X180940333Y-32312819D02*
X180607000Y-31836628D01*
X180368905Y-32312819D02*
X180368905Y-31312819D01*
X180368905Y-31312819D02*
X180749857Y-31312819D01*
X180749857Y-31312819D02*
X180845095Y-31360438D01*
X180845095Y-31360438D02*
X180892714Y-31408057D01*
X180892714Y-31408057D02*
X180940333Y-31503295D01*
X180940333Y-31503295D02*
X180940333Y-31646152D01*
X180940333Y-31646152D02*
X180892714Y-31741390D01*
X180892714Y-31741390D02*
X180845095Y-31789009D01*
X180845095Y-31789009D02*
X180749857Y-31836628D01*
X180749857Y-31836628D02*
X180368905Y-31836628D01*
X181273667Y-31312819D02*
X181892714Y-31312819D01*
X181892714Y-31312819D02*
X181559381Y-31693771D01*
X181559381Y-31693771D02*
X181702238Y-31693771D01*
X181702238Y-31693771D02*
X181797476Y-31741390D01*
X181797476Y-31741390D02*
X181845095Y-31789009D01*
X181845095Y-31789009D02*
X181892714Y-31884247D01*
X181892714Y-31884247D02*
X181892714Y-32122342D01*
X181892714Y-32122342D02*
X181845095Y-32217580D01*
X181845095Y-32217580D02*
X181797476Y-32265200D01*
X181797476Y-32265200D02*
X181702238Y-32312819D01*
X181702238Y-32312819D02*
X181416524Y-32312819D01*
X181416524Y-32312819D02*
X181321286Y-32265200D01*
X181321286Y-32265200D02*
X181273667Y-32217580D01*
X78282333Y-70785580D02*
X78234714Y-70833200D01*
X78234714Y-70833200D02*
X78091857Y-70880819D01*
X78091857Y-70880819D02*
X77996619Y-70880819D01*
X77996619Y-70880819D02*
X77853762Y-70833200D01*
X77853762Y-70833200D02*
X77758524Y-70737961D01*
X77758524Y-70737961D02*
X77710905Y-70642723D01*
X77710905Y-70642723D02*
X77663286Y-70452247D01*
X77663286Y-70452247D02*
X77663286Y-70309390D01*
X77663286Y-70309390D02*
X77710905Y-70118914D01*
X77710905Y-70118914D02*
X77758524Y-70023676D01*
X77758524Y-70023676D02*
X77853762Y-69928438D01*
X77853762Y-69928438D02*
X77996619Y-69880819D01*
X77996619Y-69880819D02*
X78091857Y-69880819D01*
X78091857Y-69880819D02*
X78234714Y-69928438D01*
X78234714Y-69928438D02*
X78282333Y-69976057D01*
X78758524Y-70880819D02*
X78949000Y-70880819D01*
X78949000Y-70880819D02*
X79044238Y-70833200D01*
X79044238Y-70833200D02*
X79091857Y-70785580D01*
X79091857Y-70785580D02*
X79187095Y-70642723D01*
X79187095Y-70642723D02*
X79234714Y-70452247D01*
X79234714Y-70452247D02*
X79234714Y-70071295D01*
X79234714Y-70071295D02*
X79187095Y-69976057D01*
X79187095Y-69976057D02*
X79139476Y-69928438D01*
X79139476Y-69928438D02*
X79044238Y-69880819D01*
X79044238Y-69880819D02*
X78853762Y-69880819D01*
X78853762Y-69880819D02*
X78758524Y-69928438D01*
X78758524Y-69928438D02*
X78710905Y-69976057D01*
X78710905Y-69976057D02*
X78663286Y-70071295D01*
X78663286Y-70071295D02*
X78663286Y-70309390D01*
X78663286Y-70309390D02*
X78710905Y-70404628D01*
X78710905Y-70404628D02*
X78758524Y-70452247D01*
X78758524Y-70452247D02*
X78853762Y-70499866D01*
X78853762Y-70499866D02*
X79044238Y-70499866D01*
X79044238Y-70499866D02*
X79139476Y-70452247D01*
X79139476Y-70452247D02*
X79187095Y-70404628D01*
X79187095Y-70404628D02*
X79234714Y-70309390D01*
X81282333Y-70785580D02*
X81234714Y-70833200D01*
X81234714Y-70833200D02*
X81091857Y-70880819D01*
X81091857Y-70880819D02*
X80996619Y-70880819D01*
X80996619Y-70880819D02*
X80853762Y-70833200D01*
X80853762Y-70833200D02*
X80758524Y-70737961D01*
X80758524Y-70737961D02*
X80710905Y-70642723D01*
X80710905Y-70642723D02*
X80663286Y-70452247D01*
X80663286Y-70452247D02*
X80663286Y-70309390D01*
X80663286Y-70309390D02*
X80710905Y-70118914D01*
X80710905Y-70118914D02*
X80758524Y-70023676D01*
X80758524Y-70023676D02*
X80853762Y-69928438D01*
X80853762Y-69928438D02*
X80996619Y-69880819D01*
X80996619Y-69880819D02*
X81091857Y-69880819D01*
X81091857Y-69880819D02*
X81234714Y-69928438D01*
X81234714Y-69928438D02*
X81282333Y-69976057D01*
X81853762Y-70309390D02*
X81758524Y-70261771D01*
X81758524Y-70261771D02*
X81710905Y-70214152D01*
X81710905Y-70214152D02*
X81663286Y-70118914D01*
X81663286Y-70118914D02*
X81663286Y-70071295D01*
X81663286Y-70071295D02*
X81710905Y-69976057D01*
X81710905Y-69976057D02*
X81758524Y-69928438D01*
X81758524Y-69928438D02*
X81853762Y-69880819D01*
X81853762Y-69880819D02*
X82044238Y-69880819D01*
X82044238Y-69880819D02*
X82139476Y-69928438D01*
X82139476Y-69928438D02*
X82187095Y-69976057D01*
X82187095Y-69976057D02*
X82234714Y-70071295D01*
X82234714Y-70071295D02*
X82234714Y-70118914D01*
X82234714Y-70118914D02*
X82187095Y-70214152D01*
X82187095Y-70214152D02*
X82139476Y-70261771D01*
X82139476Y-70261771D02*
X82044238Y-70309390D01*
X82044238Y-70309390D02*
X81853762Y-70309390D01*
X81853762Y-70309390D02*
X81758524Y-70357009D01*
X81758524Y-70357009D02*
X81710905Y-70404628D01*
X81710905Y-70404628D02*
X81663286Y-70499866D01*
X81663286Y-70499866D02*
X81663286Y-70690342D01*
X81663286Y-70690342D02*
X81710905Y-70785580D01*
X81710905Y-70785580D02*
X81758524Y-70833200D01*
X81758524Y-70833200D02*
X81853762Y-70880819D01*
X81853762Y-70880819D02*
X82044238Y-70880819D01*
X82044238Y-70880819D02*
X82139476Y-70833200D01*
X82139476Y-70833200D02*
X82187095Y-70785580D01*
X82187095Y-70785580D02*
X82234714Y-70690342D01*
X82234714Y-70690342D02*
X82234714Y-70499866D01*
X82234714Y-70499866D02*
X82187095Y-70404628D01*
X82187095Y-70404628D02*
X82139476Y-70357009D01*
X82139476Y-70357009D02*
X82044238Y-70309390D01*
D12*
%TO.C,REF\u002A\u002A*%
X79690000Y-139955000D02*
X79690000Y-149005000D01*
X79690000Y-149005000D02*
X112950000Y-149005000D01*
X81940000Y-139955000D02*
X79690000Y-139955000D01*
X95990000Y-139955000D02*
X82580000Y-139955000D01*
X110040000Y-139955000D02*
X96630000Y-139955000D01*
X110680000Y-139955000D02*
X112950000Y-139955000D01*
X112950000Y-149005000D02*
X112950000Y-139955000D01*
X81940000Y-139955000D02*
G75*
G02*
X82580000Y-139955000I320000J-124999D01*
G01*
X95990000Y-139955000D02*
G75*
G02*
X96630000Y-139955000I320000J-124999D01*
G01*
X110040000Y-139955000D02*
G75*
G02*
X110680000Y-139955000I320000J-124999D01*
G01*
X83630000Y-146350000D02*
G75*
G02*
X83430000Y-146350000I-100000J0D01*
G01*
X83430000Y-146350000D02*
G75*
G02*
X83630000Y-146350000I100000J0D01*
G01*
D13*
X98570000Y-148905000D02*
X94070000Y-148905000D01*
X94070000Y-147655000D01*
X98570000Y-147655000D01*
X98570000Y-148905000D01*
G36*
X98570000Y-148905000D02*
G01*
X94070000Y-148905000D01*
X94070000Y-147655000D01*
X98570000Y-147655000D01*
X98570000Y-148905000D01*
G37*
D12*
X145730000Y-139995000D02*
X145730000Y-149045000D01*
X145730000Y-149045000D02*
X178990000Y-149045000D01*
X147980000Y-139995000D02*
X145730000Y-139995000D01*
X162030000Y-139995000D02*
X148620000Y-139995000D01*
X176080000Y-139995000D02*
X162670000Y-139995000D01*
X176720000Y-139995000D02*
X178990000Y-139995000D01*
X178990000Y-149045000D02*
X178990000Y-139995000D01*
X147980000Y-139995000D02*
G75*
G02*
X148620000Y-139995000I320000J-124999D01*
G01*
X162030000Y-139995000D02*
G75*
G02*
X162670000Y-139995000I320000J-124999D01*
G01*
X176080000Y-139995000D02*
G75*
G02*
X176720000Y-139995000I320000J-124999D01*
G01*
X149670000Y-146390000D02*
G75*
G02*
X149470000Y-146390000I-100000J0D01*
G01*
X149470000Y-146390000D02*
G75*
G02*
X149670000Y-146390000I100000J0D01*
G01*
D13*
X164610000Y-148945000D02*
X160110000Y-148945000D01*
X160110000Y-147695000D01*
X164610000Y-147695000D01*
X164610000Y-148945000D01*
G36*
X164610000Y-148945000D02*
G01*
X160110000Y-148945000D01*
X160110000Y-147695000D01*
X164610000Y-147695000D01*
X164610000Y-148945000D01*
G37*
D14*
%TO.C,U5*%
X172802000Y-34170000D02*
X166198000Y-34170000D01*
X166198000Y-34170000D02*
X166198000Y-34557186D01*
X166198000Y-44330000D02*
X172802000Y-44330000D01*
X172802000Y-42041460D02*
X172802000Y-41402814D01*
X169195200Y-44330000D02*
G75*
G02*
X169804800Y-44330000I304800J0D01*
G01*
X172802000Y-39637186D02*
X172802000Y-38862814D01*
X172802000Y-37097186D02*
X172802000Y-36322814D01*
X172802000Y-34557186D02*
X172802000Y-34170000D01*
X166198000Y-36322814D02*
X166198000Y-37097186D01*
X166198000Y-38862814D02*
X166198000Y-39637186D01*
X166198000Y-41402814D02*
X166198000Y-42177186D01*
X166198000Y-43942814D02*
X166198000Y-44330000D01*
%TO.C,U4*%
X80074400Y-92309500D02*
X99835600Y-92309500D01*
X99835600Y-92309500D02*
X99835600Y-84562500D01*
X99835600Y-84562500D02*
X80074400Y-84562500D01*
X80074400Y-84562500D02*
X80074400Y-92309500D01*
%TO.C,U3*%
X86124700Y-76024800D02*
X93973300Y-76024800D01*
X93973300Y-76024800D02*
X93973300Y-69827200D01*
X93973300Y-69827200D02*
X86124700Y-69827200D01*
X86124700Y-69827200D02*
X86124700Y-76024800D01*
D15*
%TO.C,L2*%
X189050000Y-73750000D02*
G75*
G02*
X150950000Y-73750000I-19050000J0D01*
G01*
X150950000Y-73750000D02*
G75*
G02*
X189050000Y-73750000I19050000J0D01*
G01*
%TO.C,L1*%
X160195000Y-45750000D02*
G75*
G02*
X122095000Y-45750000I-19050000J0D01*
G01*
X122095000Y-45750000D02*
G75*
G02*
X160195000Y-45750000I19050000J0D01*
G01*
D16*
%TO.C,J1*%
X85256000Y-33136000D02*
G75*
G02*
X74256000Y-33136000I-5500000J0D01*
G01*
X74256000Y-33136000D02*
G75*
G02*
X85256000Y-33136000I5500000J0D01*
G01*
%TO.C,J2*%
X189750000Y-48250000D02*
G75*
G02*
X178750000Y-48250000I-5500000J0D01*
G01*
X178750000Y-48250000D02*
G75*
G02*
X189750000Y-48250000I5500000J0D01*
G01*
%TO.C,J3*%
X202165000Y-34256000D02*
G75*
G02*
X191165000Y-34256000I-5500000J0D01*
G01*
X191165000Y-34256000D02*
G75*
G02*
X202165000Y-34256000I5500000J0D01*
G01*
%TO.C,J5*%
X121049000Y-33136000D02*
G75*
G02*
X110049000Y-33136000I-5500000J0D01*
G01*
X110049000Y-33136000D02*
G75*
G02*
X121049000Y-33136000I5500000J0D01*
G01*
%TO.C,C1*%
X177826248Y-34924000D02*
X178348752Y-34924000D01*
X177826248Y-33454000D02*
X178348752Y-33454000D01*
%TO.C,R4*%
X172658936Y-31123000D02*
X173113064Y-31123000D01*
X172658936Y-32593000D02*
X173113064Y-32593000D01*
%TO.C,R7*%
X200956064Y-90171000D02*
X200501936Y-90171000D01*
X200956064Y-88701000D02*
X200501936Y-88701000D01*
%TO.C,D3(Red)1*%
X106546000Y-90813000D02*
X106546000Y-93083000D01*
X106546000Y-93083000D02*
X110431000Y-93083000D01*
X110431000Y-90813000D02*
X106546000Y-90813000D01*
%TO.C,C5*%
X196211252Y-49660000D02*
X194788748Y-49660000D01*
X196211252Y-47840000D02*
X194788748Y-47840000D01*
%TO.C,R2*%
X177860436Y-39735000D02*
X178314564Y-39735000D01*
X177860436Y-38265000D02*
X178314564Y-38265000D01*
%TO.C,C2*%
X166488748Y-47765000D02*
X167011252Y-47765000D01*
X166488748Y-49235000D02*
X167011252Y-49235000D01*
%TO.C,D5(Blue)1*%
X75508000Y-77975000D02*
X75508000Y-80245000D01*
X75508000Y-80245000D02*
X79393000Y-80245000D01*
X79393000Y-77975000D02*
X75508000Y-77975000D01*
%TO.C,R8*%
X77057936Y-76089000D02*
X77512064Y-76089000D01*
X77057936Y-77559000D02*
X77512064Y-77559000D01*
%TO.C,J4*%
X85002000Y-51816000D02*
G75*
G02*
X74002000Y-51816000I-5500000J0D01*
G01*
X74002000Y-51816000D02*
G75*
G02*
X85002000Y-51816000I5500000J0D01*
G01*
%TO.C,R11*%
X99156000Y-71953064D02*
X99156000Y-71498936D01*
X100626000Y-71953064D02*
X100626000Y-71498936D01*
%TO.C,D6*%
X100039000Y-65786000D02*
X100039000Y-69086000D01*
X100039000Y-65786000D02*
X105549000Y-65786000D01*
X100039000Y-69086000D02*
X105549000Y-69086000D01*
%TO.C,Q1*%
X111027000Y-64156000D02*
X111027000Y-68797000D01*
X111027000Y-64156000D02*
X121267000Y-64156000D01*
X111027000Y-65666000D02*
X121267000Y-65666000D01*
X111027000Y-68797000D02*
X121267000Y-68797000D01*
X114297000Y-64156000D02*
X114297000Y-65666000D01*
X117998000Y-64156000D02*
X117998000Y-65666000D01*
X121267000Y-64156000D02*
X121267000Y-68797000D01*
D15*
%TO.C,U2*%
X73152000Y-93726000D02*
X202946000Y-93726000D01*
X73152000Y-152146000D02*
X73152000Y-93726000D01*
X202946000Y-93726000D02*
X202946000Y-152146000D01*
X202946000Y-152146000D02*
X73152000Y-152146000D01*
D16*
%TO.C,C10*%
X98309748Y-77439000D02*
X98832252Y-77439000D01*
X98309748Y-78909000D02*
X98832252Y-78909000D01*
%TO.C,C6*%
X82677748Y-82439000D02*
X83200252Y-82439000D01*
X82677748Y-83909000D02*
X83200252Y-83909000D01*
%TO.C,D7*%
X104542000Y-62683000D02*
X104542000Y-64953000D01*
X104542000Y-64953000D02*
X108427000Y-64953000D01*
X108427000Y-62683000D02*
X104542000Y-62683000D01*
%TO.C,R6*%
X108484936Y-88419000D02*
X108939064Y-88419000D01*
X108484936Y-89889000D02*
X108939064Y-89889000D01*
%TO.C,D4(green)1*%
X202834000Y-93071000D02*
X202834000Y-90801000D01*
X202834000Y-90801000D02*
X198949000Y-90801000D01*
X198949000Y-93071000D02*
X202834000Y-93071000D01*
%TO.C,C12*%
X98359748Y-82439000D02*
X98882252Y-82439000D01*
X98359748Y-83909000D02*
X98882252Y-83909000D01*
%TO.C,R12*%
X104569000Y-72953064D02*
X104569000Y-71498936D01*
X106389000Y-72953064D02*
X106389000Y-71498936D01*
%TO.C,D2*%
X90925000Y-84055000D02*
X94810000Y-84055000D01*
X94810000Y-81785000D02*
X90925000Y-81785000D01*
X94810000Y-84055000D02*
X94810000Y-81785000D01*
%TO.C,C3*%
X110003560Y-78821000D02*
X111803560Y-78821000D01*
X110903560Y-77921000D02*
X110903560Y-79721000D01*
X119763000Y-74855000D02*
X119763000Y-93017000D01*
X119803000Y-74856000D02*
X119803000Y-93016000D01*
X119843000Y-74856000D02*
X119843000Y-93016000D01*
X119883000Y-74856000D02*
X119883000Y-93016000D01*
X119923000Y-74857000D02*
X119923000Y-93015000D01*
X119963000Y-74858000D02*
X119963000Y-93014000D01*
X120003000Y-74859000D02*
X120003000Y-93013000D01*
X120043000Y-74860000D02*
X120043000Y-93012000D01*
X120083000Y-74861000D02*
X120083000Y-93011000D01*
X120123000Y-74863000D02*
X120123000Y-93009000D01*
X120163000Y-74864000D02*
X120163000Y-93008000D01*
X120203000Y-74866000D02*
X120203000Y-93006000D01*
X120243000Y-74868000D02*
X120243000Y-93004000D01*
X120283000Y-74870000D02*
X120283000Y-93002000D01*
X120323000Y-74873000D02*
X120323000Y-92999000D01*
X120363000Y-74875000D02*
X120363000Y-92997000D01*
X120403000Y-74878000D02*
X120403000Y-92994000D01*
X120443000Y-74881000D02*
X120443000Y-92991000D01*
X120484000Y-74884000D02*
X120484000Y-92988000D01*
X120524000Y-74887000D02*
X120524000Y-92985000D01*
X120564000Y-74891000D02*
X120564000Y-92981000D01*
X120604000Y-74894000D02*
X120604000Y-92978000D01*
X120644000Y-74898000D02*
X120644000Y-92974000D01*
X120684000Y-74902000D02*
X120684000Y-92970000D01*
X120724000Y-74906000D02*
X120724000Y-92966000D01*
X120764000Y-74910000D02*
X120764000Y-92962000D01*
X120804000Y-74915000D02*
X120804000Y-92957000D01*
X120844000Y-74920000D02*
X120844000Y-92952000D01*
X120884000Y-74925000D02*
X120884000Y-92947000D01*
X120924000Y-74930000D02*
X120924000Y-92942000D01*
X120964000Y-74935000D02*
X120964000Y-92937000D01*
X121004000Y-74940000D02*
X121004000Y-92932000D01*
X121044000Y-74946000D02*
X121044000Y-92926000D01*
X121084000Y-74952000D02*
X121084000Y-92920000D01*
X121124000Y-74957000D02*
X121124000Y-92915000D01*
X121164000Y-74964000D02*
X121164000Y-92908000D01*
X121204000Y-74970000D02*
X121204000Y-92902000D01*
X121244000Y-74976000D02*
X121244000Y-92896000D01*
X121284000Y-74983000D02*
X121284000Y-92889000D01*
X121324000Y-74990000D02*
X121324000Y-92882000D01*
X121364000Y-74997000D02*
X121364000Y-92875000D01*
X121404000Y-75004000D02*
X121404000Y-92868000D01*
X121444000Y-75012000D02*
X121444000Y-92860000D01*
X121484000Y-75019000D02*
X121484000Y-92853000D01*
X121524000Y-75027000D02*
X121524000Y-92845000D01*
X121564000Y-75035000D02*
X121564000Y-92837000D01*
X121604000Y-75043000D02*
X121604000Y-92829000D01*
X121644000Y-75051000D02*
X121644000Y-92821000D01*
X121684000Y-75060000D02*
X121684000Y-92812000D01*
X121724000Y-75069000D02*
X121724000Y-92803000D01*
X121764000Y-75078000D02*
X121764000Y-92794000D01*
X121804000Y-75087000D02*
X121804000Y-92785000D01*
X121844000Y-75096000D02*
X121844000Y-92776000D01*
X121884000Y-75105000D02*
X121884000Y-92767000D01*
X121924000Y-75115000D02*
X121924000Y-92757000D01*
X121964000Y-75125000D02*
X121964000Y-92747000D01*
X122004000Y-75135000D02*
X122004000Y-92737000D01*
X122044000Y-75145000D02*
X122044000Y-92727000D01*
X122084000Y-75156000D02*
X122084000Y-82496000D01*
X122084000Y-85376000D02*
X122084000Y-92716000D01*
X122124000Y-75166000D02*
X122124000Y-82496000D01*
X122124000Y-85376000D02*
X122124000Y-92706000D01*
X122164000Y-75177000D02*
X122164000Y-82496000D01*
X122164000Y-85376000D02*
X122164000Y-92695000D01*
X122204000Y-75188000D02*
X122204000Y-82496000D01*
X122204000Y-85376000D02*
X122204000Y-92684000D01*
X122244000Y-75199000D02*
X122244000Y-82496000D01*
X122244000Y-85376000D02*
X122244000Y-92673000D01*
X122284000Y-75211000D02*
X122284000Y-82496000D01*
X122284000Y-85376000D02*
X122284000Y-92661000D01*
X122324000Y-75222000D02*
X122324000Y-82496000D01*
X122324000Y-85376000D02*
X122324000Y-92650000D01*
X122364000Y-75234000D02*
X122364000Y-82496000D01*
X122364000Y-85376000D02*
X122364000Y-92638000D01*
X122404000Y-75246000D02*
X122404000Y-82496000D01*
X122404000Y-85376000D02*
X122404000Y-92626000D01*
X122444000Y-75258000D02*
X122444000Y-82496000D01*
X122444000Y-85376000D02*
X122444000Y-92614000D01*
X122484000Y-75271000D02*
X122484000Y-82496000D01*
X122484000Y-85376000D02*
X122484000Y-92601000D01*
X122524000Y-75283000D02*
X122524000Y-82496000D01*
X122524000Y-85376000D02*
X122524000Y-92589000D01*
X122564000Y-75296000D02*
X122564000Y-82496000D01*
X122564000Y-85376000D02*
X122564000Y-92576000D01*
X122604000Y-75309000D02*
X122604000Y-82496000D01*
X122604000Y-85376000D02*
X122604000Y-92563000D01*
X122644000Y-75322000D02*
X122644000Y-82496000D01*
X122644000Y-85376000D02*
X122644000Y-92550000D01*
X122684000Y-75336000D02*
X122684000Y-82496000D01*
X122684000Y-85376000D02*
X122684000Y-92536000D01*
X122724000Y-75349000D02*
X122724000Y-82496000D01*
X122724000Y-85376000D02*
X122724000Y-92523000D01*
X122764000Y-75363000D02*
X122764000Y-82496000D01*
X122764000Y-85376000D02*
X122764000Y-92509000D01*
X122804000Y-75377000D02*
X122804000Y-82496000D01*
X122804000Y-85376000D02*
X122804000Y-92495000D01*
X122844000Y-75391000D02*
X122844000Y-82496000D01*
X122844000Y-85376000D02*
X122844000Y-92481000D01*
X122884000Y-75406000D02*
X122884000Y-82496000D01*
X122884000Y-85376000D02*
X122884000Y-92466000D01*
X122924000Y-75420000D02*
X122924000Y-82496000D01*
X122924000Y-85376000D02*
X122924000Y-92452000D01*
X122964000Y-75435000D02*
X122964000Y-82496000D01*
X122964000Y-85376000D02*
X122964000Y-92437000D01*
X123004000Y-75450000D02*
X123004000Y-82496000D01*
X123004000Y-85376000D02*
X123004000Y-92422000D01*
X123044000Y-75466000D02*
X123044000Y-82496000D01*
X123044000Y-85376000D02*
X123044000Y-92406000D01*
X123084000Y-75481000D02*
X123084000Y-82496000D01*
X123084000Y-85376000D02*
X123084000Y-92391000D01*
X123124000Y-75497000D02*
X123124000Y-82496000D01*
X123124000Y-85376000D02*
X123124000Y-92375000D01*
X123164000Y-75513000D02*
X123164000Y-82496000D01*
X123164000Y-85376000D02*
X123164000Y-92359000D01*
X123204000Y-75529000D02*
X123204000Y-82496000D01*
X123204000Y-85376000D02*
X123204000Y-92343000D01*
X123244000Y-75546000D02*
X123244000Y-82496000D01*
X123244000Y-85376000D02*
X123244000Y-92326000D01*
X123284000Y-75562000D02*
X123284000Y-82496000D01*
X123284000Y-85376000D02*
X123284000Y-92310000D01*
X123324000Y-75579000D02*
X123324000Y-82496000D01*
X123324000Y-85376000D02*
X123324000Y-92293000D01*
X123364000Y-75596000D02*
X123364000Y-82496000D01*
X123364000Y-85376000D02*
X123364000Y-92276000D01*
X123404000Y-75613000D02*
X123404000Y-82496000D01*
X123404000Y-85376000D02*
X123404000Y-92259000D01*
X123444000Y-75631000D02*
X123444000Y-82496000D01*
X123444000Y-85376000D02*
X123444000Y-92241000D01*
X123484000Y-75649000D02*
X123484000Y-82496000D01*
X123484000Y-85376000D02*
X123484000Y-92223000D01*
X123524000Y-75667000D02*
X123524000Y-82496000D01*
X123524000Y-85376000D02*
X123524000Y-92205000D01*
X123564000Y-75685000D02*
X123564000Y-82496000D01*
X123564000Y-85376000D02*
X123564000Y-92187000D01*
X123604000Y-75703000D02*
X123604000Y-82496000D01*
X123604000Y-85376000D02*
X123604000Y-92169000D01*
X123644000Y-75722000D02*
X123644000Y-82496000D01*
X123644000Y-85376000D02*
X123644000Y-92150000D01*
X123684000Y-75741000D02*
X123684000Y-82496000D01*
X123684000Y-85376000D02*
X123684000Y-92131000D01*
X123724000Y-75760000D02*
X123724000Y-82496000D01*
X123724000Y-85376000D02*
X123724000Y-92112000D01*
X123764000Y-75780000D02*
X123764000Y-82496000D01*
X123764000Y-85376000D02*
X123764000Y-92092000D01*
X123804000Y-75799000D02*
X123804000Y-82496000D01*
X123804000Y-85376000D02*
X123804000Y-92073000D01*
X123844000Y-75819000D02*
X123844000Y-82496000D01*
X123844000Y-85376000D02*
X123844000Y-92053000D01*
X123884000Y-75839000D02*
X123884000Y-82496000D01*
X123884000Y-85376000D02*
X123884000Y-92033000D01*
X123924000Y-75860000D02*
X123924000Y-82496000D01*
X123924000Y-85376000D02*
X123924000Y-92012000D01*
X123964000Y-75880000D02*
X123964000Y-82496000D01*
X123964000Y-85376000D02*
X123964000Y-91992000D01*
X124004000Y-75901000D02*
X124004000Y-82496000D01*
X124004000Y-85376000D02*
X124004000Y-91971000D01*
X124044000Y-75922000D02*
X124044000Y-82496000D01*
X124044000Y-85376000D02*
X124044000Y-91950000D01*
X124084000Y-75944000D02*
X124084000Y-82496000D01*
X124084000Y-85376000D02*
X124084000Y-91928000D01*
X124124000Y-75965000D02*
X124124000Y-82496000D01*
X124124000Y-85376000D02*
X124124000Y-91907000D01*
X124164000Y-75987000D02*
X124164000Y-82496000D01*
X124164000Y-85376000D02*
X124164000Y-91885000D01*
X124204000Y-76009000D02*
X124204000Y-82496000D01*
X124204000Y-85376000D02*
X124204000Y-91863000D01*
X124244000Y-76032000D02*
X124244000Y-82496000D01*
X124244000Y-85376000D02*
X124244000Y-91840000D01*
X124284000Y-76054000D02*
X124284000Y-82496000D01*
X124284000Y-85376000D02*
X124284000Y-91818000D01*
X124324000Y-76077000D02*
X124324000Y-82496000D01*
X124324000Y-85376000D02*
X124324000Y-91795000D01*
X124364000Y-76101000D02*
X124364000Y-82496000D01*
X124364000Y-85376000D02*
X124364000Y-91771000D01*
X124404000Y-76124000D02*
X124404000Y-82496000D01*
X124404000Y-85376000D02*
X124404000Y-91748000D01*
X124444000Y-76148000D02*
X124444000Y-82496000D01*
X124444000Y-85376000D02*
X124444000Y-91724000D01*
X124484000Y-76172000D02*
X124484000Y-82496000D01*
X124484000Y-85376000D02*
X124484000Y-91700000D01*
X124524000Y-76196000D02*
X124524000Y-82496000D01*
X124524000Y-85376000D02*
X124524000Y-91676000D01*
X124564000Y-76221000D02*
X124564000Y-82496000D01*
X124564000Y-85376000D02*
X124564000Y-91651000D01*
X124604000Y-76246000D02*
X124604000Y-82496000D01*
X124604000Y-85376000D02*
X124604000Y-91626000D01*
X124644000Y-76271000D02*
X124644000Y-82496000D01*
X124644000Y-85376000D02*
X124644000Y-91601000D01*
X124684000Y-76296000D02*
X124684000Y-82496000D01*
X124684000Y-85376000D02*
X124684000Y-91576000D01*
X124724000Y-76322000D02*
X124724000Y-82496000D01*
X124724000Y-85376000D02*
X124724000Y-91550000D01*
X124764000Y-76348000D02*
X124764000Y-82496000D01*
X124764000Y-85376000D02*
X124764000Y-91524000D01*
X124804000Y-76375000D02*
X124804000Y-82496000D01*
X124804000Y-85376000D02*
X124804000Y-91497000D01*
X124844000Y-76401000D02*
X124844000Y-82496000D01*
X124844000Y-85376000D02*
X124844000Y-91471000D01*
X124884000Y-76428000D02*
X124884000Y-82496000D01*
X124884000Y-85376000D02*
X124884000Y-91444000D01*
X124924000Y-76456000D02*
X124924000Y-82496000D01*
X124924000Y-85376000D02*
X124924000Y-91416000D01*
X124964000Y-76483000D02*
X124964000Y-91389000D01*
X125004000Y-76511000D02*
X125004000Y-91361000D01*
X125044000Y-76539000D02*
X125044000Y-91333000D01*
X125084000Y-76568000D02*
X125084000Y-91304000D01*
X125124000Y-76597000D02*
X125124000Y-91275000D01*
X125164000Y-76626000D02*
X125164000Y-91246000D01*
X125204000Y-76656000D02*
X125204000Y-91216000D01*
X125244000Y-76686000D02*
X125244000Y-91186000D01*
X125284000Y-76716000D02*
X125284000Y-91156000D01*
X125324000Y-76746000D02*
X125324000Y-91126000D01*
X125364000Y-76777000D02*
X125364000Y-91095000D01*
X125404000Y-76809000D02*
X125404000Y-91063000D01*
X125444000Y-76840000D02*
X125444000Y-91032000D01*
X125484000Y-76872000D02*
X125484000Y-91000000D01*
X125524000Y-76905000D02*
X125524000Y-90967000D01*
X125564000Y-76937000D02*
X125564000Y-90935000D01*
X125604000Y-76971000D02*
X125604000Y-90901000D01*
X125644000Y-77004000D02*
X125644000Y-90868000D01*
X125684000Y-77038000D02*
X125684000Y-90834000D01*
X125724000Y-77072000D02*
X125724000Y-90800000D01*
X125764000Y-77107000D02*
X125764000Y-90765000D01*
X125804000Y-77142000D02*
X125804000Y-90730000D01*
X125844000Y-77178000D02*
X125844000Y-90694000D01*
X125884000Y-77214000D02*
X125884000Y-90658000D01*
X125924000Y-77250000D02*
X125924000Y-90622000D01*
X125964000Y-77287000D02*
X125964000Y-90585000D01*
X126004000Y-77324000D02*
X126004000Y-90548000D01*
X126044000Y-77362000D02*
X126044000Y-90510000D01*
X126084000Y-77400000D02*
X126084000Y-90472000D01*
X126124000Y-77439000D02*
X126124000Y-90433000D01*
X126164000Y-77478000D02*
X126164000Y-90394000D01*
X126204000Y-77518000D02*
X126204000Y-90354000D01*
X126244000Y-77558000D02*
X126244000Y-90314000D01*
X126284000Y-77599000D02*
X126284000Y-90273000D01*
X126324000Y-77640000D02*
X126324000Y-90232000D01*
X126364000Y-77682000D02*
X126364000Y-90190000D01*
X126404000Y-77724000D02*
X126404000Y-90148000D01*
X126444000Y-77766000D02*
X126444000Y-90106000D01*
X126484000Y-77810000D02*
X126484000Y-90062000D01*
X126524000Y-77854000D02*
X126524000Y-90018000D01*
X126564000Y-77898000D02*
X126564000Y-89974000D01*
X126604000Y-77943000D02*
X126604000Y-89929000D01*
X126644000Y-77989000D02*
X126644000Y-89883000D01*
X126684000Y-78035000D02*
X126684000Y-89837000D01*
X126724000Y-78082000D02*
X126724000Y-89790000D01*
X126764000Y-78130000D02*
X126764000Y-89742000D01*
X126804000Y-78178000D02*
X126804000Y-89694000D01*
X126844000Y-78227000D02*
X126844000Y-89645000D01*
X126884000Y-78276000D02*
X126884000Y-89596000D01*
X126924000Y-78327000D02*
X126924000Y-89545000D01*
X126964000Y-78378000D02*
X126964000Y-89494000D01*
X127004000Y-78430000D02*
X127004000Y-89442000D01*
X127044000Y-78482000D02*
X127044000Y-89390000D01*
X127084000Y-78536000D02*
X127084000Y-89336000D01*
X127124000Y-78590000D02*
X127124000Y-89282000D01*
X127164000Y-78645000D02*
X127164000Y-89227000D01*
X127204000Y-78701000D02*
X127204000Y-89171000D01*
X127244000Y-78758000D02*
X127244000Y-89114000D01*
X127284000Y-78816000D02*
X127284000Y-89056000D01*
X127324000Y-78874000D02*
X127324000Y-88998000D01*
X127364000Y-78934000D02*
X127364000Y-88938000D01*
X127404000Y-78995000D02*
X127404000Y-88877000D01*
X127444000Y-79057000D02*
X127444000Y-88815000D01*
X127484000Y-79120000D02*
X127484000Y-88752000D01*
X127524000Y-79184000D02*
X127524000Y-88688000D01*
X127564000Y-79250000D02*
X127564000Y-88622000D01*
X127604000Y-79316000D02*
X127604000Y-88556000D01*
X127644000Y-79384000D02*
X127644000Y-88488000D01*
X127684000Y-79454000D02*
X127684000Y-88418000D01*
X127724000Y-79524000D02*
X127724000Y-88348000D01*
X127764000Y-79597000D02*
X127764000Y-88275000D01*
X127804000Y-79671000D02*
X127804000Y-88201000D01*
X127844000Y-79746000D02*
X127844000Y-88126000D01*
X127884000Y-79823000D02*
X127884000Y-88049000D01*
X127924000Y-79903000D02*
X127924000Y-87969000D01*
X127963000Y-79984000D02*
X127963000Y-87888000D01*
X128003000Y-80067000D02*
X128003000Y-87805000D01*
X128043000Y-80152000D02*
X128043000Y-87720000D01*
X128083000Y-80240000D02*
X128083000Y-87632000D01*
X128123000Y-80331000D02*
X128123000Y-87541000D01*
X128163000Y-80424000D02*
X128163000Y-87448000D01*
X128203000Y-80520000D02*
X128203000Y-87352000D01*
X128243000Y-80619000D02*
X128243000Y-87253000D01*
X128283000Y-80722000D02*
X128283000Y-87150000D01*
X128323000Y-80829000D02*
X128323000Y-87043000D01*
X128363000Y-80940000D02*
X128363000Y-86932000D01*
X128403000Y-81056000D02*
X128403000Y-86816000D01*
X128443000Y-81177000D02*
X128443000Y-86695000D01*
X128483000Y-81304000D02*
X128483000Y-86568000D01*
X128523000Y-81438000D02*
X128523000Y-86434000D01*
X128563000Y-81581000D02*
X128563000Y-86291000D01*
X128603000Y-81733000D02*
X128603000Y-86139000D01*
X128643000Y-81897000D02*
X128643000Y-85975000D01*
X128683000Y-82076000D02*
X128683000Y-85796000D01*
X128723000Y-82275000D02*
X128723000Y-85597000D01*
X128763000Y-82501000D02*
X128763000Y-85371000D01*
X128803000Y-82770000D02*
X128803000Y-85102000D01*
X128843000Y-83122000D02*
X128843000Y-84750000D01*
X128883000Y-83896000D02*
X128883000Y-83976000D01*
X128883000Y-83936000D02*
G75*
G02*
X110643000Y-83936000I-9120000J0D01*
G01*
X110643000Y-83936000D02*
G75*
G02*
X128883000Y-83936000I9120000J0D01*
G01*
%TO.C,C11*%
X98309748Y-79929000D02*
X98832252Y-79929000D01*
X98309748Y-81399000D02*
X98832252Y-81399000D01*
%TO.C,R9*%
X74721936Y-71191000D02*
X75176064Y-71191000D01*
X74721936Y-72661000D02*
X75176064Y-72661000D01*
%TO.C,R10*%
X101950000Y-71971064D02*
X101950000Y-71516936D01*
X103420000Y-71971064D02*
X103420000Y-71516936D01*
%TO.C,R5*%
X92498064Y-79899000D02*
X92043936Y-79899000D01*
X92498064Y-81369000D02*
X92043936Y-81369000D01*
%TO.C,D1*%
X122879000Y-65980000D02*
X122879000Y-71490000D01*
X126179000Y-65980000D02*
X122879000Y-65980000D01*
X126179000Y-65980000D02*
X126179000Y-71490000D01*
%TO.C,C7*%
X92511252Y-77515000D02*
X91988748Y-77515000D01*
X92511252Y-78985000D02*
X91988748Y-78985000D01*
%TO.C,C4*%
X116880248Y-70501000D02*
X117402752Y-70501000D01*
X116880248Y-71971000D02*
X117402752Y-71971000D01*
%TO.C,R13*%
X102554064Y-63083000D02*
X102099936Y-63083000D01*
X102554064Y-64553000D02*
X102099936Y-64553000D01*
%TO.C,R1*%
X178314564Y-37235000D02*
X177860436Y-37235000D01*
X178314564Y-35765000D02*
X177860436Y-35765000D01*
%TO.C,R3*%
X178286064Y-32593000D02*
X177831936Y-32593000D01*
X178286064Y-31123000D02*
X177831936Y-31123000D01*
%TO.C,C9*%
X77714000Y-72664748D02*
X77714000Y-73187252D01*
X79184000Y-72664748D02*
X79184000Y-73187252D01*
%TO.C,C8*%
X80714000Y-72664748D02*
X80714000Y-73187252D01*
X82184000Y-72664748D02*
X82184000Y-73187252D01*
%TD*%
M02*
