%TF.GenerationSoftware,KiCad,Pcbnew,8.0.8*%
%TF.CreationDate,2025-03-01T14:31:09-05:00*%
%TF.ProjectId,MyFirstBuck,4d794669-7273-4744-9275-636b2e6b6963,rev?*%
%TF.SameCoordinates,Original*%
%TF.FileFunction,Copper,L2,Bot*%
%TF.FilePolarity,Positive*%
%FSLAX46Y46*%
G04 Gerber Fmt 4.6, Leading zero omitted, Abs format (unit mm)*
G04 Created by KiCad (PCBNEW 8.0.8) date 2025-03-01 14:31:09*
%MOMM*%
%LPD*%
G01*
G04 APERTURE LIST*
%TA.AperFunction,ComponentPad*%
%ADD10C,1.650000*%
%TD*%
%TA.AperFunction,ComponentPad*%
%ADD11R,1.371600X1.371600*%
%TD*%
%TA.AperFunction,ComponentPad*%
%ADD12C,1.371600*%
%TD*%
%TA.AperFunction,ComponentPad*%
%ADD13R,1.270000X1.270000*%
%TD*%
%TA.AperFunction,ComponentPad*%
%ADD14C,1.270000*%
%TD*%
%TA.AperFunction,ComponentPad*%
%ADD15C,2.800000*%
%TD*%
%TA.AperFunction,ComponentPad*%
%ADD16C,10.160000*%
%TD*%
%TA.AperFunction,ComponentPad*%
%ADD17R,1.905000X2.000000*%
%TD*%
%TA.AperFunction,ComponentPad*%
%ADD18O,1.905000X2.000000*%
%TD*%
%TA.AperFunction,ComponentPad*%
%ADD19R,1.879600X1.879600*%
%TD*%
%TA.AperFunction,ComponentPad*%
%ADD20C,1.879600*%
%TD*%
%TA.AperFunction,ComponentPad*%
%ADD21R,1.524000X1.524000*%
%TD*%
%TA.AperFunction,ComponentPad*%
%ADD22C,1.524000*%
%TD*%
%TA.AperFunction,ComponentPad*%
%ADD23R,1.500000X1.500000*%
%TD*%
%TA.AperFunction,ComponentPad*%
%ADD24C,1.500000*%
%TD*%
%TA.AperFunction,ComponentPad*%
%ADD25R,2.400000X2.400000*%
%TD*%
%TA.AperFunction,ComponentPad*%
%ADD26C,2.400000*%
%TD*%
%TA.AperFunction,ViaPad*%
%ADD27C,0.600000*%
%TD*%
%TA.AperFunction,Conductor*%
%ADD28C,0.600000*%
%TD*%
%TA.AperFunction,Conductor*%
%ADD29C,1.000000*%
%TD*%
G04 APERTURE END LIST*
D10*
%TO.P,REF\u002A\u002A,1*%
%TO.N,N/C*%
X84890000Y-145750000D03*
%TO.P,REF\u002A\u002A,2*%
X84890000Y-143210000D03*
%TO.P,REF\u002A\u002A,3*%
X87430000Y-145750000D03*
%TO.P,REF\u002A\u002A,4*%
X87430000Y-143210000D03*
%TO.P,REF\u002A\u002A,5*%
X89970000Y-145750000D03*
%TO.P,REF\u002A\u002A,6*%
X89970000Y-143210000D03*
%TO.P,REF\u002A\u002A,7*%
X92510000Y-145750000D03*
%TO.P,REF\u002A\u002A,8*%
X92510000Y-143210000D03*
%TO.P,REF\u002A\u002A,9*%
X95050000Y-145750000D03*
%TO.P,REF\u002A\u002A,10*%
X95050000Y-143210000D03*
%TO.P,REF\u002A\u002A,11*%
X97590000Y-145750000D03*
%TO.P,REF\u002A\u002A,12*%
X97590000Y-143210000D03*
%TO.P,REF\u002A\u002A,13*%
X100130000Y-145750000D03*
%TO.P,REF\u002A\u002A,14*%
X100130000Y-143210000D03*
%TO.P,REF\u002A\u002A,15*%
X102670000Y-145750000D03*
%TO.P,REF\u002A\u002A,16*%
X102670000Y-143210000D03*
%TO.P,REF\u002A\u002A,17*%
X105210000Y-145750000D03*
%TO.P,REF\u002A\u002A,18*%
X105210000Y-143210000D03*
%TO.P,REF\u002A\u002A,19*%
X107750000Y-145750000D03*
%TO.P,REF\u002A\u002A,20*%
X107750000Y-143210000D03*
%TD*%
%TO.P,REF\u002A\u002A,1*%
%TO.N,N/C*%
X150930000Y-145790000D03*
%TO.P,REF\u002A\u002A,2*%
X150930000Y-143250000D03*
%TO.P,REF\u002A\u002A,3*%
X153470000Y-145790000D03*
%TO.P,REF\u002A\u002A,4*%
X153470000Y-143250000D03*
%TO.P,REF\u002A\u002A,5*%
X156010000Y-145790000D03*
%TO.P,REF\u002A\u002A,6*%
X156010000Y-143250000D03*
%TO.P,REF\u002A\u002A,7*%
X158550000Y-145790000D03*
%TO.P,REF\u002A\u002A,8*%
X158550000Y-143250000D03*
%TO.P,REF\u002A\u002A,9*%
X161090000Y-145790000D03*
%TO.P,REF\u002A\u002A,10*%
X161090000Y-143250000D03*
%TO.P,REF\u002A\u002A,11*%
X163630000Y-145790000D03*
%TO.P,REF\u002A\u002A,12*%
X163630000Y-143250000D03*
%TO.P,REF\u002A\u002A,13*%
X166170000Y-145790000D03*
%TO.P,REF\u002A\u002A,14*%
X166170000Y-143250000D03*
%TO.P,REF\u002A\u002A,15*%
X168710000Y-145790000D03*
%TO.P,REF\u002A\u002A,16*%
X168710000Y-143250000D03*
%TO.P,REF\u002A\u002A,17*%
X171250000Y-145790000D03*
%TO.P,REF\u002A\u002A,18*%
X171250000Y-143250000D03*
%TO.P,REF\u002A\u002A,19*%
X173790000Y-145790000D03*
%TO.P,REF\u002A\u002A,20*%
X173790000Y-143250000D03*
%TD*%
D11*
%TO.P,U5,1,1OUT*%
%TO.N,/VFILT*%
X173310000Y-43060000D03*
D12*
%TO.P,U5,2,1IN-*%
%TO.N,Net-(U5-1IN-)*%
X173310000Y-40520000D03*
%TO.P,U5,3,1IN+*%
%TO.N,Net-(U5-1IN+)*%
X173310000Y-37980000D03*
%TO.P,U5,4,GND*%
%TO.N,GND*%
X173310000Y-35440000D03*
%TO.P,U5,5,2IN+*%
%TO.N,unconnected-(U5-2IN+-Pad5)*%
X165690000Y-35440000D03*
%TO.P,U5,6,2IN-*%
%TO.N,unconnected-(U5-2IN--Pad6)*%
X165690000Y-37980000D03*
%TO.P,U5,7,2OUT*%
%TO.N,unconnected-(U5-2OUT-Pad7)*%
X165690000Y-40520000D03*
%TO.P,U5,8,VCC*%
%TO.N,+3.3V*%
X165690000Y-43060000D03*
%TD*%
D13*
%TO.P,U4,1,+VIN(VCC)*%
%TO.N,+5V*%
X82305000Y-86361000D03*
D14*
%TO.P,U4,2,-VIN(GGND)*%
%TO.N,GND*%
X84845000Y-86361000D03*
%TO.P,U4,5,-VOUT*%
%TO.N,/VSW*%
X92465000Y-86361000D03*
%TO.P,U4,7,+VOUT*%
%TO.N,/GD/ISO_12*%
X97545000Y-86361000D03*
%TD*%
D15*
%TO.P,L2,1*%
%TO.N,Net-(L1-Pad2)*%
X155395000Y-73750000D03*
%TO.P,L2,2*%
%TO.N,/VOUT*%
X184605000Y-73750000D03*
%TD*%
%TO.P,L1,2*%
%TO.N,Net-(L1-Pad2)*%
X155750000Y-45750000D03*
%TO.P,L1,1*%
%TO.N,/VSW*%
X126540000Y-45750000D03*
%TD*%
D16*
%TO.P,J1,1,Pin_1*%
%TO.N,/PowerStage/VIN*%
X79756000Y-33136000D03*
%TD*%
%TO.P,J2,1,Pin_1*%
%TO.N,GND*%
X184250000Y-48250000D03*
%TD*%
%TO.P,J3,1,Pin_1*%
%TO.N,/VOUT*%
X196665000Y-34256000D03*
%TD*%
%TO.P,J5,1,Pin_1*%
%TO.N,/VSW*%
X115549000Y-33136000D03*
%TD*%
%TO.P,J4,1,Pin_1*%
%TO.N,GND*%
X79502000Y-51816000D03*
%TD*%
D17*
%TO.P,Q1,1,G*%
%TO.N,/VG*%
X113607000Y-67426000D03*
D18*
%TO.P,Q1,2,D*%
%TO.N,/PowerStage/VIN*%
X116147000Y-67426000D03*
%TO.P,Q1,3,S*%
%TO.N,/VSW*%
X118687000Y-67426000D03*
%TD*%
D19*
%TO.P,U2,J1_1,3.3V_J1*%
%TO.N,+3.3V*%
X171196000Y-100076000D03*
D20*
%TO.P,U2,J1_2,GPIO32*%
%TO.N,unconnected-(U2A-GPIO32-PadJ1_2)*%
X168656000Y-100076000D03*
%TO.P,U2,J1_3,GPIO19/SCIRXDB*%
%TO.N,unconnected-(U2A-GPIO19{slash}SCIRXDB-PadJ1_3)*%
X166116000Y-100076000D03*
%TO.P,U2,J1_4,GPIO18/SCITXDB*%
%TO.N,unconnected-(U2A-GPIO18{slash}SCITXDB-PadJ1_4)*%
X163576000Y-100076000D03*
%TO.P,U2,J1_5,GPIO67*%
%TO.N,unconnected-(U2A-GPIO67-PadJ1_5)*%
X161036000Y-100076000D03*
%TO.P,U2,J1_6,GPIO111*%
%TO.N,unconnected-(U2A-GPIO111-PadJ1_6)*%
X158496000Y-100076000D03*
%TO.P,U2,J1_7,GPIO60/SPICLKA*%
%TO.N,unconnected-(U2A-GPIO60{slash}SPICLKA-PadJ1_7)*%
X155956000Y-100076000D03*
%TO.P,U2,J1_8,GPIO22*%
%TO.N,unconnected-(U2A-GPIO22-PadJ1_8)*%
X153416000Y-100076000D03*
%TO.P,U2,J1_9,GPIO105/I2CSCLA*%
%TO.N,unconnected-(U2A-GPIO105{slash}I2CSCLA-PadJ1_9)*%
X150876000Y-100076000D03*
%TO.P,U2,J1_10,GPIO104/I2CSDAA*%
%TO.N,unconnected-(U2A-GPIO104{slash}I2CSDAA-PadJ1_10)*%
X148336000Y-100076000D03*
D19*
%TO.P,U2,J2_1,GPIO29/OPXBAR6*%
%TO.N,unconnected-(U2B-GPIO29{slash}OPXBAR6-PadJ2_1)*%
X148336000Y-145796000D03*
D20*
%TO.P,U2,J2_2,GPIO125/SD1CLK2*%
%TO.N,unconnected-(U2B-GPIO125{slash}SD1CLK2-PadJ2_2)*%
X150876000Y-145796000D03*
%TO.P,U2,J2_3,GPIO124/SD1D2*%
%TO.N,unconnected-(U2B-GPIO124{slash}SD1D2-PadJ2_3)*%
X153416000Y-145796000D03*
%TO.P,U2,J2_4,GPIO59/SPIAMISO*%
%TO.N,unconnected-(U2B-GPIO59{slash}SPIAMISO-PadJ2_4)*%
X155956000Y-145796000D03*
%TO.P,U2,J2_5,GPIO58/SPIAMOSI*%
%TO.N,unconnected-(U2B-GPIO58{slash}SPIAMOSI-PadJ2_5)*%
X158496000Y-145796000D03*
%TO.P,U2,J2_6,~{RESET_J2}*%
%TO.N,unconnected-(U2B-~{RESET_J2}-PadJ2_6)*%
X161036000Y-145796000D03*
%TO.P,U2,J2_7,GPIO122/SD1D1*%
%TO.N,unconnected-(U2B-GPIO122{slash}SD1D1-PadJ2_7)*%
X163576000Y-145796000D03*
%TO.P,U2,J2_8,GPIO123/SD1CLK1*%
%TO.N,unconnected-(U2B-GPIO123{slash}SD1CLK1-PadJ2_8)*%
X166116000Y-145796000D03*
%TO.P,U2,J2_9,GPIO61/SPIACS*%
%TO.N,unconnected-(U2B-GPIO61{slash}SPIACS-PadJ2_9)*%
X168656000Y-145796000D03*
%TO.P,U2,J2_10,GND_J2*%
%TO.N,GND*%
X171196000Y-145796000D03*
D19*
%TO.P,U2,J3_1,+5V_J3*%
%TO.N,unconnected-(U2C-+5V_J3-PadJ3_1)*%
X171196000Y-102616000D03*
D20*
%TO.P,U2,J3_2,GND_J3*%
%TO.N,GND*%
X168656000Y-102616000D03*
%TO.P,U2,J3_3,ADCIN14/ANALOGIN*%
%TO.N,/VFILT*%
X166116000Y-102616000D03*
%TO.P,U2,J3_4,ADCINC3/ANALOGIN*%
%TO.N,unconnected-(U2C-ADCINC3{slash}ANALOGIN-PadJ3_4)*%
X163576000Y-102616000D03*
%TO.P,U2,J3_5,ADCINB3/ANALOGIN*%
%TO.N,unconnected-(U2C-ADCINB3{slash}ANALOGIN-PadJ3_5)*%
X161036000Y-102616000D03*
%TO.P,U2,J3_6,ADCINA3/ANALOGIN*%
%TO.N,unconnected-(U2C-ADCINA3{slash}ANALOGIN-PadJ3_6)*%
X158496000Y-102616000D03*
%TO.P,U2,J3_7,ADCINC2/ANALOGIN*%
%TO.N,unconnected-(U2C-ADCINC2{slash}ANALOGIN-PadJ3_7)*%
X155956000Y-102616000D03*
%TO.P,U2,J3_8,ADCINB2/ANALOGIN*%
%TO.N,unconnected-(U2C-ADCINB2{slash}ANALOGIN-PadJ3_8)*%
X153416000Y-102616000D03*
%TO.P,U2,J3_9,ADCINA2/ANALOGIN*%
%TO.N,unconnected-(U2C-ADCINA2{slash}ANALOGIN-PadJ3_9)*%
X150876000Y-102616000D03*
%TO.P,U2,J3_10,ADCINA0/ANALOGIN(DACA)*%
%TO.N,unconnected-(U2C-ADCINA0{slash}ANALOGIN(DACA)-PadJ3_10)*%
X148336000Y-102616000D03*
D19*
%TO.P,U2,J4_1,PWM/BASED/DAC2*%
%TO.N,unconnected-(U2D-PWM{slash}BASED{slash}DAC2-PadJ4_1)*%
X148336000Y-143256000D03*
D20*
%TO.P,U2,J4_2,PWM/BASED/DAC1*%
%TO.N,unconnected-(U2D-PWM{slash}BASED{slash}DAC1-PadJ4_2)*%
X150876000Y-143256000D03*
%TO.P,U2,J4_3,GPIO16/OPXBAR7*%
%TO.N,unconnected-(U2D-GPIO16{slash}OPXBAR7-PadJ4_3)*%
X153416000Y-143256000D03*
%TO.P,U2,J4_4,GPIO24/OPXBAR1*%
%TO.N,unconnected-(U2D-GPIO24{slash}OPXBAR1-PadJ4_4)*%
X155956000Y-143256000D03*
%TO.P,U2,J4_5,GPIO5/PWMOUT3B*%
%TO.N,unconnected-(U2D-GPIO5{slash}PWMOUT3B-PadJ4_5)*%
X158496000Y-143256000D03*
%TO.P,U2,J4_6,GPIO4/PWMOUT3A*%
%TO.N,unconnected-(U2D-GPIO4{slash}PWMOUT3A-PadJ4_6)*%
X161036000Y-143256000D03*
%TO.P,U2,J4_7,GPIO3/PWMOUT2B*%
%TO.N,unconnected-(U2D-GPIO3{slash}PWMOUT2B-PadJ4_7)*%
X163576000Y-143256000D03*
%TO.P,U2,J4_8,GPIO2//PWMOUT2A*%
%TO.N,unconnected-(U2D-GPIO2{slash}{slash}PWMOUT2A-PadJ4_8)*%
X166116000Y-143256000D03*
%TO.P,U2,J4_9,GPIO1/PWMOUT1B*%
%TO.N,unconnected-(U2D-GPIO1{slash}PWMOUT1B-PadJ4_9)*%
X168656000Y-143256000D03*
%TO.P,U2,J4_10,GPIO0/PWMOUT1A*%
%TO.N,unconnected-(U2D-GPIO0{slash}PWMOUT1A-PadJ4_10)*%
X171196000Y-143256000D03*
D19*
%TO.P,U2,J5_1,3.3V_J5*%
%TO.N,unconnected-(U2E-3.3V_J5-PadJ5_1)*%
X107696000Y-100076000D03*
D20*
%TO.P,U2,J5_2,GPIO95*%
%TO.N,unconnected-(U2E-GPIO95-PadJ5_2)*%
X105156000Y-100076000D03*
%TO.P,U2,J5_3,GPIO139/SCICRX*%
%TO.N,unconnected-(U2E-GPIO139{slash}SCICRX-PadJ5_3)*%
X102616000Y-100076000D03*
%TO.P,U2,J5_4,GPIO56/SCICIX*%
%TO.N,unconnected-(U2E-GPIO56{slash}SCICIX-PadJ5_4)*%
X100076000Y-100076000D03*
%TO.P,U2,J5_5,GPIO97*%
%TO.N,unconnected-(U2E-GPIO97-PadJ5_5)*%
X97536000Y-100076000D03*
%TO.P,U2,J5_6,GPIO94*%
%TO.N,unconnected-(U2E-GPIO94-PadJ5_6)*%
X94996000Y-100076000D03*
%TO.P,U2,J5_7,GPIO65/SPIBCLK*%
%TO.N,unconnected-(U2E-GPIO65{slash}SPIBCLK-PadJ5_7)*%
X92456000Y-100076000D03*
%TO.P,U2,J5_8,GPIO52*%
%TO.N,unconnected-(U2E-GPIO52-PadJ5_8)*%
X89916000Y-100076000D03*
%TO.P,U2,J5_9,GPIO41/I2CSCLB/J5*%
%TO.N,unconnected-(U2E-GPIO41{slash}I2CSCLB{slash}J5-PadJ5_9)*%
X87376000Y-100076000D03*
%TO.P,U2,J5_10,GPIO40/I2CSDAB/J5*%
%TO.N,unconnected-(U2E-GPIO40{slash}I2CSDAB{slash}J5-PadJ5_10)*%
X84836000Y-100076000D03*
D19*
%TO.P,U2,J6_1,GPIO25/OPXBAR2*%
%TO.N,unconnected-(U2F-GPIO25{slash}OPXBAR2-PadJ6_1)*%
X84836000Y-145796000D03*
D20*
%TO.P,U2,J6_2,GPIO27/SD2CLK2*%
%TO.N,unconnected-(U2F-GPIO27{slash}SD2CLK2-PadJ6_2)*%
X87376000Y-145796000D03*
%TO.P,U2,J6_3,GPIO26/SD2D2*%
%TO.N,unconnected-(U2F-GPIO26{slash}SD2D2-PadJ6_3)*%
X89916000Y-145796000D03*
%TO.P,U2,J6_4,GPIO64/SPIBMISO*%
%TO.N,unconnected-(U2F-GPIO64{slash}SPIBMISO-PadJ6_4)*%
X92456000Y-145796000D03*
%TO.P,U2,J6_5,GPIO63/SPIBMOSI*%
%TO.N,unconnected-(U2F-GPIO63{slash}SPIBMOSI-PadJ6_5)*%
X94996000Y-145796000D03*
%TO.P,U2,J6_6,~{RESET_J6}*%
%TO.N,unconnected-(U2F-~{RESET_J6}-PadJ6_6)*%
X97536000Y-145796000D03*
%TO.P,U2,J6_7,GPIO130/SD2D1*%
%TO.N,unconnected-(U2F-GPIO130{slash}SD2D1-PadJ6_7)*%
X100076000Y-145796000D03*
%TO.P,U2,J6_8,GPIO131/SD2CLK1*%
%TO.N,unconnected-(U2F-GPIO131{slash}SD2CLK1-PadJ6_8)*%
X102616000Y-145796000D03*
%TO.P,U2,J6_9,GPIO66/SPIBCS*%
%TO.N,unconnected-(U2F-GPIO66{slash}SPIBCS-PadJ6_9)*%
X105156000Y-145796000D03*
%TO.P,U2,J6_10,GND_J6*%
%TO.N,GND*%
X107696000Y-145796000D03*
D19*
%TO.P,U2,J7_1,+5V_J7*%
%TO.N,+5V*%
X107696000Y-102616000D03*
D20*
%TO.P,U2,J7_2,GND_J7*%
%TO.N,GND*%
X105156000Y-102616000D03*
%TO.P,U2,J7_3,ADCIN15/ANALOGIN*%
%TO.N,unconnected-(U2G-ADCIN15{slash}ANALOGIN-PadJ7_3)*%
X102616000Y-102616000D03*
%TO.P,U2,J7_4,ADCINC5/ANALOGIN*%
%TO.N,unconnected-(U2G-ADCINC5{slash}ANALOGIN-PadJ7_4)*%
X100076000Y-102616000D03*
%TO.P,U2,J7_5,ADCINB5/ANALOGIN*%
%TO.N,unconnected-(U2G-ADCINB5{slash}ANALOGIN-PadJ7_5)*%
X97536000Y-102616000D03*
%TO.P,U2,J7_6,ADCINA5/ANALOGIN*%
%TO.N,unconnected-(U2G-ADCINA5{slash}ANALOGIN-PadJ7_6)*%
X94996000Y-102616000D03*
%TO.P,U2,J7_7,ADCINC4/ANALOGIN*%
%TO.N,unconnected-(U2G-ADCINC4{slash}ANALOGIN-PadJ7_7)*%
X92456000Y-102616000D03*
%TO.P,U2,J7_8,ADCINB4/ANALOGIN*%
%TO.N,unconnected-(U2G-ADCINB4{slash}ANALOGIN-PadJ7_8)*%
X89916000Y-102616000D03*
%TO.P,U2,J7_9,ADCINA4/ANALOGIN*%
%TO.N,unconnected-(U2G-ADCINA4{slash}ANALOGIN-PadJ7_9)*%
X87376000Y-102616000D03*
%TO.P,U2,J7_10,ADCINA1/ANALOGIN(DACB)*%
%TO.N,unconnected-(U2G-ADCINA1{slash}ANALOGIN(DACB)-PadJ7_10)*%
X84836000Y-102616000D03*
D19*
%TO.P,U2,J8_1,PWM/BASED/DAC4*%
%TO.N,unconnected-(U2H-PWM{slash}BASED{slash}DAC4-PadJ8_1)*%
X84836000Y-143256000D03*
D20*
%TO.P,U2,J8_2,PWM/BASED/DAC3*%
%TO.N,unconnected-(U2H-PWM{slash}BASED{slash}DAC3-PadJ8_2)*%
X87376000Y-143256000D03*
%TO.P,U2,J8_3,GPIO15/OPXBAR4*%
%TO.N,unconnected-(U2H-GPIO15{slash}OPXBAR4-PadJ8_3)*%
X89916000Y-143256000D03*
%TO.P,U2,J8_4,GPIO14/OPXBAR3*%
%TO.N,unconnected-(U2H-GPIO14{slash}OPXBAR3-PadJ8_4)*%
X92456000Y-143256000D03*
%TO.P,U2,J8_5,GPIO11/PWMOUT6B*%
%TO.N,/PWM*%
X94996000Y-143256000D03*
%TO.P,U2,J8_6,GPIO10/PWMOUT6A*%
%TO.N,unconnected-(U2H-GPIO10{slash}PWMOUT6A-PadJ8_6)*%
X97536000Y-143256000D03*
%TO.P,U2,J8_7,GPIO9/PWMOUT5B*%
%TO.N,unconnected-(U2H-GPIO9{slash}PWMOUT5B-PadJ8_7)*%
X100076000Y-143256000D03*
%TO.P,U2,J8_8,GPIO8/PWMOUT5A*%
%TO.N,unconnected-(U2H-GPIO8{slash}PWMOUT5A-PadJ8_8)*%
X102616000Y-143256000D03*
%TO.P,U2,J8_9,GPIO7/PWMOUT4B*%
%TO.N,unconnected-(U2H-GPIO7{slash}PWMOUT4B-PadJ8_9)*%
X105156000Y-143256000D03*
%TO.P,U2,J8_10,GPIO6/PWMOUT4A*%
%TO.N,unconnected-(U2H-GPIO6{slash}PWMOUT4A-PadJ8_10)*%
X107696000Y-143256000D03*
D21*
%TO.P,U2,J10_1,+3V_J10*%
%TO.N,unconnected-(U2I-+3V_J10-PadJ10_1)*%
X74676000Y-145796000D03*
D22*
%TO.P,U2,J10_2,GND_J10*%
%TO.N,unconnected-(U2I-GND_J10-PadJ10_2)*%
X77216000Y-145796000D03*
%TO.P,U2,J10_3,GND_J10__1*%
%TO.N,GND*%
X79756000Y-145796000D03*
D21*
%TO.P,U2,J12_1,CANH*%
%TO.N,unconnected-(U2J-CANH-PadJ12_1)*%
X74676000Y-110236000D03*
D22*
%TO.P,U2,J12_2,CANL*%
%TO.N,unconnected-(U2J-CANL-PadJ12_2)*%
X74676000Y-107696000D03*
%TO.P,U2,J12_3,GND_J12*%
%TO.N,GND*%
X74676000Y-105156000D03*
D21*
%TO.P,U2,J14_1,EQEP1A*%
%TO.N,unconnected-(U2K-EQEP1A-PadJ14_1)*%
X74676000Y-140716000D03*
D22*
%TO.P,U2,J14_2,EQEP1B*%
%TO.N,unconnected-(U2K-EQEP1B-PadJ14_2)*%
X74676000Y-138176000D03*
%TO.P,U2,J14_3,EQEP1I*%
%TO.N,unconnected-(U2K-EQEP1I-PadJ14_3)*%
X74676000Y-135636000D03*
%TO.P,U2,J14_4,+5V_J14*%
%TO.N,unconnected-(U2K-+5V_J14-PadJ14_4)*%
X74676000Y-133096000D03*
%TO.P,U2,J14_5,GND_J14*%
%TO.N,GND*%
X74676000Y-130556000D03*
D21*
%TO.P,U2,J15_1,EQEP2A*%
%TO.N,unconnected-(U2L-EQEP2A-PadJ15_1)*%
X74676000Y-125476000D03*
D22*
%TO.P,U2,J15_2,EQEP2B*%
%TO.N,unconnected-(U2L-EQEP2B-PadJ15_2)*%
X74676000Y-122936000D03*
%TO.P,U2,J15_3,EQEP2I*%
%TO.N,unconnected-(U2L-EQEP2I-PadJ15_3)*%
X74676000Y-120396000D03*
%TO.P,U2,J15_4,+5V_J15*%
%TO.N,unconnected-(U2L-+5V_J15-PadJ15_4)*%
X74676000Y-117856000D03*
%TO.P,U2,J15_5,GND_J15*%
%TO.N,GND*%
X74676000Y-115316000D03*
D21*
%TO.P,U2,J16_1,+5V_J16*%
%TO.N,unconnected-(U2N-+5V_J16-PadJ16_1)*%
X74676000Y-100076000D03*
D22*
%TO.P,U2,J16_2,GND_J16*%
%TO.N,GND*%
X77216000Y-100076000D03*
%TO.P,U2,J16_3,GND_J16__1*%
X79756000Y-100076000D03*
D23*
%TO.P,U2,J21_1,ADCIND0*%
%TO.N,unconnected-(U2M-ADCIND0-PadJ21_1)*%
X144852000Y-102850000D03*
D24*
%TO.P,U2,J21_2,TP21/GND*%
%TO.N,GND*%
X144852000Y-100310000D03*
%TO.P,U2,J21_3,ADCIND1*%
%TO.N,unconnected-(U2M-ADCIND1-PadJ21_3)*%
X142312000Y-102850000D03*
%TO.P,U2,J21_4,TP22/GND*%
%TO.N,GND*%
X142312000Y-100310000D03*
%TO.P,U2,J21_5,ADCIND2*%
%TO.N,unconnected-(U2M-ADCIND2-PadJ21_5)*%
X139772000Y-102850000D03*
%TO.P,U2,J21_6,TP23/GND*%
%TO.N,GND*%
X139772000Y-100310000D03*
%TO.P,U2,J21_7,ADCIND3*%
%TO.N,unconnected-(U2M-ADCIND3-PadJ21_7)*%
X137232000Y-102850000D03*
%TO.P,U2,J21_8,TP24/GND*%
%TO.N,GND*%
X137232000Y-100310000D03*
%TD*%
D25*
%TO.P,C3,1*%
%TO.N,/PowerStage/VIN*%
X116013000Y-83936000D03*
D26*
%TO.P,C3,2*%
%TO.N,GND*%
X123513000Y-83936000D03*
%TD*%
D27*
%TO.N,GND*%
X76000000Y-74000000D03*
%TO.N,/VFILT*%
X175000000Y-46250000D03*
%TO.N,GND*%
X81026000Y-77978000D03*
%TO.N,/VSW*%
X112776000Y-69596000D03*
%TD*%
D28*
%TO.N,GND*%
X77250000Y-54068000D02*
X79502000Y-51816000D01*
X77250000Y-72750000D02*
X77250000Y-54068000D01*
X76000000Y-74000000D02*
X77250000Y-72750000D01*
X81772000Y-77978000D02*
X84750000Y-75000000D01*
X81026000Y-77978000D02*
X81772000Y-77978000D01*
%TO.N,/VFILT*%
X175000000Y-106000000D02*
X175000000Y-46250000D01*
X172750000Y-108250000D02*
X175000000Y-106000000D01*
X169750000Y-108250000D02*
X172750000Y-108250000D01*
X166116000Y-104616000D02*
X169750000Y-108250000D01*
X166116000Y-102616000D02*
X166116000Y-104616000D01*
D29*
%TO.N,/VSW*%
X118517000Y-69596000D02*
X112776000Y-69596000D01*
X118687000Y-69426000D02*
X118517000Y-69596000D01*
X118687000Y-67426000D02*
X118687000Y-69426000D01*
%TD*%
%TA.AperFunction,Conductor*%
%TO.N,GND*%
G36*
X167467904Y-100899071D02*
G01*
X167489809Y-100924350D01*
X167515506Y-100963682D01*
X167677168Y-101139295D01*
X167753965Y-101199068D01*
X167817427Y-101248462D01*
X167858240Y-101305173D01*
X167861915Y-101374946D01*
X167829006Y-101432610D01*
X167828840Y-101435287D01*
X168520058Y-102126504D01*
X168459919Y-102142619D01*
X168344080Y-102209498D01*
X168249498Y-102304080D01*
X168182619Y-102419919D01*
X168166504Y-102480057D01*
X167476057Y-101789609D01*
X167463366Y-101790925D01*
X167436955Y-101813464D01*
X167367723Y-101822885D01*
X167304388Y-101793381D01*
X167282488Y-101768105D01*
X167282192Y-101767652D01*
X167256494Y-101728318D01*
X167094832Y-101552705D01*
X166954978Y-101443853D01*
X166914166Y-101387143D01*
X166910491Y-101317370D01*
X166945122Y-101256687D01*
X166954979Y-101248146D01*
X167094832Y-101139295D01*
X167256494Y-100963682D01*
X167282191Y-100924350D01*
X167335337Y-100878993D01*
X167404568Y-100869569D01*
X167467904Y-100899071D01*
G37*
%TD.AperFunction*%
%TA.AperFunction,Conductor*%
G36*
X169738326Y-101150600D02*
G01*
X169788651Y-101199068D01*
X169797136Y-101217196D01*
X169812402Y-101258128D01*
X169812405Y-101258134D01*
X169822554Y-101271691D01*
X169846970Y-101337155D01*
X169832117Y-101405428D01*
X169822554Y-101420309D01*
X169812405Y-101433865D01*
X169812402Y-101433871D01*
X169762108Y-101568717D01*
X169755701Y-101628316D01*
X169755701Y-101628323D01*
X169755700Y-101628335D01*
X169755700Y-101818491D01*
X169736015Y-101885530D01*
X169719381Y-101906172D01*
X169145495Y-102480057D01*
X169129381Y-102419919D01*
X169062502Y-102304080D01*
X168967920Y-102209498D01*
X168852081Y-102142619D01*
X168791941Y-102126504D01*
X169483159Y-101435287D01*
X169482685Y-101427653D01*
X169453757Y-101387456D01*
X169450085Y-101317683D01*
X169484718Y-101257000D01*
X169494559Y-101248473D01*
X169604794Y-101162674D01*
X169669786Y-101137033D01*
X169738326Y-101150600D01*
G37*
%TD.AperFunction*%
%TA.AperFunction,Conductor*%
G36*
X139306075Y-100502993D02*
G01*
X139371901Y-100617007D01*
X139464993Y-100710099D01*
X139579007Y-100775925D01*
X139642590Y-100792962D01*
X139082427Y-101353124D01*
X139144613Y-101396667D01*
X139144615Y-101396668D01*
X139296174Y-101467341D01*
X139348614Y-101513513D01*
X139367766Y-101580706D01*
X139347551Y-101647588D01*
X139296176Y-101692105D01*
X139144358Y-101762900D01*
X139144357Y-101762900D01*
X138965121Y-101888402D01*
X138810402Y-102043121D01*
X138684900Y-102222357D01*
X138684898Y-102222361D01*
X138614382Y-102373583D01*
X138568209Y-102426022D01*
X138501016Y-102445174D01*
X138434135Y-102424958D01*
X138389618Y-102373583D01*
X138357208Y-102304080D01*
X138319102Y-102222362D01*
X138319100Y-102222359D01*
X138319099Y-102222357D01*
X138193599Y-102043124D01*
X138142991Y-101992516D01*
X138038877Y-101888402D01*
X137897786Y-101789609D01*
X137859638Y-101762897D01*
X137707824Y-101692105D01*
X137655385Y-101645932D01*
X137636233Y-101578739D01*
X137656449Y-101511858D01*
X137707825Y-101467340D01*
X137859388Y-101396666D01*
X137921571Y-101353124D01*
X137361410Y-100792962D01*
X137424993Y-100775925D01*
X137539007Y-100710099D01*
X137632099Y-100617007D01*
X137697925Y-100502993D01*
X137714962Y-100439409D01*
X138275124Y-100999570D01*
X138318668Y-100937385D01*
X138318669Y-100937383D01*
X138389618Y-100785233D01*
X138435790Y-100732793D01*
X138502983Y-100713641D01*
X138569865Y-100733856D01*
X138614382Y-100785232D01*
X138685333Y-100937387D01*
X138728874Y-100999571D01*
X139289037Y-100439408D01*
X139306075Y-100502993D01*
G37*
%TD.AperFunction*%
%TA.AperFunction,Conductor*%
G36*
X141846075Y-100502993D02*
G01*
X141911901Y-100617007D01*
X142004993Y-100710099D01*
X142119007Y-100775925D01*
X142182590Y-100792962D01*
X141622427Y-101353124D01*
X141684613Y-101396667D01*
X141684615Y-101396668D01*
X141836174Y-101467341D01*
X141888614Y-101513513D01*
X141907766Y-101580706D01*
X141887551Y-101647588D01*
X141836176Y-101692105D01*
X141684358Y-101762900D01*
X141684357Y-101762900D01*
X141505121Y-101888402D01*
X141350402Y-102043121D01*
X141224900Y-102222357D01*
X141224898Y-102222361D01*
X141154382Y-102373583D01*
X141108209Y-102426022D01*
X141041016Y-102445174D01*
X140974135Y-102424958D01*
X140929618Y-102373583D01*
X140897208Y-102304080D01*
X140859102Y-102222362D01*
X140859100Y-102222359D01*
X140859099Y-102222357D01*
X140733599Y-102043124D01*
X140682991Y-101992516D01*
X140578877Y-101888402D01*
X140437786Y-101789609D01*
X140399638Y-101762897D01*
X140247824Y-101692105D01*
X140195385Y-101645932D01*
X140176233Y-101578739D01*
X140196449Y-101511858D01*
X140247825Y-101467340D01*
X140399388Y-101396666D01*
X140461571Y-101353124D01*
X139901410Y-100792962D01*
X139964993Y-100775925D01*
X140079007Y-100710099D01*
X140172099Y-100617007D01*
X140237925Y-100502993D01*
X140254962Y-100439409D01*
X140815124Y-100999570D01*
X140858668Y-100937385D01*
X140858669Y-100937383D01*
X140929618Y-100785233D01*
X140975790Y-100732793D01*
X141042983Y-100713641D01*
X141109865Y-100733856D01*
X141154382Y-100785232D01*
X141225333Y-100937387D01*
X141268874Y-100999571D01*
X141829037Y-100439408D01*
X141846075Y-100502993D01*
G37*
%TD.AperFunction*%
%TA.AperFunction,Conductor*%
G36*
X144386075Y-100502993D02*
G01*
X144451901Y-100617007D01*
X144544993Y-100710099D01*
X144659007Y-100775925D01*
X144722590Y-100792962D01*
X144162427Y-101353124D01*
X144192134Y-101373925D01*
X144235759Y-101428502D01*
X144242953Y-101498000D01*
X144211430Y-101560355D01*
X144151201Y-101595769D01*
X144121013Y-101599500D01*
X144054130Y-101599500D01*
X144054123Y-101599501D01*
X143994516Y-101605908D01*
X143859671Y-101656202D01*
X143859664Y-101656206D01*
X143744455Y-101742452D01*
X143744452Y-101742455D01*
X143658206Y-101857664D01*
X143658202Y-101857671D01*
X143607908Y-101992517D01*
X143602468Y-102043121D01*
X143601501Y-102052123D01*
X143601500Y-102052135D01*
X143601500Y-102118138D01*
X143581815Y-102185177D01*
X143529011Y-102230932D01*
X143459853Y-102240876D01*
X143396297Y-102211851D01*
X143375925Y-102189261D01*
X143273599Y-102043124D01*
X143222991Y-101992516D01*
X143118877Y-101888402D01*
X142977786Y-101789609D01*
X142939638Y-101762897D01*
X142787824Y-101692105D01*
X142735385Y-101645932D01*
X142716233Y-101578739D01*
X142736449Y-101511858D01*
X142787825Y-101467340D01*
X142939388Y-101396666D01*
X143001571Y-101353124D01*
X142441410Y-100792962D01*
X142504993Y-100775925D01*
X142619007Y-100710099D01*
X142712099Y-100617007D01*
X142777925Y-100502993D01*
X142794962Y-100439409D01*
X143355124Y-100999570D01*
X143398668Y-100937385D01*
X143398669Y-100937383D01*
X143469618Y-100785233D01*
X143515790Y-100732793D01*
X143582983Y-100713641D01*
X143649865Y-100733856D01*
X143694382Y-100785232D01*
X143765333Y-100937387D01*
X143808874Y-100999571D01*
X144369037Y-100439408D01*
X144386075Y-100502993D01*
G37*
%TD.AperFunction*%
%TA.AperFunction,Conductor*%
G36*
X103967904Y-100899071D02*
G01*
X103989809Y-100924350D01*
X104015506Y-100963682D01*
X104177168Y-101139295D01*
X104253965Y-101199068D01*
X104317427Y-101248462D01*
X104358240Y-101305173D01*
X104361915Y-101374946D01*
X104329006Y-101432610D01*
X104328840Y-101435287D01*
X105020058Y-102126504D01*
X104959919Y-102142619D01*
X104844080Y-102209498D01*
X104749498Y-102304080D01*
X104682619Y-102419919D01*
X104666504Y-102480057D01*
X103976057Y-101789609D01*
X103963366Y-101790925D01*
X103936955Y-101813464D01*
X103867723Y-101822885D01*
X103804388Y-101793381D01*
X103782488Y-101768105D01*
X103782192Y-101767652D01*
X103756494Y-101728318D01*
X103594832Y-101552705D01*
X103454978Y-101443853D01*
X103414166Y-101387143D01*
X103410491Y-101317370D01*
X103445122Y-101256687D01*
X103454979Y-101248146D01*
X103594832Y-101139295D01*
X103756494Y-100963682D01*
X103782191Y-100924350D01*
X103835337Y-100878993D01*
X103904568Y-100869569D01*
X103967904Y-100899071D01*
G37*
%TD.AperFunction*%
%TA.AperFunction,Conductor*%
G36*
X106238326Y-101150600D02*
G01*
X106288651Y-101199068D01*
X106297136Y-101217196D01*
X106312402Y-101258128D01*
X106312405Y-101258134D01*
X106322554Y-101271691D01*
X106346970Y-101337155D01*
X106332117Y-101405428D01*
X106322554Y-101420309D01*
X106312405Y-101433865D01*
X106312402Y-101433871D01*
X106262108Y-101568717D01*
X106255701Y-101628316D01*
X106255701Y-101628323D01*
X106255700Y-101628335D01*
X106255700Y-101818491D01*
X106236015Y-101885530D01*
X106219381Y-101906172D01*
X105645495Y-102480057D01*
X105629381Y-102419919D01*
X105562502Y-102304080D01*
X105467920Y-102209498D01*
X105352081Y-102142619D01*
X105291941Y-102126504D01*
X105983159Y-101435287D01*
X105982685Y-101427653D01*
X105953757Y-101387456D01*
X105950085Y-101317683D01*
X105984718Y-101257000D01*
X105994559Y-101248473D01*
X106104794Y-101162674D01*
X106169786Y-101137033D01*
X106238326Y-101150600D01*
G37*
%TD.AperFunction*%
%TA.AperFunction,Conductor*%
G36*
X198215677Y-25419685D02*
G01*
X198236319Y-25436319D01*
X203163681Y-30363681D01*
X203197166Y-30425004D01*
X203200000Y-30451362D01*
X203200000Y-147348637D01*
X203180315Y-147415676D01*
X203163681Y-147436318D01*
X202072152Y-148527846D01*
X202010829Y-148561331D01*
X201941137Y-148556347D01*
X201886095Y-148515651D01*
X201790848Y-148391523D01*
X201790842Y-148391516D01*
X201620483Y-148221157D01*
X201620476Y-148221151D01*
X201429336Y-148074485D01*
X201429334Y-148074483D01*
X201429329Y-148074480D01*
X201220671Y-147954011D01*
X201220662Y-147954006D01*
X200998073Y-147861808D01*
X200765341Y-147799447D01*
X200526470Y-147768000D01*
X200526469Y-147768000D01*
X200285531Y-147768000D01*
X200285530Y-147768000D01*
X200046658Y-147799447D01*
X199813926Y-147861808D01*
X199591337Y-147954006D01*
X199591328Y-147954011D01*
X199465644Y-148026575D01*
X199382671Y-148074480D01*
X199382668Y-148074481D01*
X199382663Y-148074485D01*
X199191523Y-148221151D01*
X199191516Y-148221157D01*
X199021157Y-148391516D01*
X199021151Y-148391523D01*
X198874485Y-148582663D01*
X198754011Y-148791328D01*
X198754006Y-148791337D01*
X198661808Y-149013926D01*
X198599447Y-149246658D01*
X198568000Y-149485530D01*
X198568000Y-149726469D01*
X198599447Y-149965341D01*
X198661808Y-150198073D01*
X198754006Y-150420662D01*
X198754011Y-150420671D01*
X198874480Y-150629329D01*
X198874483Y-150629334D01*
X198874485Y-150629336D01*
X199021151Y-150820476D01*
X199021157Y-150820483D01*
X199191516Y-150990842D01*
X199191523Y-150990848D01*
X199315651Y-151086095D01*
X199356854Y-151142523D01*
X199361009Y-151212269D01*
X199327846Y-151272152D01*
X198236319Y-152363681D01*
X198174996Y-152397166D01*
X198148638Y-152400000D01*
X77949362Y-152400000D01*
X77882323Y-152380315D01*
X77861681Y-152363681D01*
X76871970Y-151373970D01*
X76838485Y-151312647D01*
X76843469Y-151242955D01*
X76885341Y-151187022D01*
X76897629Y-151178915D01*
X76969329Y-151137520D01*
X77160478Y-150990847D01*
X77330847Y-150820478D01*
X77477520Y-150629329D01*
X77597989Y-150420671D01*
X77690192Y-150198073D01*
X77752552Y-149965345D01*
X77784000Y-149726469D01*
X77784000Y-149485531D01*
X77752552Y-149246655D01*
X77690192Y-149013927D01*
X77647734Y-148911424D01*
X77597993Y-148791337D01*
X77597988Y-148791328D01*
X77477520Y-148582671D01*
X77330847Y-148391522D01*
X77330842Y-148391516D01*
X77160483Y-148221157D01*
X77160476Y-148221151D01*
X76969336Y-148074485D01*
X76969334Y-148074483D01*
X76969329Y-148074480D01*
X76760671Y-147954011D01*
X76760662Y-147954006D01*
X76538073Y-147861808D01*
X76305341Y-147799447D01*
X76066470Y-147768000D01*
X76066469Y-147768000D01*
X75825531Y-147768000D01*
X75825530Y-147768000D01*
X75586658Y-147799447D01*
X75353926Y-147861808D01*
X75131337Y-147954006D01*
X75131328Y-147954011D01*
X75005644Y-148026575D01*
X74922671Y-148074480D01*
X74922668Y-148074481D01*
X74922663Y-148074485D01*
X74731523Y-148221151D01*
X74731516Y-148221157D01*
X74561157Y-148391516D01*
X74561151Y-148391523D01*
X74414485Y-148582663D01*
X74373097Y-148654349D01*
X74322529Y-148702564D01*
X74253922Y-148715786D01*
X74189057Y-148689818D01*
X74178029Y-148680029D01*
X72934319Y-147436319D01*
X72900834Y-147374996D01*
X72898000Y-147348638D01*
X72898000Y-144986135D01*
X73413500Y-144986135D01*
X73413500Y-146605870D01*
X73413501Y-146605876D01*
X73419908Y-146665483D01*
X73470202Y-146800328D01*
X73470206Y-146800335D01*
X73556452Y-146915544D01*
X73556455Y-146915547D01*
X73671664Y-147001793D01*
X73671671Y-147001797D01*
X73806517Y-147052091D01*
X73806516Y-147052091D01*
X73813444Y-147052835D01*
X73866127Y-147058500D01*
X75485872Y-147058499D01*
X75545483Y-147052091D01*
X75680331Y-147001796D01*
X75795546Y-146915546D01*
X75881796Y-146800331D01*
X75932091Y-146665483D01*
X75938500Y-146605873D01*
X75938499Y-146565920D01*
X75958182Y-146498884D01*
X76010985Y-146453128D01*
X76080143Y-146443183D01*
X76143700Y-146472206D01*
X76164073Y-146494796D01*
X76245174Y-146610620D01*
X76245175Y-146610621D01*
X76401378Y-146766824D01*
X76401384Y-146766829D01*
X76582333Y-146893531D01*
X76582335Y-146893532D01*
X76582338Y-146893534D01*
X76782550Y-146986894D01*
X76995932Y-147044070D01*
X77153123Y-147057822D01*
X77215998Y-147063323D01*
X77216000Y-147063323D01*
X77216002Y-147063323D01*
X77271151Y-147058498D01*
X77436068Y-147044070D01*
X77649450Y-146986894D01*
X77849662Y-146893534D01*
X78030620Y-146766826D01*
X78186826Y-146610620D01*
X78313534Y-146429662D01*
X78373894Y-146300218D01*
X78420066Y-146247779D01*
X78487259Y-146228627D01*
X78554141Y-146248843D01*
X78598658Y-146300219D01*
X78658898Y-146429405D01*
X78658901Y-146429411D01*
X78704258Y-146494187D01*
X78704258Y-146494188D01*
X79266504Y-145931941D01*
X79282619Y-145992081D01*
X79349498Y-146107920D01*
X79444080Y-146202502D01*
X79559919Y-146269381D01*
X79620057Y-146285494D01*
X79057810Y-146847740D01*
X79122590Y-146893099D01*
X79122592Y-146893100D01*
X79322715Y-146986419D01*
X79322729Y-146986424D01*
X79536013Y-147043573D01*
X79536023Y-147043575D01*
X79755999Y-147062821D01*
X79756001Y-147062821D01*
X79975976Y-147043575D01*
X79975986Y-147043573D01*
X80189270Y-146986424D01*
X80189284Y-146986419D01*
X80389407Y-146893100D01*
X80389417Y-146893094D01*
X80454188Y-146847741D01*
X79891942Y-146285494D01*
X79952081Y-146269381D01*
X80067920Y-146202502D01*
X80162502Y-146107920D01*
X80229381Y-145992081D01*
X80245495Y-145931942D01*
X80807741Y-146494188D01*
X80853094Y-146429417D01*
X80853100Y-146429407D01*
X80946419Y-146229284D01*
X80946424Y-146229270D01*
X81003573Y-146015986D01*
X81003575Y-146015976D01*
X81022821Y-145796000D01*
X81022821Y-145795999D01*
X81003575Y-145576023D01*
X81003573Y-145576013D01*
X80946424Y-145362729D01*
X80946420Y-145362720D01*
X80853096Y-145162586D01*
X80807741Y-145097811D01*
X80807740Y-145097810D01*
X80245494Y-145660056D01*
X80229381Y-145599919D01*
X80162502Y-145484080D01*
X80067920Y-145389498D01*
X79952081Y-145322619D01*
X79891941Y-145306504D01*
X80454188Y-144744258D01*
X80389411Y-144698901D01*
X80389405Y-144698898D01*
X80189284Y-144605580D01*
X80189270Y-144605575D01*
X79975986Y-144548426D01*
X79975976Y-144548424D01*
X79756001Y-144529179D01*
X79755999Y-144529179D01*
X79536023Y-144548424D01*
X79536013Y-144548426D01*
X79322729Y-144605575D01*
X79322720Y-144605579D01*
X79122590Y-144698901D01*
X79057811Y-144744258D01*
X79620058Y-145306504D01*
X79559919Y-145322619D01*
X79444080Y-145389498D01*
X79349498Y-145484080D01*
X79282619Y-145599919D01*
X79266504Y-145660057D01*
X78704258Y-145097811D01*
X78658901Y-145162590D01*
X78598658Y-145291781D01*
X78552485Y-145344220D01*
X78485292Y-145363372D01*
X78418411Y-145343156D01*
X78373894Y-145291781D01*
X78313534Y-145162340D01*
X78313533Y-145162338D01*
X78287191Y-145124718D01*
X78207757Y-145011273D01*
X78186827Y-144981381D01*
X78113761Y-144908315D01*
X78030620Y-144825174D01*
X78030616Y-144825171D01*
X78030615Y-144825170D01*
X77849666Y-144698468D01*
X77849662Y-144698466D01*
X77802457Y-144676454D01*
X77649450Y-144605106D01*
X77649447Y-144605105D01*
X77649445Y-144605104D01*
X77436070Y-144547930D01*
X77436062Y-144547929D01*
X77216002Y-144528677D01*
X77215998Y-144528677D01*
X76995937Y-144547929D01*
X76995929Y-144547930D01*
X76782554Y-144605104D01*
X76782548Y-144605107D01*
X76582340Y-144698465D01*
X76582338Y-144698466D01*
X76401377Y-144825175D01*
X76245175Y-144981377D01*
X76164074Y-145097203D01*
X76109497Y-145140828D01*
X76039999Y-145148022D01*
X75977644Y-145116499D01*
X75942230Y-145056270D01*
X75938499Y-145026080D01*
X75938499Y-144986129D01*
X75938498Y-144986123D01*
X75938497Y-144986116D01*
X75932091Y-144926517D01*
X75928604Y-144917169D01*
X75881797Y-144791671D01*
X75881793Y-144791664D01*
X75795547Y-144676455D01*
X75795544Y-144676452D01*
X75680335Y-144590206D01*
X75680328Y-144590202D01*
X75545482Y-144539908D01*
X75545483Y-144539908D01*
X75485883Y-144533501D01*
X75485881Y-144533500D01*
X75485873Y-144533500D01*
X75485864Y-144533500D01*
X73866129Y-144533500D01*
X73866123Y-144533501D01*
X73806516Y-144539908D01*
X73671671Y-144590202D01*
X73671664Y-144590206D01*
X73556455Y-144676452D01*
X73556452Y-144676455D01*
X73470206Y-144791664D01*
X73470202Y-144791671D01*
X73419908Y-144926517D01*
X73414010Y-144981380D01*
X73413501Y-144986123D01*
X73413500Y-144986135D01*
X72898000Y-144986135D01*
X72898000Y-142268335D01*
X83395700Y-142268335D01*
X83395700Y-144243670D01*
X83395701Y-144243676D01*
X83402108Y-144303283D01*
X83452402Y-144438128D01*
X83452405Y-144438134D01*
X83462554Y-144451691D01*
X83486970Y-144517155D01*
X83472117Y-144585428D01*
X83462554Y-144600309D01*
X83452405Y-144613865D01*
X83452402Y-144613871D01*
X83402108Y-144748717D01*
X83395701Y-144808316D01*
X83395700Y-144808335D01*
X83395700Y-146783670D01*
X83395701Y-146783676D01*
X83402108Y-146843283D01*
X83452402Y-146978128D01*
X83452406Y-146978135D01*
X83538652Y-147093344D01*
X83538655Y-147093347D01*
X83653864Y-147179593D01*
X83653871Y-147179597D01*
X83788717Y-147229891D01*
X83788716Y-147229891D01*
X83795644Y-147230635D01*
X83848327Y-147236300D01*
X85823672Y-147236299D01*
X85883283Y-147229891D01*
X86018131Y-147179596D01*
X86133346Y-147093346D01*
X86219596Y-146978131D01*
X86234864Y-146937196D01*
X86276735Y-146881262D01*
X86342199Y-146856845D01*
X86410472Y-146871696D01*
X86427203Y-146882672D01*
X86503815Y-146942301D01*
X86584988Y-147005481D01*
X86585531Y-147005903D01*
X86795455Y-147119509D01*
X87021216Y-147197012D01*
X87256653Y-147236300D01*
X87256654Y-147236300D01*
X87495346Y-147236300D01*
X87495347Y-147236300D01*
X87730784Y-147197012D01*
X87956545Y-147119509D01*
X88166469Y-147005903D01*
X88354832Y-146859295D01*
X88516494Y-146683682D01*
X88538478Y-146650032D01*
X88542191Y-146644350D01*
X88595337Y-146598993D01*
X88664568Y-146589569D01*
X88727904Y-146619071D01*
X88749809Y-146644350D01*
X88762126Y-146663202D01*
X88775506Y-146683682D01*
X88937168Y-146859295D01*
X89125531Y-147005903D01*
X89335455Y-147119509D01*
X89561216Y-147197012D01*
X89796653Y-147236300D01*
X89796654Y-147236300D01*
X90035346Y-147236300D01*
X90035347Y-147236300D01*
X90270784Y-147197012D01*
X90496545Y-147119509D01*
X90706469Y-147005903D01*
X90894832Y-146859295D01*
X91056494Y-146683682D01*
X91078478Y-146650032D01*
X91082191Y-146644350D01*
X91135337Y-146598993D01*
X91204568Y-146589569D01*
X91267904Y-146619071D01*
X91289809Y-146644350D01*
X91302126Y-146663202D01*
X91315506Y-146683682D01*
X91477168Y-146859295D01*
X91665531Y-147005903D01*
X91875455Y-147119509D01*
X92101216Y-147197012D01*
X92336653Y-147236300D01*
X92336654Y-147236300D01*
X92575346Y-147236300D01*
X92575347Y-147236300D01*
X92810784Y-147197012D01*
X93036545Y-147119509D01*
X93246469Y-147005903D01*
X93434832Y-146859295D01*
X93596494Y-146683682D01*
X93618478Y-146650032D01*
X93622191Y-146644350D01*
X93675337Y-146598993D01*
X93744568Y-146589569D01*
X93807904Y-146619071D01*
X93829809Y-146644350D01*
X93842126Y-146663202D01*
X93855506Y-146683682D01*
X94017168Y-146859295D01*
X94205531Y-147005903D01*
X94415455Y-147119509D01*
X94641216Y-147197012D01*
X94876653Y-147236300D01*
X94876654Y-147236300D01*
X95115346Y-147236300D01*
X95115347Y-147236300D01*
X95350784Y-147197012D01*
X95576545Y-147119509D01*
X95786469Y-147005903D01*
X95974832Y-146859295D01*
X96136494Y-146683682D01*
X96158478Y-146650032D01*
X96162191Y-146644350D01*
X96215337Y-146598993D01*
X96284568Y-146589569D01*
X96347904Y-146619071D01*
X96369809Y-146644350D01*
X96382126Y-146663202D01*
X96395506Y-146683682D01*
X96557168Y-146859295D01*
X96745531Y-147005903D01*
X96955455Y-147119509D01*
X97181216Y-147197012D01*
X97416653Y-147236300D01*
X97416654Y-147236300D01*
X97655346Y-147236300D01*
X97655347Y-147236300D01*
X97890784Y-147197012D01*
X98116545Y-147119509D01*
X98326469Y-147005903D01*
X98514832Y-146859295D01*
X98676494Y-146683682D01*
X98698478Y-146650032D01*
X98702191Y-146644350D01*
X98755337Y-146598993D01*
X98824568Y-146589569D01*
X98887904Y-146619071D01*
X98909809Y-146644350D01*
X98922126Y-146663202D01*
X98935506Y-146683682D01*
X99097168Y-146859295D01*
X99285531Y-147005903D01*
X99495455Y-147119509D01*
X99721216Y-147197012D01*
X99956653Y-147236300D01*
X99956654Y-147236300D01*
X100195346Y-147236300D01*
X100195347Y-147236300D01*
X100430784Y-147197012D01*
X100656545Y-147119509D01*
X100866469Y-147005903D01*
X101054832Y-146859295D01*
X101216494Y-146683682D01*
X101238478Y-146650032D01*
X101242191Y-146644350D01*
X101295337Y-146598993D01*
X101364568Y-146589569D01*
X101427904Y-146619071D01*
X101449809Y-146644350D01*
X101462126Y-146663202D01*
X101475506Y-146683682D01*
X101637168Y-146859295D01*
X101825531Y-147005903D01*
X102035455Y-147119509D01*
X102261216Y-147197012D01*
X102496653Y-147236300D01*
X102496654Y-147236300D01*
X102735346Y-147236300D01*
X102735347Y-147236300D01*
X102970784Y-147197012D01*
X103196545Y-147119509D01*
X103406469Y-147005903D01*
X103594832Y-146859295D01*
X103756494Y-146683682D01*
X103778478Y-146650032D01*
X103782191Y-146644350D01*
X103835337Y-146598993D01*
X103904568Y-146589569D01*
X103967904Y-146619071D01*
X103989809Y-146644350D01*
X104002126Y-146663202D01*
X104015506Y-146683682D01*
X104177168Y-146859295D01*
X104365531Y-147005903D01*
X104575455Y-147119509D01*
X104801216Y-147197012D01*
X105036653Y-147236300D01*
X105036654Y-147236300D01*
X105275346Y-147236300D01*
X105275347Y-147236300D01*
X105510784Y-147197012D01*
X105736545Y-147119509D01*
X105946469Y-147005903D01*
X106134832Y-146859295D01*
X106296494Y-146683682D01*
X106322489Y-146643892D01*
X106375634Y-146598536D01*
X106444865Y-146589112D01*
X106508201Y-146618613D01*
X106511020Y-146621867D01*
X106516056Y-146622389D01*
X106544907Y-146593538D01*
X106606230Y-146560053D01*
X106675922Y-146565037D01*
X106727575Y-146601509D01*
X106730731Y-146605270D01*
X106897825Y-146772364D01*
X106931310Y-146833687D01*
X106926326Y-146903379D01*
X106897825Y-146947726D01*
X106868839Y-146976711D01*
X106868840Y-146976712D01*
X106905802Y-147005481D01*
X106905808Y-147005486D01*
X107115650Y-147119046D01*
X107115660Y-147119051D01*
X107341335Y-147196525D01*
X107576696Y-147235800D01*
X107815304Y-147235800D01*
X108050664Y-147196525D01*
X108276339Y-147119051D01*
X108276344Y-147119049D01*
X108486197Y-147005481D01*
X108486200Y-147005480D01*
X108523158Y-146976712D01*
X108523913Y-146964543D01*
X108505974Y-146931689D01*
X108510958Y-146861997D01*
X108552830Y-146806064D01*
X108555972Y-146803787D01*
X108605269Y-146769270D01*
X108726367Y-146648171D01*
X108787686Y-146614689D01*
X108857378Y-146619673D01*
X108863596Y-146623669D01*
X108875941Y-146622389D01*
X108966604Y-146483621D01*
X108966609Y-146483613D01*
X109062454Y-146265104D01*
X109121030Y-146033796D01*
X109121032Y-146033788D01*
X109140735Y-145796006D01*
X109140735Y-145795993D01*
X109121032Y-145558211D01*
X109121030Y-145558203D01*
X109062454Y-145326895D01*
X108966606Y-145108380D01*
X108875941Y-144969608D01*
X108873763Y-144969383D01*
X108809112Y-144942887D01*
X108784981Y-144917169D01*
X108778785Y-144908320D01*
X108769270Y-144894731D01*
X108769268Y-144894729D01*
X108769266Y-144894726D01*
X108605272Y-144730733D01*
X108605269Y-144730730D01*
X108605264Y-144730726D01*
X108605261Y-144730724D01*
X108575856Y-144710134D01*
X108532231Y-144655557D01*
X108523218Y-144616242D01*
X108522684Y-144607653D01*
X108493757Y-144567456D01*
X108490085Y-144497683D01*
X108524718Y-144437000D01*
X108534559Y-144428473D01*
X108674832Y-144319295D01*
X108836494Y-144143682D01*
X108967047Y-143943856D01*
X109062929Y-143725267D01*
X109121525Y-143493878D01*
X109122588Y-143481050D01*
X109141236Y-143256005D01*
X109141236Y-143255994D01*
X109121526Y-143018130D01*
X109121524Y-143018118D01*
X109062929Y-142786732D01*
X108967048Y-142568147D01*
X108967047Y-142568144D01*
X108836494Y-142368318D01*
X108744454Y-142268335D01*
X146895700Y-142268335D01*
X146895700Y-144243670D01*
X146895701Y-144243676D01*
X146902108Y-144303283D01*
X146952402Y-144438128D01*
X146952405Y-144438134D01*
X146962554Y-144451691D01*
X146986970Y-144517155D01*
X146972117Y-144585428D01*
X146962554Y-144600309D01*
X146952405Y-144613865D01*
X146952402Y-144613871D01*
X146902108Y-144748717D01*
X146895701Y-144808316D01*
X146895700Y-144808335D01*
X146895700Y-146783670D01*
X146895701Y-146783676D01*
X146902108Y-146843283D01*
X146952402Y-146978128D01*
X146952406Y-146978135D01*
X147038652Y-147093344D01*
X147038655Y-147093347D01*
X147153864Y-147179593D01*
X147153871Y-147179597D01*
X147288717Y-147229891D01*
X147288716Y-147229891D01*
X147295644Y-147230635D01*
X147348327Y-147236300D01*
X149323672Y-147236299D01*
X149383283Y-147229891D01*
X149518131Y-147179596D01*
X149633346Y-147093346D01*
X149719596Y-146978131D01*
X149734864Y-146937196D01*
X149776735Y-146881262D01*
X149842199Y-146856845D01*
X149910472Y-146871696D01*
X149927203Y-146882672D01*
X150003815Y-146942301D01*
X150084988Y-147005481D01*
X150085531Y-147005903D01*
X150295455Y-147119509D01*
X150521216Y-147197012D01*
X150756653Y-147236300D01*
X150756654Y-147236300D01*
X150995346Y-147236300D01*
X150995347Y-147236300D01*
X151230784Y-147197012D01*
X151456545Y-147119509D01*
X151666469Y-147005903D01*
X151854832Y-146859295D01*
X152016494Y-146683682D01*
X152038478Y-146650032D01*
X152042191Y-146644350D01*
X152095337Y-146598993D01*
X152164568Y-146589569D01*
X152227904Y-146619071D01*
X152249809Y-146644350D01*
X152262126Y-146663202D01*
X152275506Y-146683682D01*
X152437168Y-146859295D01*
X152625531Y-147005903D01*
X152835455Y-147119509D01*
X153061216Y-147197012D01*
X153296653Y-147236300D01*
X153296654Y-147236300D01*
X153535346Y-147236300D01*
X153535347Y-147236300D01*
X153770784Y-147197012D01*
X153996545Y-147119509D01*
X154206469Y-147005903D01*
X154394832Y-146859295D01*
X154556494Y-146683682D01*
X154578478Y-146650032D01*
X154582191Y-146644350D01*
X154635337Y-146598993D01*
X154704568Y-146589569D01*
X154767904Y-146619071D01*
X154789809Y-146644350D01*
X154802126Y-146663202D01*
X154815506Y-146683682D01*
X154977168Y-146859295D01*
X155165531Y-147005903D01*
X155375455Y-147119509D01*
X155601216Y-147197012D01*
X155836653Y-147236300D01*
X155836654Y-147236300D01*
X156075346Y-147236300D01*
X156075347Y-147236300D01*
X156310784Y-147197012D01*
X156536545Y-147119509D01*
X156746469Y-147005903D01*
X156934832Y-146859295D01*
X157096494Y-146683682D01*
X157118478Y-146650032D01*
X157122191Y-146644350D01*
X157175337Y-146598993D01*
X157244568Y-146589569D01*
X157307904Y-146619071D01*
X157329809Y-146644350D01*
X157342126Y-146663202D01*
X157355506Y-146683682D01*
X157517168Y-146859295D01*
X157705531Y-147005903D01*
X157915455Y-147119509D01*
X158141216Y-147197012D01*
X158376653Y-147236300D01*
X158376654Y-147236300D01*
X158615346Y-147236300D01*
X158615347Y-147236300D01*
X158850784Y-147197012D01*
X159076545Y-147119509D01*
X159286469Y-147005903D01*
X159474832Y-146859295D01*
X159636494Y-146683682D01*
X159658478Y-146650032D01*
X159662191Y-146644350D01*
X159715337Y-146598993D01*
X159784568Y-146589569D01*
X159847904Y-146619071D01*
X159869809Y-146644350D01*
X159882126Y-146663202D01*
X159895506Y-146683682D01*
X160057168Y-146859295D01*
X160245531Y-147005903D01*
X160455455Y-147119509D01*
X160681216Y-147197012D01*
X160916653Y-147236300D01*
X160916654Y-147236300D01*
X161155346Y-147236300D01*
X161155347Y-147236300D01*
X161390784Y-147197012D01*
X161616545Y-147119509D01*
X161826469Y-147005903D01*
X162014832Y-146859295D01*
X162176494Y-146683682D01*
X162198478Y-146650032D01*
X162202191Y-146644350D01*
X162255337Y-146598993D01*
X162324568Y-146589569D01*
X162387904Y-146619071D01*
X162409809Y-146644350D01*
X162422126Y-146663202D01*
X162435506Y-146683682D01*
X162597168Y-146859295D01*
X162785531Y-147005903D01*
X162995455Y-147119509D01*
X163221216Y-147197012D01*
X163456653Y-147236300D01*
X163456654Y-147236300D01*
X163695346Y-147236300D01*
X163695347Y-147236300D01*
X163930784Y-147197012D01*
X164156545Y-147119509D01*
X164366469Y-147005903D01*
X164554832Y-146859295D01*
X164716494Y-146683682D01*
X164738478Y-146650032D01*
X164742191Y-146644350D01*
X164795337Y-146598993D01*
X164864568Y-146589569D01*
X164927904Y-146619071D01*
X164949809Y-146644350D01*
X164962126Y-146663202D01*
X164975506Y-146683682D01*
X165137168Y-146859295D01*
X165325531Y-147005903D01*
X165535455Y-147119509D01*
X165761216Y-147197012D01*
X165996653Y-147236300D01*
X165996654Y-147236300D01*
X166235346Y-147236300D01*
X166235347Y-147236300D01*
X166470784Y-147197012D01*
X166696545Y-147119509D01*
X166906469Y-147005903D01*
X167094832Y-146859295D01*
X167256494Y-146683682D01*
X167278478Y-146650032D01*
X167282191Y-146644350D01*
X167335337Y-146598993D01*
X167404568Y-146589569D01*
X167467904Y-146619071D01*
X167489809Y-146644350D01*
X167502126Y-146663202D01*
X167515506Y-146683682D01*
X167677168Y-146859295D01*
X167865531Y-147005903D01*
X168075455Y-147119509D01*
X168301216Y-147197012D01*
X168536653Y-147236300D01*
X168536654Y-147236300D01*
X168775346Y-147236300D01*
X168775347Y-147236300D01*
X169010784Y-147197012D01*
X169236545Y-147119509D01*
X169446469Y-147005903D01*
X169634832Y-146859295D01*
X169796494Y-146683682D01*
X169822489Y-146643892D01*
X169875634Y-146598536D01*
X169944865Y-146589112D01*
X170008201Y-146618613D01*
X170011020Y-146621867D01*
X170016055Y-146622389D01*
X170028400Y-146610044D01*
X170089723Y-146576558D01*
X170159414Y-146581541D01*
X170215349Y-146623412D01*
X170217650Y-146626590D01*
X170230730Y-146645269D01*
X170230731Y-146645270D01*
X170377825Y-146792364D01*
X170411310Y-146853687D01*
X170406326Y-146923379D01*
X170377825Y-146967726D01*
X170368839Y-146976711D01*
X170368840Y-146976712D01*
X170405802Y-147005481D01*
X170405808Y-147005486D01*
X170615650Y-147119046D01*
X170615660Y-147119051D01*
X170841335Y-147196525D01*
X171076696Y-147235800D01*
X171315304Y-147235800D01*
X171550664Y-147196525D01*
X171776339Y-147119051D01*
X171776344Y-147119049D01*
X171986197Y-147005481D01*
X171986200Y-147005480D01*
X172023158Y-146976713D01*
X172026591Y-146921396D01*
X172050390Y-146855705D01*
X172079226Y-146827504D01*
X172105269Y-146809270D01*
X172251338Y-146663200D01*
X172312659Y-146629717D01*
X172326227Y-146627544D01*
X172375941Y-146622388D01*
X172458515Y-146496000D01*
X172511662Y-146450644D01*
X172580893Y-146441220D01*
X172644229Y-146470722D01*
X172663894Y-146492693D01*
X172770730Y-146645269D01*
X172934731Y-146809270D01*
X173124718Y-146942301D01*
X173334921Y-147040320D01*
X173558950Y-147100349D01*
X173723985Y-147114787D01*
X173789998Y-147120563D01*
X173790000Y-147120563D01*
X173790002Y-147120563D01*
X173847762Y-147115509D01*
X174021050Y-147100349D01*
X174245079Y-147040320D01*
X174455282Y-146942301D01*
X174645269Y-146809270D01*
X174809270Y-146645269D01*
X174942301Y-146455282D01*
X175040320Y-146245079D01*
X175100349Y-146021050D01*
X175120563Y-145790000D01*
X175117063Y-145750000D01*
X175103933Y-145599919D01*
X175100349Y-145558950D01*
X175040320Y-145334921D01*
X174942301Y-145124719D01*
X174942299Y-145124716D01*
X174942298Y-145124714D01*
X174809273Y-144934735D01*
X174809268Y-144934729D01*
X174645269Y-144770730D01*
X174590964Y-144732705D01*
X174455282Y-144637699D01*
X174443878Y-144632381D01*
X174391440Y-144586210D01*
X174372288Y-144519016D01*
X174392504Y-144452135D01*
X174443878Y-144407618D01*
X174455282Y-144402301D01*
X174645269Y-144269270D01*
X174809270Y-144105269D01*
X174942301Y-143915282D01*
X175040320Y-143705079D01*
X175100349Y-143481050D01*
X175120563Y-143250000D01*
X175100349Y-143018950D01*
X175040320Y-142794921D01*
X174942301Y-142584719D01*
X174942299Y-142584716D01*
X174942298Y-142584714D01*
X174809273Y-142394735D01*
X174809268Y-142394729D01*
X174645269Y-142230730D01*
X174590964Y-142192705D01*
X174455282Y-142097699D01*
X174245079Y-141999680D01*
X174245076Y-141999679D01*
X174245074Y-141999678D01*
X174021051Y-141939651D01*
X174021044Y-141939650D01*
X173790002Y-141919437D01*
X173789998Y-141919437D01*
X173558955Y-141939650D01*
X173558948Y-141939651D01*
X173334917Y-141999681D01*
X173124718Y-142097699D01*
X173124714Y-142097701D01*
X172934735Y-142230726D01*
X172934729Y-142230731D01*
X172770731Y-142394729D01*
X172770730Y-142394731D01*
X172660152Y-142552652D01*
X172605575Y-142596277D01*
X172536076Y-142603469D01*
X172473722Y-142571947D01*
X172454768Y-142549350D01*
X172336493Y-142368317D01*
X172295700Y-142324004D01*
X172174832Y-142192705D01*
X171986469Y-142046097D01*
X171849719Y-141972091D01*
X171776546Y-141932491D01*
X171776541Y-141932489D01*
X171550786Y-141854988D01*
X171393826Y-141828796D01*
X171315347Y-141815700D01*
X171076653Y-141815700D01*
X171017793Y-141825522D01*
X170841213Y-141854988D01*
X170615458Y-141932489D01*
X170615453Y-141932491D01*
X170405529Y-142046098D01*
X170217169Y-142192704D01*
X170055508Y-142368315D01*
X170055506Y-142368317D01*
X170055506Y-142368318D01*
X170038250Y-142394731D01*
X170029808Y-142407652D01*
X169976661Y-142453008D01*
X169907430Y-142462431D01*
X169844094Y-142432928D01*
X169822192Y-142407652D01*
X169813753Y-142394735D01*
X169796494Y-142368318D01*
X169634832Y-142192705D01*
X169446469Y-142046097D01*
X169309719Y-141972091D01*
X169236546Y-141932491D01*
X169236541Y-141932489D01*
X169010786Y-141854988D01*
X168853826Y-141828796D01*
X168775347Y-141815700D01*
X168536653Y-141815700D01*
X168477793Y-141825522D01*
X168301213Y-141854988D01*
X168075458Y-141932489D01*
X168075453Y-141932491D01*
X167865529Y-142046098D01*
X167677169Y-142192704D01*
X167515508Y-142368315D01*
X167515506Y-142368317D01*
X167515506Y-142368318D01*
X167498250Y-142394731D01*
X167489808Y-142407652D01*
X167436661Y-142453008D01*
X167367430Y-142462431D01*
X167304094Y-142432928D01*
X167282192Y-142407652D01*
X167273753Y-142394735D01*
X167256494Y-142368318D01*
X167094832Y-142192705D01*
X166906469Y-142046097D01*
X166769719Y-141972091D01*
X166696546Y-141932491D01*
X166696541Y-141932489D01*
X166470786Y-141854988D01*
X166313826Y-141828796D01*
X166235347Y-141815700D01*
X165996653Y-141815700D01*
X165937793Y-141825522D01*
X165761213Y-141854988D01*
X165535458Y-141932489D01*
X165535453Y-141932491D01*
X165325529Y-142046098D01*
X165137169Y-142192704D01*
X164975508Y-142368315D01*
X164975506Y-142368317D01*
X164975506Y-142368318D01*
X164958250Y-142394731D01*
X164949808Y-142407652D01*
X164896661Y-142453008D01*
X164827430Y-142462431D01*
X164764094Y-142432928D01*
X164742192Y-142407652D01*
X164733753Y-142394735D01*
X164716494Y-142368318D01*
X164554832Y-142192705D01*
X164366469Y-142046097D01*
X164229719Y-141972091D01*
X164156546Y-141932491D01*
X164156541Y-141932489D01*
X163930786Y-141854988D01*
X163773826Y-141828796D01*
X163695347Y-141815700D01*
X163456653Y-141815700D01*
X163397793Y-141825522D01*
X163221213Y-141854988D01*
X162995458Y-141932489D01*
X162995453Y-141932491D01*
X162785529Y-142046098D01*
X162597169Y-142192704D01*
X162435508Y-142368315D01*
X162435506Y-142368317D01*
X162435506Y-142368318D01*
X162418250Y-142394731D01*
X162409808Y-142407652D01*
X162356661Y-142453008D01*
X162287430Y-142462431D01*
X162224094Y-142432928D01*
X162202192Y-142407652D01*
X162193753Y-142394735D01*
X162176494Y-142368318D01*
X162014832Y-142192705D01*
X161826469Y-142046097D01*
X161689719Y-141972091D01*
X161616546Y-141932491D01*
X161616541Y-141932489D01*
X161390786Y-141854988D01*
X161233826Y-141828796D01*
X161155347Y-141815700D01*
X160916653Y-141815700D01*
X160857793Y-141825522D01*
X160681213Y-141854988D01*
X160455458Y-141932489D01*
X160455453Y-141932491D01*
X160245529Y-142046098D01*
X160057169Y-142192704D01*
X159895508Y-142368315D01*
X159895506Y-142368317D01*
X159895506Y-142368318D01*
X159878250Y-142394731D01*
X159869808Y-142407652D01*
X159816661Y-142453008D01*
X159747430Y-142462431D01*
X159684094Y-142432928D01*
X159662192Y-142407652D01*
X159653753Y-142394735D01*
X159636494Y-142368318D01*
X159474832Y-142192705D01*
X159286469Y-142046097D01*
X159149719Y-141972091D01*
X159076546Y-141932491D01*
X159076541Y-141932489D01*
X158850786Y-141854988D01*
X158693826Y-141828796D01*
X158615347Y-141815700D01*
X158376653Y-141815700D01*
X158317793Y-141825522D01*
X158141213Y-141854988D01*
X157915458Y-141932489D01*
X157915453Y-141932491D01*
X157705529Y-142046098D01*
X157517169Y-142192704D01*
X157355508Y-142368315D01*
X157355506Y-142368317D01*
X157355506Y-142368318D01*
X157338250Y-142394731D01*
X157329808Y-142407652D01*
X157276661Y-142453008D01*
X157207430Y-142462431D01*
X157144094Y-142432928D01*
X157122192Y-142407652D01*
X157113753Y-142394735D01*
X157096494Y-142368318D01*
X156934832Y-142192705D01*
X156746469Y-142046097D01*
X156609719Y-141972091D01*
X156536546Y-141932491D01*
X156536541Y-141932489D01*
X156310786Y-141854988D01*
X156153826Y-141828796D01*
X156075347Y-141815700D01*
X155836653Y-141815700D01*
X155777793Y-141825522D01*
X155601213Y-141854988D01*
X155375458Y-141932489D01*
X155375453Y-141932491D01*
X155165529Y-142046098D01*
X154977169Y-142192704D01*
X154815508Y-142368315D01*
X154815506Y-142368317D01*
X154815506Y-142368318D01*
X154798250Y-142394731D01*
X154789808Y-142407652D01*
X154736661Y-142453008D01*
X154667430Y-142462431D01*
X154604094Y-142432928D01*
X154582192Y-142407652D01*
X154573753Y-142394735D01*
X154556494Y-142368318D01*
X154394832Y-142192705D01*
X154206469Y-142046097D01*
X154069719Y-141972091D01*
X153996546Y-141932491D01*
X153996541Y-141932489D01*
X153770786Y-141854988D01*
X153613826Y-141828796D01*
X153535347Y-141815700D01*
X153296653Y-141815700D01*
X153237793Y-141825522D01*
X153061213Y-141854988D01*
X152835458Y-141932489D01*
X152835453Y-141932491D01*
X152625529Y-142046098D01*
X152437169Y-142192704D01*
X152275508Y-142368315D01*
X152275506Y-142368317D01*
X152275506Y-142368318D01*
X152258250Y-142394731D01*
X152249808Y-142407652D01*
X152196661Y-142453008D01*
X152127430Y-142462431D01*
X152064094Y-142432928D01*
X152042192Y-142407652D01*
X152033753Y-142394735D01*
X152016494Y-142368318D01*
X151854832Y-142192705D01*
X151666469Y-142046097D01*
X151529719Y-141972091D01*
X151456546Y-141932491D01*
X151456541Y-141932489D01*
X151230786Y-141854988D01*
X151073826Y-141828796D01*
X150995347Y-141815700D01*
X150756653Y-141815700D01*
X150697793Y-141825522D01*
X150521213Y-141854988D01*
X150295458Y-141932489D01*
X150295453Y-141932491D01*
X150085529Y-142046098D01*
X149927208Y-142169324D01*
X149862214Y-142194966D01*
X149793674Y-142181399D01*
X149743349Y-142132931D01*
X149734864Y-142114803D01*
X149719597Y-142073871D01*
X149719593Y-142073864D01*
X149633347Y-141958655D01*
X149633344Y-141958652D01*
X149518135Y-141872406D01*
X149518128Y-141872402D01*
X149383282Y-141822108D01*
X149383283Y-141822108D01*
X149323683Y-141815701D01*
X149323681Y-141815700D01*
X149323673Y-141815700D01*
X149323664Y-141815700D01*
X147348329Y-141815700D01*
X147348323Y-141815701D01*
X147288716Y-141822108D01*
X147153871Y-141872402D01*
X147153864Y-141872406D01*
X147038655Y-141958652D01*
X147038652Y-141958655D01*
X146952406Y-142073864D01*
X146952402Y-142073871D01*
X146902108Y-142208717D01*
X146895701Y-142268316D01*
X146895700Y-142268335D01*
X108744454Y-142268335D01*
X108674832Y-142192705D01*
X108486469Y-142046097D01*
X108349719Y-141972091D01*
X108276546Y-141932491D01*
X108276541Y-141932489D01*
X108050786Y-141854988D01*
X107893826Y-141828796D01*
X107815347Y-141815700D01*
X107576653Y-141815700D01*
X107517793Y-141825522D01*
X107341213Y-141854988D01*
X107115458Y-141932489D01*
X107115453Y-141932491D01*
X106905529Y-142046098D01*
X106717169Y-142192704D01*
X106555508Y-142368315D01*
X106555506Y-142368317D01*
X106555506Y-142368318D01*
X106538250Y-142394731D01*
X106529808Y-142407652D01*
X106476661Y-142453008D01*
X106407430Y-142462431D01*
X106344094Y-142432928D01*
X106322192Y-142407652D01*
X106313753Y-142394735D01*
X106296494Y-142368318D01*
X106134832Y-142192705D01*
X105946469Y-142046097D01*
X105809719Y-141972091D01*
X105736546Y-141932491D01*
X105736541Y-141932489D01*
X105510786Y-141854988D01*
X105353826Y-141828796D01*
X105275347Y-141815700D01*
X105036653Y-141815700D01*
X104977793Y-141825522D01*
X104801213Y-141854988D01*
X104575458Y-141932489D01*
X104575453Y-141932491D01*
X104365529Y-142046098D01*
X104177169Y-142192704D01*
X104015508Y-142368315D01*
X104015506Y-142368317D01*
X104015506Y-142368318D01*
X103998250Y-142394731D01*
X103989808Y-142407652D01*
X103936661Y-142453008D01*
X103867430Y-142462431D01*
X103804094Y-142432928D01*
X103782192Y-142407652D01*
X103773753Y-142394735D01*
X103756494Y-142368318D01*
X103594832Y-142192705D01*
X103406469Y-142046097D01*
X103269719Y-141972091D01*
X103196546Y-141932491D01*
X103196541Y-141932489D01*
X102970786Y-141854988D01*
X102813826Y-141828796D01*
X102735347Y-141815700D01*
X102496653Y-141815700D01*
X102437793Y-141825522D01*
X102261213Y-141854988D01*
X102035458Y-141932489D01*
X102035453Y-141932491D01*
X101825529Y-142046098D01*
X101637169Y-142192704D01*
X101475508Y-142368315D01*
X101475506Y-142368317D01*
X101475506Y-142368318D01*
X101458250Y-142394731D01*
X101449808Y-142407652D01*
X101396661Y-142453008D01*
X101327430Y-142462431D01*
X101264094Y-142432928D01*
X101242192Y-142407652D01*
X101233753Y-142394735D01*
X101216494Y-142368318D01*
X101054832Y-142192705D01*
X100866469Y-142046097D01*
X100729719Y-141972091D01*
X100656546Y-141932491D01*
X100656541Y-141932489D01*
X100430786Y-141854988D01*
X100273826Y-141828796D01*
X100195347Y-141815700D01*
X99956653Y-141815700D01*
X99897793Y-141825522D01*
X99721213Y-141854988D01*
X99495458Y-141932489D01*
X99495453Y-141932491D01*
X99285529Y-142046098D01*
X99097169Y-142192704D01*
X98935508Y-142368315D01*
X98935506Y-142368317D01*
X98935506Y-142368318D01*
X98918250Y-142394731D01*
X98909808Y-142407652D01*
X98856661Y-142453008D01*
X98787430Y-142462431D01*
X98724094Y-142432928D01*
X98702192Y-142407652D01*
X98693753Y-142394735D01*
X98676494Y-142368318D01*
X98514832Y-142192705D01*
X98326469Y-142046097D01*
X98189719Y-141972091D01*
X98116546Y-141932491D01*
X98116541Y-141932489D01*
X97890786Y-141854988D01*
X97733826Y-141828796D01*
X97655347Y-141815700D01*
X97416653Y-141815700D01*
X97357793Y-141825522D01*
X97181213Y-141854988D01*
X96955458Y-141932489D01*
X96955453Y-141932491D01*
X96745529Y-142046098D01*
X96557169Y-142192704D01*
X96395508Y-142368315D01*
X96395506Y-142368317D01*
X96395506Y-142368318D01*
X96378250Y-142394731D01*
X96369808Y-142407652D01*
X96316661Y-142453008D01*
X96247430Y-142462431D01*
X96184094Y-142432928D01*
X96162192Y-142407652D01*
X96153753Y-142394735D01*
X96136494Y-142368318D01*
X95974832Y-142192705D01*
X95786469Y-142046097D01*
X95649719Y-141972091D01*
X95576546Y-141932491D01*
X95576541Y-141932489D01*
X95350786Y-141854988D01*
X95193826Y-141828796D01*
X95115347Y-141815700D01*
X94876653Y-141815700D01*
X94817793Y-141825522D01*
X94641213Y-141854988D01*
X94415458Y-141932489D01*
X94415453Y-141932491D01*
X94205529Y-142046098D01*
X94017169Y-142192704D01*
X93855508Y-142368315D01*
X93855506Y-142368317D01*
X93855506Y-142368318D01*
X93838250Y-142394731D01*
X93829808Y-142407652D01*
X93776661Y-142453008D01*
X93707430Y-142462431D01*
X93644094Y-142432928D01*
X93622192Y-142407652D01*
X93613753Y-142394735D01*
X93596494Y-142368318D01*
X93434832Y-142192705D01*
X93246469Y-142046097D01*
X93109719Y-141972091D01*
X93036546Y-141932491D01*
X93036541Y-141932489D01*
X92810786Y-141854988D01*
X92653826Y-141828796D01*
X92575347Y-141815700D01*
X92336653Y-141815700D01*
X92277793Y-141825522D01*
X92101213Y-141854988D01*
X91875458Y-141932489D01*
X91875453Y-141932491D01*
X91665529Y-142046098D01*
X91477169Y-142192704D01*
X91315508Y-142368315D01*
X91315506Y-142368317D01*
X91315506Y-142368318D01*
X91298250Y-142394731D01*
X91289808Y-142407652D01*
X91236661Y-142453008D01*
X91167430Y-142462431D01*
X91104094Y-142432928D01*
X91082192Y-142407652D01*
X91073753Y-142394735D01*
X91056494Y-142368318D01*
X90894832Y-142192705D01*
X90706469Y-142046097D01*
X90569719Y-141972091D01*
X90496546Y-141932491D01*
X90496541Y-141932489D01*
X90270786Y-141854988D01*
X90113826Y-141828796D01*
X90035347Y-141815700D01*
X89796653Y-141815700D01*
X89737793Y-141825522D01*
X89561213Y-141854988D01*
X89335458Y-141932489D01*
X89335453Y-141932491D01*
X89125529Y-142046098D01*
X88937169Y-142192704D01*
X88775508Y-142368315D01*
X88775506Y-142368317D01*
X88775506Y-142368318D01*
X88758250Y-142394731D01*
X88749808Y-142407652D01*
X88696661Y-142453008D01*
X88627430Y-142462431D01*
X88564094Y-142432928D01*
X88542192Y-142407652D01*
X88533753Y-142394735D01*
X88516494Y-142368318D01*
X88354832Y-142192705D01*
X88166469Y-142046097D01*
X88029719Y-141972091D01*
X87956546Y-141932491D01*
X87956541Y-141932489D01*
X87730786Y-141854988D01*
X87573826Y-141828796D01*
X87495347Y-141815700D01*
X87256653Y-141815700D01*
X87197793Y-141825522D01*
X87021213Y-141854988D01*
X86795458Y-141932489D01*
X86795453Y-141932491D01*
X86585529Y-142046098D01*
X86427208Y-142169324D01*
X86362214Y-142194966D01*
X86293674Y-142181399D01*
X86243349Y-142132931D01*
X86234864Y-142114803D01*
X86219597Y-142073871D01*
X86219593Y-142073864D01*
X86133347Y-141958655D01*
X86133344Y-141958652D01*
X86018135Y-141872406D01*
X86018128Y-141872402D01*
X85883282Y-141822108D01*
X85883283Y-141822108D01*
X85823683Y-141815701D01*
X85823681Y-141815700D01*
X85823673Y-141815700D01*
X85823664Y-141815700D01*
X83848329Y-141815700D01*
X83848323Y-141815701D01*
X83788716Y-141822108D01*
X83653871Y-141872402D01*
X83653864Y-141872406D01*
X83538655Y-141958652D01*
X83538652Y-141958655D01*
X83452406Y-142073864D01*
X83452402Y-142073871D01*
X83402108Y-142208717D01*
X83395701Y-142268316D01*
X83395700Y-142268335D01*
X72898000Y-142268335D01*
X72898000Y-133095997D01*
X73408677Y-133095997D01*
X73408677Y-133096002D01*
X73427929Y-133316062D01*
X73427930Y-133316070D01*
X73485104Y-133529445D01*
X73485105Y-133529447D01*
X73485106Y-133529450D01*
X73578466Y-133729662D01*
X73578468Y-133729666D01*
X73705170Y-133910615D01*
X73705175Y-133910621D01*
X73861378Y-134066824D01*
X73861384Y-134066829D01*
X74042333Y-134193531D01*
X74042335Y-134193532D01*
X74042338Y-134193534D01*
X74161748Y-134249215D01*
X74171189Y-134253618D01*
X74223628Y-134299790D01*
X74242780Y-134366984D01*
X74222564Y-134433865D01*
X74171189Y-134478382D01*
X74042340Y-134538465D01*
X74042338Y-134538466D01*
X73861377Y-134665175D01*
X73705175Y-134821377D01*
X73578466Y-135002338D01*
X73578465Y-135002340D01*
X73485107Y-135202548D01*
X73485104Y-135202554D01*
X73427930Y-135415929D01*
X73427929Y-135415937D01*
X73408677Y-135635997D01*
X73408677Y-135636002D01*
X73427929Y-135856062D01*
X73427930Y-135856070D01*
X73485104Y-136069445D01*
X73485105Y-136069447D01*
X73485106Y-136069450D01*
X73578466Y-136269662D01*
X73578468Y-136269666D01*
X73705170Y-136450615D01*
X73705175Y-136450621D01*
X73861378Y-136606824D01*
X73861384Y-136606829D01*
X74042333Y-136733531D01*
X74042335Y-136733532D01*
X74042338Y-136733534D01*
X74161748Y-136789215D01*
X74171189Y-136793618D01*
X74223628Y-136839790D01*
X74242780Y-136906984D01*
X74222564Y-136973865D01*
X74171189Y-137018382D01*
X74042340Y-137078465D01*
X74042338Y-137078466D01*
X73861377Y-137205175D01*
X73705175Y-137361377D01*
X73578466Y-137542338D01*
X73578465Y-137542340D01*
X73485107Y-137742548D01*
X73485104Y-137742554D01*
X73427930Y-137955929D01*
X73427929Y-137955937D01*
X73408677Y-138175997D01*
X73408677Y-138176002D01*
X73427929Y-138396062D01*
X73427930Y-138396070D01*
X73485104Y-138609445D01*
X73485105Y-138609447D01*
X73485106Y-138609450D01*
X73578466Y-138809662D01*
X73578468Y-138809666D01*
X73705170Y-138990615D01*
X73705175Y-138990621D01*
X73861378Y-139146824D01*
X73861384Y-139146829D01*
X73977202Y-139227925D01*
X74020827Y-139282502D01*
X74028021Y-139352000D01*
X73996498Y-139414355D01*
X73936269Y-139449769D01*
X73906082Y-139453500D01*
X73866131Y-139453500D01*
X73866123Y-139453501D01*
X73806516Y-139459908D01*
X73671671Y-139510202D01*
X73671664Y-139510206D01*
X73556455Y-139596452D01*
X73556452Y-139596455D01*
X73470206Y-139711664D01*
X73470202Y-139711671D01*
X73419908Y-139846517D01*
X73413501Y-139906116D01*
X73413501Y-139906123D01*
X73413500Y-139906135D01*
X73413500Y-141525870D01*
X73413501Y-141525876D01*
X73419908Y-141585483D01*
X73470202Y-141720328D01*
X73470206Y-141720335D01*
X73556452Y-141835544D01*
X73556455Y-141835547D01*
X73671664Y-141921793D01*
X73671671Y-141921797D01*
X73806517Y-141972091D01*
X73806516Y-141972091D01*
X73813444Y-141972835D01*
X73866127Y-141978500D01*
X75485872Y-141978499D01*
X75545483Y-141972091D01*
X75680331Y-141921796D01*
X75795546Y-141835546D01*
X75881796Y-141720331D01*
X75932091Y-141585483D01*
X75938500Y-141525873D01*
X75938499Y-139906128D01*
X75932091Y-139846517D01*
X75881796Y-139711669D01*
X75881795Y-139711668D01*
X75881793Y-139711664D01*
X75795547Y-139596455D01*
X75795544Y-139596452D01*
X75680335Y-139510206D01*
X75680328Y-139510202D01*
X75545482Y-139459908D01*
X75545483Y-139459908D01*
X75485883Y-139453501D01*
X75485881Y-139453500D01*
X75485873Y-139453500D01*
X75485865Y-139453500D01*
X75445921Y-139453500D01*
X75378882Y-139433815D01*
X75333127Y-139381011D01*
X75323183Y-139311853D01*
X75352208Y-139248297D01*
X75374798Y-139227925D01*
X75490620Y-139146826D01*
X75646826Y-138990620D01*
X75773534Y-138809662D01*
X75866894Y-138609450D01*
X75924070Y-138396068D01*
X75943323Y-138176000D01*
X75924070Y-137955932D01*
X75866894Y-137742550D01*
X75773534Y-137542339D01*
X75646826Y-137361380D01*
X75490620Y-137205174D01*
X75490616Y-137205171D01*
X75490615Y-137205170D01*
X75309666Y-137078468D01*
X75309658Y-137078464D01*
X75180811Y-137018382D01*
X75128371Y-136972210D01*
X75109219Y-136905017D01*
X75129435Y-136838135D01*
X75180811Y-136793618D01*
X75186802Y-136790824D01*
X75309662Y-136733534D01*
X75490620Y-136606826D01*
X75646826Y-136450620D01*
X75773534Y-136269662D01*
X75866894Y-136069450D01*
X75924070Y-135856068D01*
X75943323Y-135636000D01*
X75924070Y-135415932D01*
X75866894Y-135202550D01*
X75773534Y-135002339D01*
X75646826Y-134821380D01*
X75490620Y-134665174D01*
X75490616Y-134665171D01*
X75490615Y-134665170D01*
X75309666Y-134538468D01*
X75309658Y-134538464D01*
X75180811Y-134478382D01*
X75128371Y-134432210D01*
X75109219Y-134365017D01*
X75129435Y-134298135D01*
X75180811Y-134253618D01*
X75186802Y-134250824D01*
X75309662Y-134193534D01*
X75490620Y-134066826D01*
X75646826Y-133910620D01*
X75773534Y-133729662D01*
X75866894Y-133529450D01*
X75924070Y-133316068D01*
X75943323Y-133096000D01*
X75924070Y-132875932D01*
X75866894Y-132662550D01*
X75773534Y-132462339D01*
X75646826Y-132281380D01*
X75490620Y-132125174D01*
X75490616Y-132125171D01*
X75490615Y-132125170D01*
X75309666Y-131998468D01*
X75309662Y-131998466D01*
X75180218Y-131938105D01*
X75127779Y-131891932D01*
X75108627Y-131824739D01*
X75128843Y-131757858D01*
X75180219Y-131713340D01*
X75309416Y-131653095D01*
X75309417Y-131653094D01*
X75374188Y-131607741D01*
X74811942Y-131045494D01*
X74872081Y-131029381D01*
X74987920Y-130962502D01*
X75082502Y-130867920D01*
X75149381Y-130752081D01*
X75165495Y-130691942D01*
X75727741Y-131254188D01*
X75773094Y-131189417D01*
X75773100Y-131189407D01*
X75866419Y-130989284D01*
X75866424Y-130989270D01*
X75923573Y-130775986D01*
X75923575Y-130775976D01*
X75942821Y-130556000D01*
X75942821Y-130555999D01*
X75923575Y-130336023D01*
X75923573Y-130336013D01*
X75866424Y-130122729D01*
X75866420Y-130122720D01*
X75773096Y-129922586D01*
X75727741Y-129857811D01*
X75727740Y-129857810D01*
X75165494Y-130420056D01*
X75149381Y-130359919D01*
X75082502Y-130244080D01*
X74987920Y-130149498D01*
X74872081Y-130082619D01*
X74811941Y-130066504D01*
X75374188Y-129504258D01*
X75309411Y-129458901D01*
X75309405Y-129458898D01*
X75109284Y-129365580D01*
X75109270Y-129365575D01*
X74895986Y-129308426D01*
X74895976Y-129308424D01*
X74676001Y-129289179D01*
X74675999Y-129289179D01*
X74456023Y-129308424D01*
X74456013Y-129308426D01*
X74242729Y-129365575D01*
X74242720Y-129365579D01*
X74042590Y-129458901D01*
X73977811Y-129504258D01*
X74540058Y-130066504D01*
X74479919Y-130082619D01*
X74364080Y-130149498D01*
X74269498Y-130244080D01*
X74202619Y-130359919D01*
X74186504Y-130420057D01*
X73624258Y-129857811D01*
X73578901Y-129922590D01*
X73485579Y-130122720D01*
X73485575Y-130122729D01*
X73428426Y-130336013D01*
X73428424Y-130336023D01*
X73409179Y-130555999D01*
X73409179Y-130556000D01*
X73428424Y-130775976D01*
X73428426Y-130775986D01*
X73485575Y-130989270D01*
X73485580Y-130989284D01*
X73578898Y-131189405D01*
X73578901Y-131189411D01*
X73624258Y-131254187D01*
X73624258Y-131254188D01*
X74186504Y-130691941D01*
X74202619Y-130752081D01*
X74269498Y-130867920D01*
X74364080Y-130962502D01*
X74479919Y-131029381D01*
X74540057Y-131045494D01*
X73977810Y-131607740D01*
X74042589Y-131653098D01*
X74171781Y-131713342D01*
X74224220Y-131759514D01*
X74243372Y-131826708D01*
X74223156Y-131893589D01*
X74171781Y-131938106D01*
X74042340Y-131998465D01*
X74042338Y-131998466D01*
X73861377Y-132125175D01*
X73705175Y-132281377D01*
X73578466Y-132462338D01*
X73578465Y-132462340D01*
X73485107Y-132662548D01*
X73485104Y-132662554D01*
X73427930Y-132875929D01*
X73427929Y-132875937D01*
X73408677Y-133095997D01*
X72898000Y-133095997D01*
X72898000Y-117855997D01*
X73408677Y-117855997D01*
X73408677Y-117856002D01*
X73427929Y-118076062D01*
X73427930Y-118076070D01*
X73485104Y-118289445D01*
X73485105Y-118289447D01*
X73485106Y-118289450D01*
X73578466Y-118489662D01*
X73578468Y-118489666D01*
X73705170Y-118670615D01*
X73705175Y-118670621D01*
X73861378Y-118826824D01*
X73861384Y-118826829D01*
X74042333Y-118953531D01*
X74042335Y-118953532D01*
X74042338Y-118953534D01*
X74161748Y-119009215D01*
X74171189Y-119013618D01*
X74223628Y-119059790D01*
X74242780Y-119126984D01*
X74222564Y-119193865D01*
X74171189Y-119238382D01*
X74042340Y-119298465D01*
X74042338Y-119298466D01*
X73861377Y-119425175D01*
X73705175Y-119581377D01*
X73578466Y-119762338D01*
X73578465Y-119762340D01*
X73485107Y-119962548D01*
X73485104Y-119962554D01*
X73427930Y-120175929D01*
X73427929Y-120175937D01*
X73408677Y-120395997D01*
X73408677Y-120396002D01*
X73427929Y-120616062D01*
X73427930Y-120616070D01*
X73485104Y-120829445D01*
X73485105Y-120829447D01*
X73485106Y-120829450D01*
X73578466Y-121029662D01*
X73578468Y-121029666D01*
X73705170Y-121210615D01*
X73705175Y-121210621D01*
X73861378Y-121366824D01*
X73861384Y-121366829D01*
X74042333Y-121493531D01*
X74042335Y-121493532D01*
X74042338Y-121493534D01*
X74161748Y-121549215D01*
X74171189Y-121553618D01*
X74223628Y-121599790D01*
X74242780Y-121666984D01*
X74222564Y-121733865D01*
X74171189Y-121778382D01*
X74042340Y-121838465D01*
X74042338Y-121838466D01*
X73861377Y-121965175D01*
X73705175Y-122121377D01*
X73578466Y-122302338D01*
X73578465Y-122302340D01*
X73485107Y-122502548D01*
X73485104Y-122502554D01*
X73427930Y-122715929D01*
X73427929Y-122715937D01*
X73408677Y-122935997D01*
X73408677Y-122936002D01*
X73427929Y-123156062D01*
X73427930Y-123156070D01*
X73485104Y-123369445D01*
X73485105Y-123369447D01*
X73485106Y-123369450D01*
X73578466Y-123569662D01*
X73578468Y-123569666D01*
X73705170Y-123750615D01*
X73705175Y-123750621D01*
X73861378Y-123906824D01*
X73861384Y-123906829D01*
X73977202Y-123987925D01*
X74020827Y-124042502D01*
X74028021Y-124112000D01*
X73996498Y-124174355D01*
X73936269Y-124209769D01*
X73906082Y-124213500D01*
X73866131Y-124213500D01*
X73866123Y-124213501D01*
X73806516Y-124219908D01*
X73671671Y-124270202D01*
X73671664Y-124270206D01*
X73556455Y-124356452D01*
X73556452Y-124356455D01*
X73470206Y-124471664D01*
X73470202Y-124471671D01*
X73419908Y-124606517D01*
X73413501Y-124666116D01*
X73413501Y-124666123D01*
X73413500Y-124666135D01*
X73413500Y-126285870D01*
X73413501Y-126285876D01*
X73419908Y-126345483D01*
X73470202Y-126480328D01*
X73470206Y-126480335D01*
X73556452Y-126595544D01*
X73556455Y-126595547D01*
X73671664Y-126681793D01*
X73671671Y-126681797D01*
X73806517Y-126732091D01*
X73806516Y-126732091D01*
X73813444Y-126732835D01*
X73866127Y-126738500D01*
X75485872Y-126738499D01*
X75545483Y-126732091D01*
X75680331Y-126681796D01*
X75795546Y-126595546D01*
X75881796Y-126480331D01*
X75932091Y-126345483D01*
X75938500Y-126285873D01*
X75938499Y-124666128D01*
X75932091Y-124606517D01*
X75881796Y-124471669D01*
X75881795Y-124471668D01*
X75881793Y-124471664D01*
X75795547Y-124356455D01*
X75795544Y-124356452D01*
X75680335Y-124270206D01*
X75680328Y-124270202D01*
X75545482Y-124219908D01*
X75545483Y-124219908D01*
X75485883Y-124213501D01*
X75485881Y-124213500D01*
X75485873Y-124213500D01*
X75485865Y-124213500D01*
X75445921Y-124213500D01*
X75378882Y-124193815D01*
X75333127Y-124141011D01*
X75323183Y-124071853D01*
X75352208Y-124008297D01*
X75374798Y-123987925D01*
X75490620Y-123906826D01*
X75646826Y-123750620D01*
X75773534Y-123569662D01*
X75866894Y-123369450D01*
X75924070Y-123156068D01*
X75943323Y-122936000D01*
X75924070Y-122715932D01*
X75866894Y-122502550D01*
X75773534Y-122302339D01*
X75646826Y-122121380D01*
X75490620Y-121965174D01*
X75490616Y-121965171D01*
X75490615Y-121965170D01*
X75309666Y-121838468D01*
X75309658Y-121838464D01*
X75180811Y-121778382D01*
X75128371Y-121732210D01*
X75109219Y-121665017D01*
X75129435Y-121598135D01*
X75180811Y-121553618D01*
X75186802Y-121550824D01*
X75309662Y-121493534D01*
X75490620Y-121366826D01*
X75646826Y-121210620D01*
X75773534Y-121029662D01*
X75866894Y-120829450D01*
X75924070Y-120616068D01*
X75943323Y-120396000D01*
X75924070Y-120175932D01*
X75866894Y-119962550D01*
X75773534Y-119762339D01*
X75646826Y-119581380D01*
X75490620Y-119425174D01*
X75490616Y-119425171D01*
X75490615Y-119425170D01*
X75309666Y-119298468D01*
X75309658Y-119298464D01*
X75180811Y-119238382D01*
X75128371Y-119192210D01*
X75109219Y-119125017D01*
X75129435Y-119058135D01*
X75180811Y-119013618D01*
X75186802Y-119010824D01*
X75309662Y-118953534D01*
X75490620Y-118826826D01*
X75646826Y-118670620D01*
X75773534Y-118489662D01*
X75866894Y-118289450D01*
X75924070Y-118076068D01*
X75943323Y-117856000D01*
X75924070Y-117635932D01*
X75866894Y-117422550D01*
X75773534Y-117222339D01*
X75646826Y-117041380D01*
X75490620Y-116885174D01*
X75490616Y-116885171D01*
X75490615Y-116885170D01*
X75309666Y-116758468D01*
X75309662Y-116758466D01*
X75180218Y-116698105D01*
X75127779Y-116651932D01*
X75108627Y-116584739D01*
X75128843Y-116517858D01*
X75180219Y-116473340D01*
X75309416Y-116413095D01*
X75309417Y-116413094D01*
X75374188Y-116367741D01*
X74811942Y-115805494D01*
X74872081Y-115789381D01*
X74987920Y-115722502D01*
X75082502Y-115627920D01*
X75149381Y-115512081D01*
X75165495Y-115451942D01*
X75727741Y-116014188D01*
X75773094Y-115949417D01*
X75773100Y-115949407D01*
X75866419Y-115749284D01*
X75866424Y-115749270D01*
X75923573Y-115535986D01*
X75923575Y-115535976D01*
X75942821Y-115316000D01*
X75942821Y-115315999D01*
X75923575Y-115096023D01*
X75923573Y-115096013D01*
X75866424Y-114882729D01*
X75866420Y-114882720D01*
X75773096Y-114682586D01*
X75727741Y-114617811D01*
X75727740Y-114617810D01*
X75165494Y-115180056D01*
X75149381Y-115119919D01*
X75082502Y-115004080D01*
X74987920Y-114909498D01*
X74872081Y-114842619D01*
X74811941Y-114826504D01*
X75374188Y-114264258D01*
X75309411Y-114218901D01*
X75309405Y-114218898D01*
X75109284Y-114125580D01*
X75109270Y-114125575D01*
X74895986Y-114068426D01*
X74895976Y-114068424D01*
X74676001Y-114049179D01*
X74675999Y-114049179D01*
X74456023Y-114068424D01*
X74456013Y-114068426D01*
X74242729Y-114125575D01*
X74242720Y-114125579D01*
X74042590Y-114218901D01*
X73977811Y-114264258D01*
X74540058Y-114826504D01*
X74479919Y-114842619D01*
X74364080Y-114909498D01*
X74269498Y-115004080D01*
X74202619Y-115119919D01*
X74186504Y-115180057D01*
X73624258Y-114617811D01*
X73578901Y-114682590D01*
X73485579Y-114882720D01*
X73485575Y-114882729D01*
X73428426Y-115096013D01*
X73428424Y-115096023D01*
X73409179Y-115315999D01*
X73409179Y-115316000D01*
X73428424Y-115535976D01*
X73428426Y-115535986D01*
X73485575Y-115749270D01*
X73485580Y-115749284D01*
X73578898Y-115949405D01*
X73578901Y-115949411D01*
X73624258Y-116014187D01*
X73624258Y-116014188D01*
X74186504Y-115451941D01*
X74202619Y-115512081D01*
X74269498Y-115627920D01*
X74364080Y-115722502D01*
X74479919Y-115789381D01*
X74540057Y-115805494D01*
X73977810Y-116367740D01*
X74042589Y-116413098D01*
X74171781Y-116473342D01*
X74224220Y-116519514D01*
X74243372Y-116586708D01*
X74223156Y-116653589D01*
X74171781Y-116698106D01*
X74042340Y-116758465D01*
X74042338Y-116758466D01*
X73861377Y-116885175D01*
X73705175Y-117041377D01*
X73578466Y-117222338D01*
X73578465Y-117222340D01*
X73485107Y-117422548D01*
X73485104Y-117422554D01*
X73427930Y-117635929D01*
X73427929Y-117635937D01*
X73408677Y-117855997D01*
X72898000Y-117855997D01*
X72898000Y-107695997D01*
X73408677Y-107695997D01*
X73408677Y-107696002D01*
X73427929Y-107916062D01*
X73427930Y-107916070D01*
X73485104Y-108129445D01*
X73485105Y-108129447D01*
X73485106Y-108129450D01*
X73578466Y-108329662D01*
X73578468Y-108329666D01*
X73705170Y-108510615D01*
X73705175Y-108510621D01*
X73861378Y-108666824D01*
X73861384Y-108666829D01*
X73977202Y-108747925D01*
X74020827Y-108802502D01*
X74028021Y-108872000D01*
X73996498Y-108934355D01*
X73936269Y-108969769D01*
X73906082Y-108973500D01*
X73866131Y-108973500D01*
X73866123Y-108973501D01*
X73806516Y-108979908D01*
X73671671Y-109030202D01*
X73671664Y-109030206D01*
X73556455Y-109116452D01*
X73556452Y-109116455D01*
X73470206Y-109231664D01*
X73470202Y-109231671D01*
X73419908Y-109366517D01*
X73413501Y-109426116D01*
X73413501Y-109426123D01*
X73413500Y-109426135D01*
X73413500Y-111045870D01*
X73413501Y-111045876D01*
X73419908Y-111105483D01*
X73470202Y-111240328D01*
X73470206Y-111240335D01*
X73556452Y-111355544D01*
X73556455Y-111355547D01*
X73671664Y-111441793D01*
X73671671Y-111441797D01*
X73806517Y-111492091D01*
X73806516Y-111492091D01*
X73813444Y-111492835D01*
X73866127Y-111498500D01*
X75485872Y-111498499D01*
X75545483Y-111492091D01*
X75680331Y-111441796D01*
X75795546Y-111355546D01*
X75881796Y-111240331D01*
X75932091Y-111105483D01*
X75938500Y-111045873D01*
X75938499Y-109426128D01*
X75932091Y-109366517D01*
X75881796Y-109231669D01*
X75881795Y-109231668D01*
X75881793Y-109231664D01*
X75795547Y-109116455D01*
X75795544Y-109116452D01*
X75680335Y-109030206D01*
X75680328Y-109030202D01*
X75545482Y-108979908D01*
X75545483Y-108979908D01*
X75485883Y-108973501D01*
X75485881Y-108973500D01*
X75485873Y-108973500D01*
X75485865Y-108973500D01*
X75445921Y-108973500D01*
X75378882Y-108953815D01*
X75333127Y-108901011D01*
X75323183Y-108831853D01*
X75352208Y-108768297D01*
X75374798Y-108747925D01*
X75490620Y-108666826D01*
X75646826Y-108510620D01*
X75773534Y-108329662D01*
X75866894Y-108129450D01*
X75924070Y-107916068D01*
X75943323Y-107696000D01*
X75924070Y-107475932D01*
X75866894Y-107262550D01*
X75773534Y-107062339D01*
X75646826Y-106881380D01*
X75490620Y-106725174D01*
X75490616Y-106725171D01*
X75490615Y-106725170D01*
X75309666Y-106598468D01*
X75309662Y-106598466D01*
X75180218Y-106538105D01*
X75127779Y-106491932D01*
X75108627Y-106424739D01*
X75128843Y-106357858D01*
X75180219Y-106313340D01*
X75309416Y-106253095D01*
X75309417Y-106253094D01*
X75374188Y-106207741D01*
X74811942Y-105645494D01*
X74872081Y-105629381D01*
X74987920Y-105562502D01*
X75082502Y-105467920D01*
X75149381Y-105352081D01*
X75165495Y-105291942D01*
X75727741Y-105854188D01*
X75773094Y-105789417D01*
X75773100Y-105789407D01*
X75866419Y-105589284D01*
X75866424Y-105589270D01*
X75923573Y-105375986D01*
X75923575Y-105375976D01*
X75942821Y-105156000D01*
X75942821Y-105155999D01*
X75923575Y-104936023D01*
X75923573Y-104936013D01*
X75866424Y-104722729D01*
X75866420Y-104722720D01*
X75773096Y-104522586D01*
X75727741Y-104457811D01*
X75727740Y-104457810D01*
X75165494Y-105020056D01*
X75149381Y-104959919D01*
X75082502Y-104844080D01*
X74987920Y-104749498D01*
X74872081Y-104682619D01*
X74811941Y-104666504D01*
X75374188Y-104104258D01*
X75309411Y-104058901D01*
X75309405Y-104058898D01*
X75109284Y-103965580D01*
X75109270Y-103965575D01*
X74895986Y-103908426D01*
X74895976Y-103908424D01*
X74676001Y-103889179D01*
X74675999Y-103889179D01*
X74456023Y-103908424D01*
X74456013Y-103908426D01*
X74242729Y-103965575D01*
X74242720Y-103965579D01*
X74042590Y-104058901D01*
X73977811Y-104104258D01*
X74540058Y-104666504D01*
X74479919Y-104682619D01*
X74364080Y-104749498D01*
X74269498Y-104844080D01*
X74202619Y-104959919D01*
X74186504Y-105020057D01*
X73624258Y-104457811D01*
X73578901Y-104522590D01*
X73485579Y-104722720D01*
X73485575Y-104722729D01*
X73428426Y-104936013D01*
X73428424Y-104936023D01*
X73409179Y-105155999D01*
X73409179Y-105156000D01*
X73428424Y-105375976D01*
X73428426Y-105375986D01*
X73485575Y-105589270D01*
X73485580Y-105589284D01*
X73578898Y-105789405D01*
X73578901Y-105789411D01*
X73624258Y-105854187D01*
X73624258Y-105854188D01*
X74186504Y-105291941D01*
X74202619Y-105352081D01*
X74269498Y-105467920D01*
X74364080Y-105562502D01*
X74479919Y-105629381D01*
X74540057Y-105645494D01*
X73977810Y-106207740D01*
X74042589Y-106253098D01*
X74171781Y-106313342D01*
X74224220Y-106359514D01*
X74243372Y-106426708D01*
X74223156Y-106493589D01*
X74171781Y-106538106D01*
X74042340Y-106598465D01*
X74042338Y-106598466D01*
X73861377Y-106725175D01*
X73705175Y-106881377D01*
X73578466Y-107062338D01*
X73578465Y-107062340D01*
X73485107Y-107262548D01*
X73485104Y-107262554D01*
X73427930Y-107475929D01*
X73427929Y-107475937D01*
X73408677Y-107695997D01*
X72898000Y-107695997D01*
X72898000Y-99266135D01*
X73413500Y-99266135D01*
X73413500Y-100885870D01*
X73413501Y-100885876D01*
X73419908Y-100945483D01*
X73470202Y-101080328D01*
X73470206Y-101080335D01*
X73556452Y-101195544D01*
X73556455Y-101195547D01*
X73671664Y-101281793D01*
X73671671Y-101281797D01*
X73806517Y-101332091D01*
X73806516Y-101332091D01*
X73813444Y-101332835D01*
X73866127Y-101338500D01*
X75485872Y-101338499D01*
X75545483Y-101332091D01*
X75680331Y-101281796D01*
X75795546Y-101195546D01*
X75881796Y-101080331D01*
X75932091Y-100945483D01*
X75938500Y-100885873D01*
X75938499Y-100845048D01*
X75958182Y-100778012D01*
X76010985Y-100732256D01*
X76080143Y-100722311D01*
X76143700Y-100751334D01*
X76164074Y-100773925D01*
X76164258Y-100774187D01*
X76164258Y-100774188D01*
X76726504Y-100211941D01*
X76742619Y-100272081D01*
X76809498Y-100387920D01*
X76904080Y-100482502D01*
X77019919Y-100549381D01*
X77080057Y-100565494D01*
X76517810Y-101127740D01*
X76582590Y-101173099D01*
X76582592Y-101173100D01*
X76782715Y-101266419D01*
X76782729Y-101266424D01*
X76996013Y-101323573D01*
X76996023Y-101323575D01*
X77215999Y-101342821D01*
X77216001Y-101342821D01*
X77435976Y-101323575D01*
X77435986Y-101323573D01*
X77649270Y-101266424D01*
X77649284Y-101266419D01*
X77849407Y-101173100D01*
X77849417Y-101173094D01*
X77914188Y-101127741D01*
X77351942Y-100565494D01*
X77412081Y-100549381D01*
X77527920Y-100482502D01*
X77622502Y-100387920D01*
X77689381Y-100272081D01*
X77705495Y-100211942D01*
X78267741Y-100774188D01*
X78313094Y-100709417D01*
X78313100Y-100709407D01*
X78373618Y-100579627D01*
X78419790Y-100527187D01*
X78486983Y-100508035D01*
X78553865Y-100528251D01*
X78598382Y-100579627D01*
X78658898Y-100709405D01*
X78658901Y-100709411D01*
X78704258Y-100774187D01*
X78704258Y-100774188D01*
X79266504Y-100211941D01*
X79282619Y-100272081D01*
X79349498Y-100387920D01*
X79444080Y-100482502D01*
X79559919Y-100549381D01*
X79620057Y-100565494D01*
X79057810Y-101127740D01*
X79122590Y-101173099D01*
X79122592Y-101173100D01*
X79322715Y-101266419D01*
X79322729Y-101266424D01*
X79536013Y-101323573D01*
X79536023Y-101323575D01*
X79755999Y-101342821D01*
X79756001Y-101342821D01*
X79975976Y-101323575D01*
X79975986Y-101323573D01*
X80189270Y-101266424D01*
X80189284Y-101266419D01*
X80389407Y-101173100D01*
X80389417Y-101173094D01*
X80454188Y-101127741D01*
X79891942Y-100565494D01*
X79952081Y-100549381D01*
X80067920Y-100482502D01*
X80162502Y-100387920D01*
X80229381Y-100272081D01*
X80245495Y-100211942D01*
X80807741Y-100774188D01*
X80853094Y-100709417D01*
X80853100Y-100709407D01*
X80946419Y-100509284D01*
X80946424Y-100509270D01*
X81003573Y-100295986D01*
X81003575Y-100295976D01*
X81022821Y-100076000D01*
X81022821Y-100075999D01*
X81022821Y-100075994D01*
X83390764Y-100075994D01*
X83390764Y-100076005D01*
X83410473Y-100313869D01*
X83410475Y-100313881D01*
X83469070Y-100545267D01*
X83554116Y-100739150D01*
X83564953Y-100763856D01*
X83695506Y-100963682D01*
X83857168Y-101139295D01*
X83857171Y-101139297D01*
X83857174Y-101139300D01*
X83997020Y-101248147D01*
X84037833Y-101304857D01*
X84041508Y-101374630D01*
X84006876Y-101435313D01*
X83997020Y-101443853D01*
X83857174Y-101552699D01*
X83857171Y-101552702D01*
X83857168Y-101552704D01*
X83857168Y-101552705D01*
X83823924Y-101588817D01*
X83695506Y-101728317D01*
X83564951Y-101928147D01*
X83469070Y-102146732D01*
X83410475Y-102378118D01*
X83410473Y-102378130D01*
X83390764Y-102615994D01*
X83390764Y-102616005D01*
X83410473Y-102853869D01*
X83410475Y-102853881D01*
X83469070Y-103085267D01*
X83554191Y-103279322D01*
X83564953Y-103303856D01*
X83695506Y-103503682D01*
X83857168Y-103679295D01*
X84045531Y-103825903D01*
X84255455Y-103939509D01*
X84481216Y-104017012D01*
X84716653Y-104056300D01*
X84716654Y-104056300D01*
X84955346Y-104056300D01*
X84955347Y-104056300D01*
X85190784Y-104017012D01*
X85416545Y-103939509D01*
X85626469Y-103825903D01*
X85814832Y-103679295D01*
X85976494Y-103503682D01*
X86002191Y-103464350D01*
X86055337Y-103418993D01*
X86124568Y-103409569D01*
X86187904Y-103439071D01*
X86209809Y-103464350D01*
X86235504Y-103503679D01*
X86235506Y-103503682D01*
X86397168Y-103679295D01*
X86585531Y-103825903D01*
X86795455Y-103939509D01*
X87021216Y-104017012D01*
X87256653Y-104056300D01*
X87256654Y-104056300D01*
X87495346Y-104056300D01*
X87495347Y-104056300D01*
X87730784Y-104017012D01*
X87956545Y-103939509D01*
X88166469Y-103825903D01*
X88354832Y-103679295D01*
X88516494Y-103503682D01*
X88542191Y-103464350D01*
X88595337Y-103418993D01*
X88664568Y-103409569D01*
X88727904Y-103439071D01*
X88749809Y-103464350D01*
X88775504Y-103503679D01*
X88775506Y-103503682D01*
X88937168Y-103679295D01*
X89125531Y-103825903D01*
X89335455Y-103939509D01*
X89561216Y-104017012D01*
X89796653Y-104056300D01*
X89796654Y-104056300D01*
X90035346Y-104056300D01*
X90035347Y-104056300D01*
X90270784Y-104017012D01*
X90496545Y-103939509D01*
X90706469Y-103825903D01*
X90894832Y-103679295D01*
X91056494Y-103503682D01*
X91082191Y-103464350D01*
X91135337Y-103418993D01*
X91204568Y-103409569D01*
X91267904Y-103439071D01*
X91289809Y-103464350D01*
X91315504Y-103503679D01*
X91315506Y-103503682D01*
X91477168Y-103679295D01*
X91665531Y-103825903D01*
X91875455Y-103939509D01*
X92101216Y-104017012D01*
X92336653Y-104056300D01*
X92336654Y-104056300D01*
X92575346Y-104056300D01*
X92575347Y-104056300D01*
X92810784Y-104017012D01*
X93036545Y-103939509D01*
X93246469Y-103825903D01*
X93434832Y-103679295D01*
X93596494Y-103503682D01*
X93622191Y-103464350D01*
X93675337Y-103418993D01*
X93744568Y-103409569D01*
X93807904Y-103439071D01*
X93829809Y-103464350D01*
X93855504Y-103503679D01*
X93855506Y-103503682D01*
X94017168Y-103679295D01*
X94205531Y-103825903D01*
X94415455Y-103939509D01*
X94641216Y-104017012D01*
X94876653Y-104056300D01*
X94876654Y-104056300D01*
X95115346Y-104056300D01*
X95115347Y-104056300D01*
X95350784Y-104017012D01*
X95576545Y-103939509D01*
X95786469Y-103825903D01*
X95974832Y-103679295D01*
X96136494Y-103503682D01*
X96162191Y-103464350D01*
X96215337Y-103418993D01*
X96284568Y-103409569D01*
X96347904Y-103439071D01*
X96369809Y-103464350D01*
X96395504Y-103503679D01*
X96395506Y-103503682D01*
X96557168Y-103679295D01*
X96745531Y-103825903D01*
X96955455Y-103939509D01*
X97181216Y-104017012D01*
X97416653Y-104056300D01*
X97416654Y-104056300D01*
X97655346Y-104056300D01*
X97655347Y-104056300D01*
X97890784Y-104017012D01*
X98116545Y-103939509D01*
X98326469Y-103825903D01*
X98514832Y-103679295D01*
X98676494Y-103503682D01*
X98702191Y-103464350D01*
X98755337Y-103418993D01*
X98824568Y-103409569D01*
X98887904Y-103439071D01*
X98909809Y-103464350D01*
X98935504Y-103503679D01*
X98935506Y-103503682D01*
X99097168Y-103679295D01*
X99285531Y-103825903D01*
X99495455Y-103939509D01*
X99721216Y-104017012D01*
X99956653Y-104056300D01*
X99956654Y-104056300D01*
X100195346Y-104056300D01*
X100195347Y-104056300D01*
X100430784Y-104017012D01*
X100656545Y-103939509D01*
X100866469Y-103825903D01*
X101054832Y-103679295D01*
X101216494Y-103503682D01*
X101242191Y-103464350D01*
X101295337Y-103418993D01*
X101364568Y-103409569D01*
X101427904Y-103439071D01*
X101449809Y-103464350D01*
X101475504Y-103503679D01*
X101475506Y-103503682D01*
X101637168Y-103679295D01*
X101825531Y-103825903D01*
X102035455Y-103939509D01*
X102261216Y-104017012D01*
X102496653Y-104056300D01*
X102496654Y-104056300D01*
X102735346Y-104056300D01*
X102735347Y-104056300D01*
X102970784Y-104017012D01*
X103196545Y-103939509D01*
X103406469Y-103825903D01*
X103594832Y-103679295D01*
X103756494Y-103503682D01*
X103782489Y-103463892D01*
X103835634Y-103418536D01*
X103904865Y-103409112D01*
X103968201Y-103438613D01*
X103971020Y-103441867D01*
X103976057Y-103442389D01*
X104666504Y-102751941D01*
X104682619Y-102812081D01*
X104749498Y-102927920D01*
X104844080Y-103022502D01*
X104959919Y-103089381D01*
X105020057Y-103105494D01*
X104328839Y-103796711D01*
X104328840Y-103796712D01*
X104365802Y-103825481D01*
X104365808Y-103825486D01*
X104575650Y-103939046D01*
X104575660Y-103939051D01*
X104801335Y-104016525D01*
X105036696Y-104055800D01*
X105275304Y-104055800D01*
X105510664Y-104016525D01*
X105736339Y-103939051D01*
X105736344Y-103939049D01*
X105946197Y-103825481D01*
X105946200Y-103825480D01*
X105983158Y-103796712D01*
X105983158Y-103796711D01*
X105291942Y-103105495D01*
X105352081Y-103089381D01*
X105467920Y-103022502D01*
X105562502Y-102927920D01*
X105629381Y-102812081D01*
X105645495Y-102751942D01*
X106219381Y-103325828D01*
X106252866Y-103387151D01*
X106255700Y-103413508D01*
X106255700Y-103603669D01*
X106255701Y-103603676D01*
X106262108Y-103663283D01*
X106312402Y-103798128D01*
X106312406Y-103798135D01*
X106398652Y-103913344D01*
X106398655Y-103913347D01*
X106513864Y-103999593D01*
X106513871Y-103999597D01*
X106648717Y-104049891D01*
X106648716Y-104049891D01*
X106655644Y-104050635D01*
X106708327Y-104056300D01*
X108683672Y-104056299D01*
X108743283Y-104049891D01*
X108878131Y-103999596D01*
X108993346Y-103913346D01*
X109079596Y-103798131D01*
X109129891Y-103663283D01*
X109136300Y-103603673D01*
X109136300Y-102849997D01*
X135976723Y-102849997D01*
X135976723Y-102850002D01*
X135995793Y-103067975D01*
X135995793Y-103067979D01*
X136052422Y-103279322D01*
X136052424Y-103279326D01*
X136052425Y-103279330D01*
X136074382Y-103326416D01*
X136144897Y-103477638D01*
X136169998Y-103513486D01*
X136270402Y-103656877D01*
X136425123Y-103811598D01*
X136604361Y-103937102D01*
X136802670Y-104029575D01*
X137014023Y-104086207D01*
X137196926Y-104102208D01*
X137231998Y-104105277D01*
X137232000Y-104105277D01*
X137232002Y-104105277D01*
X137260254Y-104102805D01*
X137449977Y-104086207D01*
X137661330Y-104029575D01*
X137859639Y-103937102D01*
X138038877Y-103811598D01*
X138193598Y-103656877D01*
X138319102Y-103477639D01*
X138389618Y-103326414D01*
X138435790Y-103273977D01*
X138502984Y-103254825D01*
X138569865Y-103275041D01*
X138614381Y-103326414D01*
X138684898Y-103477639D01*
X138810402Y-103656877D01*
X138965123Y-103811598D01*
X139144361Y-103937102D01*
X139342670Y-104029575D01*
X139554023Y-104086207D01*
X139736926Y-104102208D01*
X139771998Y-104105277D01*
X139772000Y-104105277D01*
X139772002Y-104105277D01*
X139800254Y-104102805D01*
X139989977Y-104086207D01*
X140201330Y-104029575D01*
X140399639Y-103937102D01*
X140578877Y-103811598D01*
X140733598Y-103656877D01*
X140859102Y-103477639D01*
X140929618Y-103326414D01*
X140975790Y-103273977D01*
X141042984Y-103254825D01*
X141109865Y-103275041D01*
X141154381Y-103326414D01*
X141224898Y-103477639D01*
X141350402Y-103656877D01*
X141505123Y-103811598D01*
X141684361Y-103937102D01*
X141882670Y-104029575D01*
X142094023Y-104086207D01*
X142276926Y-104102208D01*
X142311998Y-104105277D01*
X142312000Y-104105277D01*
X142312002Y-104105277D01*
X142340254Y-104102805D01*
X142529977Y-104086207D01*
X142741330Y-104029575D01*
X142939639Y-103937102D01*
X143118877Y-103811598D01*
X143273598Y-103656877D01*
X143375928Y-103510734D01*
X143430502Y-103467112D01*
X143500000Y-103459918D01*
X143562355Y-103491441D01*
X143597769Y-103551670D01*
X143601500Y-103581858D01*
X143601500Y-103647869D01*
X143601501Y-103647876D01*
X143607908Y-103707483D01*
X143658202Y-103842328D01*
X143658206Y-103842335D01*
X143744452Y-103957544D01*
X143744455Y-103957547D01*
X143859664Y-104043793D01*
X143859671Y-104043797D01*
X143994517Y-104094091D01*
X143994516Y-104094091D01*
X144001444Y-104094835D01*
X144054127Y-104100500D01*
X145649872Y-104100499D01*
X145709483Y-104094091D01*
X145844331Y-104043796D01*
X145959546Y-103957546D01*
X146045796Y-103842331D01*
X146096091Y-103707483D01*
X146102500Y-103647873D01*
X146102499Y-102052128D01*
X146096091Y-101992517D01*
X146072081Y-101928144D01*
X146045797Y-101857671D01*
X146045793Y-101857664D01*
X145959547Y-101742455D01*
X145959544Y-101742452D01*
X145844335Y-101656206D01*
X145844328Y-101656202D01*
X145709482Y-101605908D01*
X145709483Y-101605908D01*
X145649883Y-101599501D01*
X145649881Y-101599500D01*
X145649873Y-101599500D01*
X145649865Y-101599500D01*
X145582989Y-101599500D01*
X145515950Y-101579815D01*
X145470195Y-101527011D01*
X145460251Y-101457853D01*
X145489276Y-101394297D01*
X145511864Y-101373926D01*
X145541571Y-101353124D01*
X144981410Y-100792962D01*
X145044993Y-100775925D01*
X145159007Y-100710099D01*
X145252099Y-100617007D01*
X145317925Y-100502993D01*
X145334962Y-100439409D01*
X145895124Y-100999570D01*
X145938668Y-100937385D01*
X145938669Y-100937383D01*
X146031100Y-100739164D01*
X146031105Y-100739150D01*
X146087710Y-100527894D01*
X146087712Y-100527884D01*
X146106775Y-100310000D01*
X146106775Y-100309999D01*
X146087712Y-100092115D01*
X146087710Y-100092105D01*
X146083393Y-100075994D01*
X146890764Y-100075994D01*
X146890764Y-100076005D01*
X146910473Y-100313869D01*
X146910475Y-100313881D01*
X146969070Y-100545267D01*
X147054116Y-100739150D01*
X147064953Y-100763856D01*
X147195506Y-100963682D01*
X147357168Y-101139295D01*
X147357171Y-101139297D01*
X147357174Y-101139300D01*
X147497020Y-101248147D01*
X147537833Y-101304857D01*
X147541508Y-101374630D01*
X147506876Y-101435313D01*
X147497020Y-101443853D01*
X147357174Y-101552699D01*
X147357171Y-101552702D01*
X147357168Y-101552704D01*
X147357168Y-101552705D01*
X147323924Y-101588817D01*
X147195506Y-101728317D01*
X147064951Y-101928147D01*
X146969070Y-102146732D01*
X146910475Y-102378118D01*
X146910473Y-102378130D01*
X146890764Y-102615994D01*
X146890764Y-102616005D01*
X146910473Y-102853869D01*
X146910475Y-102853881D01*
X146969070Y-103085267D01*
X147054191Y-103279322D01*
X147064953Y-103303856D01*
X147195506Y-103503682D01*
X147357168Y-103679295D01*
X147545531Y-103825903D01*
X147755455Y-103939509D01*
X147981216Y-104017012D01*
X148216653Y-104056300D01*
X148216654Y-104056300D01*
X148455346Y-104056300D01*
X148455347Y-104056300D01*
X148690784Y-104017012D01*
X148916545Y-103939509D01*
X149126469Y-103825903D01*
X149314832Y-103679295D01*
X149476494Y-103503682D01*
X149502191Y-103464350D01*
X149555337Y-103418993D01*
X149624568Y-103409569D01*
X149687904Y-103439071D01*
X149709809Y-103464350D01*
X149735504Y-103503679D01*
X149735506Y-103503682D01*
X149897168Y-103679295D01*
X150085531Y-103825903D01*
X150295455Y-103939509D01*
X150521216Y-104017012D01*
X150756653Y-104056300D01*
X150756654Y-104056300D01*
X150995346Y-104056300D01*
X150995347Y-104056300D01*
X151230784Y-104017012D01*
X151456545Y-103939509D01*
X151666469Y-103825903D01*
X151854832Y-103679295D01*
X152016494Y-103503682D01*
X152042191Y-103464350D01*
X152095337Y-103418993D01*
X152164568Y-103409569D01*
X152227904Y-103439071D01*
X152249809Y-103464350D01*
X152275504Y-103503679D01*
X152275506Y-103503682D01*
X152437168Y-103679295D01*
X152625531Y-103825903D01*
X152835455Y-103939509D01*
X153061216Y-104017012D01*
X153296653Y-104056300D01*
X153296654Y-104056300D01*
X153535346Y-104056300D01*
X153535347Y-104056300D01*
X153770784Y-104017012D01*
X153996545Y-103939509D01*
X154206469Y-103825903D01*
X154394832Y-103679295D01*
X154556494Y-103503682D01*
X154582191Y-103464350D01*
X154635337Y-103418993D01*
X154704568Y-103409569D01*
X154767904Y-103439071D01*
X154789809Y-103464350D01*
X154815504Y-103503679D01*
X154815506Y-103503682D01*
X154977168Y-103679295D01*
X155165531Y-103825903D01*
X155375455Y-103939509D01*
X155601216Y-104017012D01*
X155836653Y-104056300D01*
X155836654Y-104056300D01*
X156075346Y-104056300D01*
X156075347Y-104056300D01*
X156310784Y-104017012D01*
X156536545Y-103939509D01*
X156746469Y-103825903D01*
X156934832Y-103679295D01*
X157096494Y-103503682D01*
X157122191Y-103464350D01*
X157175337Y-103418993D01*
X157244568Y-103409569D01*
X157307904Y-103439071D01*
X157329809Y-103464350D01*
X157355504Y-103503679D01*
X157355506Y-103503682D01*
X157517168Y-103679295D01*
X157705531Y-103825903D01*
X157915455Y-103939509D01*
X158141216Y-104017012D01*
X158376653Y-104056300D01*
X158376654Y-104056300D01*
X158615346Y-104056300D01*
X158615347Y-104056300D01*
X158850784Y-104017012D01*
X159076545Y-103939509D01*
X159286469Y-103825903D01*
X159474832Y-103679295D01*
X159636494Y-103503682D01*
X159662191Y-103464350D01*
X159715337Y-103418993D01*
X159784568Y-103409569D01*
X159847904Y-103439071D01*
X159869809Y-103464350D01*
X159895504Y-103503679D01*
X159895506Y-103503682D01*
X160057168Y-103679295D01*
X160245531Y-103825903D01*
X160455455Y-103939509D01*
X160681216Y-104017012D01*
X160916653Y-104056300D01*
X160916654Y-104056300D01*
X161155346Y-104056300D01*
X161155347Y-104056300D01*
X161390784Y-104017012D01*
X161616545Y-103939509D01*
X161826469Y-103825903D01*
X162014832Y-103679295D01*
X162176494Y-103503682D01*
X162202191Y-103464350D01*
X162255337Y-103418993D01*
X162324568Y-103409569D01*
X162387904Y-103439071D01*
X162409809Y-103464350D01*
X162435504Y-103503679D01*
X162435506Y-103503682D01*
X162597168Y-103679295D01*
X162785531Y-103825903D01*
X162995455Y-103939509D01*
X163221216Y-104017012D01*
X163456653Y-104056300D01*
X163456654Y-104056300D01*
X163695346Y-104056300D01*
X163695347Y-104056300D01*
X163930784Y-104017012D01*
X164156545Y-103939509D01*
X164366469Y-103825903D01*
X164554832Y-103679295D01*
X164716494Y-103503682D01*
X164742191Y-103464350D01*
X164795337Y-103418993D01*
X164864568Y-103409569D01*
X164927904Y-103439071D01*
X164949809Y-103464350D01*
X164975504Y-103503679D01*
X164975506Y-103503682D01*
X165137168Y-103679295D01*
X165267662Y-103780862D01*
X165308475Y-103837571D01*
X165315500Y-103878715D01*
X165315500Y-104694846D01*
X165346261Y-104849489D01*
X165346264Y-104849501D01*
X165406602Y-104995172D01*
X165406609Y-104995185D01*
X165494210Y-105126288D01*
X165494213Y-105126292D01*
X169239707Y-108871786D01*
X169239711Y-108871789D01*
X169370814Y-108959390D01*
X169370827Y-108959397D01*
X169516498Y-109019735D01*
X169516503Y-109019737D01*
X169671153Y-109050499D01*
X169671156Y-109050500D01*
X169671158Y-109050500D01*
X172828844Y-109050500D01*
X172828845Y-109050499D01*
X172983497Y-109019737D01*
X173104131Y-108969769D01*
X173129172Y-108959397D01*
X173129172Y-108959396D01*
X173129179Y-108959394D01*
X173260289Y-108871789D01*
X175621789Y-106510289D01*
X175709394Y-106379179D01*
X175769738Y-106233497D01*
X175800500Y-106078842D01*
X175800500Y-105921157D01*
X175800500Y-96145530D01*
X198568000Y-96145530D01*
X198568000Y-96386469D01*
X198599447Y-96625341D01*
X198661808Y-96858073D01*
X198754006Y-97080662D01*
X198754011Y-97080671D01*
X198874480Y-97289329D01*
X198874483Y-97289334D01*
X198874485Y-97289336D01*
X199021151Y-97480476D01*
X199021157Y-97480483D01*
X199191516Y-97650842D01*
X199191522Y-97650847D01*
X199382671Y-97797520D01*
X199591329Y-97917989D01*
X199591332Y-97917990D01*
X199591337Y-97917993D01*
X199711424Y-97967734D01*
X199813927Y-98010192D01*
X200046655Y-98072552D01*
X200225812Y-98096138D01*
X200285530Y-98104000D01*
X200285531Y-98104000D01*
X200526470Y-98104000D01*
X200574244Y-98097710D01*
X200765345Y-98072552D01*
X200998073Y-98010192D01*
X201173053Y-97937712D01*
X201220662Y-97917993D01*
X201220663Y-97917991D01*
X201220671Y-97917989D01*
X201429329Y-97797520D01*
X201620478Y-97650847D01*
X201790847Y-97480478D01*
X201937520Y-97289329D01*
X202057989Y-97080671D01*
X202150192Y-96858073D01*
X202212552Y-96625345D01*
X202244000Y-96386469D01*
X202244000Y-96145531D01*
X202212552Y-95906655D01*
X202150192Y-95673927D01*
X202107734Y-95571424D01*
X202057993Y-95451337D01*
X202057988Y-95451328D01*
X201937520Y-95242671D01*
X201790847Y-95051522D01*
X201790842Y-95051516D01*
X201620483Y-94881157D01*
X201620476Y-94881151D01*
X201429336Y-94734485D01*
X201429334Y-94734483D01*
X201429329Y-94734480D01*
X201220671Y-94614011D01*
X201220662Y-94614006D01*
X200998073Y-94521808D01*
X200765341Y-94459447D01*
X200526470Y-94428000D01*
X200526469Y-94428000D01*
X200285531Y-94428000D01*
X200285530Y-94428000D01*
X200046658Y-94459447D01*
X199813926Y-94521808D01*
X199591337Y-94614006D01*
X199591328Y-94614011D01*
X199465644Y-94686575D01*
X199382671Y-94734480D01*
X199382668Y-94734481D01*
X199382663Y-94734485D01*
X199191523Y-94881151D01*
X199191516Y-94881157D01*
X199021157Y-95051516D01*
X199021151Y-95051523D01*
X198874485Y-95242663D01*
X198754011Y-95451328D01*
X198754006Y-95451337D01*
X198661808Y-95673926D01*
X198599447Y-95906658D01*
X198568000Y-96145530D01*
X175800500Y-96145530D01*
X175800500Y-73749998D01*
X182699645Y-73749998D01*
X182699645Y-73750001D01*
X182719039Y-74021160D01*
X182719040Y-74021167D01*
X182776823Y-74286793D01*
X182776825Y-74286801D01*
X182853330Y-74491920D01*
X182871830Y-74541519D01*
X183002109Y-74780107D01*
X183002110Y-74780108D01*
X183002113Y-74780113D01*
X183165029Y-74997742D01*
X183165033Y-74997746D01*
X183165038Y-74997752D01*
X183357247Y-75189961D01*
X183357253Y-75189966D01*
X183357258Y-75189971D01*
X183574887Y-75352887D01*
X183574891Y-75352889D01*
X183574892Y-75352890D01*
X183813481Y-75483169D01*
X183813480Y-75483169D01*
X183813484Y-75483170D01*
X183813487Y-75483172D01*
X184068199Y-75578175D01*
X184333840Y-75635961D01*
X184585605Y-75653967D01*
X184604999Y-75655355D01*
X184605000Y-75655355D01*
X184605001Y-75655355D01*
X184623100Y-75654060D01*
X184876160Y-75635961D01*
X185141801Y-75578175D01*
X185396513Y-75483172D01*
X185396517Y-75483169D01*
X185396519Y-75483169D01*
X185515813Y-75418029D01*
X185635113Y-75352887D01*
X185852742Y-75189971D01*
X186044971Y-74997742D01*
X186207887Y-74780113D01*
X186338172Y-74541513D01*
X186433175Y-74286801D01*
X186490961Y-74021160D01*
X186510355Y-73750000D01*
X186490961Y-73478840D01*
X186433175Y-73213199D01*
X186338172Y-72958487D01*
X186338170Y-72958484D01*
X186338169Y-72958480D01*
X186207890Y-72719892D01*
X186207889Y-72719891D01*
X186207887Y-72719887D01*
X186044971Y-72502258D01*
X186044966Y-72502253D01*
X186044961Y-72502247D01*
X185852752Y-72310038D01*
X185852746Y-72310033D01*
X185852742Y-72310029D01*
X185635113Y-72147113D01*
X185635108Y-72147110D01*
X185635107Y-72147109D01*
X185396518Y-72016830D01*
X185396519Y-72016830D01*
X185346920Y-71998330D01*
X185141801Y-71921825D01*
X185141794Y-71921823D01*
X185141793Y-71921823D01*
X184876167Y-71864040D01*
X184876160Y-71864039D01*
X184605001Y-71844645D01*
X184604999Y-71844645D01*
X184333839Y-71864039D01*
X184333832Y-71864040D01*
X184068206Y-71921823D01*
X184068202Y-71921824D01*
X184068199Y-71921825D01*
X183940843Y-71969326D01*
X183813480Y-72016830D01*
X183574892Y-72147109D01*
X183574891Y-72147110D01*
X183357259Y-72310028D01*
X183357247Y-72310038D01*
X183165038Y-72502247D01*
X183165028Y-72502259D01*
X183002110Y-72719891D01*
X183002109Y-72719892D01*
X182871830Y-72958480D01*
X182824326Y-73085843D01*
X182776825Y-73213199D01*
X182776824Y-73213202D01*
X182776823Y-73213206D01*
X182719040Y-73478832D01*
X182719039Y-73478839D01*
X182699645Y-73749998D01*
X175800500Y-73749998D01*
X175800500Y-48249993D01*
X178664968Y-48249993D01*
X178664968Y-48250006D01*
X178685086Y-48723631D01*
X178745304Y-49193874D01*
X178845181Y-49657306D01*
X178845183Y-49657314D01*
X178983999Y-50110598D01*
X178984004Y-50110612D01*
X179160755Y-50550471D01*
X179160759Y-50550482D01*
X179374179Y-50973774D01*
X179374189Y-50973794D01*
X179622750Y-51377481D01*
X179904648Y-51758633D01*
X179904654Y-51758641D01*
X180130825Y-52015620D01*
X181922818Y-50223627D01*
X181972208Y-50285560D01*
X182214440Y-50527792D01*
X182276371Y-50577180D01*
X180483983Y-52369568D01*
X180560120Y-52442537D01*
X180560122Y-52442538D01*
X180928952Y-52740348D01*
X180928953Y-52740349D01*
X181321716Y-53005809D01*
X181321735Y-53005821D01*
X181735588Y-53237014D01*
X181735610Y-53237025D01*
X182167579Y-53432288D01*
X182167585Y-53432290D01*
X182614579Y-53590223D01*
X183073351Y-53709677D01*
X183540597Y-53789795D01*
X183540605Y-53789796D01*
X184012946Y-53829999D01*
X184012966Y-53830000D01*
X184487034Y-53830000D01*
X184487053Y-53829999D01*
X184959394Y-53789796D01*
X184959402Y-53789795D01*
X185426648Y-53709677D01*
X185885420Y-53590223D01*
X186332414Y-53432290D01*
X186332420Y-53432288D01*
X186764389Y-53237025D01*
X186764411Y-53237014D01*
X187178264Y-53005821D01*
X187178283Y-53005809D01*
X187571039Y-52740353D01*
X187939886Y-52442531D01*
X188016015Y-52369568D01*
X186223628Y-50577181D01*
X186285560Y-50527792D01*
X186527792Y-50285560D01*
X186577181Y-50223628D01*
X188369173Y-52015620D01*
X188595346Y-51758638D01*
X188595360Y-51758621D01*
X188877249Y-51377481D01*
X189125810Y-50973794D01*
X189125820Y-50973774D01*
X189339240Y-50550482D01*
X189339244Y-50550471D01*
X189515995Y-50110612D01*
X189516000Y-50110598D01*
X189654816Y-49657314D01*
X189654818Y-49657306D01*
X189754695Y-49193874D01*
X189814913Y-48723631D01*
X189835032Y-48250006D01*
X189835032Y-48249993D01*
X189814913Y-47776368D01*
X189754695Y-47306125D01*
X189654818Y-46842693D01*
X189654816Y-46842685D01*
X189516000Y-46389401D01*
X189515995Y-46389387D01*
X189339244Y-45949528D01*
X189339240Y-45949517D01*
X189125820Y-45526225D01*
X189125810Y-45526205D01*
X188877249Y-45122518D01*
X188595351Y-44741366D01*
X188595345Y-44741358D01*
X188369173Y-44484378D01*
X186577180Y-46276371D01*
X186527792Y-46214440D01*
X186285560Y-45972208D01*
X186223626Y-45922818D01*
X188016015Y-44130430D01*
X187939879Y-44057462D01*
X187939877Y-44057461D01*
X187571047Y-43759651D01*
X187571046Y-43759650D01*
X187178283Y-43494190D01*
X187178264Y-43494178D01*
X186764411Y-43262985D01*
X186764389Y-43262974D01*
X186332420Y-43067711D01*
X186332414Y-43067709D01*
X185885420Y-42909776D01*
X185426648Y-42790322D01*
X184959402Y-42710204D01*
X184959394Y-42710203D01*
X184487053Y-42670000D01*
X184012946Y-42670000D01*
X183540605Y-42710203D01*
X183540597Y-42710204D01*
X183073351Y-42790322D01*
X182614579Y-42909776D01*
X182167585Y-43067709D01*
X182167579Y-43067711D01*
X181735610Y-43262974D01*
X181735588Y-43262985D01*
X181321735Y-43494178D01*
X181321716Y-43494190D01*
X180928953Y-43759650D01*
X180928952Y-43759651D01*
X180560123Y-44057460D01*
X180560107Y-44057474D01*
X180483984Y-44130431D01*
X182276371Y-45922818D01*
X182214440Y-45972208D01*
X181972208Y-46214440D01*
X181922818Y-46276371D01*
X180130826Y-44484379D01*
X179904648Y-44741366D01*
X179904645Y-44741370D01*
X179622750Y-45122518D01*
X179374189Y-45526205D01*
X179374179Y-45526225D01*
X179160759Y-45949517D01*
X179160755Y-45949528D01*
X178984004Y-46389387D01*
X178983999Y-46389401D01*
X178845183Y-46842685D01*
X178845181Y-46842693D01*
X178745304Y-47306125D01*
X178685086Y-47776368D01*
X178664968Y-48249993D01*
X175800500Y-48249993D01*
X175800500Y-46301914D01*
X175801280Y-46288029D01*
X175801419Y-46286801D01*
X175805565Y-46250000D01*
X175801279Y-46211968D01*
X175800500Y-46198085D01*
X175800500Y-46171157D01*
X175792711Y-46132003D01*
X175791110Y-46121714D01*
X175785368Y-46070745D01*
X175777023Y-46046898D01*
X175772449Y-46030139D01*
X175769737Y-46016503D01*
X175769734Y-46016496D01*
X175761253Y-45996021D01*
X175749484Y-45967607D01*
X175747028Y-45961175D01*
X175725789Y-45900478D01*
X175719289Y-45890134D01*
X175709719Y-45871606D01*
X175709394Y-45870821D01*
X175672790Y-45816040D01*
X175670905Y-45813131D01*
X175629816Y-45747738D01*
X175502262Y-45620184D01*
X175502260Y-45620182D01*
X175502257Y-45620180D01*
X175436900Y-45579114D01*
X175433982Y-45577223D01*
X175379179Y-45540605D01*
X175379173Y-45540603D01*
X175378365Y-45540268D01*
X175359865Y-45530709D01*
X175349524Y-45524212D01*
X175349523Y-45524211D01*
X175349522Y-45524211D01*
X175288867Y-45502986D01*
X175282377Y-45500509D01*
X175233496Y-45480262D01*
X175219860Y-45477550D01*
X175203104Y-45472976D01*
X175179260Y-45464633D01*
X175179256Y-45464632D01*
X175179255Y-45464632D01*
X175158575Y-45462301D01*
X175128303Y-45458890D01*
X175118003Y-45457288D01*
X175078844Y-45449500D01*
X175078842Y-45449500D01*
X175051915Y-45449500D01*
X175038031Y-45448720D01*
X175000002Y-45444435D01*
X174999998Y-45444435D01*
X174961969Y-45448720D01*
X174948085Y-45449500D01*
X174921152Y-45449500D01*
X174881994Y-45457288D01*
X174871696Y-45458890D01*
X174820742Y-45464632D01*
X174820735Y-45464634D01*
X174796898Y-45472975D01*
X174780140Y-45477550D01*
X174766502Y-45480263D01*
X174766496Y-45480264D01*
X174717631Y-45500504D01*
X174711140Y-45502982D01*
X174650477Y-45524210D01*
X174650474Y-45524212D01*
X174640127Y-45530713D01*
X174621639Y-45540266D01*
X174620832Y-45540600D01*
X174620824Y-45540604D01*
X174566047Y-45577204D01*
X174563132Y-45579092D01*
X174497742Y-45620180D01*
X174497735Y-45620186D01*
X174370186Y-45747735D01*
X174370180Y-45747742D01*
X174329092Y-45813132D01*
X174327204Y-45816047D01*
X174290604Y-45870824D01*
X174290600Y-45870832D01*
X174290266Y-45871639D01*
X174280713Y-45890127D01*
X174274212Y-45900474D01*
X174274210Y-45900477D01*
X174252982Y-45961140D01*
X174250504Y-45967631D01*
X174230264Y-46016496D01*
X174230263Y-46016502D01*
X174227550Y-46030140D01*
X174222975Y-46046898D01*
X174214634Y-46070735D01*
X174214632Y-46070742D01*
X174208890Y-46121696D01*
X174207288Y-46131994D01*
X174199500Y-46171152D01*
X174199500Y-46198085D01*
X174198720Y-46211968D01*
X174194435Y-46250000D01*
X174198581Y-46286801D01*
X174198720Y-46288029D01*
X174199500Y-46301914D01*
X174199500Y-105617060D01*
X174179815Y-105684099D01*
X174163181Y-105704741D01*
X172454741Y-107413181D01*
X172393418Y-107446666D01*
X172367060Y-107449500D01*
X170132940Y-107449500D01*
X170065901Y-107429815D01*
X170045259Y-107413181D01*
X166952819Y-104320741D01*
X166919334Y-104259418D01*
X166916500Y-104233060D01*
X166916500Y-103878715D01*
X166936185Y-103811676D01*
X166964336Y-103780862D01*
X167094832Y-103679295D01*
X167256494Y-103503682D01*
X167282489Y-103463892D01*
X167335634Y-103418536D01*
X167404865Y-103409112D01*
X167468201Y-103438613D01*
X167471020Y-103441867D01*
X167476057Y-103442389D01*
X168166504Y-102751941D01*
X168182619Y-102812081D01*
X168249498Y-102927920D01*
X168344080Y-103022502D01*
X168459919Y-103089381D01*
X168520057Y-103105494D01*
X167828839Y-103796711D01*
X167828840Y-103796712D01*
X167865802Y-103825481D01*
X167865808Y-103825486D01*
X168075650Y-103939046D01*
X168075660Y-103939051D01*
X168301335Y-104016525D01*
X168536696Y-104055800D01*
X168775304Y-104055800D01*
X169010664Y-104016525D01*
X169236339Y-103939051D01*
X169236344Y-103939049D01*
X169446197Y-103825481D01*
X169446200Y-103825480D01*
X169483158Y-103796712D01*
X169483158Y-103796711D01*
X168791942Y-103105495D01*
X168852081Y-103089381D01*
X168967920Y-103022502D01*
X169062502Y-102927920D01*
X169129381Y-102812081D01*
X169145495Y-102751942D01*
X169719381Y-103325828D01*
X169752866Y-103387151D01*
X169755700Y-103413508D01*
X169755700Y-103603669D01*
X169755701Y-103603676D01*
X169762108Y-103663283D01*
X169812402Y-103798128D01*
X169812406Y-103798135D01*
X169898652Y-103913344D01*
X169898655Y-103913347D01*
X170013864Y-103999593D01*
X170013871Y-103999597D01*
X170148717Y-104049891D01*
X170148716Y-104049891D01*
X170155644Y-104050635D01*
X170208327Y-104056300D01*
X172183672Y-104056299D01*
X172243283Y-104049891D01*
X172378131Y-103999596D01*
X172493346Y-103913346D01*
X172579596Y-103798131D01*
X172629891Y-103663283D01*
X172636300Y-103603673D01*
X172636299Y-101628328D01*
X172629891Y-101568717D01*
X172626772Y-101560355D01*
X172579597Y-101433871D01*
X172579595Y-101433868D01*
X172578653Y-101432610D01*
X172569446Y-101420311D01*
X172545029Y-101354848D01*
X172559880Y-101286575D01*
X172569447Y-101271688D01*
X172579596Y-101258131D01*
X172629891Y-101123283D01*
X172636300Y-101063673D01*
X172636299Y-99088328D01*
X172629891Y-99028717D01*
X172624832Y-99015154D01*
X172579597Y-98893871D01*
X172579593Y-98893864D01*
X172493347Y-98778655D01*
X172493344Y-98778652D01*
X172378135Y-98692406D01*
X172378128Y-98692402D01*
X172243282Y-98642108D01*
X172243283Y-98642108D01*
X172183683Y-98635701D01*
X172183681Y-98635700D01*
X172183673Y-98635700D01*
X172183664Y-98635700D01*
X170208329Y-98635700D01*
X170208323Y-98635701D01*
X170148716Y-98642108D01*
X170013871Y-98692402D01*
X170013864Y-98692406D01*
X169898655Y-98778652D01*
X169898652Y-98778655D01*
X169812406Y-98893864D01*
X169812402Y-98893872D01*
X169797134Y-98934806D01*
X169755262Y-98990738D01*
X169689797Y-99015154D01*
X169621524Y-99000301D01*
X169604791Y-98989323D01*
X169446477Y-98866102D01*
X169446471Y-98866098D01*
X169236546Y-98752491D01*
X169236541Y-98752489D01*
X169010786Y-98674988D01*
X168853826Y-98648796D01*
X168775347Y-98635700D01*
X168536653Y-98635700D01*
X168477793Y-98645522D01*
X168301213Y-98674988D01*
X168075458Y-98752489D01*
X168075453Y-98752491D01*
X167865529Y-98866098D01*
X167677169Y-99012704D01*
X167515508Y-99188315D01*
X167515506Y-99188317D01*
X167515506Y-99188318D01*
X167492630Y-99223333D01*
X167489808Y-99227652D01*
X167436661Y-99273008D01*
X167367430Y-99282431D01*
X167304094Y-99252928D01*
X167282192Y-99227652D01*
X167256494Y-99188318D01*
X167094832Y-99012705D01*
X166906469Y-98866097D01*
X166801295Y-98809179D01*
X166696546Y-98752491D01*
X166696541Y-98752489D01*
X166470786Y-98674988D01*
X166313826Y-98648796D01*
X166235347Y-98635700D01*
X165996653Y-98635700D01*
X165937793Y-98645522D01*
X165761213Y-98674988D01*
X165535458Y-98752489D01*
X165535453Y-98752491D01*
X165325529Y-98866098D01*
X165137169Y-99012704D01*
X164975508Y-99188315D01*
X164975506Y-99188317D01*
X164975506Y-99188318D01*
X164952630Y-99223333D01*
X164949808Y-99227652D01*
X164896661Y-99273008D01*
X164827430Y-99282431D01*
X164764094Y-99252928D01*
X164742192Y-99227652D01*
X164716494Y-99188318D01*
X164554832Y-99012705D01*
X164366469Y-98866097D01*
X164261295Y-98809179D01*
X164156546Y-98752491D01*
X164156541Y-98752489D01*
X163930786Y-98674988D01*
X163773826Y-98648796D01*
X163695347Y-98635700D01*
X163456653Y-98635700D01*
X163397793Y-98645522D01*
X163221213Y-98674988D01*
X162995458Y-98752489D01*
X162995453Y-98752491D01*
X162785529Y-98866098D01*
X162597169Y-99012704D01*
X162435508Y-99188315D01*
X162435506Y-99188317D01*
X162435506Y-99188318D01*
X162412630Y-99223333D01*
X162409808Y-99227652D01*
X162356661Y-99273008D01*
X162287430Y-99282431D01*
X162224094Y-99252928D01*
X162202192Y-99227652D01*
X162176494Y-99188318D01*
X162014832Y-99012705D01*
X161826469Y-98866097D01*
X161721295Y-98809179D01*
X161616546Y-98752491D01*
X161616541Y-98752489D01*
X161390786Y-98674988D01*
X161233826Y-98648796D01*
X161155347Y-98635700D01*
X160916653Y-98635700D01*
X160857793Y-98645522D01*
X160681213Y-98674988D01*
X160455458Y-98752489D01*
X160455453Y-98752491D01*
X160245529Y-98866098D01*
X160057169Y-99012704D01*
X159895508Y-99188315D01*
X159895506Y-99188317D01*
X159895506Y-99188318D01*
X159872630Y-99223333D01*
X159869808Y-99227652D01*
X159816661Y-99273008D01*
X159747430Y-99282431D01*
X159684094Y-99252928D01*
X159662192Y-99227652D01*
X159636494Y-99188318D01*
X159474832Y-99012705D01*
X159286469Y-98866097D01*
X159181295Y-98809179D01*
X159076546Y-98752491D01*
X159076541Y-98752489D01*
X158850786Y-98674988D01*
X158693826Y-98648796D01*
X158615347Y-98635700D01*
X158376653Y-98635700D01*
X158317793Y-98645522D01*
X158141213Y-98674988D01*
X157915458Y-98752489D01*
X157915453Y-98752491D01*
X157705529Y-98866098D01*
X157517169Y-99012704D01*
X157355508Y-99188315D01*
X157355506Y-99188317D01*
X157355506Y-99188318D01*
X157332630Y-99223333D01*
X157329808Y-99227652D01*
X157276661Y-99273008D01*
X157207430Y-99282431D01*
X157144094Y-99252928D01*
X157122192Y-99227652D01*
X157096494Y-99188318D01*
X156934832Y-99012705D01*
X156746469Y-98866097D01*
X156641295Y-98809179D01*
X156536546Y-98752491D01*
X156536541Y-98752489D01*
X156310786Y-98674988D01*
X156153826Y-98648796D01*
X156075347Y-98635700D01*
X155836653Y-98635700D01*
X155777793Y-98645522D01*
X155601213Y-98674988D01*
X155375458Y-98752489D01*
X155375453Y-98752491D01*
X155165529Y-98866098D01*
X154977169Y-99012704D01*
X154815508Y-99188315D01*
X154815506Y-99188317D01*
X154815506Y-99188318D01*
X154792630Y-99223333D01*
X154789808Y-99227652D01*
X154736661Y-99273008D01*
X154667430Y-99282431D01*
X154604094Y-99252928D01*
X154582192Y-99227652D01*
X154556494Y-99188318D01*
X154394832Y-99012705D01*
X154206469Y-98866097D01*
X154101295Y-98809179D01*
X153996546Y-98752491D01*
X153996541Y-98752489D01*
X153770786Y-98674988D01*
X153613826Y-98648796D01*
X153535347Y-98635700D01*
X153296653Y-98635700D01*
X153237793Y-98645522D01*
X153061213Y-98674988D01*
X152835458Y-98752489D01*
X152835453Y-98752491D01*
X152625529Y-98866098D01*
X152437169Y-99012704D01*
X152275508Y-99188315D01*
X152275506Y-99188317D01*
X152275506Y-99188318D01*
X152252630Y-99223333D01*
X152249808Y-99227652D01*
X152196661Y-99273008D01*
X152127430Y-99282431D01*
X152064094Y-99252928D01*
X152042192Y-99227652D01*
X152016494Y-99188318D01*
X151854832Y-99012705D01*
X151666469Y-98866097D01*
X151561295Y-98809179D01*
X151456546Y-98752491D01*
X151456541Y-98752489D01*
X151230786Y-98674988D01*
X151073826Y-98648796D01*
X150995347Y-98635700D01*
X150756653Y-98635700D01*
X150697793Y-98645522D01*
X150521213Y-98674988D01*
X150295458Y-98752489D01*
X150295453Y-98752491D01*
X150085529Y-98866098D01*
X149897169Y-99012704D01*
X149735508Y-99188315D01*
X149735506Y-99188317D01*
X149735506Y-99188318D01*
X149712630Y-99223333D01*
X149709808Y-99227652D01*
X149656661Y-99273008D01*
X149587430Y-99282431D01*
X149524094Y-99252928D01*
X149502192Y-99227652D01*
X149476494Y-99188318D01*
X149314832Y-99012705D01*
X149126469Y-98866097D01*
X149021295Y-98809179D01*
X148916546Y-98752491D01*
X148916541Y-98752489D01*
X148690786Y-98674988D01*
X148533826Y-98648796D01*
X148455347Y-98635700D01*
X148216653Y-98635700D01*
X148157793Y-98645522D01*
X147981213Y-98674988D01*
X147755458Y-98752489D01*
X147755453Y-98752491D01*
X147545529Y-98866098D01*
X147357169Y-99012704D01*
X147195506Y-99188317D01*
X147064951Y-99388147D01*
X146969070Y-99606732D01*
X146910475Y-99838118D01*
X146910473Y-99838130D01*
X146890764Y-100075994D01*
X146083393Y-100075994D01*
X146031105Y-99880849D01*
X146031101Y-99880840D01*
X145938668Y-99682615D01*
X145895123Y-99620428D01*
X145334962Y-100180589D01*
X145317925Y-100117007D01*
X145252099Y-100002993D01*
X145159007Y-99909901D01*
X145044993Y-99844075D01*
X144981409Y-99827037D01*
X145541571Y-99266874D01*
X145479387Y-99223333D01*
X145281159Y-99130898D01*
X145281150Y-99130894D01*
X145069894Y-99074289D01*
X145069884Y-99074287D01*
X144852001Y-99055225D01*
X144851999Y-99055225D01*
X144634115Y-99074287D01*
X144634105Y-99074289D01*
X144422849Y-99130894D01*
X144422840Y-99130898D01*
X144224614Y-99223332D01*
X144224612Y-99223333D01*
X144162428Y-99266875D01*
X144162427Y-99266875D01*
X144722590Y-99827037D01*
X144659007Y-99844075D01*
X144544993Y-99909901D01*
X144451901Y-100002993D01*
X144386075Y-100117007D01*
X144369037Y-100180590D01*
X143808875Y-99620427D01*
X143808875Y-99620428D01*
X143765333Y-99682612D01*
X143765332Y-99682614D01*
X143694382Y-99834767D01*
X143648209Y-99887206D01*
X143581016Y-99906358D01*
X143514135Y-99886142D01*
X143469618Y-99834767D01*
X143398668Y-99682615D01*
X143355123Y-99620428D01*
X142794962Y-100180589D01*
X142777925Y-100117007D01*
X142712099Y-100002993D01*
X142619007Y-99909901D01*
X142504993Y-99844075D01*
X142441409Y-99827037D01*
X143001571Y-99266874D01*
X142939387Y-99223333D01*
X142741159Y-99130898D01*
X142741150Y-99130894D01*
X142529894Y-99074289D01*
X142529884Y-99074287D01*
X142312001Y-99055225D01*
X142311999Y-99055225D01*
X142094115Y-99074287D01*
X142094105Y-99074289D01*
X141882849Y-99130894D01*
X141882840Y-99130898D01*
X141684614Y-99223332D01*
X141684612Y-99223333D01*
X141622428Y-99266875D01*
X141622427Y-99266875D01*
X142182590Y-99827037D01*
X142119007Y-99844075D01*
X142004993Y-99909901D01*
X141911901Y-100002993D01*
X141846075Y-100117007D01*
X141829037Y-100180590D01*
X141268875Y-99620427D01*
X141268875Y-99620428D01*
X141225333Y-99682612D01*
X141225332Y-99682614D01*
X141154382Y-99834767D01*
X141108209Y-99887206D01*
X141041016Y-99906358D01*
X140974135Y-99886142D01*
X140929618Y-99834767D01*
X140858668Y-99682615D01*
X140815123Y-99620428D01*
X140254962Y-100180589D01*
X140237925Y-100117007D01*
X140172099Y-100002993D01*
X140079007Y-99909901D01*
X139964993Y-99844075D01*
X139901409Y-99827037D01*
X140461571Y-99266874D01*
X140399387Y-99223333D01*
X140201159Y-99130898D01*
X140201150Y-99130894D01*
X139989894Y-99074289D01*
X139989884Y-99074287D01*
X139772001Y-99055225D01*
X139771999Y-99055225D01*
X139554115Y-99074287D01*
X139554105Y-99074289D01*
X139342849Y-99130894D01*
X139342840Y-99130898D01*
X139144614Y-99223332D01*
X139144612Y-99223333D01*
X139082428Y-99266875D01*
X139082427Y-99266875D01*
X139642590Y-99827037D01*
X139579007Y-99844075D01*
X139464993Y-99909901D01*
X139371901Y-100002993D01*
X139306075Y-100117007D01*
X139289037Y-100180590D01*
X138728875Y-99620427D01*
X138728875Y-99620428D01*
X138685333Y-99682612D01*
X138685332Y-99682614D01*
X138614382Y-99834767D01*
X138568209Y-99887206D01*
X138501016Y-99906358D01*
X138434135Y-99886142D01*
X138389618Y-99834767D01*
X138318668Y-99682615D01*
X138275123Y-99620428D01*
X137714962Y-100180589D01*
X137697925Y-100117007D01*
X137632099Y-100002993D01*
X137539007Y-99909901D01*
X137424993Y-99844075D01*
X137361409Y-99827037D01*
X137921571Y-99266874D01*
X137859387Y-99223333D01*
X137661159Y-99130898D01*
X137661150Y-99130894D01*
X137449894Y-99074289D01*
X137449884Y-99074287D01*
X137232001Y-99055225D01*
X137231999Y-99055225D01*
X137014115Y-99074287D01*
X137014105Y-99074289D01*
X136802849Y-99130894D01*
X136802840Y-99130898D01*
X136604614Y-99223332D01*
X136604612Y-99223333D01*
X136542428Y-99266875D01*
X136542427Y-99266875D01*
X137102590Y-99827037D01*
X137039007Y-99844075D01*
X136924993Y-99909901D01*
X136831901Y-100002993D01*
X136766075Y-100117007D01*
X136749037Y-100180590D01*
X136188875Y-99620427D01*
X136188875Y-99620428D01*
X136145333Y-99682612D01*
X136145332Y-99682614D01*
X136052898Y-99880840D01*
X136052894Y-99880849D01*
X135996289Y-100092105D01*
X135996287Y-100092115D01*
X135977225Y-100309999D01*
X135977225Y-100310000D01*
X135996287Y-100527884D01*
X135996289Y-100527894D01*
X136052894Y-100739150D01*
X136052898Y-100739159D01*
X136145333Y-100937387D01*
X136188874Y-100999571D01*
X136749037Y-100439408D01*
X136766075Y-100502993D01*
X136831901Y-100617007D01*
X136924993Y-100710099D01*
X137039007Y-100775925D01*
X137102590Y-100792962D01*
X136542427Y-101353124D01*
X136604613Y-101396667D01*
X136604615Y-101396668D01*
X136756174Y-101467341D01*
X136808614Y-101513513D01*
X136827766Y-101580706D01*
X136807551Y-101647588D01*
X136756176Y-101692105D01*
X136604358Y-101762900D01*
X136604357Y-101762900D01*
X136425121Y-101888402D01*
X136270402Y-102043121D01*
X136144900Y-102222357D01*
X136144898Y-102222361D01*
X136052426Y-102420668D01*
X136052422Y-102420677D01*
X135995793Y-102632020D01*
X135995793Y-102632024D01*
X135976723Y-102849997D01*
X109136300Y-102849997D01*
X109136299Y-101628328D01*
X109129891Y-101568717D01*
X109126772Y-101560355D01*
X109079597Y-101433871D01*
X109079595Y-101433868D01*
X109078653Y-101432610D01*
X109069446Y-101420311D01*
X109045029Y-101354848D01*
X109059880Y-101286575D01*
X109069447Y-101271688D01*
X109079596Y-101258131D01*
X109129891Y-101123283D01*
X109136300Y-101063673D01*
X109136299Y-99088328D01*
X109129891Y-99028717D01*
X109124832Y-99015154D01*
X109079597Y-98893871D01*
X109079593Y-98893864D01*
X108993347Y-98778655D01*
X108993344Y-98778652D01*
X108878135Y-98692406D01*
X108878128Y-98692402D01*
X108743282Y-98642108D01*
X108743283Y-98642108D01*
X108683683Y-98635701D01*
X108683681Y-98635700D01*
X108683673Y-98635700D01*
X108683664Y-98635700D01*
X106708329Y-98635700D01*
X106708323Y-98635701D01*
X106648716Y-98642108D01*
X106513871Y-98692402D01*
X106513864Y-98692406D01*
X106398655Y-98778652D01*
X106398652Y-98778655D01*
X106312406Y-98893864D01*
X106312402Y-98893872D01*
X106297134Y-98934806D01*
X106255262Y-98990738D01*
X106189797Y-99015154D01*
X106121524Y-99000301D01*
X106104791Y-98989323D01*
X105946477Y-98866102D01*
X105946471Y-98866098D01*
X105736546Y-98752491D01*
X105736541Y-98752489D01*
X105510786Y-98674988D01*
X105353826Y-98648796D01*
X105275347Y-98635700D01*
X105036653Y-98635700D01*
X104977793Y-98645522D01*
X104801213Y-98674988D01*
X104575458Y-98752489D01*
X104575453Y-98752491D01*
X104365529Y-98866098D01*
X104177169Y-99012704D01*
X104015508Y-99188315D01*
X104015506Y-99188317D01*
X104015506Y-99188318D01*
X103992630Y-99223333D01*
X103989808Y-99227652D01*
X103936661Y-99273008D01*
X103867430Y-99282431D01*
X103804094Y-99252928D01*
X103782192Y-99227652D01*
X103756494Y-99188318D01*
X103594832Y-99012705D01*
X103406469Y-98866097D01*
X103301295Y-98809179D01*
X103196546Y-98752491D01*
X103196541Y-98752489D01*
X102970786Y-98674988D01*
X102813826Y-98648796D01*
X102735347Y-98635700D01*
X102496653Y-98635700D01*
X102437793Y-98645522D01*
X102261213Y-98674988D01*
X102035458Y-98752489D01*
X102035453Y-98752491D01*
X101825529Y-98866098D01*
X101637169Y-99012704D01*
X101475508Y-99188315D01*
X101475506Y-99188317D01*
X101475506Y-99188318D01*
X101452630Y-99223333D01*
X101449808Y-99227652D01*
X101396661Y-99273008D01*
X101327430Y-99282431D01*
X101264094Y-99252928D01*
X101242192Y-99227652D01*
X101216494Y-99188318D01*
X101054832Y-99012705D01*
X100866469Y-98866097D01*
X100761295Y-98809179D01*
X100656546Y-98752491D01*
X100656541Y-98752489D01*
X100430786Y-98674988D01*
X100273826Y-98648796D01*
X100195347Y-98635700D01*
X99956653Y-98635700D01*
X99897793Y-98645522D01*
X99721213Y-98674988D01*
X99495458Y-98752489D01*
X99495453Y-98752491D01*
X99285529Y-98866098D01*
X99097169Y-99012704D01*
X98935508Y-99188315D01*
X98935506Y-99188317D01*
X98935506Y-99188318D01*
X98912630Y-99223333D01*
X98909808Y-99227652D01*
X98856661Y-99273008D01*
X98787430Y-99282431D01*
X98724094Y-99252928D01*
X98702192Y-99227652D01*
X98676494Y-99188318D01*
X98514832Y-99012705D01*
X98326469Y-98866097D01*
X98221295Y-98809179D01*
X98116546Y-98752491D01*
X98116541Y-98752489D01*
X97890786Y-98674988D01*
X97733826Y-98648796D01*
X97655347Y-98635700D01*
X97416653Y-98635700D01*
X97357793Y-98645522D01*
X97181213Y-98674988D01*
X96955458Y-98752489D01*
X96955453Y-98752491D01*
X96745529Y-98866098D01*
X96557169Y-99012704D01*
X96395508Y-99188315D01*
X96395506Y-99188317D01*
X96395506Y-99188318D01*
X96372630Y-99223333D01*
X96369808Y-99227652D01*
X96316661Y-99273008D01*
X96247430Y-99282431D01*
X96184094Y-99252928D01*
X96162192Y-99227652D01*
X96136494Y-99188318D01*
X95974832Y-99012705D01*
X95786469Y-98866097D01*
X95681295Y-98809179D01*
X95576546Y-98752491D01*
X95576541Y-98752489D01*
X95350786Y-98674988D01*
X95193826Y-98648796D01*
X95115347Y-98635700D01*
X94876653Y-98635700D01*
X94817793Y-98645522D01*
X94641213Y-98674988D01*
X94415458Y-98752489D01*
X94415453Y-98752491D01*
X94205529Y-98866098D01*
X94017169Y-99012704D01*
X93855508Y-99188315D01*
X93855506Y-99188317D01*
X93855506Y-99188318D01*
X93832630Y-99223333D01*
X93829808Y-99227652D01*
X93776661Y-99273008D01*
X93707430Y-99282431D01*
X93644094Y-99252928D01*
X93622192Y-99227652D01*
X93596494Y-99188318D01*
X93434832Y-99012705D01*
X93246469Y-98866097D01*
X93141295Y-98809179D01*
X93036546Y-98752491D01*
X93036541Y-98752489D01*
X92810786Y-98674988D01*
X92653826Y-98648796D01*
X92575347Y-98635700D01*
X92336653Y-98635700D01*
X92277793Y-98645522D01*
X92101213Y-98674988D01*
X91875458Y-98752489D01*
X91875453Y-98752491D01*
X91665529Y-98866098D01*
X91477169Y-99012704D01*
X91315508Y-99188315D01*
X91315506Y-99188317D01*
X91315506Y-99188318D01*
X91292630Y-99223333D01*
X91289808Y-99227652D01*
X91236661Y-99273008D01*
X91167430Y-99282431D01*
X91104094Y-99252928D01*
X91082192Y-99227652D01*
X91056494Y-99188318D01*
X90894832Y-99012705D01*
X90706469Y-98866097D01*
X90601295Y-98809179D01*
X90496546Y-98752491D01*
X90496541Y-98752489D01*
X90270786Y-98674988D01*
X90113826Y-98648796D01*
X90035347Y-98635700D01*
X89796653Y-98635700D01*
X89737793Y-98645522D01*
X89561213Y-98674988D01*
X89335458Y-98752489D01*
X89335453Y-98752491D01*
X89125529Y-98866098D01*
X88937169Y-99012704D01*
X88775508Y-99188315D01*
X88775506Y-99188317D01*
X88775506Y-99188318D01*
X88752630Y-99223333D01*
X88749808Y-99227652D01*
X88696661Y-99273008D01*
X88627430Y-99282431D01*
X88564094Y-99252928D01*
X88542192Y-99227652D01*
X88516494Y-99188318D01*
X88354832Y-99012705D01*
X88166469Y-98866097D01*
X88061295Y-98809179D01*
X87956546Y-98752491D01*
X87956541Y-98752489D01*
X87730786Y-98674988D01*
X87573826Y-98648796D01*
X87495347Y-98635700D01*
X87256653Y-98635700D01*
X87197793Y-98645522D01*
X87021213Y-98674988D01*
X86795458Y-98752489D01*
X86795453Y-98752491D01*
X86585529Y-98866098D01*
X86397169Y-99012704D01*
X86235508Y-99188315D01*
X86235506Y-99188317D01*
X86235506Y-99188318D01*
X86212630Y-99223333D01*
X86209808Y-99227652D01*
X86156661Y-99273008D01*
X86087430Y-99282431D01*
X86024094Y-99252928D01*
X86002192Y-99227652D01*
X85976494Y-99188318D01*
X85814832Y-99012705D01*
X85626469Y-98866097D01*
X85521295Y-98809179D01*
X85416546Y-98752491D01*
X85416541Y-98752489D01*
X85190786Y-98674988D01*
X85033826Y-98648796D01*
X84955347Y-98635700D01*
X84716653Y-98635700D01*
X84657793Y-98645522D01*
X84481213Y-98674988D01*
X84255458Y-98752489D01*
X84255453Y-98752491D01*
X84045529Y-98866098D01*
X83857169Y-99012704D01*
X83695506Y-99188317D01*
X83564951Y-99388147D01*
X83469070Y-99606732D01*
X83410475Y-99838118D01*
X83410473Y-99838130D01*
X83390764Y-100075994D01*
X81022821Y-100075994D01*
X81003575Y-99856023D01*
X81003573Y-99856013D01*
X80946424Y-99642729D01*
X80946420Y-99642720D01*
X80853096Y-99442586D01*
X80807741Y-99377811D01*
X80807740Y-99377810D01*
X80245494Y-99940056D01*
X80229381Y-99879919D01*
X80162502Y-99764080D01*
X80067920Y-99669498D01*
X79952081Y-99602619D01*
X79891941Y-99586504D01*
X80454188Y-99024258D01*
X80389411Y-98978901D01*
X80389405Y-98978898D01*
X80189284Y-98885580D01*
X80189270Y-98885575D01*
X79975986Y-98828426D01*
X79975976Y-98828424D01*
X79756001Y-98809179D01*
X79755999Y-98809179D01*
X79536023Y-98828424D01*
X79536013Y-98828426D01*
X79322729Y-98885575D01*
X79322720Y-98885579D01*
X79122590Y-98978901D01*
X79057811Y-99024258D01*
X79620058Y-99586504D01*
X79559919Y-99602619D01*
X79444080Y-99669498D01*
X79349498Y-99764080D01*
X79282619Y-99879919D01*
X79266504Y-99940057D01*
X78704258Y-99377811D01*
X78658901Y-99442590D01*
X78598382Y-99572373D01*
X78552209Y-99624812D01*
X78485016Y-99643964D01*
X78418135Y-99623748D01*
X78373618Y-99572373D01*
X78313096Y-99442586D01*
X78267741Y-99377811D01*
X78267740Y-99377810D01*
X77705494Y-99940056D01*
X77689381Y-99879919D01*
X77622502Y-99764080D01*
X77527920Y-99669498D01*
X77412081Y-99602619D01*
X77351941Y-99586504D01*
X77914188Y-99024258D01*
X77849411Y-98978901D01*
X77849405Y-98978898D01*
X77649284Y-98885580D01*
X77649270Y-98885575D01*
X77435986Y-98828426D01*
X77435976Y-98828424D01*
X77216001Y-98809179D01*
X77215999Y-98809179D01*
X76996023Y-98828424D01*
X76996013Y-98828426D01*
X76782729Y-98885575D01*
X76782720Y-98885579D01*
X76582590Y-98978901D01*
X76517811Y-99024258D01*
X77080058Y-99586504D01*
X77019919Y-99602619D01*
X76904080Y-99669498D01*
X76809498Y-99764080D01*
X76742619Y-99879919D01*
X76726504Y-99940057D01*
X76164257Y-99377810D01*
X76164075Y-99378072D01*
X76109498Y-99421698D01*
X76040000Y-99428892D01*
X75977645Y-99397370D01*
X75942230Y-99337141D01*
X75938499Y-99306950D01*
X75938499Y-99266129D01*
X75938498Y-99266123D01*
X75938497Y-99266116D01*
X75932091Y-99206517D01*
X75925303Y-99188318D01*
X75881797Y-99071671D01*
X75881793Y-99071664D01*
X75795547Y-98956455D01*
X75795544Y-98956452D01*
X75680335Y-98870206D01*
X75680328Y-98870202D01*
X75545482Y-98819908D01*
X75545483Y-98819908D01*
X75485883Y-98813501D01*
X75485881Y-98813500D01*
X75485873Y-98813500D01*
X75485864Y-98813500D01*
X73866129Y-98813500D01*
X73866123Y-98813501D01*
X73806516Y-98819908D01*
X73671671Y-98870202D01*
X73671664Y-98870206D01*
X73556455Y-98956452D01*
X73556452Y-98956455D01*
X73470206Y-99071664D01*
X73470202Y-99071671D01*
X73419908Y-99206517D01*
X73414919Y-99252928D01*
X73413501Y-99266123D01*
X73413500Y-99266135D01*
X72898000Y-99266135D01*
X72898000Y-96145530D01*
X74108000Y-96145530D01*
X74108000Y-96386469D01*
X74139447Y-96625341D01*
X74201808Y-96858073D01*
X74294006Y-97080662D01*
X74294011Y-97080671D01*
X74414480Y-97289329D01*
X74414483Y-97289334D01*
X74414485Y-97289336D01*
X74561151Y-97480476D01*
X74561157Y-97480483D01*
X74731516Y-97650842D01*
X74731522Y-97650847D01*
X74922671Y-97797520D01*
X75131329Y-97917989D01*
X75131332Y-97917990D01*
X75131337Y-97917993D01*
X75251424Y-97967734D01*
X75353927Y-98010192D01*
X75586655Y-98072552D01*
X75765812Y-98096138D01*
X75825530Y-98104000D01*
X75825531Y-98104000D01*
X76066470Y-98104000D01*
X76114244Y-98097710D01*
X76305345Y-98072552D01*
X76538073Y-98010192D01*
X76713053Y-97937712D01*
X76760662Y-97917993D01*
X76760663Y-97917991D01*
X76760671Y-97917989D01*
X76969329Y-97797520D01*
X77160478Y-97650847D01*
X77330847Y-97480478D01*
X77477520Y-97289329D01*
X77597989Y-97080671D01*
X77690192Y-96858073D01*
X77752552Y-96625345D01*
X77784000Y-96386469D01*
X77784000Y-96145531D01*
X77752552Y-95906655D01*
X77690192Y-95673927D01*
X77647734Y-95571424D01*
X77597993Y-95451337D01*
X77597988Y-95451328D01*
X77477520Y-95242671D01*
X77330847Y-95051522D01*
X77330842Y-95051516D01*
X77160483Y-94881157D01*
X77160476Y-94881151D01*
X76969336Y-94734485D01*
X76969334Y-94734483D01*
X76969329Y-94734480D01*
X76760671Y-94614011D01*
X76760662Y-94614006D01*
X76538073Y-94521808D01*
X76305341Y-94459447D01*
X76066470Y-94428000D01*
X76066469Y-94428000D01*
X75825531Y-94428000D01*
X75825530Y-94428000D01*
X75586658Y-94459447D01*
X75353926Y-94521808D01*
X75131337Y-94614006D01*
X75131328Y-94614011D01*
X75005644Y-94686575D01*
X74922671Y-94734480D01*
X74922668Y-94734481D01*
X74922663Y-94734485D01*
X74731523Y-94881151D01*
X74731516Y-94881157D01*
X74561157Y-95051516D01*
X74561151Y-95051523D01*
X74414485Y-95242663D01*
X74294011Y-95451328D01*
X74294006Y-95451337D01*
X74201808Y-95673926D01*
X74139447Y-95906658D01*
X74108000Y-96145530D01*
X72898000Y-96145530D01*
X72898000Y-85678135D01*
X81169500Y-85678135D01*
X81169500Y-87043870D01*
X81169501Y-87043876D01*
X81175908Y-87103483D01*
X81226202Y-87238328D01*
X81226206Y-87238335D01*
X81312452Y-87353544D01*
X81312455Y-87353547D01*
X81427664Y-87439793D01*
X81427671Y-87439797D01*
X81562517Y-87490091D01*
X81562516Y-87490091D01*
X81569444Y-87490835D01*
X81622127Y-87496500D01*
X82987872Y-87496499D01*
X83047483Y-87490091D01*
X83182331Y-87439796D01*
X83297546Y-87353546D01*
X83383796Y-87238331D01*
X83434091Y-87103483D01*
X83440500Y-87043873D01*
X83440499Y-86360999D01*
X83705138Y-86360999D01*
X83705138Y-86361000D01*
X83724545Y-86570444D01*
X83782111Y-86772769D01*
X83875870Y-86961059D01*
X83882545Y-86969899D01*
X84464000Y-86388445D01*
X84464000Y-86411160D01*
X84489964Y-86508061D01*
X84540124Y-86594940D01*
X84611060Y-86665876D01*
X84697939Y-86716036D01*
X84794840Y-86742000D01*
X84817554Y-86742000D01*
X84238889Y-87320663D01*
X84238889Y-87320664D01*
X84336919Y-87381362D01*
X84336920Y-87381363D01*
X84533063Y-87457348D01*
X84739829Y-87496000D01*
X84950171Y-87496000D01*
X85156935Y-87457348D01*
X85156936Y-87457348D01*
X85353079Y-87381362D01*
X85353083Y-87381360D01*
X85451109Y-87320663D01*
X84872447Y-86742000D01*
X84895160Y-86742000D01*
X84992061Y-86716036D01*
X85078940Y-86665876D01*
X85149876Y-86594940D01*
X85200036Y-86508061D01*
X85226000Y-86411160D01*
X85226000Y-86388446D01*
X85807454Y-86969900D01*
X85814128Y-86961062D01*
X85907888Y-86772769D01*
X85965454Y-86570444D01*
X85984862Y-86361000D01*
X85984862Y-86360999D01*
X91324635Y-86360999D01*
X91324635Y-86361000D01*
X91344051Y-86570537D01*
X91344051Y-86570539D01*
X91344052Y-86570542D01*
X91401641Y-86772947D01*
X91495442Y-86961325D01*
X91557779Y-87043873D01*
X91622261Y-87129260D01*
X91777776Y-87271030D01*
X91777778Y-87271032D01*
X91956692Y-87381811D01*
X91956698Y-87381814D01*
X91998268Y-87397918D01*
X92152924Y-87457832D01*
X92359780Y-87496500D01*
X92359782Y-87496500D01*
X92570218Y-87496500D01*
X92570220Y-87496500D01*
X92777076Y-87457832D01*
X92973304Y-87381813D01*
X93152223Y-87271031D01*
X93307740Y-87129259D01*
X93434558Y-86961325D01*
X93528359Y-86772947D01*
X93585948Y-86570542D01*
X93605365Y-86361000D01*
X93605365Y-86360999D01*
X96404635Y-86360999D01*
X96404635Y-86361000D01*
X96424051Y-86570537D01*
X96424051Y-86570539D01*
X96424052Y-86570542D01*
X96481641Y-86772947D01*
X96575442Y-86961325D01*
X96637779Y-87043873D01*
X96702261Y-87129260D01*
X96857776Y-87271030D01*
X96857778Y-87271032D01*
X97036692Y-87381811D01*
X97036698Y-87381814D01*
X97078268Y-87397918D01*
X97232924Y-87457832D01*
X97439780Y-87496500D01*
X97439782Y-87496500D01*
X97650218Y-87496500D01*
X97650220Y-87496500D01*
X97857076Y-87457832D01*
X98053304Y-87381813D01*
X98232223Y-87271031D01*
X98387740Y-87129259D01*
X98514558Y-86961325D01*
X98608359Y-86772947D01*
X98665948Y-86570542D01*
X98685365Y-86361000D01*
X98665948Y-86151458D01*
X98608359Y-85949053D01*
X98514558Y-85760675D01*
X98387740Y-85592741D01*
X98232223Y-85450969D01*
X98232221Y-85450967D01*
X98053307Y-85340188D01*
X98053301Y-85340185D01*
X97898648Y-85280273D01*
X97857076Y-85264168D01*
X97650220Y-85225500D01*
X97439780Y-85225500D01*
X97232924Y-85264168D01*
X97232921Y-85264168D01*
X97232921Y-85264169D01*
X97036698Y-85340185D01*
X97036692Y-85340188D01*
X96857778Y-85450967D01*
X96857776Y-85450969D01*
X96702261Y-85592739D01*
X96575442Y-85760674D01*
X96481642Y-85949049D01*
X96424051Y-86151462D01*
X96404635Y-86360999D01*
X93605365Y-86360999D01*
X93585948Y-86151458D01*
X93528359Y-85949053D01*
X93434558Y-85760675D01*
X93307740Y-85592741D01*
X93152223Y-85450969D01*
X93152221Y-85450967D01*
X92973307Y-85340188D01*
X92973301Y-85340185D01*
X92818648Y-85280273D01*
X92777076Y-85264168D01*
X92570220Y-85225500D01*
X92359780Y-85225500D01*
X92152924Y-85264168D01*
X92152921Y-85264168D01*
X92152921Y-85264169D01*
X91956698Y-85340185D01*
X91956692Y-85340188D01*
X91777778Y-85450967D01*
X91777776Y-85450969D01*
X91622261Y-85592739D01*
X91495442Y-85760674D01*
X91401642Y-85949049D01*
X91344051Y-86151462D01*
X91324635Y-86360999D01*
X85984862Y-86360999D01*
X85965454Y-86151555D01*
X85907888Y-85949230D01*
X85814129Y-85760939D01*
X85807454Y-85752099D01*
X85226000Y-86333553D01*
X85226000Y-86310840D01*
X85200036Y-86213939D01*
X85149876Y-86127060D01*
X85078940Y-86056124D01*
X84992061Y-86005964D01*
X84895160Y-85980000D01*
X84872447Y-85980000D01*
X85451110Y-85401335D01*
X85353080Y-85340637D01*
X85353079Y-85340636D01*
X85156936Y-85264651D01*
X84950171Y-85226000D01*
X84739829Y-85226000D01*
X84533064Y-85264651D01*
X84533063Y-85264651D01*
X84336922Y-85340636D01*
X84336916Y-85340638D01*
X84238889Y-85401334D01*
X84238888Y-85401335D01*
X84817554Y-85980000D01*
X84794840Y-85980000D01*
X84697939Y-86005964D01*
X84611060Y-86056124D01*
X84540124Y-86127060D01*
X84489964Y-86213939D01*
X84464000Y-86310840D01*
X84464000Y-86333554D01*
X83882545Y-85752099D01*
X83882544Y-85752099D01*
X83875873Y-85760935D01*
X83875868Y-85760942D01*
X83782111Y-85949230D01*
X83724545Y-86151555D01*
X83705138Y-86360999D01*
X83440499Y-86360999D01*
X83440499Y-85678128D01*
X83434091Y-85618517D01*
X83426448Y-85598026D01*
X83383797Y-85483671D01*
X83383793Y-85483664D01*
X83297547Y-85368455D01*
X83297544Y-85368452D01*
X83182335Y-85282206D01*
X83182328Y-85282202D01*
X83047482Y-85231908D01*
X83047483Y-85231908D01*
X82987883Y-85225501D01*
X82987881Y-85225500D01*
X82987873Y-85225500D01*
X82987864Y-85225500D01*
X81622129Y-85225500D01*
X81622123Y-85225501D01*
X81562516Y-85231908D01*
X81427671Y-85282202D01*
X81427664Y-85282206D01*
X81312455Y-85368452D01*
X81312452Y-85368455D01*
X81226206Y-85483664D01*
X81226202Y-85483671D01*
X81175908Y-85618517D01*
X81169501Y-85678116D01*
X81169501Y-85678123D01*
X81169500Y-85678135D01*
X72898000Y-85678135D01*
X72898000Y-82688135D01*
X114312500Y-82688135D01*
X114312500Y-85183870D01*
X114312501Y-85183876D01*
X114318908Y-85243483D01*
X114369202Y-85378328D01*
X114369206Y-85378335D01*
X114455452Y-85493544D01*
X114455455Y-85493547D01*
X114570664Y-85579793D01*
X114570671Y-85579797D01*
X114705517Y-85630091D01*
X114705516Y-85630091D01*
X114712444Y-85630835D01*
X114765127Y-85636500D01*
X117260872Y-85636499D01*
X117320483Y-85630091D01*
X117455331Y-85579796D01*
X117570546Y-85493546D01*
X117656796Y-85378331D01*
X117707091Y-85243483D01*
X117713500Y-85183873D01*
X117713499Y-83935995D01*
X121808233Y-83935995D01*
X121808233Y-83936004D01*
X121827273Y-84190079D01*
X121883968Y-84438477D01*
X121883973Y-84438494D01*
X121977058Y-84675671D01*
X121977057Y-84675671D01*
X122104457Y-84896332D01*
X122146452Y-84948993D01*
X122948387Y-84147058D01*
X122953889Y-84167591D01*
X123032881Y-84304408D01*
X123144592Y-84416119D01*
X123281409Y-84495111D01*
X123301940Y-84500612D01*
X122499813Y-85302737D01*
X122660623Y-85412375D01*
X122660624Y-85412376D01*
X122890176Y-85522921D01*
X122890174Y-85522921D01*
X123133652Y-85598024D01*
X123133658Y-85598026D01*
X123385595Y-85635999D01*
X123385604Y-85636000D01*
X123640396Y-85636000D01*
X123640404Y-85635999D01*
X123892341Y-85598026D01*
X123892347Y-85598024D01*
X124135824Y-85522921D01*
X124365381Y-85412373D01*
X124526185Y-85302737D01*
X123724059Y-84500612D01*
X123744591Y-84495111D01*
X123881408Y-84416119D01*
X123993119Y-84304408D01*
X124072111Y-84167591D01*
X124077612Y-84147059D01*
X124879545Y-84948993D01*
X124921545Y-84896327D01*
X125048941Y-84675671D01*
X125142026Y-84438494D01*
X125142031Y-84438477D01*
X125198726Y-84190079D01*
X125217767Y-83936004D01*
X125217767Y-83935995D01*
X125198726Y-83681920D01*
X125142031Y-83433522D01*
X125142026Y-83433505D01*
X125048941Y-83196328D01*
X125048942Y-83196328D01*
X124921544Y-82975671D01*
X124879546Y-82923006D01*
X124077612Y-83724939D01*
X124072111Y-83704409D01*
X123993119Y-83567592D01*
X123881408Y-83455881D01*
X123744591Y-83376889D01*
X123724058Y-83371387D01*
X124526185Y-82569261D01*
X124365377Y-82459624D01*
X124365376Y-82459623D01*
X124135823Y-82349078D01*
X124135825Y-82349078D01*
X123892347Y-82273975D01*
X123892341Y-82273973D01*
X123640404Y-82236000D01*
X123385595Y-82236000D01*
X123133658Y-82273973D01*
X123133652Y-82273975D01*
X122890175Y-82349078D01*
X122660624Y-82459623D01*
X122660616Y-82459628D01*
X122499813Y-82569261D01*
X123301940Y-83371387D01*
X123281409Y-83376889D01*
X123144592Y-83455881D01*
X123032881Y-83567592D01*
X122953889Y-83704409D01*
X122948387Y-83724940D01*
X122146453Y-82923006D01*
X122104455Y-82975670D01*
X121977058Y-83196328D01*
X121883973Y-83433505D01*
X121883968Y-83433522D01*
X121827273Y-83681920D01*
X121808233Y-83935995D01*
X117713499Y-83935995D01*
X117713499Y-82688128D01*
X117707091Y-82628517D01*
X117656796Y-82493669D01*
X117656795Y-82493668D01*
X117656793Y-82493664D01*
X117570547Y-82378455D01*
X117570544Y-82378452D01*
X117455335Y-82292206D01*
X117455328Y-82292202D01*
X117320482Y-82241908D01*
X117320483Y-82241908D01*
X117260883Y-82235501D01*
X117260881Y-82235500D01*
X117260873Y-82235500D01*
X117260864Y-82235500D01*
X114765129Y-82235500D01*
X114765123Y-82235501D01*
X114705516Y-82241908D01*
X114570671Y-82292202D01*
X114570664Y-82292206D01*
X114455455Y-82378452D01*
X114455452Y-82378455D01*
X114369206Y-82493664D01*
X114369202Y-82493671D01*
X114318908Y-82628517D01*
X114312501Y-82688116D01*
X114312501Y-82688123D01*
X114312500Y-82688135D01*
X72898000Y-82688135D01*
X72898000Y-73749998D01*
X153489645Y-73749998D01*
X153489645Y-73750001D01*
X153509039Y-74021160D01*
X153509040Y-74021167D01*
X153566823Y-74286793D01*
X153566825Y-74286801D01*
X153643330Y-74491920D01*
X153661830Y-74541519D01*
X153792109Y-74780107D01*
X153792110Y-74780108D01*
X153792113Y-74780113D01*
X153955029Y-74997742D01*
X153955033Y-74997746D01*
X153955038Y-74997752D01*
X154147247Y-75189961D01*
X154147253Y-75189966D01*
X154147258Y-75189971D01*
X154364887Y-75352887D01*
X154364891Y-75352889D01*
X154364892Y-75352890D01*
X154603481Y-75483169D01*
X154603480Y-75483169D01*
X154603484Y-75483170D01*
X154603487Y-75483172D01*
X154858199Y-75578175D01*
X155123840Y-75635961D01*
X155375605Y-75653967D01*
X155394999Y-75655355D01*
X155395000Y-75655355D01*
X155395001Y-75655355D01*
X155413100Y-75654060D01*
X155666160Y-75635961D01*
X155931801Y-75578175D01*
X156186513Y-75483172D01*
X156186517Y-75483169D01*
X156186519Y-75483169D01*
X156305813Y-75418029D01*
X156425113Y-75352887D01*
X156642742Y-75189971D01*
X156834971Y-74997742D01*
X156997887Y-74780113D01*
X157128172Y-74541513D01*
X157223175Y-74286801D01*
X157280961Y-74021160D01*
X157300355Y-73750000D01*
X157280961Y-73478840D01*
X157223175Y-73213199D01*
X157128172Y-72958487D01*
X157128170Y-72958484D01*
X157128169Y-72958480D01*
X156997890Y-72719892D01*
X156997889Y-72719891D01*
X156997887Y-72719887D01*
X156834971Y-72502258D01*
X156834966Y-72502253D01*
X156834961Y-72502247D01*
X156642752Y-72310038D01*
X156642746Y-72310033D01*
X156642742Y-72310029D01*
X156425113Y-72147113D01*
X156425108Y-72147110D01*
X156425107Y-72147109D01*
X156186518Y-72016830D01*
X156186519Y-72016830D01*
X156136920Y-71998330D01*
X155931801Y-71921825D01*
X155931794Y-71921823D01*
X155931793Y-71921823D01*
X155666167Y-71864040D01*
X155666160Y-71864039D01*
X155395001Y-71844645D01*
X155394999Y-71844645D01*
X155123839Y-71864039D01*
X155123832Y-71864040D01*
X154858206Y-71921823D01*
X154858202Y-71921824D01*
X154858199Y-71921825D01*
X154730843Y-71969326D01*
X154603480Y-72016830D01*
X154364892Y-72147109D01*
X154364891Y-72147110D01*
X154147259Y-72310028D01*
X154147247Y-72310038D01*
X153955038Y-72502247D01*
X153955028Y-72502259D01*
X153792110Y-72719891D01*
X153792109Y-72719892D01*
X153661830Y-72958480D01*
X153614326Y-73085843D01*
X153566825Y-73213199D01*
X153566824Y-73213202D01*
X153566823Y-73213206D01*
X153509040Y-73478832D01*
X153509039Y-73478839D01*
X153489645Y-73749998D01*
X72898000Y-73749998D01*
X72898000Y-69694543D01*
X111775499Y-69694543D01*
X111813947Y-69887829D01*
X111813950Y-69887839D01*
X111889364Y-70069907D01*
X111889371Y-70069920D01*
X111998860Y-70233781D01*
X111998863Y-70233785D01*
X112138214Y-70373136D01*
X112138218Y-70373139D01*
X112302079Y-70482628D01*
X112302092Y-70482635D01*
X112484160Y-70558049D01*
X112484165Y-70558051D01*
X112484169Y-70558051D01*
X112484170Y-70558052D01*
X112677456Y-70596500D01*
X112677459Y-70596500D01*
X118615542Y-70596500D01*
X118634870Y-70592655D01*
X118712188Y-70577275D01*
X118808836Y-70558051D01*
X118862165Y-70535961D01*
X118990914Y-70482632D01*
X119154782Y-70373139D01*
X119294139Y-70233782D01*
X119294140Y-70233780D01*
X119464139Y-70063782D01*
X119486357Y-70030530D01*
X119573632Y-69899914D01*
X119649051Y-69717835D01*
X119687500Y-69524541D01*
X119687500Y-68579214D01*
X119707185Y-68512175D01*
X119723819Y-68491533D01*
X119741482Y-68473870D01*
X119795286Y-68420066D01*
X119929717Y-68235038D01*
X120033548Y-68031258D01*
X120104222Y-67813745D01*
X120140000Y-67587854D01*
X120140000Y-67264146D01*
X120104222Y-67038255D01*
X120104221Y-67038251D01*
X120104221Y-67038250D01*
X120033549Y-66820744D01*
X120033548Y-66820742D01*
X119929717Y-66616962D01*
X119795286Y-66431934D01*
X119633566Y-66270214D01*
X119448538Y-66135783D01*
X119244755Y-66031950D01*
X119027248Y-65961278D01*
X118841812Y-65931908D01*
X118801354Y-65925500D01*
X118572646Y-65925500D01*
X118532188Y-65931908D01*
X118346753Y-65961278D01*
X118346750Y-65961278D01*
X118129244Y-66031950D01*
X117925461Y-66135783D01*
X117859550Y-66183671D01*
X117740434Y-66270214D01*
X117740432Y-66270216D01*
X117740431Y-66270216D01*
X117578715Y-66431932D01*
X117517318Y-66516438D01*
X117461987Y-66559103D01*
X117392374Y-66565082D01*
X117330579Y-66532476D01*
X117316682Y-66516438D01*
X117305773Y-66501423D01*
X117255286Y-66431934D01*
X117093566Y-66270214D01*
X116908538Y-66135783D01*
X116704755Y-66031950D01*
X116487248Y-65961278D01*
X116301812Y-65931908D01*
X116261354Y-65925500D01*
X116032646Y-65925500D01*
X115992188Y-65931908D01*
X115806753Y-65961278D01*
X115806750Y-65961278D01*
X115589244Y-66031950D01*
X115385461Y-66135783D01*
X115202759Y-66268525D01*
X115136952Y-66292005D01*
X115068898Y-66276180D01*
X115020203Y-66226074D01*
X115013690Y-66211538D01*
X115003296Y-66183669D01*
X115003293Y-66183664D01*
X114917047Y-66068455D01*
X114917044Y-66068452D01*
X114801835Y-65982206D01*
X114801828Y-65982202D01*
X114666982Y-65931908D01*
X114666983Y-65931908D01*
X114607383Y-65925501D01*
X114607381Y-65925500D01*
X114607373Y-65925500D01*
X114607364Y-65925500D01*
X112606629Y-65925500D01*
X112606623Y-65925501D01*
X112547016Y-65931908D01*
X112412171Y-65982202D01*
X112412164Y-65982206D01*
X112296955Y-66068452D01*
X112296952Y-66068455D01*
X112210706Y-66183664D01*
X112210702Y-66183671D01*
X112160408Y-66318517D01*
X112154001Y-66378116D01*
X112154000Y-66378135D01*
X112154000Y-68473870D01*
X112154001Y-68473876D01*
X112160409Y-68533484D01*
X112206899Y-68658133D01*
X112211883Y-68727824D01*
X112178397Y-68789147D01*
X112159611Y-68804565D01*
X112138219Y-68818859D01*
X112138214Y-68818863D01*
X111998863Y-68958214D01*
X111998860Y-68958218D01*
X111889371Y-69122079D01*
X111889364Y-69122092D01*
X111813950Y-69304160D01*
X111813947Y-69304170D01*
X111775500Y-69497456D01*
X111775500Y-69497459D01*
X111775500Y-69694541D01*
X111775500Y-69694543D01*
X111775499Y-69694543D01*
X72898000Y-69694543D01*
X72898000Y-51815993D01*
X73916968Y-51815993D01*
X73916968Y-51816006D01*
X73937086Y-52289631D01*
X73997304Y-52759874D01*
X74097181Y-53223306D01*
X74097183Y-53223314D01*
X74235999Y-53676598D01*
X74236004Y-53676612D01*
X74412755Y-54116471D01*
X74412759Y-54116482D01*
X74626179Y-54539774D01*
X74626189Y-54539794D01*
X74874750Y-54943481D01*
X75156648Y-55324633D01*
X75156654Y-55324641D01*
X75382825Y-55581620D01*
X77174818Y-53789627D01*
X77224208Y-53851560D01*
X77466440Y-54093792D01*
X77528371Y-54143180D01*
X75735983Y-55935568D01*
X75812120Y-56008537D01*
X75812122Y-56008538D01*
X76180952Y-56306348D01*
X76180953Y-56306349D01*
X76573716Y-56571809D01*
X76573735Y-56571821D01*
X76987588Y-56803014D01*
X76987610Y-56803025D01*
X77419579Y-56998288D01*
X77419585Y-56998290D01*
X77866579Y-57156223D01*
X78325351Y-57275677D01*
X78792597Y-57355795D01*
X78792605Y-57355796D01*
X79264946Y-57395999D01*
X79264966Y-57396000D01*
X79739034Y-57396000D01*
X79739053Y-57395999D01*
X80211394Y-57355796D01*
X80211402Y-57355795D01*
X80678648Y-57275677D01*
X81137420Y-57156223D01*
X81584414Y-56998290D01*
X81584420Y-56998288D01*
X82016389Y-56803025D01*
X82016411Y-56803014D01*
X82430264Y-56571821D01*
X82430283Y-56571809D01*
X82823039Y-56306353D01*
X83191886Y-56008531D01*
X83268015Y-55935568D01*
X81475628Y-54143181D01*
X81537560Y-54093792D01*
X81779792Y-53851560D01*
X81829181Y-53789628D01*
X83621173Y-55581620D01*
X83847346Y-55324638D01*
X83847360Y-55324621D01*
X84129249Y-54943481D01*
X84377810Y-54539794D01*
X84377820Y-54539774D01*
X84591240Y-54116482D01*
X84591244Y-54116471D01*
X84767995Y-53676612D01*
X84768000Y-53676598D01*
X84906816Y-53223314D01*
X84906818Y-53223306D01*
X85006695Y-52759874D01*
X85066913Y-52289631D01*
X85087032Y-51816006D01*
X85087032Y-51815993D01*
X85066913Y-51342368D01*
X85006695Y-50872125D01*
X84906818Y-50408693D01*
X84906816Y-50408685D01*
X84768000Y-49955401D01*
X84767995Y-49955387D01*
X84591244Y-49515528D01*
X84591240Y-49515517D01*
X84377820Y-49092225D01*
X84377810Y-49092205D01*
X84129249Y-48688518D01*
X83847351Y-48307366D01*
X83847345Y-48307358D01*
X83621173Y-48050378D01*
X81829180Y-49842371D01*
X81779792Y-49780440D01*
X81537560Y-49538208D01*
X81475626Y-49488818D01*
X83268015Y-47696430D01*
X83191879Y-47623462D01*
X83191877Y-47623461D01*
X82823047Y-47325651D01*
X82823046Y-47325650D01*
X82430283Y-47060190D01*
X82430264Y-47060178D01*
X82016411Y-46828985D01*
X82016389Y-46828974D01*
X81584420Y-46633711D01*
X81584414Y-46633709D01*
X81137420Y-46475776D01*
X80678648Y-46356322D01*
X80211402Y-46276204D01*
X80211394Y-46276203D01*
X79739053Y-46236000D01*
X79264946Y-46236000D01*
X78792605Y-46276203D01*
X78792597Y-46276204D01*
X78325351Y-46356322D01*
X77866579Y-46475776D01*
X77419585Y-46633709D01*
X77419579Y-46633711D01*
X76987610Y-46828974D01*
X76987588Y-46828985D01*
X76573735Y-47060178D01*
X76573716Y-47060190D01*
X76180953Y-47325650D01*
X76180952Y-47325651D01*
X75812123Y-47623460D01*
X75812107Y-47623474D01*
X75735984Y-47696431D01*
X77528371Y-49488818D01*
X77466440Y-49538208D01*
X77224208Y-49780440D01*
X77174818Y-49842371D01*
X75382826Y-48050379D01*
X75156648Y-48307366D01*
X75156645Y-48307370D01*
X74874750Y-48688518D01*
X74626189Y-49092205D01*
X74626179Y-49092225D01*
X74412759Y-49515517D01*
X74412755Y-49515528D01*
X74236004Y-49955387D01*
X74235999Y-49955401D01*
X74097183Y-50408685D01*
X74097181Y-50408693D01*
X73997304Y-50872125D01*
X73937086Y-51342368D01*
X73916968Y-51815993D01*
X72898000Y-51815993D01*
X72898000Y-45749998D01*
X124634645Y-45749998D01*
X124634645Y-45750001D01*
X124654039Y-46021160D01*
X124654040Y-46021167D01*
X124709520Y-46276204D01*
X124711825Y-46286801D01*
X124750088Y-46389387D01*
X124806830Y-46541519D01*
X124937109Y-46780107D01*
X124937110Y-46780108D01*
X124937113Y-46780113D01*
X125100029Y-46997742D01*
X125100033Y-46997746D01*
X125100038Y-46997752D01*
X125292247Y-47189961D01*
X125292253Y-47189966D01*
X125292258Y-47189971D01*
X125509887Y-47352887D01*
X125509891Y-47352889D01*
X125509892Y-47352890D01*
X125748481Y-47483169D01*
X125748480Y-47483169D01*
X125748484Y-47483170D01*
X125748487Y-47483172D01*
X126003199Y-47578175D01*
X126268840Y-47635961D01*
X126520605Y-47653967D01*
X126539999Y-47655355D01*
X126540000Y-47655355D01*
X126540001Y-47655355D01*
X126558100Y-47654060D01*
X126811160Y-47635961D01*
X127076801Y-47578175D01*
X127331513Y-47483172D01*
X127331517Y-47483169D01*
X127331519Y-47483169D01*
X127475918Y-47404321D01*
X127570113Y-47352887D01*
X127787742Y-47189971D01*
X127979971Y-46997742D01*
X128142887Y-46780113D01*
X128273172Y-46541513D01*
X128368175Y-46286801D01*
X128425961Y-46021160D01*
X128444060Y-45768100D01*
X128445355Y-45750001D01*
X128445355Y-45749998D01*
X153844645Y-45749998D01*
X153844645Y-45750001D01*
X153864039Y-46021160D01*
X153864040Y-46021167D01*
X153919520Y-46276204D01*
X153921825Y-46286801D01*
X153960088Y-46389387D01*
X154016830Y-46541519D01*
X154147109Y-46780107D01*
X154147110Y-46780108D01*
X154147113Y-46780113D01*
X154310029Y-46997742D01*
X154310033Y-46997746D01*
X154310038Y-46997752D01*
X154502247Y-47189961D01*
X154502253Y-47189966D01*
X154502258Y-47189971D01*
X154719887Y-47352887D01*
X154719891Y-47352889D01*
X154719892Y-47352890D01*
X154958481Y-47483169D01*
X154958480Y-47483169D01*
X154958484Y-47483170D01*
X154958487Y-47483172D01*
X155213199Y-47578175D01*
X155478840Y-47635961D01*
X155730605Y-47653967D01*
X155749999Y-47655355D01*
X155750000Y-47655355D01*
X155750001Y-47655355D01*
X155768100Y-47654060D01*
X156021160Y-47635961D01*
X156286801Y-47578175D01*
X156541513Y-47483172D01*
X156541517Y-47483169D01*
X156541519Y-47483169D01*
X156685918Y-47404321D01*
X156780113Y-47352887D01*
X156997742Y-47189971D01*
X157189971Y-46997742D01*
X157352887Y-46780113D01*
X157483172Y-46541513D01*
X157578175Y-46286801D01*
X157635961Y-46021160D01*
X157654060Y-45768100D01*
X157655355Y-45750001D01*
X157655355Y-45749998D01*
X157646070Y-45620180D01*
X157635961Y-45478840D01*
X157578175Y-45213199D01*
X157483172Y-44958487D01*
X157483170Y-44958484D01*
X157483169Y-44958480D01*
X157352890Y-44719892D01*
X157352889Y-44719891D01*
X157352887Y-44719887D01*
X157189971Y-44502258D01*
X157189966Y-44502253D01*
X157189961Y-44502247D01*
X156997752Y-44310038D01*
X156997746Y-44310033D01*
X156997742Y-44310029D01*
X156780113Y-44147113D01*
X156780108Y-44147110D01*
X156780107Y-44147109D01*
X156541518Y-44016830D01*
X156541519Y-44016830D01*
X156464584Y-43988135D01*
X156286801Y-43921825D01*
X156286794Y-43921823D01*
X156286793Y-43921823D01*
X156021167Y-43864040D01*
X156021160Y-43864039D01*
X155750001Y-43844645D01*
X155749999Y-43844645D01*
X155478839Y-43864039D01*
X155478832Y-43864040D01*
X155213206Y-43921823D01*
X155213202Y-43921824D01*
X155213199Y-43921825D01*
X155085843Y-43969326D01*
X154958480Y-44016830D01*
X154719892Y-44147109D01*
X154719891Y-44147110D01*
X154502259Y-44310028D01*
X154502247Y-44310038D01*
X154310038Y-44502247D01*
X154310028Y-44502259D01*
X154147110Y-44719891D01*
X154147109Y-44719892D01*
X154016830Y-44958480D01*
X153969326Y-45085843D01*
X153921825Y-45213199D01*
X153921824Y-45213202D01*
X153921823Y-45213206D01*
X153864040Y-45478832D01*
X153864039Y-45478839D01*
X153844645Y-45749998D01*
X128445355Y-45749998D01*
X128436070Y-45620180D01*
X128425961Y-45478840D01*
X128368175Y-45213199D01*
X128273172Y-44958487D01*
X128273170Y-44958484D01*
X128273169Y-44958480D01*
X128142890Y-44719892D01*
X128142889Y-44719891D01*
X128142887Y-44719887D01*
X127979971Y-44502258D01*
X127979966Y-44502253D01*
X127979961Y-44502247D01*
X127787752Y-44310038D01*
X127787746Y-44310033D01*
X127787742Y-44310029D01*
X127570113Y-44147113D01*
X127570108Y-44147110D01*
X127570107Y-44147109D01*
X127331518Y-44016830D01*
X127331519Y-44016830D01*
X127254584Y-43988135D01*
X127076801Y-43921825D01*
X127076794Y-43921823D01*
X127076793Y-43921823D01*
X126811167Y-43864040D01*
X126811160Y-43864039D01*
X126540001Y-43844645D01*
X126539999Y-43844645D01*
X126268839Y-43864039D01*
X126268832Y-43864040D01*
X126003206Y-43921823D01*
X126003202Y-43921824D01*
X126003199Y-43921825D01*
X125875843Y-43969326D01*
X125748480Y-44016830D01*
X125509892Y-44147109D01*
X125509891Y-44147110D01*
X125292259Y-44310028D01*
X125292247Y-44310038D01*
X125100038Y-44502247D01*
X125100028Y-44502259D01*
X124937110Y-44719891D01*
X124937109Y-44719892D01*
X124806830Y-44958480D01*
X124759326Y-45085843D01*
X124711825Y-45213199D01*
X124711824Y-45213202D01*
X124711823Y-45213206D01*
X124654040Y-45478832D01*
X124654039Y-45478839D01*
X124634645Y-45749998D01*
X72898000Y-45749998D01*
X72898000Y-33135993D01*
X74170467Y-33135993D01*
X74170467Y-33136006D01*
X74190587Y-33609673D01*
X74250810Y-34079961D01*
X74350696Y-34543432D01*
X74350698Y-34543440D01*
X74489527Y-34996765D01*
X74489529Y-34996770D01*
X74666298Y-35436677D01*
X74666302Y-35436688D01*
X74879741Y-35860018D01*
X74879751Y-35860036D01*
X75128332Y-36263758D01*
X75410256Y-36644944D01*
X75410261Y-36644949D01*
X75410262Y-36644951D01*
X75576732Y-36834098D01*
X75723490Y-37000847D01*
X75761522Y-37037297D01*
X76065788Y-37328913D01*
X76065790Y-37328914D01*
X76434654Y-37626751D01*
X76434655Y-37626752D01*
X76585322Y-37728584D01*
X76827464Y-37892244D01*
X77011423Y-37995009D01*
X77241362Y-38123462D01*
X77241384Y-38123473D01*
X77673391Y-38318752D01*
X77673398Y-38318755D01*
X78120429Y-38476701D01*
X78579244Y-38596167D01*
X79046538Y-38676293D01*
X79192774Y-38688739D01*
X79518924Y-38716499D01*
X79518941Y-38716499D01*
X79518943Y-38716500D01*
X79518944Y-38716500D01*
X79993056Y-38716500D01*
X79993057Y-38716500D01*
X79993058Y-38716499D01*
X79993075Y-38716499D01*
X80274242Y-38692567D01*
X80465462Y-38676293D01*
X80932756Y-38596167D01*
X81391571Y-38476701D01*
X81838602Y-38318755D01*
X82270628Y-38123467D01*
X82684536Y-37892244D01*
X83077343Y-37626753D01*
X83446209Y-37328914D01*
X83446211Y-37328913D01*
X83446215Y-37328908D01*
X83446220Y-37328905D01*
X83788510Y-37000847D01*
X84101744Y-36644944D01*
X84383668Y-36263758D01*
X84632249Y-35860036D01*
X84845697Y-35436688D01*
X85022473Y-34996763D01*
X85161304Y-34543432D01*
X85261190Y-34079960D01*
X85321411Y-33609686D01*
X85341533Y-33136000D01*
X85341533Y-33135993D01*
X109963467Y-33135993D01*
X109963467Y-33136006D01*
X109983587Y-33609673D01*
X110043810Y-34079961D01*
X110143696Y-34543432D01*
X110143698Y-34543440D01*
X110282527Y-34996765D01*
X110282529Y-34996770D01*
X110459298Y-35436677D01*
X110459302Y-35436688D01*
X110672741Y-35860018D01*
X110672751Y-35860036D01*
X110921332Y-36263758D01*
X111203256Y-36644944D01*
X111203261Y-36644949D01*
X111203262Y-36644951D01*
X111369732Y-36834098D01*
X111516490Y-37000847D01*
X111554522Y-37037297D01*
X111858788Y-37328913D01*
X111858790Y-37328914D01*
X112227654Y-37626751D01*
X112227655Y-37626752D01*
X112378322Y-37728584D01*
X112620464Y-37892244D01*
X112804423Y-37995009D01*
X113034362Y-38123462D01*
X113034384Y-38123473D01*
X113466391Y-38318752D01*
X113466398Y-38318755D01*
X113913429Y-38476701D01*
X114372244Y-38596167D01*
X114839538Y-38676293D01*
X114985774Y-38688739D01*
X115311924Y-38716499D01*
X115311941Y-38716499D01*
X115311943Y-38716500D01*
X115311944Y-38716500D01*
X115786056Y-38716500D01*
X115786057Y-38716500D01*
X115786058Y-38716499D01*
X115786075Y-38716499D01*
X116067242Y-38692567D01*
X116258462Y-38676293D01*
X116725756Y-38596167D01*
X117184571Y-38476701D01*
X117631602Y-38318755D01*
X118063628Y-38123467D01*
X118477536Y-37892244D01*
X118870343Y-37626753D01*
X119239209Y-37328914D01*
X119239211Y-37328913D01*
X119239215Y-37328908D01*
X119239220Y-37328905D01*
X119581510Y-37000847D01*
X119894744Y-36644944D01*
X120176668Y-36263758D01*
X120425249Y-35860036D01*
X120637027Y-35440000D01*
X164498618Y-35440000D01*
X164518903Y-35658913D01*
X164579069Y-35870379D01*
X164677063Y-36067176D01*
X164677068Y-36067184D01*
X164714510Y-36116765D01*
X164809558Y-36242629D01*
X164972032Y-36390743D01*
X165046037Y-36436565D01*
X165158229Y-36506032D01*
X165158955Y-36506481D01*
X165363963Y-36585902D01*
X165375786Y-36588112D01*
X165438064Y-36619780D01*
X165473337Y-36680092D01*
X165470403Y-36749900D01*
X165430194Y-36807040D01*
X165375786Y-36831887D01*
X165363963Y-36834098D01*
X165306719Y-36856274D01*
X165158955Y-36913518D01*
X165158953Y-36913519D01*
X164972036Y-37029254D01*
X164972034Y-37029255D01*
X164972032Y-37029257D01*
X164809558Y-37177371D01*
X164809557Y-37177372D01*
X164677068Y-37352815D01*
X164677063Y-37352823D01*
X164579069Y-37549620D01*
X164518903Y-37761086D01*
X164498618Y-37980000D01*
X164518903Y-38198913D01*
X164579069Y-38410379D01*
X164677063Y-38607176D01*
X164677068Y-38607184D01*
X164729257Y-38676293D01*
X164809558Y-38782629D01*
X164972032Y-38930743D01*
X165096647Y-39007901D01*
X165103647Y-39012236D01*
X165158955Y-39046481D01*
X165363963Y-39125902D01*
X165375786Y-39128112D01*
X165438064Y-39159780D01*
X165473337Y-39220092D01*
X165470403Y-39289900D01*
X165430194Y-39347040D01*
X165375786Y-39371887D01*
X165363963Y-39374098D01*
X165306719Y-39396274D01*
X165158955Y-39453518D01*
X165158953Y-39453519D01*
X164972036Y-39569254D01*
X164972034Y-39569255D01*
X164972032Y-39569257D01*
X164810879Y-39716167D01*
X164809557Y-39717372D01*
X164677068Y-39892815D01*
X164677063Y-39892823D01*
X164579069Y-40089620D01*
X164518903Y-40301086D01*
X164498618Y-40520000D01*
X164518903Y-40738913D01*
X164579069Y-40950379D01*
X164677063Y-41147176D01*
X164677068Y-41147184D01*
X164743312Y-41234905D01*
X164809558Y-41322629D01*
X164972032Y-41470743D01*
X165158955Y-41586481D01*
X165363963Y-41665902D01*
X165375786Y-41668112D01*
X165438064Y-41699780D01*
X165473337Y-41760092D01*
X165470403Y-41829900D01*
X165430194Y-41887040D01*
X165375786Y-41911887D01*
X165363963Y-41914098D01*
X165306719Y-41936274D01*
X165158955Y-41993518D01*
X165158953Y-41993519D01*
X164972036Y-42109254D01*
X164972034Y-42109255D01*
X164972032Y-42109257D01*
X164947228Y-42131869D01*
X164809557Y-42257372D01*
X164677068Y-42432815D01*
X164677063Y-42432823D01*
X164579069Y-42629620D01*
X164518903Y-42841086D01*
X164498618Y-43060000D01*
X164518903Y-43278913D01*
X164579069Y-43490379D01*
X164677063Y-43687176D01*
X164677068Y-43687184D01*
X164731792Y-43759650D01*
X164809558Y-43862629D01*
X164972032Y-44010743D01*
X165047484Y-44057461D01*
X165121587Y-44103344D01*
X165158955Y-44126481D01*
X165363963Y-44205902D01*
X165580073Y-44246300D01*
X165580075Y-44246300D01*
X165799925Y-44246300D01*
X165799927Y-44246300D01*
X166016037Y-44205902D01*
X166221045Y-44126481D01*
X166407968Y-44010743D01*
X166570442Y-43862629D01*
X166702933Y-43687182D01*
X166800931Y-43490377D01*
X166861096Y-43278916D01*
X166881382Y-43060000D01*
X166861096Y-42841084D01*
X166800931Y-42629623D01*
X166800930Y-42629620D01*
X166702936Y-42432823D01*
X166702931Y-42432815D01*
X166622516Y-42326329D01*
X166570442Y-42257371D01*
X166407968Y-42109257D01*
X166382901Y-42093736D01*
X166221046Y-41993519D01*
X166221044Y-41993518D01*
X166130524Y-41958450D01*
X166016037Y-41914098D01*
X166016033Y-41914097D01*
X166012285Y-41913396D01*
X166004215Y-41911888D01*
X165941936Y-41880221D01*
X165906662Y-41819909D01*
X165909595Y-41750101D01*
X165949804Y-41692961D01*
X166004214Y-41668111D01*
X166016037Y-41665902D01*
X166221045Y-41586481D01*
X166407968Y-41470743D01*
X166570442Y-41322629D01*
X166702933Y-41147182D01*
X166800931Y-40950377D01*
X166861096Y-40738916D01*
X166881382Y-40520000D01*
X166861096Y-40301084D01*
X166800931Y-40089623D01*
X166800930Y-40089620D01*
X166702936Y-39892823D01*
X166702931Y-39892815D01*
X166660403Y-39836499D01*
X166570442Y-39717371D01*
X166407968Y-39569257D01*
X166382901Y-39553736D01*
X166221046Y-39453519D01*
X166221044Y-39453518D01*
X166130524Y-39418450D01*
X166016037Y-39374098D01*
X166016033Y-39374097D01*
X166012285Y-39373396D01*
X166004215Y-39371888D01*
X165941936Y-39340221D01*
X165906662Y-39279909D01*
X165909595Y-39210101D01*
X165949804Y-39152961D01*
X166004214Y-39128111D01*
X166016037Y-39125902D01*
X166221045Y-39046481D01*
X166407968Y-38930743D01*
X166570442Y-38782629D01*
X166702933Y-38607182D01*
X166800931Y-38410377D01*
X166861096Y-38198916D01*
X166881382Y-37980000D01*
X172118618Y-37980000D01*
X172138903Y-38198913D01*
X172199069Y-38410379D01*
X172297063Y-38607176D01*
X172297068Y-38607184D01*
X172349257Y-38676293D01*
X172429558Y-38782629D01*
X172592032Y-38930743D01*
X172716647Y-39007901D01*
X172723647Y-39012236D01*
X172778955Y-39046481D01*
X172983963Y-39125902D01*
X172995786Y-39128112D01*
X173058064Y-39159780D01*
X173093337Y-39220092D01*
X173090403Y-39289900D01*
X173050194Y-39347040D01*
X172995786Y-39371887D01*
X172983963Y-39374098D01*
X172926719Y-39396274D01*
X172778955Y-39453518D01*
X172778953Y-39453519D01*
X172592036Y-39569254D01*
X172592034Y-39569255D01*
X172592032Y-39569257D01*
X172430879Y-39716167D01*
X172429557Y-39717372D01*
X172297068Y-39892815D01*
X172297063Y-39892823D01*
X172199069Y-40089620D01*
X172138903Y-40301086D01*
X172118618Y-40520000D01*
X172138903Y-40738913D01*
X172199069Y-40950379D01*
X172297063Y-41147176D01*
X172297068Y-41147184D01*
X172363312Y-41234905D01*
X172429558Y-41322629D01*
X172592032Y-41470743D01*
X172778955Y-41586481D01*
X172901808Y-41634075D01*
X172957208Y-41676645D01*
X172980799Y-41742412D01*
X172965088Y-41810493D01*
X172915065Y-41859272D01*
X172857013Y-41873700D01*
X172576330Y-41873700D01*
X172576323Y-41873701D01*
X172516716Y-41880108D01*
X172381871Y-41930402D01*
X172381864Y-41930406D01*
X172266655Y-42016652D01*
X172266652Y-42016655D01*
X172180406Y-42131864D01*
X172180402Y-42131871D01*
X172130108Y-42266717D01*
X172123701Y-42326316D01*
X172123701Y-42326323D01*
X172123700Y-42326335D01*
X172123700Y-43793670D01*
X172123701Y-43793676D01*
X172130108Y-43853283D01*
X172180402Y-43988128D01*
X172180406Y-43988135D01*
X172266652Y-44103344D01*
X172266655Y-44103347D01*
X172381864Y-44189593D01*
X172381871Y-44189597D01*
X172516717Y-44239891D01*
X172516716Y-44239891D01*
X172523644Y-44240635D01*
X172576327Y-44246300D01*
X174043672Y-44246299D01*
X174103283Y-44239891D01*
X174238131Y-44189596D01*
X174353346Y-44103346D01*
X174439596Y-43988131D01*
X174489891Y-43853283D01*
X174496300Y-43793673D01*
X174496299Y-42326328D01*
X174489891Y-42266717D01*
X174486405Y-42257371D01*
X174439597Y-42131871D01*
X174439593Y-42131864D01*
X174353347Y-42016655D01*
X174353344Y-42016652D01*
X174238135Y-41930406D01*
X174238128Y-41930402D01*
X174103282Y-41880108D01*
X174103283Y-41880108D01*
X174043683Y-41873701D01*
X174043681Y-41873700D01*
X174043673Y-41873700D01*
X174043665Y-41873700D01*
X173762988Y-41873700D01*
X173695949Y-41854015D01*
X173650194Y-41801211D01*
X173640250Y-41732053D01*
X173669275Y-41668497D01*
X173718193Y-41634074D01*
X173841045Y-41586481D01*
X174027968Y-41470743D01*
X174190442Y-41322629D01*
X174322933Y-41147182D01*
X174420931Y-40950377D01*
X174481096Y-40738916D01*
X174501382Y-40520000D01*
X174481096Y-40301084D01*
X174420931Y-40089623D01*
X174420930Y-40089620D01*
X174322936Y-39892823D01*
X174322931Y-39892815D01*
X174280403Y-39836499D01*
X174190442Y-39717371D01*
X174027968Y-39569257D01*
X174002901Y-39553736D01*
X173841046Y-39453519D01*
X173841044Y-39453518D01*
X173750524Y-39418450D01*
X173636037Y-39374098D01*
X173636033Y-39374097D01*
X173632285Y-39373396D01*
X173624215Y-39371888D01*
X173561936Y-39340221D01*
X173526662Y-39279909D01*
X173529595Y-39210101D01*
X173569804Y-39152961D01*
X173624214Y-39128111D01*
X173636037Y-39125902D01*
X173841045Y-39046481D01*
X174027968Y-38930743D01*
X174190442Y-38782629D01*
X174322933Y-38607182D01*
X174420931Y-38410377D01*
X174481096Y-38198916D01*
X174501382Y-37980000D01*
X174481096Y-37761084D01*
X174420931Y-37549623D01*
X174420930Y-37549620D01*
X174322936Y-37352823D01*
X174322931Y-37352815D01*
X174288468Y-37307179D01*
X174190442Y-37177371D01*
X174027968Y-37029257D01*
X173948477Y-36980038D01*
X173841046Y-36913519D01*
X173841044Y-36913518D01*
X173750524Y-36878450D01*
X173636037Y-36834098D01*
X173636033Y-36834097D01*
X173636030Y-36834096D01*
X173622852Y-36831633D01*
X173560572Y-36799963D01*
X173525301Y-36739649D01*
X173528237Y-36669841D01*
X173568448Y-36612702D01*
X173622861Y-36587855D01*
X173635899Y-36585418D01*
X173840820Y-36506032D01*
X173840821Y-36506031D01*
X173953012Y-36436565D01*
X173383724Y-35867277D01*
X173476669Y-35842374D01*
X173575131Y-35785526D01*
X173655526Y-35705131D01*
X173712374Y-35606669D01*
X173737278Y-35513724D01*
X174308722Y-36085168D01*
X174308723Y-36085168D01*
X174322505Y-36066920D01*
X174322507Y-36066915D01*
X174420461Y-35870198D01*
X174480603Y-35658819D01*
X174500880Y-35440000D01*
X174500880Y-35439999D01*
X174480603Y-35221180D01*
X174420461Y-35009799D01*
X174420460Y-35009798D01*
X174322511Y-34813088D01*
X174322506Y-34813081D01*
X174308722Y-34794829D01*
X173737277Y-35366274D01*
X173712374Y-35273331D01*
X173655526Y-35174869D01*
X173575131Y-35094474D01*
X173476669Y-35037626D01*
X173383724Y-35012722D01*
X173953012Y-34443433D01*
X173953011Y-34443432D01*
X173840824Y-34373970D01*
X173840818Y-34373967D01*
X173635898Y-34294581D01*
X173429471Y-34255993D01*
X191079467Y-34255993D01*
X191079467Y-34256006D01*
X191099587Y-34729673D01*
X191159810Y-35199961D01*
X191259696Y-35663432D01*
X191259698Y-35663440D01*
X191398527Y-36116765D01*
X191398529Y-36116770D01*
X191575298Y-36556677D01*
X191575302Y-36556688D01*
X191788741Y-36980018D01*
X191788752Y-36980038D01*
X191910255Y-37177371D01*
X192037332Y-37383758D01*
X192319256Y-37764944D01*
X192319261Y-37764949D01*
X192319262Y-37764951D01*
X192632489Y-38120846D01*
X192974788Y-38448913D01*
X192974790Y-38448914D01*
X193343654Y-38746751D01*
X193343655Y-38746752D01*
X193396734Y-38782627D01*
X193736464Y-39012244D01*
X193920423Y-39115009D01*
X194150362Y-39243462D01*
X194150384Y-39243473D01*
X194582391Y-39438752D01*
X194582398Y-39438755D01*
X195029429Y-39596701D01*
X195488244Y-39716167D01*
X195955538Y-39796293D01*
X196101774Y-39808739D01*
X196427924Y-39836499D01*
X196427941Y-39836499D01*
X196427943Y-39836500D01*
X196427944Y-39836500D01*
X196902056Y-39836500D01*
X196902057Y-39836500D01*
X196902058Y-39836499D01*
X196902075Y-39836499D01*
X197183242Y-39812567D01*
X197374462Y-39796293D01*
X197841756Y-39716167D01*
X198300571Y-39596701D01*
X198747602Y-39438755D01*
X199179628Y-39243467D01*
X199593536Y-39012244D01*
X199986343Y-38746753D01*
X200355209Y-38448914D01*
X200355211Y-38448913D01*
X200355215Y-38448908D01*
X200355220Y-38448905D01*
X200697510Y-38120847D01*
X201010744Y-37764944D01*
X201292668Y-37383758D01*
X201541249Y-36980036D01*
X201754697Y-36556688D01*
X201931473Y-36116763D01*
X202070304Y-35663432D01*
X202170190Y-35199960D01*
X202230411Y-34729686D01*
X202234333Y-34637372D01*
X202250533Y-34256006D01*
X202250533Y-34255993D01*
X202230412Y-33782326D01*
X202230411Y-33782320D01*
X202230411Y-33782314D01*
X202170190Y-33312040D01*
X202070304Y-32848568D01*
X201931473Y-32395237D01*
X201754697Y-31955312D01*
X201754697Y-31955311D01*
X201541258Y-31531981D01*
X201541247Y-31531961D01*
X201383171Y-31275229D01*
X201292668Y-31128242D01*
X201010744Y-30747056D01*
X200697510Y-30391153D01*
X200355220Y-30063095D01*
X200355211Y-30063086D01*
X200355209Y-30063085D01*
X199986345Y-29765248D01*
X199986344Y-29765247D01*
X199593546Y-29499763D01*
X199593536Y-29499756D01*
X199582662Y-29493681D01*
X199179637Y-29268537D01*
X199179615Y-29268526D01*
X198747608Y-29073247D01*
X198300566Y-28915297D01*
X197841754Y-28795832D01*
X197374472Y-28715708D01*
X197374446Y-28715705D01*
X196902075Y-28675500D01*
X196902057Y-28675500D01*
X196427943Y-28675500D01*
X196427924Y-28675500D01*
X195955553Y-28715705D01*
X195955527Y-28715708D01*
X195488245Y-28795832D01*
X195029433Y-28915297D01*
X194582391Y-29073247D01*
X194150384Y-29268526D01*
X194150362Y-29268537D01*
X193736472Y-29499751D01*
X193736453Y-29499763D01*
X193343655Y-29765247D01*
X193343654Y-29765248D01*
X192974790Y-30063085D01*
X192974788Y-30063086D01*
X192632489Y-30391153D01*
X192319262Y-30747048D01*
X192037331Y-31128243D01*
X191788752Y-31531961D01*
X191788741Y-31531981D01*
X191575302Y-31955311D01*
X191575298Y-31955322D01*
X191398529Y-32395229D01*
X191398527Y-32395234D01*
X191259698Y-32848559D01*
X191259696Y-32848567D01*
X191159810Y-33312038D01*
X191099587Y-33782326D01*
X191079467Y-34255993D01*
X173429471Y-34255993D01*
X173419879Y-34254200D01*
X173200121Y-34254200D01*
X172984102Y-34294581D01*
X172984101Y-34294581D01*
X172779182Y-34373966D01*
X172666986Y-34443433D01*
X173236275Y-35012721D01*
X173143331Y-35037626D01*
X173044869Y-35094474D01*
X172964474Y-35174869D01*
X172907626Y-35273331D01*
X172882722Y-35366275D01*
X172311276Y-34794829D01*
X172297497Y-34813075D01*
X172297489Y-34813088D01*
X172199538Y-35009801D01*
X172139396Y-35221180D01*
X172119120Y-35439999D01*
X172119120Y-35440000D01*
X172139396Y-35658819D01*
X172199538Y-35870200D01*
X172199539Y-35870201D01*
X172297487Y-36066908D01*
X172297494Y-36066920D01*
X172311275Y-36085168D01*
X172882721Y-35513723D01*
X172907626Y-35606669D01*
X172964474Y-35705131D01*
X173044869Y-35785526D01*
X173143331Y-35842374D01*
X173236275Y-35867278D01*
X172666986Y-36436565D01*
X172666987Y-36436566D01*
X172779175Y-36506030D01*
X172779181Y-36506032D01*
X172984101Y-36585418D01*
X172984106Y-36585419D01*
X172997140Y-36587856D01*
X173059421Y-36619522D01*
X173094696Y-36679833D01*
X173091764Y-36749641D01*
X173051557Y-36806783D01*
X172997148Y-36831633D01*
X172983968Y-36834097D01*
X172983963Y-36834098D01*
X172926719Y-36856274D01*
X172778955Y-36913518D01*
X172778953Y-36913519D01*
X172592036Y-37029254D01*
X172592034Y-37029255D01*
X172592032Y-37029257D01*
X172429558Y-37177371D01*
X172429557Y-37177372D01*
X172297068Y-37352815D01*
X172297063Y-37352823D01*
X172199069Y-37549620D01*
X172138903Y-37761086D01*
X172118618Y-37980000D01*
X166881382Y-37980000D01*
X166861096Y-37761084D01*
X166800931Y-37549623D01*
X166800930Y-37549620D01*
X166702936Y-37352823D01*
X166702931Y-37352815D01*
X166668468Y-37307179D01*
X166570442Y-37177371D01*
X166407968Y-37029257D01*
X166328477Y-36980038D01*
X166221046Y-36913519D01*
X166221044Y-36913518D01*
X166130524Y-36878450D01*
X166016037Y-36834098D01*
X166016033Y-36834097D01*
X166012285Y-36833396D01*
X166004215Y-36831888D01*
X165941936Y-36800221D01*
X165906662Y-36739909D01*
X165909595Y-36670101D01*
X165949804Y-36612961D01*
X166004214Y-36588111D01*
X166016037Y-36585902D01*
X166221045Y-36506481D01*
X166407968Y-36390743D01*
X166570442Y-36242629D01*
X166702933Y-36067182D01*
X166800931Y-35870377D01*
X166861096Y-35658916D01*
X166881382Y-35440000D01*
X166861096Y-35221084D01*
X166800931Y-35009623D01*
X166800930Y-35009620D01*
X166702936Y-34812823D01*
X166702931Y-34812815D01*
X166640145Y-34729673D01*
X166570442Y-34637371D01*
X166407968Y-34489257D01*
X166333960Y-34443433D01*
X166221046Y-34373519D01*
X166221044Y-34373518D01*
X166150282Y-34346105D01*
X166016037Y-34294098D01*
X165799927Y-34253700D01*
X165580073Y-34253700D01*
X165363963Y-34294098D01*
X165306719Y-34316274D01*
X165158955Y-34373518D01*
X165158953Y-34373519D01*
X164972036Y-34489254D01*
X164972034Y-34489255D01*
X164972032Y-34489257D01*
X164912605Y-34543432D01*
X164809557Y-34637372D01*
X164677068Y-34812815D01*
X164677063Y-34812823D01*
X164579069Y-35009620D01*
X164518903Y-35221086D01*
X164498618Y-35440000D01*
X120637027Y-35440000D01*
X120638697Y-35436688D01*
X120815473Y-34996763D01*
X120954304Y-34543432D01*
X121054190Y-34079960D01*
X121114411Y-33609686D01*
X121134533Y-33136000D01*
X121114411Y-32662314D01*
X121054190Y-32192040D01*
X120954304Y-31728568D01*
X120815473Y-31275237D01*
X120638697Y-30835312D01*
X120638697Y-30835311D01*
X120425258Y-30411981D01*
X120425247Y-30411961D01*
X120210442Y-30063095D01*
X120176668Y-30008242D01*
X119894744Y-29627056D01*
X119581510Y-29271153D01*
X119578769Y-29268526D01*
X119239211Y-28943086D01*
X119239209Y-28943085D01*
X118870345Y-28645248D01*
X118870344Y-28645247D01*
X118477546Y-28379763D01*
X118477536Y-28379756D01*
X118466662Y-28373681D01*
X118063637Y-28148537D01*
X118063615Y-28148526D01*
X117631608Y-27953247D01*
X117184566Y-27795297D01*
X116725754Y-27675832D01*
X116258472Y-27595708D01*
X116258446Y-27595705D01*
X115786075Y-27555500D01*
X115786057Y-27555500D01*
X115311943Y-27555500D01*
X115311924Y-27555500D01*
X114839553Y-27595705D01*
X114839527Y-27595708D01*
X114372245Y-27675832D01*
X113913433Y-27795297D01*
X113466391Y-27953247D01*
X113034384Y-28148526D01*
X113034362Y-28148537D01*
X112620472Y-28379751D01*
X112620453Y-28379763D01*
X112227655Y-28645247D01*
X112227654Y-28645248D01*
X111858790Y-28943085D01*
X111858788Y-28943086D01*
X111516489Y-29271153D01*
X111203262Y-29627048D01*
X110921331Y-30008243D01*
X110672752Y-30411961D01*
X110672741Y-30411981D01*
X110459302Y-30835311D01*
X110459298Y-30835322D01*
X110282529Y-31275229D01*
X110282527Y-31275234D01*
X110143698Y-31728559D01*
X110143696Y-31728567D01*
X110043810Y-32192038D01*
X109983587Y-32662326D01*
X109963467Y-33135993D01*
X85341533Y-33135993D01*
X85321411Y-32662314D01*
X85261190Y-32192040D01*
X85161304Y-31728568D01*
X85022473Y-31275237D01*
X84845697Y-30835312D01*
X84845697Y-30835311D01*
X84632258Y-30411981D01*
X84632247Y-30411961D01*
X84417442Y-30063095D01*
X84383668Y-30008242D01*
X84101744Y-29627056D01*
X83788510Y-29271153D01*
X83785769Y-29268526D01*
X83446211Y-28943086D01*
X83446209Y-28943085D01*
X83077345Y-28645248D01*
X83077344Y-28645247D01*
X82684546Y-28379763D01*
X82684536Y-28379756D01*
X82673662Y-28373681D01*
X82270637Y-28148537D01*
X82270615Y-28148526D01*
X81838608Y-27953247D01*
X81391566Y-27795297D01*
X80932754Y-27675832D01*
X80465472Y-27595708D01*
X80465446Y-27595705D01*
X79993075Y-27555500D01*
X79993057Y-27555500D01*
X79518943Y-27555500D01*
X79518924Y-27555500D01*
X79046553Y-27595705D01*
X79046527Y-27595708D01*
X78579245Y-27675832D01*
X78120433Y-27795297D01*
X77673391Y-27953247D01*
X77241384Y-28148526D01*
X77241362Y-28148537D01*
X76827472Y-28379751D01*
X76827453Y-28379763D01*
X76434655Y-28645247D01*
X76434654Y-28645248D01*
X76065790Y-28943085D01*
X76065788Y-28943086D01*
X75723489Y-29271153D01*
X75410262Y-29627048D01*
X75128331Y-30008243D01*
X74879752Y-30411961D01*
X74879741Y-30411981D01*
X74666302Y-30835311D01*
X74666298Y-30835322D01*
X74489529Y-31275229D01*
X74489527Y-31275234D01*
X74350698Y-31728559D01*
X74350696Y-31728567D01*
X74250810Y-32192038D01*
X74190587Y-32662326D01*
X74170467Y-33135993D01*
X72898000Y-33135993D01*
X72898000Y-30451362D01*
X72917685Y-30384323D01*
X72934319Y-30363681D01*
X77861681Y-25436319D01*
X77923004Y-25402834D01*
X77949362Y-25400000D01*
X198148638Y-25400000D01*
X198215677Y-25419685D01*
G37*
%TD.AperFunction*%
%TD*%
M02*
